<?xml version="1.0" encoding="UTF-8" standalone="no"?>
<svg xmlns:dc="http://purl.org/dc/elements/1.1/" xmlns:cc="http://creativecommons.org/ns#" xmlns:rdf="http://www.w3.org/1999/02/22-rdf-syntax-ns#" xmlns:svg="http://www.w3.org/2000/svg" xmlns="http://www.w3.org/2000/svg" xmlns:sodipodi="http://sodipodi.sourceforge.net/DTD/sodipodi-0.dtd" xmlns:inkscape="http://www.inkscape.org/namespaces/inkscape" version="1.1" width="779.16699" height="115.112" viewBox="0 0 779.167 115.112" id="Logo-SHERLOCK" xml:space="preserve"><metadata id="metadata23"/><defs id="defs21"/>
<path d="M 0,99.384999 C 9.301,108.507 23.522,114.847 39.706,114.587 c 20.21,-0.325 34.342,-15.015001 34.342,-31.300001 0,-36.308 -49.903,-28.52 -49.903,-50.259 0,-6.261 6.595,-11.625 15.383,-11.625 6.125,0 16.992,4.471 22,9.121 l 10.016,-16.276 C 58.647,4.868 50.554,2.801 37.381,2.801 17.098,2.801 2.682,17.758999 2.682,34.816999 c 0,32.909 51.333,30.049 51.333,48.471 10e-4,7.162 -6.989,11.312 -16.098,11.442 -8.352,0.12 -18.487,-3.139 -26.65,-10.548 z" id="path3" style="fill:#ffffff"/>
<polygon points="110.998,49.354 110.998,4.999 90.659,4.999 90.659,112.263 110.998,112.263 110.998,66.219 157.786,66.219 157.786,112.263 178.125,112.263 178.125,4.999 157.786,4.999 157.786,49.354 " id="polygon5" style="fill:#ffffff"/>
<polygon points="257.505,49.354 221.77,49.354 221.77,22.646 266.607,22.646 266.607,4.999 201.433,4.999 201.433,112.264 268.883,112.264 268.883,94.618 221.77,94.618 221.77,66.219 257.505,66.219 " id="polygon7" style="fill:#ffffff"/>
<path d="M 346.083,112.265 325.048,70.859999 H 308.58 V 112.262 H 288.24 V 5.002 c 0,0 38.761,0 38.951,0 22.375,0 35.521,14.019999 35.521,32.889999 0,12.651 -7.529,23.566 -17.733,29.099 L 370.94,112.265 Z M 323.5,54.590999 c 10.514,0 17.855,-6.407 17.855,-16.699 0,-10.086 -6.704,-15.76 -17.68,-15.76 H 308.58 v 32.459 c 0,0 8.619,0 14.92,0 z" id="path9" style="fill:#ffffff"/>
<polygon points="448.925,112.263 448.925,94.618 407.756,94.618 403.929,94.618 403.929,4.999 383.588,4.999 383.588,112.263 " id="polygon11" style="fill:#ffffff"/>
<path d="M 453.952,57.556999 C 453.959,25.764999 479.716,0.008 511.508,0 v 0 c 31.79,0.008 57.547,25.764999 57.555,57.556999 v 0 c -0.008,31.789 -25.765,57.549001 -57.555,57.555001 v 0 C 479.716,115.105 453.957,89.345999 453.952,57.556999 Z m 20.631,0 c 0.04,20.388 16.536,36.885 36.925,36.923 v 0 c 20.385,-0.038 36.885,-16.535 36.922,-36.923 v 0 c -0.037,-20.388 -16.537,-36.888 -36.922,-36.923 v 0 c -20.388,0.035 -36.884,16.534 -36.925,36.923 z" id="path13" style="fill:#ffffff"/>
<path d="m 638.598,94.477999 c -20.389,0 -36.887,-16.535 -36.925,-36.921 0.038,-20.388 16.536,-36.923 36.925,-36.923 15.104,0 27.642,8.322 34.311,18.975 v -28.261 C 663.33,4.223 651.458,0.003 638.598,0 606.806,0.006 581.05,25.763999 581.04,57.555999 c 0.007,31.789 25.766,57.548001 57.558,57.553001 12.86,-0.002 24.731,-4.222 34.311,-11.346 V 75.811999 c -6.868,10.967 -20.314,18.666 -34.311,18.666 z" id="path15" style="fill:#ffffff"/>
<polygon points="692.885,112.263 713.225,112.263 713.225,69.811 749.759,112.263 779.167,112.263 726.176,55.157 776.367,5.002 748.007,5.002 713.225,42.274 713.225,4.999 692.885,4.999 " id="polygon17" style="fill:#ffffff"/>
</svg>
