<?xml version="1.0" encoding="UTF-8"?>
<svg xmlns="http://www.w3.org/2000/svg" id="Layer_1" data-name="Layer 1" width="2000" height="500" version="1.1" viewBox="0 0 2000 500">
  <defs>
    <style>
      .cls-1 {
        fill: #000;
        stroke-width: 0px;
      }
    </style>
  </defs>
  <g id="ALIEN:_ROMULUS">
    <g id="ROMULUS">
      <path class="cls-1" d="M259.2,347.5h30.3c7,0,12.2,1.5,15.7,4.5,3.5,3,5.2,7.2,5.2,12.6s-.4,5.5-1.3,7.5c-.9,2-1.9,3.6-3.1,4.8-1.2,1.2-2.4,2.1-3.5,2.6-1.2.5-2,.9-2.5,1.1v.2c.9.1,2,.4,3.1.9,1.1.5,2.1,1.2,3.1,2.3.9,1,1.7,2.4,2.4,4,.6,1.7.9,3.7.9,6.2,0,3.7.3,7.1.8,10.2.6,3.1,1.4,5.2,2.6,6.5h-11.9c-.8-1.4-1.3-2.9-1.5-4.5-.1-1.7-.2-3.3-.2-4.8,0-2.9-.2-5.4-.5-7.5-.4-2.1-1-3.8-2-5.2-.9-1.4-2.2-2.4-3.9-3.1-1.6-.7-3.7-1-6.3-1h-16.3v26.1h-11.1v-63.4ZM270.3,376.4h18.2c3.6,0,6.2-.8,8.1-2.5,1.8-1.7,2.8-4.2,2.8-7.6s-.3-3.7-.9-4.9c-.6-1.3-1.4-2.3-2.4-3-1-.7-2.2-1.2-3.6-1.4-1.3-.2-2.7-.4-4.1-.4h-18v19.8Z"/>
      <path class="cls-1" d="M521.2,346c4.7,0,9,.9,12.7,2.7,3.8,1.8,6.9,4.2,9.5,7.2,2.6,3,4.6,6.5,6,10.6,1.4,4,2.1,8.3,2.1,12.8s-.7,8.9-2.1,12.9c-1.4,4-3.4,7.6-6,10.6-2.6,3-5.8,5.4-9.5,7.2-3.8,1.7-8,2.6-12.7,2.6s-9-.9-12.7-2.6c-3.8-1.7-6.9-4.1-9.5-7.2-2.6-3-4.6-6.5-6-10.6-1.4-4-2.1-8.3-2.1-12.9s.7-8.8,2.1-12.8c1.4-4,3.4-7.6,6-10.6,2.6-3,5.8-5.4,9.5-7.2,3.8-1.8,8-2.7,12.7-2.7ZM521.2,355.1c-3.4,0-6.3.7-8.8,2-2.5,1.4-4.5,3.2-6,5.5-1.5,2.3-2.7,4.9-3.4,7.8-.7,2.9-1.1,5.9-1.1,8.9s.4,6,1.1,8.9c.7,2.9,1.9,5.5,3.4,7.8,1.5,2.3,3.5,4.1,6,5.5,2.5,1.4,5.4,2,8.8,2s6.3-.7,8.8-2c2.5-1.4,4.5-3.2,6-5.5,1.5-2.3,2.7-4.9,3.4-7.8.7-2.9,1.1-5.9,1.1-8.9s-.4-6-1.1-8.9c-.7-2.9-1.9-5.5-3.4-7.8-1.5-2.3-3.5-4.1-6-5.5-2.5-1.4-5.4-2-8.8-2Z"/>
      <path class="cls-1" d="M729.4,347.5h15.6l17.5,49.7h.2l17.1-49.7h15.5v63.4h-10.6v-48.9h-.2l-17.6,48.9h-9.2l-17.6-48.9h-.2v48.9h-10.6v-63.4Z"/>
      <path class="cls-1" d="M973.1,347.5h11.1v37c0,2.1.1,4.3.3,6.5.2,2.2.8,4.2,1.8,5.9,1,1.7,2.5,3.2,4.4,4.3,2,1.1,4.8,1.7,8.4,1.7s6.4-.6,8.4-1.7c2-1.1,3.5-2.6,4.4-4.3,1-1.7,1.6-3.7,1.8-5.9.2-2.2.3-4.4.3-6.5v-37h11.1v40.6c0,4.1-.6,7.6-1.9,10.7-1.2,3-3,5.6-5.3,7.6-2.3,2-5,3.6-8.2,4.6-3.2,1-6.8,1.5-10.7,1.5s-7.5-.5-10.7-1.5c-3.2-1-5.9-2.5-8.2-4.6-2.3-2-4-4.6-5.3-7.6-1.2-3-1.9-6.6-1.9-10.7v-40.6Z"/>
      <path class="cls-1" d="M1203.1,347.5h11.1v53.8h32.2v9.6h-43.4v-63.4Z"/>
      <path class="cls-1" d="M1424.3,347.5h11.1v37c0,2.1.1,4.3.3,6.5.2,2.2.8,4.2,1.8,5.9,1,1.7,2.5,3.2,4.4,4.3,2,1.1,4.8,1.7,8.4,1.7s6.4-.6,8.4-1.7c2-1.1,3.5-2.6,4.4-4.3,1-1.7,1.6-3.7,1.8-5.9.2-2.2.3-4.4.3-6.5v-37h11.1v40.6c0,4.1-.6,7.6-1.9,10.7-1.2,3-3,5.6-5.3,7.6-2.3,2-5,3.6-8.2,4.6s-6.8,1.5-10.7,1.5-7.5-.5-10.7-1.5-5.9-2.5-8.2-4.6c-2.3-2-4-4.6-5.3-7.6-1.2-3-1.9-6.6-1.9-10.7v-40.6Z"/>
      <path class="cls-1" d="M1665.3,389.8c0,2.4.4,4.5,1.2,6.2.8,1.7,2,3.1,3.5,4.2,1.5,1.1,3.2,1.9,5.1,2.4,1.9.5,4,.8,6.3.8s4.5-.3,6.2-.8c1.7-.6,3.1-1.3,4.2-2.2,1.1-.9,1.8-1.9,2.3-3.1.5-1.2.7-2.3.7-3.5,0-2.4-.5-4.2-1.6-5.4-1.1-1.2-2.3-2-3.6-2.4-2.3-.8-4.9-1.6-7.9-2.4-3-.7-6.7-1.7-11.1-2.9-2.7-.7-5-1.6-6.8-2.8-1.8-1.2-3.2-2.4-4.3-3.9-1.1-1.4-1.8-2.9-2.3-4.5-.4-1.6-.7-3.2-.7-4.9,0-3.2.7-6,2-8.3,1.3-2.3,3.1-4.3,5.3-5.8,2.2-1.5,4.7-2.7,7.5-3.4,2.8-.7,5.6-1.1,8.4-1.1s6.4.4,9.4,1.3c2.9.9,5.5,2.1,7.7,3.9,2.2,1.7,4,3.8,5.3,6.4,1.3,2.5,2,5.4,2,8.8h-11.1c-.3-4.1-1.7-7-4.2-8.7-2.5-1.7-5.7-2.5-9.5-2.5s-2.6.1-4,.4c-1.4.3-2.6.7-3.7,1.3-1.1.6-2.1,1.5-2.8,2.5-.7,1.1-1.1,2.4-1.1,4s.7,4,2.1,5.3c1.4,1.3,3.2,2.2,5.5,2.9.2,0,1.2.3,2.8.8,1.6.4,3.4.9,5.5,1.5,2,.5,4,1.1,5.9,1.6,1.9.5,3.3.9,4.1,1.1,2.1.7,3.9,1.5,5.4,2.7,1.5,1.1,2.8,2.4,3.9,3.9,1,1.5,1.8,3,2.3,4.7.5,1.7.8,3.3.8,5,0,3.6-.7,6.6-2.2,9.1-1.5,2.5-3.4,4.6-5.7,6.2-2.4,1.6-5.1,2.8-8.1,3.5-3,.7-6.1,1.1-9.2,1.1s-7-.4-10.2-1.3c-3.2-.9-6-2.3-8.4-4.1-2.4-1.8-4.3-4.2-5.7-7.1-1.4-2.9-2.2-6.3-2.2-10.2h11.1Z"/>
    </g>
    <g id="ALIEN">
      <path class="cls-1" d="M132.2,87.5h46.8l59,157.9h-48.8l-8.5-23.9h-53.2l-6.9,23.9h-45.7l57.2-157.9ZM137.9,189.9h32.5l-9.9-30.8c-2.4-7.7-5.9-20.2-5.9-20.2h-.4s-3.3,12.5-5.9,20.2l-10.3,30.8Z"/>
      <path class="cls-1" d="M543.6,87.5h47.6v117.8h71.3v40.1h-118.8V87.5Z"/>
      <path class="cls-1" d="M975.8,87.5h48.9v157.8h-48.9V87.5Z"/>
      <polygon class="cls-1" points="1782.6 87.6 1782.6 245.4 1828.7 245.4 1828.7 156.2 1878.9 245.4 1925 245.4 1925 87.6 1878.9 87.6 1878.9 168.5 1833.3 87.6 1782.6 87.6"/>
      <path class="cls-1" d="M1344,87.5h131.7v41.3h-82.9v18.8h75.3v37.6h-75.3v18.9h85.4v41.2h-134.2V87.5Z"/>
    </g>
  </g>
</svg>
