<?xml version="1.0"?>
<svg xmlns="http://www.w3.org/2000/svg" width="2000" height="187.2" xml:space="preserve">
  <style>.st0{fill:#fff}</style>
  <path class="st0" d="M37.1 6.6h20.6v180.6H37.1zM200.4.8H221v186.4h-20.6zm78.4 0h20.6v186.4h-20.6zm1235.4 48.8v137.6h-19.8V.8h15.7l62.7 134.6V.8h19.8v186.4h-14.9z"/>
  <path class="st0" d="M0 .8h94v14H0zm216.1 81.7h63.5v14.8h-63.5zm223.5 90.7V99h51.1V84.9h-51.1V14.8h55.2V.8H419v186.4h77.5v-14zm284.5 0V99h51.2V84.9h-51.2V14.8h55.3V.8h-75.9v186.4H781v-14zm1219 0V99h51.1V84.9h-51.1V14.8h55.3V.8h-75.9v186.4h77.5v-14zM883.3.8l40.4 90.7-43.7 95.7h22.3L946 91.5 906.4.8zm132 0-40.5 90.7 43.8 95.7h-22.3l-43.7-95.7L992.2.8zm166.6 0h-85.8v186.4h20.6V99h65.2c6.8 0 12.4-5.5 12.4-12.4V13.2c-.1-6.8-5.6-12.4-12.4-12.4zm-8.3 84.1h-56.9V14.8h56.9v70.1zm158.8-55.2 31.7 157.5h21.5L1342.7 0h-19.8L1280 187.2h19.8zm471.3 27.2V13.8c0-7.2-5.8-12.9-12.9-12.9h-67.3c-7.2 0-13 5.8-13 13v36.7c0 5.7 2.3 11.1 6.4 15l66.2 63.2v43.7h-52V127h-20.6v46.6c0 7.5 6.1 13.6 13.6 13.6h66.3c7.3 0 13.3-5.9 13.3-13.3v-43.2c0-5.6-2.3-10.9-6.3-14.7l-66.2-62.5V14.8h52v42.1h20.5z"/>
</svg>
