<?xml version="1.0" encoding="UTF-8" standalone="no"?>
<svg xmlns:dc="http://purl.org/dc/elements/1.1/" xmlns:cc="http://creativecommons.org/ns#" xmlns:rdf="http://www.w3.org/1999/02/22-rdf-syntax-ns#" xmlns:svg="http://www.w3.org/2000/svg" xmlns="http://www.w3.org/2000/svg" xmlns:sodipodi="http://sodipodi.sourceforge.net/DTD/sodipodi-0.dtd" xmlns:inkscape="http://www.inkscape.org/namespaces/inkscape" version="1.1" id="svg2" viewBox="0 0 853.33255 94.360353" height="26.630589mm" width="240.82941mm">
  
  <defs id="defs4">
    <filter id="filter3695" style="color-interpolation-filters:sRGB">
      <feGaussianBlur id="feGaussianBlur3697" stdDeviation="10" result="result6" in="SourceGraphic"/>
      <feComposite id="feComposite3699" operator="xor" in="result6" in2="SourceGraphic"/>
      <feGaussianBlur id="feGaussianBlur3701" stdDeviation="10" result="result2"/>
      <feComposite id="feComposite3703" result="result91" operator="atop" in2="SourceGraphic"/>
      <feComposite id="feComposite3705" in2="result91" operator="xor" in="result2" result="result4"/>
      <feGaussianBlur id="feGaussianBlur3707" stdDeviation="5" result="result3" in="result4"/>
      <feSpecularLighting id="feSpecularLighting3709" surfaceScale="12" specularConstant="3" specularExponent="35" result="result5" in="result3" lighting-color="#ffffff">
        <feDistantLight id="feDistantLight3711" azimuth="235" elevation="45"/>
      </feSpecularLighting>
      <feComposite id="feComposite3713" result="result7" operator="arithmetic" k2="0.8" k3="0.7" in="SourceGraphic" in2="result5" k1="0" k4="0"/>
      <feComposite id="feComposite3715" in2="SourceGraphic" operator="in" in="result7"/>
    </filter>
    <clipPath clipPathUnits="userSpaceOnUse" id="clipPath145">
      <g id="use147">
        <path d="m 87.500007,31.770838 q -2.083339,-4.6224 -4.101568,-8.072917 -2.01823,-3.515627 -5.27344,-7.29167 -3.2552,-3.776043 -6.966145,-6.184896 Q 67.447921,7.8125016 62.044273,6.2500055 56.640625,4.6874988 50.130214,4.6874988 q -7.031254,0 -12.760417,2.8645868 -5.729171,2.8645864 -9.440109,7.4869764 -3.645832,4.6224 -6.184895,10.742187 -2.473958,6.054688 -3.515625,12.239584 -1.041667,6.119798 -1.041667,12.434902 0,6.249995 1.106771,12.434891 1.106771,6.119797 3.645833,12.174486 2.604167,6.054688 6.380208,10.611979 3.776042,4.55729 9.505207,7.421867 5.794272,2.799488 12.825526,2.799488 14.322912,0 19.921878,-6.380214 V 63.085943 q 0,-1.367189 -1.106774,-2.408853 -1.106773,-1.106773 -2.539061,-1.692715 -1.432299,-0.585931 -3.841152,-1.041664 -2.343744,-0.520832 -3.841142,-0.716149 -1.497397,-0.195307 -3.776042,-0.390624 -0.260416,-1.041664 -0.260416,-1.562496 0,-0.455734 0.260416,-1.497398 14.713536,0.520832 22.656246,0.520832 8.072917,0 22.656261,-0.520832 0.32551,1.30208 0.32551,1.497398 0,0.260416 -0.32551,1.562496 -2.27865,0.195317 -3.776047,0.390624 -1.497398,0.195317 -3.906251,0.716149 -2.343755,0.455733 -3.776043,1.041664 -1.367189,0.585942 -2.473963,1.692715 -1.106762,1.041664 -1.106762,2.408853 v 9.635414 q 0,12.369792 2.929685,20.247393 -10.742187,3.97136 -19.075521,5.794272 -8.333333,1.822918 -18.945312,1.822918 -6.315104,0 -12.695318,-1.302086 Q 31.575522,97.981774 24.544272,94.401048 17.578126,90.820312 12.239584,85.416675 6.9661464,80.013027 3.4505217,70.963544 0,61.914061 0,50.455735 0,42.1875 1.7578134,35.156257 3.5807297,28.059894 6.5755213,22.981771 9.5703128,17.903649 13.671876,13.86719 17.838542,9.830731 22.33073,7.2916696 26.822918,4.7526081 31.770835,3.1250028 36.783856,1.432288 41.276048,0.78124802 45.76823,0.06510934 50.130214,0.06510934 q 7.291659,0 13.867179,0.91145602 6.640629,0.84635734 13.21615,2.14843744 6.57552,1.2369813 10.416672,1.692704 -0.976565,2.9296854 -0.976565,8.2682352 0,8.854165 3.190101,17.252598 -0.390624,1.171882 -2.343744,1.432298 z" style="font-style:normal;font-variant:normal;font-weight:normal;font-stretch:normal;font-size:125px;line-height:125%;font-family:'Jacques Francois';-inkscape-font-specification:'Jacques Francois';letter-spacing:0px;word-spacing:0px;fill:#554400;fill-opacity:1;stroke:none;stroke-width:1.06667px;stroke-linecap:butt;stroke-linejoin:miter;stroke-opacity:1;filter:url(#filter3695)" id="path657" transform="matrix(0.9375,0,0,0.9375,213.40632,155.45787)"/>
        <path d="m 109.4401,2.2135467 q 14.58334,0.5208321 22.65626,0.5208321 8.07292,0 22.65625,-0.5208321 0.26041,1.0416641 0.26041,1.4322881 0,0.4557333 -0.26041,1.6276054 -2.99479,0.260416 -4.88281,0.5859413 -1.82292,0.260416 -4.55729,0.911456 -2.66928,0.6510401 -4.10157,1.8880214 -1.43229,1.1718721 -1.4974,2.8645761 -0.84635,22.135425 -0.84635,41.210945 0,9.830731 0.71615,41.210935 h 20.11718 q 9.57032,-0.65104 17.1224,-2.799477 7.55209,-2.148438 12.56511,-5.468747 5.07812,-3.385419 8.33334,-6.966145 3.3203,-3.645834 5.72916,-8.138026 1.6927,0.65104 2.21353,1.757813 -2.66927,4.947915 -4.16666,8.007808 -1.43229,3.059904 -3.1901,8.072918 -1.69271,4.947925 -2.21354,9.505216 h -56.51042 q -17.64324,0 -30.27344,0.390624 -0.26042,-0.781248 -0.26042,-1.302091 0,-0.455722 0.26042,-1.757813 2.99479,-0.260416 4.81771,-0.520832 1.88801,-0.325515 4.55729,-0.976555 2.73437,-0.65105 4.16667,-1.822922 1.43229,-1.236982 1.49739,-2.929686 0.78126,-20.377601 0.78126,-41.080727 0,-21.093749 -0.65104,-36.393238 -0.0651,-1.692704 -1.4974,-2.8645761 -1.4323,-1.2369813 -4.16667,-1.8880214 -2.66927,-0.65104 -4.55729,-0.911456 -1.82292,-0.3255253 -4.81772,-0.5859413 -0.26041,-1.1718721 -0.26041,-1.6276054 0,-0.65104 0.26041,-1.4322881 z" style="font-style:normal;font-variant:normal;font-weight:normal;font-stretch:normal;font-size:125px;line-height:125%;font-family:'Jacques Francois';-inkscape-font-specification:'Jacques Francois';letter-spacing:0px;word-spacing:0px;fill:#554400;fill-opacity:1;stroke:none;stroke-width:1.06667px;stroke-linecap:butt;stroke-linejoin:miter;stroke-opacity:1;filter:url(#filter3695)" id="path659" transform="matrix(0.9375,0,0,0.9375,213.40632,155.45787)"/>
        <path d="m 259.76563,1.2369814 q 0.97657,-0.71614938 2.08333,-0.91145606 L 297.46095,89.257816 q 0.65104,1.627606 2.14844,2.799478 1.49739,1.106773 3.71093,1.757813 2.27865,0.585941 3.90625,0.911456 1.69271,0.260416 4.10156,0.520832 0.26042,1.041675 0.26042,1.757813 0,0.781259 -0.26042,1.432299 -14.0625,-0.520832 -21.02864,-0.520832 -7.55208,0 -21.875,0.520832 -0.26042,-0.781248 -0.26042,-1.562507 0,-0.846346 0.26042,-1.627605 13.15104,-1.432288 13.15104,-4.947915 0,-1.106763 -0.26041,-2.278645 l -9.44011,-24.218753 q -4.29687,-0.130208 -11.58854,-0.130208 -3.45052,0 -17.90365,0.260416 l -9.96094,25.325526 v 0.781248 q 0,0.65104 0.19532,1.236982 0.26041,0.585941 0.78124,1.041664 0.58594,0.455733 1.10678,0.781248 0.52083,0.325525 1.43228,0.65105 0.97657,0.260416 1.62761,0.455723 0.71615,0.130208 1.88802,0.325525 1.23698,0.195307 1.88802,0.325515 0.65104,0.06507 1.88802,0.195317 1.30208,0.130208 1.82292,0.195307 0.26042,1.041675 0.26042,1.757813 0,0.390635 -0.26042,1.432299 -14.58333,-0.520832 -16.40624,-0.520832 -3.51563,0 -18.09897,0.520832 -0.26042,-0.781248 -0.26042,-1.562507 0,-0.846346 0.26042,-1.627605 13.54166,-1.562496 15.42969,-6.640619 l 27.99479,-70.572919 -1.43229,-3.841142 q 3.71094,-2.473963 5.14322,-5.3385494 1.4974,-2.8645761 2.08334,-7.6171842 z m 0.52084,57.3567696 q 5.98959,0 9.4401,-0.130208 L 257.35678,26.432289 h -0.26042 l -12.4349,31.901046 q 6.1198,0.260416 15.62501,0.260416 z" style="font-style:normal;font-variant:normal;font-weight:normal;font-stretch:normal;font-size:125px;line-height:125%;font-family:'Jacques Francois';-inkscape-font-specification:'Jacques Francois';letter-spacing:0px;word-spacing:0px;fill:#554400;fill-opacity:1;stroke:none;stroke-width:1.06667px;stroke-linecap:butt;stroke-linejoin:miter;stroke-opacity:1;filter:url(#filter3695)" id="path661" transform="matrix(0.9375,0,0,0.9375,213.40632,155.45787)"/>
        <path d="m 319.33595,2.2135467 q 14.58333,0.5208321 23.30729,0.5208321 16.27604,-0.5208321 19.98698,-0.5208321 6.05469,0 11.39323,0.5208321 5.33854,0.520832 11.0026,1.95312 5.72917,1.3671894 10.35157,3.6458348 4.6224,2.2135464 8.85416,5.9244804 4.23178,3.710933 7.09635,8.593749 2.86459,4.882817 4.5573,11.783851 1.69271,6.835947 1.69271,15.169281 -0.52083,8.007808 -2.79948,14.713536 -2.21354,6.705729 -5.72917,11.588545 -3.45052,4.882816 -8.20313,8.723957 -4.75259,3.841142 -9.96094,6.249995 -5.14322,2.408864 -11.19791,3.97136 -5.98958,1.562496 -11.71875,2.213536 -5.66406,0.651051 -11.71875,0.651051 -24.41406,0 -37.04427,0.390624 -0.26041,-0.781248 -0.26041,-1.302091 0,-0.455722 0.26041,-1.757813 1.95312,-0.195307 3.12499,-0.325515 1.17189,-0.130208 3.19012,-0.455733 2.08332,-0.325515 3.32031,-0.716139 1.30208,-0.455733 2.66927,-1.106773 1.36718,-0.65104 2.01822,-1.562507 0.71615,-0.911456 0.71615,-2.083328 0.78125,-20.377601 0.78125,-41.080727 0,-21.093749 -0.65104,-36.393238 -0.0651,-1.692704 -1.4974,-2.8645761 -1.43228,-1.2369813 -4.16666,-1.8880214 -2.66927,-0.65104 -4.55729,-0.911456 -1.82293,-0.3255253 -4.81771,-0.5859413 -0.26042,-1.1718721 -0.26042,-1.6276054 0,-0.390624 0.26042,-1.4322881 z m 30.27344,9.3098883 q -0.84636,22.135425 -0.84636,41.210945 0,10.54687 0.71615,40.364578 2.79948,0.130218 8.00781,0.130218 10.54687,0 18.75,-3.190112 8.20312,-3.255211 13.47656,-9.049472 5.27344,-5.794272 7.94271,-13.671883 2.73438,-7.94271 2.73438,-17.513014 0,-4.947926 -0.78125,-9.700523 -0.78126,-4.752608 -2.47396,-9.700523 -1.6927,-4.947915 -4.6875,-9.114582 -2.99479,-4.166666 -7.16146,-7.421877 -4.10156,-3.32031 -10.15625,-5.1432324 -5.98959,-1.8880214 -13.28126,-1.8880214 -6.70572,0 -12.23957,0.8463574 z" style="font-style:normal;font-variant:normal;font-weight:normal;font-stretch:normal;font-size:125px;line-height:125%;font-family:'Jacques Francois';-inkscape-font-specification:'Jacques Francois';letter-spacing:0px;word-spacing:0px;fill:#554400;fill-opacity:1;stroke:none;stroke-width:1.06667px;stroke-linecap:butt;stroke-linejoin:miter;stroke-opacity:1;filter:url(#filter3695)" id="path663" transform="matrix(0.9375,0,0,0.9375,213.40632,155.45787)"/>
        <path d="m 431.31512,2.2135467 q 14.58333,0.5208321 22.65625,0.5208321 8.07292,0 22.65625,-0.5208321 0.26042,1.0416641 0.26042,1.4322881 0,0.7161493 -0.26042,1.6276054 -2.99479,0.260416 -4.88281,0.5859413 -1.82292,0.260416 -4.55729,0.911456 -2.66927,0.6510401 -4.10157,1.8880214 -1.43229,1.1718721 -1.4974,2.8645761 -0.84634,22.135425 -0.84634,41.210945 0,13.932289 0.71613,36.26302 0.0651,1.692704 1.4974,2.929686 1.4323,1.171872 4.10157,1.822922 2.73437,0.65104 4.55729,0.976555 1.88802,0.260416 4.88281,0.520832 0.26042,0.781259 0.26042,1.757813 0,0.520843 -0.26042,1.302091 -11.06771,-0.390624 -22.65625,-0.390624 -11.71875,0 -22.65625,0.390624 -0.26041,-0.781248 -0.26041,-1.302091 0,-1.106762 0.26041,-1.757813 1.95312,-0.195307 3.125,-0.325515 1.17188,-0.130208 3.19011,-0.455733 2.08333,-0.325515 3.32031,-0.716139 1.30208,-0.455733 2.66927,-1.106773 1.36719,-0.65104 2.01823,-1.562507 0.71615,-0.911456 0.71615,-2.083328 0.78124,-20.377601 0.78124,-41.080727 0,-21.093749 -0.65104,-36.393238 -0.0651,-1.692704 -1.49739,-2.8645761 -1.43229,-1.2369813 -4.16667,-1.8880214 -2.66927,-0.65104 -4.55729,-0.911456 -1.82292,-0.3255253 -4.81771,-0.5859413 -0.26041,-1.1718721 -0.26041,-1.6276054 0,-0.65104 0.26041,-1.4322881 z" style="font-style:normal;font-variant:normal;font-weight:normal;font-stretch:normal;font-size:125px;line-height:125%;font-family:'Jacques Francois';-inkscape-font-specification:'Jacques Francois';letter-spacing:0px;word-spacing:0px;fill:#554400;fill-opacity:1;stroke:none;stroke-width:1.06667px;stroke-linecap:butt;stroke-linejoin:miter;stroke-opacity:1;filter:url(#filter3695)" id="path665" transform="matrix(0.9375,0,0,0.9375,213.40632,155.45787)"/>
        <path d="m 533.20315,1.2369814 q 0.97655,-0.71614938 2.08332,-0.91145606 L 570.89845,89.257816 q 0.65104,1.627606 2.14844,2.799478 1.4974,1.106773 3.71095,1.757813 2.27864,0.585941 3.90624,0.911456 1.69271,0.260416 4.10156,0.520832 0.26042,1.041675 0.26042,1.757813 0,0.781259 -0.26042,1.432299 -14.06249,-0.520832 -21.02865,-0.520832 -7.55207,0 -21.875,0.520832 -0.26041,-0.781248 -0.26041,-1.562507 0,-0.846346 0.26041,-1.627605 13.15104,-1.432288 13.15104,-4.947915 0,-1.106763 -0.26041,-2.278645 l -9.4401,-24.218753 q -4.29688,-0.130208 -11.58854,-0.130208 -3.45053,0 -17.90365,0.260416 l -9.96094,25.325526 v 0.781248 q 0,0.65104 0.19532,1.236982 0.26041,0.585941 0.78125,1.041664 0.58593,0.455733 1.10677,0.781248 0.52083,0.325525 1.43229,0.65105 0.97656,0.260416 1.6276,0.455723 0.71614,0.130208 1.88802,0.325525 1.23699,0.195307 1.88803,0.325515 0.65104,0.06507 1.88802,0.195317 1.30208,0.130208 1.82291,0.195307 0.26042,1.041675 0.26042,1.757813 0,0.390635 -0.26042,1.432299 -14.58333,-0.520832 -16.40625,-0.520832 -3.51563,0 -18.09896,0.520832 -0.26041,-0.781248 -0.26041,-1.562507 0,-0.846346 0.26041,-1.627605 13.54167,-1.562496 15.42969,-6.640619 l 27.99479,-70.572919 -1.43229,-3.841142 q 3.71094,-2.473963 5.14323,-5.3385494 1.49739,-2.8645761 2.08334,-7.6171842 z m 0.52083,57.3567696 q 5.98958,0 9.44009,-0.130208 L 530.79429,26.432289 h -0.26042 l -12.43489,31.901046 q 6.11978,0.260416 15.625,0.260416 z" style="font-style:normal;font-variant:normal;font-weight:normal;font-stretch:normal;font-size:125px;line-height:125%;font-family:'Jacques Francois';-inkscape-font-specification:'Jacques Francois';letter-spacing:0px;word-spacing:0px;fill:#554400;fill-opacity:1;stroke:none;stroke-width:1.06667px;stroke-linecap:butt;stroke-linejoin:miter;stroke-opacity:1;filter:url(#filter3695)" id="path667" transform="matrix(0.9375,0,0,0.9375,213.40632,155.45787)"/>
        <path d="m 597.98179,2.2135467 q 7.09636,0.260416 17.70833,0.390624 10.61198,0.1302081 24.9349,0.1302081 14.32292,0 24.9349,-0.1302081 10.67708,-0.130208 17.83854,-0.390624 0.39062,2.7994775 0.97656,5.4036375 0.58594,2.5390718 1.95312,5.6640638 l 1.95313,4.427083 4.7526,9.244801 q -0.45572,1.041664 -2.27864,1.757813 -2.21354,-4.101568 -5.40364,-7.812502 -3.19011,-3.710944 -8.13803,-6.705728 -4.88281,-2.994795 -11.97917,-5.013024 -7.03124,-2.0182294 -16.99218,-2.7343788 -0.32552,8.1380268 -0.52083,18.4244808 -0.13021,10.221355 -0.13021,22.786464 0,12.630209 0.13021,22.916663 0.19531,10.286464 0.52083,18.42448 0.0651,1.562496 1.23698,2.66927 1.17187,1.041664 3.1901,1.757813 2.08333,0.716149 4.7526,1.171872 2.73438,0.390624 5.85938,0.65104 0.26042,1.106773 0.26042,1.757813 0,0.585942 -0.26042,1.302091 -10.9375,-0.390624 -22.65625,-0.390624 -11.65365,0 -22.65625,0.390624 -0.26042,-0.716149 -0.26042,-1.302091 0,-0.65104 0.26042,-1.757813 l 3.125,-0.325515 q 1.69271,-0.195317 3.77605,-0.520832 2.08332,-0.390624 3.84114,-1.041664 1.82291,-0.65105 3.05989,-1.627605 1.23698,-0.976565 1.23698,-2.408854 V 88.9974 q 0.32553,-11.914059 0.52083,-22.200523 0.19532,-10.286454 0.19532,-19.14062 0,-8.789066 -0.19532,-19.010421 -0.1953,-10.286454 -0.52083,-22.2005238 -9.375,0.520832 -16.34114,2.5390614 -6.90105,1.9531304 -11.97917,4.9479144 -5.07812,2.929697 -8.46354,6.770838 -3.38542,3.776043 -5.59897,8.007819 -1.82291,-0.716149 -2.27864,-1.757813 l 2.9297,-5.533857 1.36717,-2.799477 q 0.84636,-1.757813 1.69272,-3.580736 0.84635,-1.822912 1.56249,-3.776043 0.78125,-2.0182294 1.30208,-4.2317654 0.52085,-2.2786455 0.78126,-4.8177069 z" style="font-style:normal;font-variant:normal;font-weight:normal;font-stretch:normal;font-size:125px;line-height:125%;font-family:'Jacques Francois';-inkscape-font-specification:'Jacques Francois';letter-spacing:0px;word-spacing:0px;fill:#554400;fill-opacity:1;stroke:none;stroke-width:1.06667px;stroke-linecap:butt;stroke-linejoin:miter;stroke-opacity:1;filter:url(#filter3695)" id="path669" transform="matrix(0.9375,0,0,0.9375,213.40632,155.45787)"/>
        <path d="m 752.01826,0 q 5.01301,0 10.54687,1.041664 5.59895,1.0416747 11.0026,3.4505281 5.46876,2.3437441 10.41667,6.2499949 5.01302,3.841152 8.78906,9.440107 3.77604,5.598955 5.98959,13.085942 2.27864,7.486976 2.27864,17.187499 0,9.765622 -2.21354,17.317707 -2.21354,7.486976 -5.98958,13.085942 -3.77605,5.533845 -8.78907,9.374997 -4.94791,3.776043 -10.48177,6.119787 -5.46875,2.278646 -11.19791,3.255211 -5.72917,1.041661 -10.9375,1.041661 -4.94792,0 -10.54688,-1.041661 -5.53385,-0.976565 -11.00261,-3.255211 -5.46874,-2.343744 -10.48177,-6.119787 -4.94791,-3.841152 -8.78905,-9.374997 -3.77605,-5.598966 -6.05469,-13.085942 -2.21355,-7.552085 -2.21355,-17.317707 0,-10.026048 2.34375,-17.643233 2.34375,-7.682293 6.1849,-13.281248 3.90625,-5.598966 8.98437,-9.309899 5.14324,-3.7760428 10.61198,-6.0546882 5.53386,-2.2786454 11.06772,-3.19010144 Q 747.13544,0 752.01826,0 Z m -0.32553,4.6874988 q -6.11979,0 -10.87239,2.0182294 -4.75261,2.0182294 -8.33334,5.4687578 -3.58072,3.385408 -6.05469,7.942699 -2.47396,4.492192 -4.03645,9.570315 -1.4974,5.078122 -2.21355,10.416672 -0.65104,5.338539 -0.65104,10.351563 0,4.817707 0.65104,10.026038 0.65105,5.20833 2.14844,10.286464 1.49739,5.013013 3.90625,9.570304 2.47396,4.557302 6.05469,8.007819 3.58073,3.450518 8.33333,5.533856 4.81772,2.01823 11.06771,2.01823 6.1198,0 10.8724,-1.953131 4.7526,-2.018229 8.33333,-5.403648 3.58074,-3.450518 5.98959,-7.94271 2.47395,-4.557291 3.97135,-9.570304 1.5625,-5.078134 2.21355,-10.351563 0.71613,-5.27344 0.71613,-10.221355 0,-5.013024 -0.71613,-10.351563 -0.65105,-5.33855 -2.21355,-10.416672 -1.4974,-5.078123 -3.97135,-9.570315 -2.47396,-4.557291 -6.05469,-7.942699 -3.58073,-3.4505284 -8.33333,-5.4687578 -4.75261,-2.0182294 -10.8073,-2.0182294 z" style="font-style:normal;font-variant:normal;font-weight:normal;font-stretch:normal;font-size:125px;line-height:125%;font-family:'Jacques Francois';-inkscape-font-specification:'Jacques Francois';letter-spacing:0px;word-spacing:0px;fill:#554400;fill-opacity:1;stroke:none;stroke-width:1.06667px;stroke-linecap:butt;stroke-linejoin:miter;stroke-opacity:1;filter:url(#filter3695)" id="path671" transform="matrix(0.9375,0,0,0.9375,213.40632,155.45787)"/>
        <path d="m 814.90888,2.2135467 q 14.0625,0.5208321 22.65625,0.5208321 3.25521,0 10.48177,-0.2604161 7.22656,-0.260416 11.13281,-0.260416 14.45313,0 22.72136,7.2916589 8.33333,7.2916694 8.33333,18.9453124 0,9.375009 -5.53386,16.796875 -5.53384,7.356779 -15.10416,10.546881 4.36198,7.812501 11.97917,17.708331 7.35677,9.830731 13.9974,15.429686 6.70573,5.598965 14.38802,6.315104 0.26042,1.041675 0.26042,1.627605 0,0.651051 -0.26042,1.432299 -3.90625,-0.195317 -8.33333,-0.260416 -4.4271,-0.06507 -9.89584,-0.06507 -5.40365,0 -8.33334,-0.06507 -17.51302,-20.377612 -28.125,-40.104172 -4.7526,0 -10.93749,-1.497398 0,12.630209 0.71614,32.682295 0.0651,1.692704 1.49739,2.929685 1.4323,1.171872 4.10157,1.822923 2.73437,0.65104 4.55729,0.976555 1.88802,0.260416 4.88282,0.520832 0.26041,1.30209 0.26041,1.757813 0,0.520843 -0.26041,1.302091 -11.06771,-0.390624 -22.65626,-0.390624 -11.71875,0 -22.65624,0.390624 -0.26042,-0.781248 -0.26042,-1.302091 0,-1.106763 0.26042,-1.757813 1.95312,-0.195307 3.12499,-0.325515 1.17188,-0.130208 3.19011,-0.455733 2.08333,-0.325515 3.32031,-0.716139 1.30208,-0.455733 2.66927,-1.106773 1.36719,-0.65104 2.01823,-1.562507 0.71615,-0.911456 0.71615,-2.083328 0.78124,-20.377601 0.78124,-41.080727 0,-21.09375 -0.65104,-36.393238 -0.0651,-1.6927044 -1.49739,-2.8645764 -1.43229,-1.2369814 -4.16667,-1.8880214 -2.66927,-0.65104 -4.55729,-0.911456 -1.82292,-0.3255254 -4.81771,-0.5859414 -0.26041,-1.171872 -0.26041,-1.6276054 0,-0.390624 0.26041,-1.432288 z m 30.27343,4.4921815 h -0.1302 q -0.71614,24.0234458 -0.71614,44.6614628 4.55729,1.497397 9.24479,1.497397 4.29687,0 7.68229,-1.432298 3.45052,-1.497387 5.66406,-3.906241 2.21354,-2.408864 3.64584,-5.664064 1.49739,-3.25521 2.08333,-6.57552 0.65104,-3.32032 0.65104,-6.835947 0,-9.700512 -5.33854,-15.82031 -5.27344,-6.1848958 -15.03906,-6.1848958 -4.81771,0 -7.74741,0.260416 z" style="font-style:normal;font-variant:normal;font-weight:normal;font-stretch:normal;font-size:125px;line-height:125%;font-family:'Jacques Francois';-inkscape-font-specification:'Jacques Francois';letter-spacing:0px;word-spacing:0px;fill:#554400;fill-opacity:1;stroke:none;stroke-width:1.06667px;stroke-linecap:butt;stroke-linejoin:miter;stroke-opacity:1;filter:url(#filter3695)" id="path673" transform="matrix(0.9375,0,0,0.9375,213.40632,155.45787)"/>
      </g>
    </clipPath>
    <filter id="filter3695-6" style="color-interpolation-filters:sRGB">
      <feGaussianBlur id="feGaussianBlur3697-3" stdDeviation="10" result="result6" in="SourceGraphic"/>
      <feComposite id="feComposite3699-5" operator="xor" in="result6" in2="SourceGraphic"/>
      <feGaussianBlur id="feGaussianBlur3701-5" stdDeviation="10" result="result2"/>
      <feComposite id="feComposite3703-6" result="result91" operator="atop" in2="SourceGraphic"/>
      <feComposite id="feComposite3705-9" in2="result91" operator="xor" in="result2" result="result4"/>
      <feGaussianBlur id="feGaussianBlur3707-4" stdDeviation="5" result="result3" in="result4"/>
      <feSpecularLighting id="feSpecularLighting3709-9" surfaceScale="12" specularConstant="3" specularExponent="35" result="result5" in="result3" lighting-color="#ffffff">
        <feDistantLight id="feDistantLight3711-4" azimuth="235" elevation="45"/>
      </feSpecularLighting>
      <feComposite id="feComposite3713-6" result="result7" operator="arithmetic" k2="0.8" k3="0.7" in="SourceGraphic" in2="result5" k1="0" k4="0"/>
      <feComposite id="feComposite3715-9" in2="SourceGraphic" operator="in" in="result7"/>
    </filter>
    <filter id="filter241" style="color-interpolation-filters:sRGB">
      <feGaussianBlur id="feGaussianBlur221" stdDeviation="10" result="result6" in="SourceGraphic"/>
      <feComposite id="feComposite223" operator="xor" in="result6" in2="SourceGraphic"/>
      <feGaussianBlur id="feGaussianBlur225" stdDeviation="10" result="result2"/>
      <feComposite id="feComposite227" result="result91" operator="atop" in2="SourceGraphic"/>
      <feComposite id="feComposite229" in2="result91" operator="xor" in="result2" result="result4"/>
      <feGaussianBlur id="feGaussianBlur231" stdDeviation="5" result="result3" in="result4"/>
      <feSpecularLighting id="feSpecularLighting235" surfaceScale="12" specularConstant="3" specularExponent="35" result="result5" in="result3" lighting-color="#ffffff">
        <feDistantLight id="feDistantLight233" azimuth="235" elevation="45"/>
      </feSpecularLighting>
      <feComposite id="feComposite237" result="result7" operator="arithmetic" k2="0.8" k3="0.7" in="SourceGraphic" in2="result5" k1="0" k4="0"/>
      <feComposite id="feComposite239" in2="SourceGraphic" operator="in" in="result7"/>
    </filter>
    <filter id="filter263" style="color-interpolation-filters:sRGB">
      <feGaussianBlur id="feGaussianBlur243" stdDeviation="10" result="result6" in="SourceGraphic"/>
      <feComposite id="feComposite245" operator="xor" in="result6" in2="SourceGraphic"/>
      <feGaussianBlur id="feGaussianBlur247" stdDeviation="10" result="result2"/>
      <feComposite id="feComposite249" result="result91" operator="atop" in2="SourceGraphic"/>
      <feComposite id="feComposite251" in2="result91" operator="xor" in="result2" result="result4"/>
      <feGaussianBlur id="feGaussianBlur253" stdDeviation="5" result="result3" in="result4"/>
      <feSpecularLighting id="feSpecularLighting257" surfaceScale="12" specularConstant="3" specularExponent="35" result="result5" in="result3" lighting-color="#ffffff">
        <feDistantLight id="feDistantLight255" azimuth="235" elevation="45"/>
      </feSpecularLighting>
      <feComposite id="feComposite259" result="result7" operator="arithmetic" k2="0.8" k3="0.7" in="SourceGraphic" in2="result5" k1="0" k4="0"/>
      <feComposite id="feComposite261" in2="SourceGraphic" operator="in" in="result7"/>
    </filter>
    <filter id="filter285" style="color-interpolation-filters:sRGB">
      <feGaussianBlur id="feGaussianBlur265" stdDeviation="10" result="result6" in="SourceGraphic"/>
      <feComposite id="feComposite267" operator="xor" in="result6" in2="SourceGraphic"/>
      <feGaussianBlur id="feGaussianBlur269" stdDeviation="10" result="result2"/>
      <feComposite id="feComposite271" result="result91" operator="atop" in2="SourceGraphic"/>
      <feComposite id="feComposite273" in2="result91" operator="xor" in="result2" result="result4"/>
      <feGaussianBlur id="feGaussianBlur275" stdDeviation="5" result="result3" in="result4"/>
      <feSpecularLighting id="feSpecularLighting279" surfaceScale="12" specularConstant="3" specularExponent="35" result="result5" in="result3" lighting-color="#ffffff">
        <feDistantLight id="feDistantLight277" azimuth="235" elevation="45"/>
      </feSpecularLighting>
      <feComposite id="feComposite281" result="result7" operator="arithmetic" k2="0.8" k3="0.7" in="SourceGraphic" in2="result5" k1="0" k4="0"/>
      <feComposite id="feComposite283" in2="SourceGraphic" operator="in" in="result7"/>
    </filter>
    <filter id="filter307" style="color-interpolation-filters:sRGB">
      <feGaussianBlur id="feGaussianBlur287" stdDeviation="10" result="result6" in="SourceGraphic"/>
      <feComposite id="feComposite289" operator="xor" in="result6" in2="SourceGraphic"/>
      <feGaussianBlur id="feGaussianBlur291" stdDeviation="10" result="result2"/>
      <feComposite id="feComposite293" result="result91" operator="atop" in2="SourceGraphic"/>
      <feComposite id="feComposite295" in2="result91" operator="xor" in="result2" result="result4"/>
      <feGaussianBlur id="feGaussianBlur297" stdDeviation="5" result="result3" in="result4"/>
      <feSpecularLighting id="feSpecularLighting301" surfaceScale="12" specularConstant="3" specularExponent="35" result="result5" in="result3" lighting-color="#ffffff">
        <feDistantLight id="feDistantLight299" azimuth="235" elevation="45"/>
      </feSpecularLighting>
      <feComposite id="feComposite303" result="result7" operator="arithmetic" k2="0.8" k3="0.7" in="SourceGraphic" in2="result5" k1="0" k4="0"/>
      <feComposite id="feComposite305" in2="SourceGraphic" operator="in" in="result7"/>
    </filter>
    <filter id="filter329" style="color-interpolation-filters:sRGB">
      <feGaussianBlur id="feGaussianBlur309" stdDeviation="10" result="result6" in="SourceGraphic"/>
      <feComposite id="feComposite311" operator="xor" in="result6" in2="SourceGraphic"/>
      <feGaussianBlur id="feGaussianBlur313" stdDeviation="10" result="result2"/>
      <feComposite id="feComposite315" result="result91" operator="atop" in2="SourceGraphic"/>
      <feComposite id="feComposite317" in2="result91" operator="xor" in="result2" result="result4"/>
      <feGaussianBlur id="feGaussianBlur319" stdDeviation="5" result="result3" in="result4"/>
      <feSpecularLighting id="feSpecularLighting323" surfaceScale="12" specularConstant="3" specularExponent="35" result="result5" in="result3" lighting-color="#ffffff">
        <feDistantLight id="feDistantLight321" azimuth="235" elevation="45"/>
      </feSpecularLighting>
      <feComposite id="feComposite325" result="result7" operator="arithmetic" k2="0.8" k3="0.7" in="SourceGraphic" in2="result5" k1="0" k4="0"/>
      <feComposite id="feComposite327" in2="SourceGraphic" operator="in" in="result7"/>
    </filter>
    <filter id="filter351" style="color-interpolation-filters:sRGB">
      <feGaussianBlur id="feGaussianBlur331" stdDeviation="10" result="result6" in="SourceGraphic"/>
      <feComposite id="feComposite333" operator="xor" in="result6" in2="SourceGraphic"/>
      <feGaussianBlur id="feGaussianBlur335" stdDeviation="10" result="result2"/>
      <feComposite id="feComposite337" result="result91" operator="atop" in2="SourceGraphic"/>
      <feComposite id="feComposite339" in2="result91" operator="xor" in="result2" result="result4"/>
      <feGaussianBlur id="feGaussianBlur341" stdDeviation="5" result="result3" in="result4"/>
      <feSpecularLighting id="feSpecularLighting345" surfaceScale="12" specularConstant="3" specularExponent="35" result="result5" in="result3" lighting-color="#ffffff">
        <feDistantLight id="feDistantLight343" azimuth="235" elevation="45"/>
      </feSpecularLighting>
      <feComposite id="feComposite347" result="result7" operator="arithmetic" k2="0.8" k3="0.7" in="SourceGraphic" in2="result5" k1="0" k4="0"/>
      <feComposite id="feComposite349" in2="SourceGraphic" operator="in" in="result7"/>
    </filter>
    <filter id="filter373" style="color-interpolation-filters:sRGB">
      <feGaussianBlur id="feGaussianBlur353" stdDeviation="10" result="result6" in="SourceGraphic"/>
      <feComposite id="feComposite355" operator="xor" in="result6" in2="SourceGraphic"/>
      <feGaussianBlur id="feGaussianBlur357" stdDeviation="10" result="result2"/>
      <feComposite id="feComposite359" result="result91" operator="atop" in2="SourceGraphic"/>
      <feComposite id="feComposite361" in2="result91" operator="xor" in="result2" result="result4"/>
      <feGaussianBlur id="feGaussianBlur363" stdDeviation="5" result="result3" in="result4"/>
      <feSpecularLighting id="feSpecularLighting367" surfaceScale="12" specularConstant="3" specularExponent="35" result="result5" in="result3" lighting-color="#ffffff">
        <feDistantLight id="feDistantLight365" azimuth="235" elevation="45"/>
      </feSpecularLighting>
      <feComposite id="feComposite369" result="result7" operator="arithmetic" k2="0.8" k3="0.7" in="SourceGraphic" in2="result5" k1="0" k4="0"/>
      <feComposite id="feComposite371" in2="SourceGraphic" operator="in" in="result7"/>
    </filter>
    <filter id="filter395" style="color-interpolation-filters:sRGB">
      <feGaussianBlur id="feGaussianBlur375" stdDeviation="10" result="result6" in="SourceGraphic"/>
      <feComposite id="feComposite377" operator="xor" in="result6" in2="SourceGraphic"/>
      <feGaussianBlur id="feGaussianBlur379" stdDeviation="10" result="result2"/>
      <feComposite id="feComposite381" result="result91" operator="atop" in2="SourceGraphic"/>
      <feComposite id="feComposite383" in2="result91" operator="xor" in="result2" result="result4"/>
      <feGaussianBlur id="feGaussianBlur385" stdDeviation="5" result="result3" in="result4"/>
      <feSpecularLighting id="feSpecularLighting389" surfaceScale="12" specularConstant="3" specularExponent="35" result="result5" in="result3" lighting-color="#ffffff">
        <feDistantLight id="feDistantLight387" azimuth="235" elevation="45"/>
      </feSpecularLighting>
      <feComposite id="feComposite391" result="result7" operator="arithmetic" k2="0.8" k3="0.7" in="SourceGraphic" in2="result5" k1="0" k4="0"/>
      <feComposite id="feComposite393" in2="SourceGraphic" operator="in" in="result7"/>
    </filter>
  </defs>
  <metadata id="metadata7">
    
  </metadata>
  <g id="g635" transform="translate(-24.706402,99.949856)">
    <path d="m 97.610684,41.835942 q -2.083339,-4.6224 -4.101568,-8.072917 -2.01823,-3.515627 -5.27344,-7.29167 -3.2552,-3.776043 -6.966145,-6.184896 -3.710933,-2.408853 -9.114581,-3.971349 -5.403648,-1.562507 -11.914059,-1.562507 -7.031254,0 -12.760417,2.864587 -5.729171,2.864586 -9.440109,7.486976 -3.645832,4.6224 -6.184895,10.742187 -2.473958,6.054688 -3.515625,12.239584 -1.041667,6.119798 -1.041667,12.434902 0,6.249995 1.106771,12.434891 1.106771,6.119797 3.645833,12.174486 2.604167,6.054688 6.380208,10.611979 3.776042,4.557295 9.505207,7.421865 5.794272,2.79949 12.825526,2.79949 14.322912,0 19.921878,-6.380214 V 73.151047 q 0,-1.367189 -1.106774,-2.408853 -1.106773,-1.106773 -2.539061,-1.692715 -1.432299,-0.585931 -3.841152,-1.041664 -2.343744,-0.520832 -3.841142,-0.716149 -1.497397,-0.195307 -3.776042,-0.390624 -0.260416,-1.041664 -0.260416,-1.562496 0,-0.455734 0.260416,-1.497398 14.713536,0.520832 22.656246,0.520832 8.072917,0 22.656264,-0.520832 0.32551,1.30208 0.32551,1.497398 0,0.260416 -0.32551,1.562496 -2.27865,0.195317 -3.77605,0.390624 -1.4974,0.195317 -3.90625,0.716149 -2.34376,0.455733 -3.776044,1.041664 -1.367189,0.585942 -2.473963,1.692715 -1.106762,1.041664 -1.106762,2.408853 v 9.635414 q 0,12.369792 2.929685,20.247389 -10.742187,3.97136 -19.075521,5.79428 -8.333333,1.82291 -18.945312,1.82291 -6.315104,0 -12.695318,-1.30208 -6.380206,-1.30208 -13.411456,-4.88281 -6.966146,-3.58073 -12.304688,-8.984371 -5.273438,-5.403648 -8.789063,-14.453131 -3.450521,-9.049483 -3.450521,-20.507809 0,-8.268235 1.757813,-15.299478 1.822916,-7.096363 4.817708,-12.174486 2.994792,-5.078122 7.096355,-9.114581 4.166666,-4.036459 8.658854,-6.57552 4.492188,-2.539061 9.440105,-4.166667 5.013021,-1.692715 9.505213,-2.343754 4.492182,-0.716139 8.854166,-0.716139 7.291659,0 13.867179,0.911456 6.640629,0.846357 13.21615,2.148437 6.57552,1.236982 10.416672,1.692704 -0.976565,2.929686 -0.976565,8.268235 0,8.854165 3.190101,17.252598 -0.390624,1.171882 -2.343744,1.432298 z" style="font-style:normal;font-variant:normal;font-weight:normal;font-stretch:normal;font-size:125px;line-height:125%;font-family:'Jacques Francois';-inkscape-font-specification:'Jacques Francois';letter-spacing:0px;word-spacing:0px;fill:#554400;fill-opacity:1;stroke:none;stroke-width:1.06667px;stroke-linecap:butt;stroke-linejoin:miter;stroke-opacity:1;filter:url(#filter3695-6)" id="path3369-1" transform="matrix(0.93749999,0,0,0.93749999,15.227643,-109.38589)"/>
    <path d="m 119.55078,12.278651 q 14.58334,0.520832 22.65626,0.520832 8.07292,0 22.65625,-0.520832 0.26041,1.041664 0.26041,1.432288 0,0.455734 -0.26041,1.627606 -2.99479,0.260416 -4.88281,0.585941 -1.82292,0.260416 -4.55729,0.911456 -2.66928,0.65104 -4.10157,1.888021 -1.43229,1.171872 -1.4974,2.864576 -0.84635,22.135425 -0.84635,41.210945 0,9.830731 0.71615,41.210936 h 20.11718 q 9.57032,-0.65104 17.1224,-2.79948 7.55209,-2.148436 12.56511,-5.468745 5.07812,-3.385419 8.33334,-6.966145 3.3203,-3.645834 5.72916,-8.138026 1.6927,0.65104 2.21353,1.757813 -2.66927,4.947915 -4.16666,8.007808 -1.43229,3.059904 -3.1901,8.072918 -1.69271,4.947927 -2.21354,9.505217 h -56.51042 q -17.64324,0 -30.27344,0.39062 -0.26042,-0.78124 -0.26042,-1.30209 0,-0.45572 0.26042,-1.75781 2.99479,-0.26042 4.81771,-0.52083 1.88801,-0.32552 4.55729,-0.97656 2.73437,-0.65105 4.16667,-1.82292 1.43229,-1.23698 1.49739,-2.929686 0.78126,-20.377601 0.78126,-41.080727 0,-21.093749 -0.65104,-36.393238 -0.0651,-1.692704 -1.4974,-2.864576 -1.4323,-1.236981 -4.16667,-1.888021 -2.66927,-0.65104 -4.55729,-0.911456 -1.82292,-0.325525 -4.81772,-0.585941 -0.26041,-1.171872 -0.26041,-1.627606 0,-0.65104 0.26041,-1.432288 z" style="font-style:normal;font-variant:normal;font-weight:normal;font-stretch:normal;font-size:125px;line-height:125%;font-family:'Jacques Francois';-inkscape-font-specification:'Jacques Francois';letter-spacing:0px;word-spacing:0px;fill:#554400;fill-opacity:1;stroke:none;stroke-width:1.06667px;stroke-linecap:butt;stroke-linejoin:miter;stroke-opacity:1;filter:url(#filter3695-6)" id="path3371-7" transform="matrix(0.93749999,0,0,0.93749999,15.227643,-109.38589)"/>
    <path d="m 269.87631,11.302086 q 0.97657,-0.716149 2.08333,-0.911456 l 35.61199,88.93229 q 0.65104,1.62761 2.14844,2.79948 1.49739,1.10677 3.71093,1.75781 2.27865,0.58594 3.90625,0.91146 1.69271,0.26041 4.10156,0.52083 0.26042,1.04167 0.26042,1.75781 0,0.78126 -0.26042,1.4323 -14.0625,-0.52083 -21.02864,-0.52083 -7.55208,0 -21.875,0.52083 -0.26042,-0.78125 -0.26042,-1.56251 0,-0.84634 0.26042,-1.6276 13.15104,-1.43229 13.15104,-4.94792 0,-1.106759 -0.26041,-2.278641 l -9.44011,-24.218753 q -4.29687,-0.130208 -11.58854,-0.130208 -3.45052,0 -17.90365,0.260416 l -9.96094,25.325526 v 0.78125 q 0,0.65104 0.19532,1.23698 0.26041,0.58594 0.78124,1.04166 0.58594,0.45574 1.10678,0.78125 0.52083,0.32553 1.43228,0.65105 0.97657,0.26042 1.62761,0.45573 0.71615,0.1302 1.88802,0.32552 1.23698,0.19531 1.88802,0.32552 0.65104,0.0651 1.88802,0.19531 1.30208,0.13021 1.82292,0.19531 0.26042,1.04167 0.26042,1.75781 0,0.39064 -0.26042,1.4323 -14.58333,-0.52083 -16.40624,-0.52083 -3.51563,0 -18.09897,0.52083 -0.26042,-0.78125 -0.26042,-1.56251 0,-0.84634 0.26042,-1.6276 13.54166,-1.5625 15.42969,-6.64062 l 27.99479,-70.572919 -1.43229,-3.841142 q 3.71094,-2.473963 5.14322,-5.338549 1.4974,-2.864576 2.08334,-7.617184 z m 0.52084,57.356769 q 5.98959,0 9.4401,-0.130208 L 267.46746,36.497393 h -0.26042 l -12.4349,31.901046 q 6.1198,0.260416 15.62501,0.260416 z" style="font-style:normal;font-variant:normal;font-weight:normal;font-stretch:normal;font-size:125px;line-height:125%;font-family:'Jacques Francois';-inkscape-font-specification:'Jacques Francois';letter-spacing:0px;word-spacing:0px;fill:#554400;fill-opacity:1;stroke:none;stroke-width:1.06667px;stroke-linecap:butt;stroke-linejoin:miter;stroke-opacity:1;filter:url(#filter3695-6)" id="path3373-1" transform="matrix(0.93749999,0,0,0.93749999,15.227643,-109.38589)"/>
    <path d="m 329.44663,12.278651 q 14.58333,0.520832 23.30729,0.520832 16.27604,-0.520832 19.98698,-0.520832 6.05469,0 11.39323,0.520832 5.33854,0.520832 11.0026,1.95312 5.72917,1.36719 10.35157,3.645835 4.6224,2.213546 8.85416,5.92448 4.23178,3.710933 7.09635,8.593749 2.86459,4.882817 4.5573,11.783851 1.69271,6.835947 1.69271,15.169281 -0.52083,8.007808 -2.79948,14.713536 -2.21354,6.705729 -5.72917,11.588545 -3.45052,4.882816 -8.20313,8.723957 -4.75259,3.841142 -9.96094,6.249993 -5.14322,2.40887 -11.19791,3.97136 -5.98958,1.5625 -11.71875,2.21354 -5.66406,0.65105 -11.71875,0.65105 -24.41406,0 -37.04427,0.39062 -0.26041,-0.78124 -0.26041,-1.30209 0,-0.45572 0.26041,-1.75781 1.95312,-0.19531 3.12499,-0.32552 1.17189,-0.1302 3.19012,-0.45573 2.08332,-0.32551 3.32031,-0.71614 1.30208,-0.45573 2.66927,-1.10677 1.36718,-0.65104 2.01822,-1.56251 0.71615,-0.91145 0.71615,-2.083326 0.78125,-20.377601 0.78125,-41.080727 0,-21.093749 -0.65104,-36.393238 -0.0651,-1.692704 -1.4974,-2.864576 -1.43228,-1.236981 -4.16666,-1.888021 -2.66927,-0.65104 -4.55729,-0.911456 -1.82293,-0.325525 -4.81771,-0.585941 -0.26042,-1.171872 -0.26042,-1.627606 0,-0.390624 0.26042,-1.432288 z m 30.27344,9.309888 q -0.84636,22.135425 -0.84636,41.210945 0,10.54687 0.71615,40.364576 2.79948,0.13022 8.00781,0.13022 10.54687,0 18.75,-3.19011 8.20312,-3.255213 13.47656,-9.049474 5.27344,-5.794272 7.94271,-13.671883 2.73438,-7.94271 2.73438,-17.513014 0,-4.947926 -0.78125,-9.700523 -0.78126,-4.752608 -2.47396,-9.700523 -1.6927,-4.947915 -4.6875,-9.114582 -2.99479,-4.166666 -7.16146,-7.421877 -4.10156,-3.32031 -10.15625,-5.143232 -5.98959,-1.888021 -13.28126,-1.888021 -6.70572,0 -12.23957,0.846357 z" style="font-style:normal;font-variant:normal;font-weight:normal;font-stretch:normal;font-size:125px;line-height:125%;font-family:'Jacques Francois';-inkscape-font-specification:'Jacques Francois';letter-spacing:0px;word-spacing:0px;fill:#554400;fill-opacity:1;stroke:none;stroke-width:1.06667px;stroke-linecap:butt;stroke-linejoin:miter;stroke-opacity:1;filter:url(#filter3695-6)" id="path3375-6" transform="matrix(0.93749999,0,0,0.93749999,15.227643,-109.38589)"/>
    <path d="m 441.4258,12.278651 q 14.58333,0.520832 22.65625,0.520832 8.07292,0 22.65625,-0.520832 0.26042,1.041664 0.26042,1.432288 0,0.71615 -0.26042,1.627606 -2.99479,0.260416 -4.88281,0.585941 -1.82292,0.260416 -4.55729,0.911456 -2.66927,0.65104 -4.10157,1.888021 -1.43229,1.171872 -1.4974,2.864576 -0.84634,22.135425 -0.84634,41.210945 0,13.932289 0.71613,36.26302 0.0651,1.692706 1.4974,2.929686 1.4323,1.17187 4.10157,1.82292 2.73437,0.65104 4.55729,0.97656 1.88802,0.26041 4.88281,0.52083 0.26042,0.78126 0.26042,1.75781 0,0.52085 -0.26042,1.30209 -11.06771,-0.39062 -22.65625,-0.39062 -11.71875,0 -22.65625,0.39062 -0.26041,-0.78124 -0.26041,-1.30209 0,-1.10676 0.26041,-1.75781 1.95312,-0.19531 3.125,-0.32552 1.17188,-0.1302 3.19011,-0.45573 2.08333,-0.32551 3.32031,-0.71614 1.30208,-0.45573 2.66927,-1.10677 1.36719,-0.65104 2.01823,-1.56251 0.71615,-0.91145 0.71615,-2.083326 0.78124,-20.377601 0.78124,-41.080727 0,-21.093749 -0.65104,-36.393238 -0.0651,-1.692704 -1.49739,-2.864576 -1.43229,-1.236981 -4.16667,-1.888021 -2.66927,-0.65104 -4.55729,-0.911456 -1.82292,-0.325525 -4.81771,-0.585941 -0.26041,-1.171872 -0.26041,-1.627606 0,-0.65104 0.26041,-1.432288 z" style="font-style:normal;font-variant:normal;font-weight:normal;font-stretch:normal;font-size:125px;line-height:125%;font-family:'Jacques Francois';-inkscape-font-specification:'Jacques Francois';letter-spacing:0px;word-spacing:0px;fill:#554400;fill-opacity:1;stroke:none;stroke-width:1.06667px;stroke-linecap:butt;stroke-linejoin:miter;stroke-opacity:1;filter:url(#filter3695-6)" id="path3377-3" transform="matrix(0.93749999,0,0,0.93749999,15.227643,-109.38589)"/>
    <path d="m 543.31383,11.302086 q 0.97655,-0.716149 2.08332,-0.911456 l 35.61198,88.93229 q 0.65104,1.62761 2.14844,2.79948 1.4974,1.10677 3.71095,1.75781 2.27864,0.58594 3.90624,0.91146 1.69271,0.26041 4.10156,0.52083 0.26042,1.04167 0.26042,1.75781 0,0.78126 -0.26042,1.4323 -14.06249,-0.52083 -21.02865,-0.52083 -7.55207,0 -21.875,0.52083 -0.26041,-0.78125 -0.26041,-1.56251 0,-0.84634 0.26041,-1.6276 13.15104,-1.43229 13.15104,-4.94792 0,-1.106759 -0.26041,-2.278641 l -9.4401,-24.218753 q -4.29688,-0.130208 -11.58854,-0.130208 -3.45053,0 -17.90365,0.260416 l -9.96094,25.325526 v 0.78125 q 0,0.65104 0.19532,1.23698 0.26041,0.58594 0.78125,1.04166 0.58593,0.45574 1.10677,0.78125 0.52083,0.32553 1.43229,0.65105 0.97656,0.26042 1.6276,0.45573 0.71614,0.1302 1.88802,0.32552 1.23699,0.19531 1.88803,0.32552 0.65104,0.0651 1.88802,0.19531 1.30208,0.13021 1.82291,0.19531 0.26042,1.04167 0.26042,1.75781 0,0.39064 -0.26042,1.4323 -14.58333,-0.52083 -16.40625,-0.52083 -3.51563,0 -18.09896,0.52083 -0.26041,-0.78125 -0.26041,-1.56251 0,-0.84634 0.26041,-1.6276 13.54167,-1.5625 15.42969,-6.64062 l 27.99479,-70.572919 -1.43229,-3.841142 q 3.71094,-2.473963 5.14323,-5.338549 1.49739,-2.864576 2.08334,-7.617184 z m 0.52083,57.356769 q 5.98958,0 9.44009,-0.130208 L 540.90497,36.497393 h -0.26042 l -12.43489,31.901046 q 6.11978,0.260416 15.625,0.260416 z" style="font-style:normal;font-variant:normal;font-weight:normal;font-stretch:normal;font-size:125px;line-height:125%;font-family:'Jacques Francois';-inkscape-font-specification:'Jacques Francois';letter-spacing:0px;word-spacing:0px;fill:#554400;fill-opacity:1;stroke:none;stroke-width:1.06667px;stroke-linecap:butt;stroke-linejoin:miter;stroke-opacity:1;filter:url(#filter3695-6)" id="path3379-0" transform="matrix(0.93749999,0,0,0.93749999,15.227643,-109.38589)"/>
    <path d="m 608.09247,12.278651 q 7.09636,0.260416 17.70833,0.390624 10.61198,0.130208 24.9349,0.130208 14.32292,0 24.9349,-0.130208 10.67708,-0.130208 17.83854,-0.390624 0.39062,2.799478 0.97656,5.403638 0.58594,2.539071 1.95312,5.664063 l 1.95313,4.427083 4.7526,9.244801 q -0.45572,1.041664 -2.27864,1.757813 -2.21354,-4.101568 -5.40364,-7.812502 -3.19011,-3.710944 -8.13803,-6.705728 -4.88281,-2.994795 -11.97917,-5.013024 -7.03124,-2.018229 -16.99218,-2.734378 -0.32552,8.138026 -0.52083,18.42448 -0.13021,10.221355 -0.13021,22.786464 0,12.630209 0.13021,22.916663 0.19531,10.286464 0.52083,18.42448 0.0651,1.562496 1.23698,2.669266 1.17187,1.04167 3.1901,1.75782 2.08333,0.71615 4.7526,1.17187 2.73438,0.39062 5.85938,0.65104 0.26042,1.10677 0.26042,1.75781 0,0.58594 -0.26042,1.30209 -10.9375,-0.39062 -22.65625,-0.39062 -11.65365,0 -22.65625,0.39062 -0.26042,-0.71615 -0.26042,-1.30209 0,-0.65104 0.26042,-1.75781 l 3.125,-0.32552 q 1.69271,-0.19531 3.77605,-0.52083 2.08332,-0.39062 3.84114,-1.04166 1.82291,-0.65105 3.05989,-1.62761 1.23698,-0.97656 1.23698,-2.408851 v -0.325525 q 0.32553,-11.914059 0.52083,-22.200523 0.19532,-10.286454 0.19532,-19.14062 0,-8.789066 -0.19532,-19.010421 -0.1953,-10.286454 -0.52083,-22.200523 -9.375,0.520832 -16.34114,2.539061 -6.90105,1.95313 -11.97917,4.947914 -5.07812,2.929697 -8.46354,6.770838 -3.38542,3.776043 -5.59897,8.007819 -1.82291,-0.716149 -2.27864,-1.757813 l 2.9297,-5.533857 1.36717,-2.799477 q 0.84636,-1.757813 1.69272,-3.580736 0.84635,-1.822912 1.56249,-3.776043 0.78125,-2.018229 1.30208,-4.231765 0.52085,-2.278645 0.78126,-4.817707 z" style="font-style:normal;font-variant:normal;font-weight:normal;font-stretch:normal;font-size:125px;line-height:125%;font-family:'Jacques Francois';-inkscape-font-specification:'Jacques Francois';letter-spacing:0px;word-spacing:0px;fill:#554400;fill-opacity:1;stroke:none;stroke-width:1.06667px;stroke-linecap:butt;stroke-linejoin:miter;stroke-opacity:1;filter:url(#filter3695-6)" id="path3381-0" transform="matrix(0.93749999,0,0,0.93749999,15.227643,-109.38589)"/>
    <path d="m 762.12894,10.065104 q 5.01301,0 10.54687,1.041664 5.59895,1.041675 11.0026,3.450529 5.46876,2.343744 10.41667,6.249994 5.01302,3.841152 8.78906,9.440107 3.77604,5.598955 5.98959,13.085942 2.27864,7.486976 2.27864,17.187499 0,9.765622 -2.21354,17.317707 -2.21354,7.486976 -5.98958,13.085942 -3.77605,5.533845 -8.78907,9.375002 -4.94791,3.77604 -10.48177,6.11978 -5.46875,2.27865 -11.19791,3.25521 -5.72917,1.04166 -10.9375,1.04166 -4.94792,0 -10.54688,-1.04166 -5.53385,-0.97656 -11.00261,-3.25521 -5.46874,-2.34374 -10.48177,-6.11978 -4.94791,-3.841157 -8.78905,-9.375002 -3.77605,-5.598966 -6.05469,-13.085942 -2.21355,-7.552085 -2.21355,-17.317707 0,-10.026048 2.34375,-17.643233 2.34375,-7.682293 6.1849,-13.281248 3.90625,-5.598966 8.98437,-9.309899 5.14324,-3.776042 10.61198,-6.054688 5.53386,-2.278645 11.06772,-3.190101 5.59895,-0.976566 10.48177,-0.976566 z m -0.32553,4.687499 q -6.11979,0 -10.87239,2.01823 -4.75261,2.018229 -8.33334,5.468757 -3.58072,3.385408 -6.05469,7.942699 -2.47396,4.492192 -4.03645,9.570315 -1.4974,5.078122 -2.21355,10.416672 -0.65104,5.338539 -0.65104,10.351563 0,4.817707 0.65104,10.026038 0.65105,5.20833 2.14844,10.286464 1.49739,5.013013 3.90625,9.570304 2.47396,4.557302 6.05469,8.007819 3.58073,3.450516 8.33333,5.533856 4.81772,2.01823 11.06771,2.01823 6.1198,0 10.8724,-1.95313 4.7526,-2.01823 8.33333,-5.403649 3.58074,-3.450518 5.98959,-7.94271 2.47395,-4.557291 3.97135,-9.570304 1.5625,-5.078134 2.21355,-10.351563 0.71613,-5.27344 0.71613,-10.221355 0,-5.013024 -0.71613,-10.351563 -0.65105,-5.33855 -2.21355,-10.416672 -1.4974,-5.078123 -3.97135,-9.570315 -2.47396,-4.557291 -6.05469,-7.942699 -3.58073,-3.450528 -8.33333,-5.468757 -4.75261,-2.01823 -10.8073,-2.01823 z" style="font-style:normal;font-variant:normal;font-weight:normal;font-stretch:normal;font-size:125px;line-height:125%;font-family:'Jacques Francois';-inkscape-font-specification:'Jacques Francois';letter-spacing:0px;word-spacing:0px;fill:#554400;fill-opacity:1;stroke:none;stroke-width:1.06667px;stroke-linecap:butt;stroke-linejoin:miter;stroke-opacity:1;filter:url(#filter3695-6)" id="path3383-0" transform="matrix(0.93749999,0,0,0.93749999,15.227643,-109.38589)"/>
    <path d="m 825.01956,12.278651 q 14.0625,0.520832 22.65625,0.520832 3.25521,0 10.48177,-0.260416 7.22656,-0.260416 11.13281,-0.260416 14.45313,0 22.72136,7.291659 8.33333,7.291669 8.33333,18.945312 0,9.375009 -5.53386,16.796875 -5.53384,7.356779 -15.10416,10.546881 4.36198,7.812501 11.97917,17.708331 7.35677,9.830731 13.9974,15.429686 6.70573,5.598965 14.38802,6.315105 0.26042,1.04167 0.26042,1.6276 0,0.65106 -0.26042,1.4323 -3.90625,-0.19531 -8.33333,-0.26041 -4.4271,-0.0651 -9.89584,-0.0651 -5.40365,0 -8.33334,-0.0651 -17.51302,-20.377615 -28.125,-40.104175 -4.7526,0 -10.93749,-1.497398 0,12.630209 0.71614,32.682295 0.0651,1.692708 1.49739,2.929688 1.4323,1.17187 4.10157,1.82292 2.73437,0.65104 4.55729,0.97656 1.88802,0.26041 4.88282,0.52083 0.26041,1.30209 0.26041,1.75781 0,0.52084 -0.26041,1.30209 -11.06771,-0.39062 -22.65626,-0.39062 -11.71875,0 -22.65624,0.39062 -0.26042,-0.78125 -0.26042,-1.30209 0,-1.10676 0.26042,-1.75781 1.95312,-0.19531 3.12499,-0.32552 1.17188,-0.13021 3.19011,-0.45573 2.08333,-0.32552 3.32031,-0.71614 1.30208,-0.45573 2.66927,-1.10677 1.36719,-0.65104 2.01823,-1.56251 0.71615,-0.91146 0.71615,-2.083328 0.78124,-20.377601 0.78124,-41.080727 0,-21.09375 -0.65104,-36.393238 -0.0651,-1.692704 -1.49739,-2.864576 -1.43229,-1.236981 -4.16667,-1.888021 -2.66927,-0.65104 -4.55729,-0.911456 -1.82292,-0.325526 -4.81771,-0.585942 -0.26041,-1.171872 -0.26041,-1.627605 0,-0.390624 0.26041,-1.432288 z m 30.27343,4.492182 h -0.1302 q -0.71614,24.023445 -0.71614,44.661462 4.55729,1.497397 9.24479,1.497397 4.29687,0 7.68229,-1.432298 3.45052,-1.497387 5.66406,-3.906241 2.21354,-2.408864 3.64584,-5.664064 1.49739,-3.25521 2.08333,-6.57552 0.65104,-3.32032 0.65104,-6.835947 0,-9.700512 -5.33854,-15.82031 -5.27344,-6.184895 -15.03906,-6.184895 -4.81771,0 -7.74741,0.260416 z" style="font-style:normal;font-variant:normal;font-weight:normal;font-stretch:normal;font-size:125px;line-height:125%;font-family:'Jacques Francois';-inkscape-font-specification:'Jacques Francois';letter-spacing:0px;word-spacing:0px;fill:#554400;fill-opacity:1;stroke:none;stroke-width:1.06667px;stroke-linecap:butt;stroke-linejoin:miter;stroke-opacity:1;filter:url(#filter3695-6)" id="path3385-6" transform="matrix(0.93749999,0,0,0.93749999,15.227643,-109.38589)"/>
  </g>
</svg>
