<?xml version="1.0" encoding="utf-8"?>
<!-- Generator: Adobe Illustrator 24.1.2, SVG Export Plug-In . SVG Version: 6.00 Build 0)  -->
<svg xmlns="http://www.w3.org/2000/svg" xmlns:xlink="http://www.w3.org/1999/xlink" version="1.1" x="0px" y="0px" width="1800px" height="261.4px" viewBox="0 0 1800 261.4" style="enable-background:new 0 0 1800 261.4;" xml:space="preserve">
<style type="text/css">
	.st0{fill:#2E87C9;}
</style>
<g>
	<g>
		<path class="st0" d="M205.7,4.1l-13.1,82.1l-50.1-2.4l-27.5,172.7H23.5L50.7,84.1L0,86.2L12.8,4.1H205.7z M377.5,73.1l11-69h-170    l-39.7,252.4h172.4l10.7-69h-80l4-24.7h70.8l10.4-65.6h-70.7l3.9-24.1H377.5z M626.2,132.6c-13.7,78.1-69.3,123.9-152,123.9    c-87.6,0-110.5,0-110.5,0L404.4,4.1c0,0,24.1,0,94.6,0S643.4,35,626.2,132.6z M482.8,83.2l-15.3,97.7c10.7,0.6,60.3,0.5,66.8-48.8    C540.8,83.5,503.3,83.8,482.8,83.2z"/>
		<path class="st0" d="M824.6,4.1l-27.2,171.2h76.9l-12.8,81.2H692.8l40-252.4H824.6z M1214.3,261.4c-28.1,0-54.4-7.6-72-14.2    l1.8,9.3h-97.4l-3.1-31.4h-69l-12.5,31.4h-97.4L992.5,4.1h101.6l41,206.6l24.3-44.5c26.9,24.7,50.7,26.9,57.7,26.9    c7,0,26.6-3.7,26.2-17.1c-0.3-13.4-21.7-10.7-47.6-18c-25.9-7.3-57.1-28.7-40-81.2s75.4-76.6,121.8-76.6c37.5,0,61.3,13.1,74.8,22    l-35.1,65c-16.2-14-36-19.2-50.4-19.2c-14.3,0-21.7,7.6-21.7,15.6c0,9.8,25.3,10.7,47,17.4c56.5,17.4,50.7,62.3,36.9,96.1    C1315.1,231.5,1264.1,261.4,1214.3,261.4z M1037,165.2l-4.3-54.6l-0.3-22.6h-3.4l-28.7,77.2H1037z M1744.8,224.5    c-60.1,49.7-162.4,45.5-200.8,0.9c-9.8-11.4-16.9-23.9-21.4-37.2c-1,3-2.1,6-3.3,8.8c-14,34.5-65,64.4-114.8,64.4    s-94-23.8-94-23.8l39.1-71.4c26.9,24.7,50.7,26.9,57.7,26.9s26.6-3.7,26.2-17.1c-0.3-13.4-21.7-10.7-47.6-18    c-25.9-7.3-57.1-28.7-40-81.2c17.1-52.5,75.4-76.6,121.8-76.6c37.5,0,61.3,13.1,74.8,22l-35.1,65c-16.2-14-36-19.2-50.4-19.2    c-14.3,0-21.7,7.6-21.7,15.6c0,9.8,25.3,10.7,47,17.4c18.2,5.6,29.9,14,37,24.1c6.8-32.3,26-64.2,56.1-89.4    c54-45.2,149.2-49.1,195.9-1.2C1816.8,81,1808.4,171.8,1744.8,224.5z M1688.6,88.6c-15.9-9.8-52.2-7.3-68.7,20.8    c-16.7,28.5-9.2,54.3,6.4,64.7c15.6,10.4,51.8,11.9,70.5-18.3C1712.1,131.1,1709.8,101.7,1688.6,88.6z"/>
	</g>
</g>
</svg>
