<?xml version="1.0" encoding="utf-8"?>
<!-- Generator: Adobe Illustrator 24.1.2, SVG Export Plug-In . SVG Version: 6.00 Build 0)  -->
<svg xmlns="http://www.w3.org/2000/svg" xmlns:xlink="http://www.w3.org/1999/xlink" version="1.1" x="0px" y="0px" width="1263px" height="622px" viewBox="0 0 1263 622" style="enable-background:new 0 0 1263 622;" xml:space="preserve">
<style type="text/css">
	.st0{fill:#2E87C9;}
</style>
<g>
	<path class="st0" d="M507.5,0l-15,93.6l-57.1-2.8l-31.3,197H299.7l31-196.7l-57.8,2.4L287.5,0H507.5z M703.5,78.7L716,0H522.1   l-45.3,287.9h196.7l12.2-78.7h-91.2L599,181h80.8l11.8-74.8H611l4.4-27.5H703.5z M987.2,146.6c-15.7,89.1-79,141.3-173.4,141.3   c-99.9,0-126,0-126,0L734.1,0c0,0,27.5,0,107.9,0S1006.8,35.3,987.2,146.6z M823.6,90.2l-17.4,111.4c12.2,0.7,68.8,0.5,76.2-55.7   C889.7,90.5,846.9,90.9,823.6,90.2z"/>
	<path class="st0" d="M150.4,328.5l-31,195.3h87.7l-14.6,92.6H0l45.6-287.9H150.4z M594.9,622c-32,0-62.1-8.7-82.2-16.2l2.1,10.6   H403.8l-3.5-35.9h-78.7l-14.2,35.9H196.3l145.5-287.9h115.9l46.7,235.6l27.8-50.8c30.6,28.2,57.8,30.6,65.8,30.6   s30.3-4.2,29.9-19.5c-0.3-15.3-24.7-12.2-54.3-20.5c-29.6-8.4-65.1-32.7-45.6-92.6S614.1,324,667,324c42.8,0,70,15,85.3,25.1   l-40,74.2c-18.5-16-41.1-21.9-57.4-21.9c-16.4,0-24.7,8.7-24.7,17.8c0,11.1,28.9,12.2,53.6,19.8c64.4,19.8,57.8,71.1,42.1,109.7   C709.8,587.9,651.7,622,594.9,622z M392.7,512.3l-4.9-62.3l-0.3-25.8h-3.8l-32.7,88.1H392.7z M1200,579.9   c-68.6,56.7-185.2,51.9-229.1,1c-11.2-13-19.3-27.3-24.4-42.5c-1.2,3.4-2.4,6.8-3.8,10.1c-16,39.3-74.2,73.5-130.9,73.5   s-107.2-27.2-107.2-27.2l44.6-81.5C779.8,541.6,807,544,815,544s30.3-4.2,29.9-19.5c-0.3-15.3-24.7-12.2-54.3-20.5   c-29.6-8.4-65.1-32.7-45.6-92.6c19.5-59.9,86-87.4,138.9-87.4c42.8,0,70,15,85.3,25.1l-40,74.2c-18.5-16-41.1-21.9-57.4-21.9   c-16.4,0-24.7,8.7-24.7,17.8c0,11.1,28.9,12.2,53.6,19.8c20.7,6.4,34.1,16,42.2,27.4c7.8-36.9,29.6-73.2,64-101.9   c61.6-51.5,170.2-56,223.5-1.4C1282.2,416.2,1272.6,519.8,1200,579.9z M1135.9,425c-18.1-11.1-59.5-8.4-78.3,23.7   c-19.1,32.5-10.4,62,7.3,73.8c17.8,11.8,59.1,13.6,80.4-20.9C1162.7,473.3,1160.1,439.8,1135.9,425z"/>
</g>
</svg>
