<?xml version="1.0" encoding="utf-8"?>
<!-- Generator: Adobe Illustrator 24.1.2, SVG Export Plug-In . SVG Version: 6.00 Build 0)  -->
<svg xmlns="http://www.w3.org/2000/svg" xmlns:xlink="http://www.w3.org/1999/xlink" version="1.1" id="Layer_1" x="0px" y="0px" width="1200px" height="434.8px" viewBox="0 0 1200 434.8" style="enable-background:new 0 0 1200 434.8;" xml:space="preserve">
<style type="text/css">
	.st0{fill:#EA2A2D;}
</style>
<g>
	<g>
		<path class="st0" d="M253.2,65.1c-5.3-3.1-11.5-4.6-18.5-4.6l0.1,118.8c0,1.4,0,2.6,0,3.5c0,4.1,0.3,7.7,0.8,11    c0.5,3.3,1.7,6.2,3.4,8.7c1.7,2.6,3.6,4.3,5.6,5.1c2,0.9,4.6,1.3,7.7,1.3v6.8h-80.1V209c0.5-0.1,1.2-0.2,2-0.2    c3.8,0,7.4-1.9,10.8-5.7c2-2.3,3.3-4.7,3.7-7.1c0.4-2.4,0.6-6.1,0.6-11.1V60.4c-5.8,0-10.9,1-15,2.9c-4.2,1.9-8.7,5.2-13.6,9.9    c-2.4,2.4-4.9,6-7.3,10.6c-2.9,5.6-4.8,10.3-5.7,14.3l-4.4-1.1l10.5-60.5c1.3,1.4,2.9,2.6,4.8,3.7c0.8,0.3,1.9,0.6,3.3,0.7    c1.4,0.1,2.2,0.2,2.4,0.2c2.5,0,3.9,0,4.2,0h87.7c1.5,0,2.8,0,3.9-0.1c1.2-0.1,2.8-0.5,4.9-1.2c2.1-0.7,4.1-1.8,6.1-3.3l9.8,60.5    l-4.4,1.6c-1.7-7-4.5-13.4-8.6-19.2C263.4,72.9,258.5,68.2,253.2,65.1z M578,215.6h-12.6h-63v-6.8c2.5-0.6,4.4-1.3,5.7-2.1    c3.9-2.8,5.8-7.3,5.8-13.6c0-2.1-0.1-3.7-0.3-4.9c-0.7-5.4-3.6-11.5-8.6-18.3c-5.5-7.3-11.6-12.8-18.3-16.4    c-2.6-1.4-6.5-2.6-11.6-3.7c-5.1-1.1-9.3-1.7-12.7-1.7l-10.3,35.4c-1.3,4.2-1.9,8.8-1.9,13.8c0,2.4,0.2,4.1,0.7,5.1    c1.2,2.1,2.5,3.6,3.9,4.6c1.5,1,3.1,1.7,5,2v6.5h-21.9h-26.6h-47v-6.3c2.6-0.4,5-1.3,7.2-2.8c1.2-0.8,1.8-2.4,1.8-4.7    c0-3.1-1.1-7.6-3.2-13.3c-1.5-3.8-5.5-12.8-12.1-27c-1.9-4.1-4.4-8.5-7.4-13.4c-3-4.9-5.9-9.7-8.8-14.5l-7.7,4.4v49.2    c0,3.7,0.2,6.8,0.7,9.2c0.4,2.4,1.2,4.4,2.4,6.2c1.6,2.3,3.1,3.9,4.5,4.7c0.7,0.3,2.4,0.9,5.1,1.6v6.8h-69.7v-6.8    c1.7,0,3-0.3,4-0.8c1-0.5,2.3-1.5,3.7-2.9c1.9-1.9,3.2-4,3.8-6.4c0.6-2.4,0.9-5.6,0.9-9.6l0.3-114.1c0-3.6,0-6.4-0.1-8.4    c-0.4-6.2-1.1-10.4-2.3-12.7c-1.1-2.3-2.4-3.9-3.9-4.8c-1.5-0.9-3.2-1.3-5.3-1.3v-6.8h102.3c11.4,0,20.1,2.1,26.1,6.3    c6,4.2,9.4,10.2,10.3,18.1c0.2,2.1,0.3,3.6,0.3,4.5c0,8.6-2.8,16.7-8.3,24.2c-4,5.3-9.2,10.3-15.6,14.8c-4.9,3.4-7.7,5-8.5,5    c5.2,7.8,9.7,15,13.5,21.7c3.8,6.7,7.9,14.2,12.1,22.6c2.2,4.5,6,14.6,11.3,30.1c1.2,3.5,2.3,6.4,3.4,8.9c0.4-0.5,0.7-1,1-1.5    c1.3-2.2,2.5-5.1,3.7-9l40.5-124c0.5-1.4,0.9-2.8,1.3-4.2c0.4-1.4,0.6-2.7,0.6-3.8c0-1.6-0.3-3-1-4.1c-0.6-1.1-1.3-1.8-1.9-2.2    c-0.6-0.3-1.3-0.6-2-0.9v-6.6h64.7v7.7c-2.3,0-3.9,1-4.8,3c-0.4,0.9-0.6,1.9-0.6,2.8c0,0.9,0.1,2,0.4,3.1c0.1,0.2,0.4,1.4,1,3.5    l38,136c0.7,1.4,1.2,2.5,1.6,3.3c1.3,2.4,2.5,4.2,3.7,5.1c0.4,0.4,0.8,0.6,1.2,0.9c1.9-1.6,3.3-4.6,4.1-9.1    c0.9-4.7,1.3-10,1.3-15.9V74.7c0-1.4,0-2.8,0-4.4c0-3.7-0.2-7.3-0.6-10.6c-0.4-3.4-1.1-5.7-2-7c-2-2.7-4.9-4.3-8.5-4.9v-6.8h83.6    v6.8c-1,0-1.8,0.3-2.6,1c-0.7,0.6-1.4,1.5-2.1,2.6c-0.7,1.1-1,2.2-1,3.4c0,1.6,0.4,3.4,1.3,5.4c0.4,0.9,1.1,2.2,2,3.7l29.4,43.9    V68.5c0-0.9,0-1.6,0-2.1c0-3.1-0.1-5.5-0.4-7.2c-0.3-1.6-1-3.4-2.2-5.3c-1.2-1.9-2.6-3.3-4.2-4.2c-1.6-0.9-3.6-1.5-6-1.8v-6.8    h44.1v6.8c-1.2,0.2-2.3,0.5-3.5,0.7c-1.8,0.6-3.4,2-4.8,4.2c-1.8,2.7-2.8,6-3.3,9.8c-0.4,3.9-0.7,7.5-0.7,10.7v116    c0,1.9,0.1,4,0.4,6.5c0.3,2.5,0.9,4.7,1.8,6.5c0.9,1.9,2.2,3.3,3.9,4.4c1.7,1.1,3.6,1.8,5.6,2v6.8h-44.1v-6.8    c1.3,0,2.5-0.2,3.8-0.7c4.8-1.9,7.2-6.6,7.2-14.3c0-5.1-1-9.9-3.1-14.5c-1.4-3.1-4-7.4-7.9-12.9l-67.1-94l-0.1,116.7    c0,2.9,0.2,5.4,0.5,7.4c0.3,2,0.9,4,1.7,5.8c0.8,1.9,1.9,3.3,3.4,4.3c1.4,1,3.3,1.7,5.6,2.2v6.8H578z M370,78.6    c0-6-2.1-10.8-6.3-14.3c-3.6-3-8.2-4.5-13.7-4.5c-3.8,0-7.4,0.8-10.7,2.4c-1.9,0.9-3.1,2.5-3.9,4.6c-0.7,2.2-1.1,4.7-1.1,7.6v43.8    l5.1-1.9c7.4-3,13.9-7.4,19.6-13.3C366.3,95.4,370,87.3,370,78.6z M500.1,138.8L483.8,77l-14,49c1.2,0,2.6,0.1,4.4,0.2    c1.7,0.1,4.3,0.8,7.7,1.9c3.4,1.2,7.1,3,11.1,5.4C495.9,135.4,498.3,137.1,500.1,138.8z M974.3,216c2,0.2,3.9,0.6,5.6,1.2l5,1.7    l19-66.8l-5-3c-1.7,7.7-5.6,15.6-11.7,23.9c-5.5,7.4-11.2,13.2-17.1,17.3c-4,2.7-8.4,4.8-13.2,6.5c-4.8,1.6-9.5,2.4-14.1,2.4    c-4.2,0-7.9-0.7-11.1-2.2c-3.2-1.5-5.7-3.6-7.5-6.5c-1.8-2.9-2.9-5.7-3.4-8.4c-0.5-2.7-0.7-5.9-0.7-9.8c0-0.7,0-1.6,0-2.8    c0-1.2,0-2.6,0-4.2v-49.9h18.7c2.1,0,4.8,0.8,7.9,2.4c3.1,1.6,5.9,3.6,8.3,6.2c2.4,2.6,4.6,6,6.6,10.5c1.6,3.6,2.5,6.6,2.9,8.9    l5.6-1L960.3,76l-4.4,1.6c0,0.6,0,1.5,0,2.6c0,5-1.7,9.2-4.9,12.7c-1.6,1.6-3.4,2.8-5.2,3.4c-1.8,0.6-3.7,1-5.6,1h-20.5v-19    c0-3.6,0.4-6.7,1.2-9.4c0.8-2.7,2.3-4.9,4.3-6.8c3.1-2.8,7.9-4.2,14.5-4.2c5.8,0,11.8,1.2,17.8,3.5c6,2.3,11.3,5.8,15.6,10.3    c7.6,8,12.5,17.8,14.8,29.3l4.8-4.4l-10.7-58.9c-1.7,0.8-3,1.3-3.9,1.5c-0.2,0-1.5,0.2-3.9,0.7c-4.7,0.9-8.8,1.3-12.4,1.3    c-1.3,0-2.1,0-2.6,0h-96.4v6.8c2.1,0,3.8,0.2,5,0.6c1.2,0.4,2.3,1.4,3.5,3c1.2,1.6,1.9,3.1,2.1,4.7c0.2,1.6,0.4,3.9,0.4,6.9    c0,0.3,0,1,0,1.9v123.8c0,3.6-0.2,6.5-0.7,8.8c-0.4,2.3-1.4,4.5-3,6.7c-1.2,1.5-2.2,2.5-3,3c-0.8,0.5-2.7,1.1-5.6,1.7v6.6h106.5    C970.2,215.6,972.3,215.8,974.3,216z M847.9,137.7c0-3.6,0.2-6.6,0.7-8.9c0.4-2.3,1.4-4.5,3-6.4c2.9-3.9,6.4-5.9,10.4-5.9v-5.9    h-70v6.5c0.5,0,1.3,0,2.3,0c2.8,0,5.4,1.3,7.6,3.8c1.2,1.4,2,2.8,2.4,4.4c0.4,1.5,0.7,4.2,0.7,8.2v41.6c0,6.8-1.3,12.3-3.8,16.4    c-3,4.8-7.7,7.1-14,7.1c-14.2,0-25.7-8.5-34.5-25.5c-7.5-14.4-11.2-30.4-11.2-48c0-1.4,0-2.6,0.1-3.5c0-0.9,0.1-1.9,0.2-3    c1.4-17.1,5.1-31,11.3-41.8c7.4-13,17.5-19.5,30.2-19.5c8.2,0,17.5,2.9,27.9,8.6c4.2,2.3,8.4,6.5,12.6,12.4    c5.5,7.7,9,14.4,10.7,20l3.7-2.3l-6-60c-1.8,1.6-3.5,3.3-5.1,4.9c-2.1,1.4-4.9,2.1-8.3,2.1c-3,0-6.3-0.5-9.9-1.4    c-7-1.7-13.2-3-18.7-3.7c-5.5-0.8-11.3-1.1-17.5-1.1c-11.5,0-22.1,1.7-31.7,5.1c-9.6,3.4-18.1,8.9-25.4,16.3    c-5.5,5.7-9.9,12-13.3,19.1v88.1c2.4,5.6,5.2,10.9,8.5,15.9c9,13.6,19.9,23,32.9,28.2c10.4,4.2,24.4,6.3,41.9,6.3h73.1V209    c-2.3-0.7-4.1-1.5-5.3-2.3c-1.2-0.9-2.3-2.3-3.3-4.4c-1-2.1-1.6-4.1-1.8-6.1c0-2.2,0-4.4,0-6.6V137.7z M11.2,255.5    c1-0.2,2.2-0.3,3.7-0.3c10.9,1.7,21.6,3.5,32.1,5.2c10.5,1.8,19.9,2.6,28.3,2.6c10.5,0,31-2.3,42.5-7c14-5.7,24-13.7,32.5-24    c10.4-12.7,15.9-27.9,15.9-45.7c0-13.5-3-26.9-10.5-38.3c-3.2-4.9-7.4-8.9-12.1-12.2c-8.6-6-18.5-9.8-28.4-13.3    c-11.3-4-22.5-8.1-33.8-12.3c-7.9-2.9-16-4.5-22.2-10.8c-9-9.2-6.6-24.3,1.7-33.2c3.8-4.1,10.6-7.3,15.9-8.6    c19.6-4.6,33.6,4.5,51.6,22c4.2,4.1,8.7,13.4,8.7,13.4l10-56.3c-1.2,0.7-5.9,3.9-8,5.5c-3.9,3-10.3-0.9-14.2-2.3    c-5.2-1.9-10.4-3.5-15.8-4.8c-10.8-2.6-21.8-3.8-32.9-3.8c-8.7,0-18.1,0.6-26.6,2.6c-6.2,1.4-12.8,4.6-18.3,7.7    C13.7,51.9,5.1,70.1,1.3,89.6C-1,101.5-0.4,113.8,4.5,125c6.9,15.9,19.3,29.5,35.4,36.1c0,0,55.1,18.4,55.2,18.4    c4,1.3,8.6,5.2,11,8.6c8.8,12.1,4.5,32.2-6.3,41.7c-16.9,14.8-47.3,9.3-64-3.2c-9.1-6.9-14-17.2-17.9-27.7    c-0.2-0.6-4.4-12.1-4.1-12.1c-0.1,0-8.2,0-8.2,0L0,263c1.3-1.2,6.5-4.5,7.8-5.6C9.1,256.4,10.3,255.7,11.2,255.5z M1164.2,189.2    c2.9,5.8,7.7,18.7,14.4,38.6c5,14.6,9.1,22.7,12.3,24.3c2.4,1.2,5.3,2.2,8.8,2.9v7.6h-94.1v-8c3.4-0.4,6.4-1.6,9.2-3.6    c1.5-1,2.2-3.1,2.2-6c0-4-1.4-9.7-4.1-17c-1.9-4.9-7-16.5-15.5-34.7c-2.5-5.2-5.6-11-9.4-17.2c-3.8-6.3-7.6-12.4-11.3-18.6    l-9.9,5.6v63c0,4.8,0.3,8.7,0.8,11.7c0.6,3.1,1.6,5.7,3.1,7.9c2,3,3.9,5,5.8,6c0.9,0.4,3,1.1,6.5,2v8.7h-89.1v-8.7    c2.1,0,3.8-0.3,5.1-1c1.3-0.7,2.9-1.9,4.8-3.7c2.5-2.4,4.1-5.1,4.9-8.3c0.7-3.1,1.1-7.2,1.1-12.3l0.4-146.3    c0-4.6-0.1-8.2-0.2-10.7c-0.5-7.9-1.5-13.3-2.9-16.3c-1.4-3-3.1-5-4.9-6.1c-1.9-1.1-4.1-1.7-6.7-1.7v-8.7h130.7    c14.6,0,25.7,2.7,33.3,8c7.7,5.4,12,13.1,13.2,23.2c0.2,2.7,0.4,4.6,0.4,5.8c0,11-3.5,21.4-10.6,31c-5.1,6.8-11.8,13.2-20,19    c-6.2,4.3-9.8,6.5-10.8,6.5c6.6,10,12.4,19.2,17.3,27.8C1153.7,168.8,1158.8,178.4,1164.2,189.2z M1112.8,86.9    c0-7.7-2.7-13.9-8-18.3c-4.6-3.9-10.5-5.8-17.6-5.8c-4.9,0-9.4,1-13.6,3.1c-2.4,1.2-4,3.2-4.9,5.9c-0.9,2.8-1.4,6-1.4,9.7v56.1    l6.5-2.5c9.5-3.9,17.8-9.5,25-17C1108.1,108.5,1112.8,98.1,1112.8,86.9z"/>
	</g>
	<g>
		<path class="st0" d="M326.2,308.4l-4.4,1.6c-1.7-7-4.5-13.5-8.6-19.3c-4.6-6.6-9.5-11.4-14.8-14.5c-5.3-3.1-11.5-4.7-18.5-4.7    l0.1,119.7c0,1.4,0,2.6,0,3.5c0,4.1,0.3,7.8,0.8,11.1c0.5,3.3,1.7,6.2,3.4,8.8c1.7,2.6,3.6,4.3,5.6,5.2c2,0.9,4.6,1.3,7.7,1.3v6.9    h-80.1v-6.7c0.5-0.1,1.2-0.2,2-0.2c3.8,0,7.4-1.9,10.8-5.8c2-2.3,3.3-4.7,3.7-7.2c0.4-2.5,0.6-6.2,0.6-11.2V271.5    c-5.8,0-10.9,1-15,2.9c-4.2,1.9-8.7,5.2-13.6,9.9c-2.4,2.5-4.9,6-7.3,10.7c-2.9,5.6-4.8,10.4-5.7,14.4l-4.4-1.1l10.5-61    c1.3,1.4,2.9,2.6,4.8,3.7c0.8,0.4,1.9,0.6,3.3,0.7c1.4,0.1,2.2,0.2,2.4,0.2c2.5,0,3.9,0,4.2,0h87.7c1.5,0,2.8,0,3.9-0.1    c1.2-0.1,2.8-0.5,4.9-1.2c2.1-0.7,4.1-1.8,6.1-3.3L326.2,308.4z M413.2,266.1c1.8,0.3,3.1,0.6,4,0.9c2.4,0.8,4.1,1.9,5,3.2    c1.3,2,2.2,4.3,2.7,6.6c0.5,2.4,0.8,6.6,0.8,12.8v15.7h-43.9v-16.2c0-7.8,1.5-14.1,4.5-18.7c1.1-1.6,2.5-2.7,4.4-3.3    c1.9-0.6,3.4-0.9,4.6-0.9v-6.6h-70.7v6.6c2.3,0.3,4.1,0.9,5.6,1.6c1.5,0.7,2.8,2,4,3.9c1.2,1.9,1.9,3.7,2.2,5.5    c0.3,1.8,0.4,4.6,0.4,8.3c0,0.5,0,1.3,0,2.4l0.3,111.4c0,3.7-0.5,7.7-1.5,11.8c-1,4.2-2,6.7-2.9,7.8c-1.9,1.8-3.2,2.9-3.9,3.3    c-0.7,0.4-2.1,0.8-4,1.3v6.5h70.1v-6.6c-4,0-7.3-1.8-10-5.3c-1.4-1.9-2.2-3.8-2.6-5.6c-0.3-1.8-0.5-4.3-0.5-7.5v-82.3h43.6v82.7    c0,2.7-0.2,5.1-0.7,7.2c-0.4,2.1-1.2,4-2.4,5.7c-2.4,3.4-5.7,5.1-9.8,5.1v6.6h71.2v-6.6c-3.7,0-6.7-1.2-8.8-3.7    c-1.1-1.4-1.9-3.4-2.4-6.2c-0.5-2.8-0.8-5.8-0.8-9.1l-0.3-115.7c0-3.7,0.2-7,0.7-9.7s1.3-5.2,2.7-7.5c1.4-2.3,3.1-3.7,5.3-4.4    c1.3-0.2,2.6-0.5,4-0.9v-6.6h-70.7V266.1z M491.8,266.1c2.7,0.5,4.8,1,6.3,1.6c1.5,0.6,2.6,1.6,3.4,2.8c1.5,2.3,2.4,4.8,2.8,7.7    c0.4,2.8,0.6,6.7,0.6,11.6v115c0,2.8-0.2,5.3-0.7,7.3c-0.4,2-1.3,3.9-2.6,5.6c-2.6,3.7-5.9,5.6-9.8,5.6v6.6H563v-6.6    c-1.9,0-3.5-0.4-5-1.3c-1.5-0.8-2.7-1.9-3.8-3.1c-1.1-1.3-1.9-3.3-2.4-6s-0.8-5.8-0.8-9.1V289.3c0-4.2,0.2-7.6,0.5-10.3    c0.3-2.7,1.2-5.1,2.6-7.2c1-1.6,2-2.8,3.1-3.5c1.1-0.7,3.1-1.4,6.2-2.1v-6.6h-71.5V266.1z M703,417.1c-0.9-1.8-1.5-3.9-1.8-6.4    c-0.3-2.4-0.4-4.6-0.4-6.4V291c0-3.2,0.2-6.7,0.7-10.5c0.4-3.8,1.5-7,3.3-9.6c1.5-2.2,3.1-3.5,4.8-4.1c1.2-0.2,2.3-0.5,3.5-0.7    v-6.6h-44.3v6.6c2.4,0.3,4.4,0.9,6,1.8c1.6,0.9,3,2.2,4.2,4.1c1.2,1.9,1.9,3.6,2.2,5.2c0.3,1.6,0.4,3.9,0.4,7c0,0.5,0,1.1,0,2    v38.5l-29.5-42.9c-1-1.5-1.7-2.7-2.1-3.6c-0.9-1.9-1.3-3.7-1.3-5.3c0-1.1,0.3-2.2,1-3.3c0.7-1.1,1.4-1.9,2.1-2.6    c0.7-0.6,1.6-0.9,2.6-0.9v-6.6h-83.9v6.6c3.6,0.6,6.5,2.2,8.5,4.8c1,1.2,1.7,3.5,2.1,6.8c0.4,3.3,0.6,6.8,0.6,10.4    c0,1.5,0,2.9,0,4.3v104.3c0,5.8-0.4,11-1.3,15.6c-0.9,4.6-2.3,7.6-4.4,9.1c-1.2,0.8-2.1,1.3-2.8,1.4c-0.7,0.2-2,0.4-3.8,0.6v6.6    h42.7v-6.6c-2.3-0.5-4.2-1.2-5.6-2.1c-1.4-1-2.6-2.4-3.4-4.2c-0.8-1.8-1.4-3.7-1.7-5.7c-0.3-2-0.5-4.4-0.5-7.2l0.1-114l67.4,91.9    c3.9,5.3,6.5,9.5,7.9,12.6c2,4.4,3.1,9.1,3.1,14.1c0,7.5-2.4,12.1-7.2,14c-1.3,0.5-2.5,0.7-3.8,0.7v6.6h44.3v-6.6    c-2.1-0.2-3.9-0.9-5.6-2C705.3,420.4,703.9,418.9,703,417.1z M973,328.8l-35.2-13.1c-6.2-2.3-10.7-5.2-13.6-8.9    c-2.3-3-3.5-6.3-3.5-10.1c0-2.5,0.3-4.9,1-7.2c0.4-1.4,1-3,1.9-4.8c1.4-3,3.5-5.1,6.3-6.6c2.8-1.4,6.2-2.1,10-2.1    c4.4,0,9,0.9,13.8,2.7c4.8,1.8,9,4.2,12.8,7.2c4.6,3.6,8.9,9.7,12.8,18.2c1.7,3.5,2.6,6.1,2.9,7.8l5.3-1.9l-5-55.4    c-1,0.6-2.3,1.5-4.1,2.7c-2.3,1.4-4.6,2.4-6.8,3.1c-0.3,0.1-0.8,0.2-1.6,0.2c-6.7-1.5-13.1-3-19.4-4.4c-6.3-1.5-11.9-2.2-17-2.2    c-3.9,0-7.6,0.4-11.2,1.2c-14.5,3.4-26.2,9.7-35.1,18.9c-10,10.3-15,22.9-15,37.8c0,10.8,2.8,20,8.5,27.6    c5.2,6.9,12.4,12.2,21.7,15.7l38.7,14.8c3.5,1.4,6.3,3.6,8.4,6.7c2.1,3.1,3.2,6.8,3.2,11c0,1.8-0.1,3.2-0.3,4.3    c-1.2,6.8-4.4,12.1-9.7,15.8c-5.3,3.7-11.6,5.6-19.1,5.6c-6.8,0-13.7-1.7-20.8-5.1c-7.1-3.4-13.2-8.3-18.4-14.7    c-3.6-4.4-6.8-10.4-9.5-18.1c-2.2-5.9-3.4-10.6-3.7-14l-5.3,0.7l5.7,70.5c1.1-0.9,2.2-1.8,3.3-2.6c1.1-0.8,2.1-1.4,2.9-1.5    c0.8-0.2,1.9-0.3,3.2-0.3c9.3,1.4,18.4,2.7,27.3,4.1c8.9,1.4,16.9,2,24.1,2c8.9,0,18.2-1.8,28-5.5c11.9-4.4,21.5-10.7,28.8-18.7    c8.8-9.9,13.2-21.7,13.2-35.6c0-11.6-2.6-21.3-7.8-29.1C989.6,338,982.3,332.4,973,328.8z M856.2,416.6c-1-2.1-1.6-4.1-1.8-6.1    c0-2.2,0-4.4,0-6.6V352c0-3.6,0.2-6.6,0.7-8.9c0.4-2.3,1.4-4.5,3-6.4c2.9-3.9,6.4-5.9,10.4-5.9v-5.9h-70v6.5c0.5,0,1.3,0,2.3,0    c2.8,0,5.4,1.3,7.6,3.8c1.2,1.4,2,2.8,2.4,4.3c0.4,1.5,0.7,4.2,0.7,8.2v41.6c0,6.8-1.3,12.3-3.8,16.4c-3,4.8-7.7,7.1-14,7.1    c-14.2,0-25.7-8.5-34.5-25.5c-7.5-14.4-11.2-30.4-11.2-48c0-1.4,0-2.6,0.1-3.5c0-0.9,0.1-1.9,0.2-3c1.4-17.1,5.1-31,11.3-41.9    c7.4-13,17.5-19.5,30.2-19.5c8.2,0,17.5,2.9,27.9,8.6c4.2,2.3,8.4,6.5,12.6,12.4c5.5,7.7,9,14.4,10.7,20l3.7-2.3l-6-60    c-1.8,1.6-3.5,3.3-5.1,4.9c-2.1,1.4-4.9,2.1-8.3,2.1c-3,0-6.3-0.5-9.9-1.4c-7-1.7-13.2-3-18.7-3.7c-5.5-0.8-11.3-1.1-17.5-1.1    c-11.5,0-22.1,1.7-31.7,5.1c-9.6,3.4-18.1,8.9-25.4,16.3c-5.5,5.7-9.9,12-13.3,19.1v88.1c2.4,5.6,5.2,10.9,8.5,15.9    c9,13.6,19.9,23,32.9,28.2c10.4,4.2,24.4,6.3,41.9,6.3h73.1v-6.6c-2.3-0.7-4.1-1.5-5.3-2.3C858.2,420.2,857.1,418.7,856.2,416.6z"/>
	</g>
	<g>
		<rect y="287.8" class="st0" width="176" height="15.9"/>
	</g>
	<g>
		<rect x="995.6" y="287.8" class="st0" width="204.4" height="15.9"/>
	</g>
	<g>
		<rect class="st0" width="1174.5" height="14.4"/>
	</g>
</g>
</svg>
