<?xml version="1.0" encoding="utf-8"?>
<!-- Generator: Adobe Illustrator 24.1.2, SVG Export Plug-In . SVG Version: 6.00 Build 0)  -->
<svg xmlns="http://www.w3.org/2000/svg" xmlns:xlink="http://www.w3.org/1999/xlink" version="1.1" x="0px" y="0px" width="3401.6px" height="1238.4px" viewBox="0 0 3401.6 1238.4" style="enable-background:new 0 0 3401.6 1238.4;" xml:space="preserve">
<style type="text/css">
	.st0{fill:#BC0808;}
</style>
<path class="st0" d="M477.7,422.9c-14.4-23.2-33.2-42-53.7-59.1c-10.4-8.7-21.5-16-32.7-23.2c-23.3-15.1-48-26.3-77.3-35  c-28.6-8.5-55.5-17.3-84.3-26c-6.7-2-13.1-4.2-18.8-6.8c-4.3-2-8.3-4.2-11.8-6.7c-5.3-3.8-9.4-8.2-12.3-13.8  c-2.9-5.6-4.7-12.4-4.7-21.3c0-1.1,0-2.2,0.1-3.3c0.4-7.9,1.8-14.8,4.2-20.8c2.3-6,5.5-11.2,9.3-15.7c3.8-4.4,8.2-8.3,13.3-11.6  c5.1-3.3,10.9-6.1,17.4-8.4c9.8-3.4,21.1-5.7,33-5.7c4,0,8.1,0.3,12.2,0.8c9.2,1.2,17.6,3.7,25.4,7c7.8,3.2,14.9,7.2,21.4,11.5  c7.9,5.1,15.5,11.5,21.8,17.8c9.2,9.2,17.6,18.5,24.5,29c6.9,10.5,12.3,22.2,15.8,36.5l1,4.3l4.4,0.4c7,0.6,14.4,1,22.1,1  c1.1,0,2.2,0,3.3,0l4.7-0.1l1.2-4.6c6.4-25.2,10.1-51.7,14.6-77.7c4.4-26.1,9.6-52.2,13.5-77.8l1.1-7.4l-7.5,0.4  c-19.4,1-37.3,2.4-54.7,3.2c-1.7,0.1-3.4,0.1-5.1,0.1c-8.1,0-15.7-0.9-23-2.2c-7.4-1.3-14.5-2.9-21.9-4.2c-27.8-5.2-59-9.5-92.1-9.5  c-5.5,0-11.1,0.1-16.7,0.4c-29.1,1.4-54.3,7.2-76.4,16.4c-11,4.6-20.8,10.7-29.9,17.1c-14.2,9.9-25.7,21.7-35.7,34.9  c-10.1,13.3-18.4,28.7-25.1,45c-8.9,21.8-15.3,46.7-18.6,73.9c-1.3,11.4-2.2,22.6-2.2,33.9c0,3.2,0.1,6.5,0.2,9.7  c0.7,14.3,4,28.1,8.2,39.4c4.3,11.4,9.8,21.7,16.6,30.9c6.8,9.1,14.9,17,24.3,23.7c8.9,6.3,19.3,11.9,30.3,16.6  c10.7,4.6,22.2,8.9,33.7,12.5c22.8,7.2,45.1,15.1,65.9,23.8c4.9,2.1,9.9,4.7,15.4,7.1c5.5,2.4,10.8,4.4,15.4,6.7  c7.5,3.7,14.4,7.8,20.6,12.3c9.3,6.8,16.9,14.7,22.3,24.7c2.7,5,4.9,10.6,6.4,16.9c1.5,6.3,2.4,13.4,2.5,21.4v0c0,0.8,0,1.6,0,2.4  c0,13.7-1.9,25.7-5.3,36.1c-2.6,7.8-6.1,14.7-10.4,20.8c-6.5,9.1-14.8,16.5-24.9,22.2c-10.1,5.7-22,9.8-35.6,12.2  c-10.6,1.9-21.2,2.9-31.4,2.9c-3.1,0-6.1-0.1-9.1-0.3c-13-0.9-24.8-3.9-35.2-7.9c-10.3-4-19.5-9.3-27.9-15.4  c-8.5-6.1-16.2-13-23.4-20.3c-14.6-14.6-27.2-31.7-36.6-51C50,542.9,42.3,521.3,39,495.2l-0.7-5.4l-5.5,0.1c-1,0-2.1,0-3.2,0  c-3.1,0-6.5,0-9.8,0c-3.5,0-6.9,0-9.9,0.3l-5.6,0.4l-0.1,5.6C3,584.3,1.3,670.4,0.1,759L0,764.2l5.2,0.9c0.4,0.1,0.8,0.1,1.2,0.1  c0.8,0,1.6-0.1,2.4-0.4c0.7-0.2,1.3-0.6,1.8-1c0.9-0.7,1.4-1.3,1.7-1.8c0.2-0.4,0.4-0.7,0.5-0.9c3.6-4.2,7.5-8.2,11.7-11.6  c4.4-3.5,9.2-6.4,14.6-8.2c4.5-1.6,9.7-2.2,15.3-2.2c9.4,0,19.7,2,29.1,4.4c14.3,3.6,29.4,7.2,44.9,10.4c16.1,3.2,33.3,5.5,51,5.5h0  h0h0l0,0c64.3,0,116.8-14.5,161.7-33.8c6.7-2.9,12.9-6.2,18.9-9.2c12.7-6.3,24-13.8,34.9-21.3c27.6-19.2,50.8-43.9,68-73.3  c3.7-6.2,6.4-12.7,9.5-18.7c12.5-24.8,21.3-55.2,25.1-87.6c0.8-6.5,1.2-13.1,1.2-19.6c0-11.2-1.2-22.2-3.8-32.4  C491.1,448.4,485.2,434.9,477.7,422.9z M485.3,513.9c-3.7,31.1-12.2,60.3-23.9,83.5c-3.2,6.5-6,12.7-9.1,18  c-16.3,27.8-38.2,51.2-64.4,69.4c-10.7,7.4-21.5,14.5-33.3,20.4c-6.3,3.1-12.3,6.3-18.3,8.9c-43.8,18.9-94.4,32.8-156.9,32.8h0h0  l0,0c-16.7,0-33.1-2.2-48.6-5.3c-15.2-3.1-30.1-6.6-44.3-10.2c-9.8-2.5-20.9-4.7-32.1-4.7c-6.5,0-13,0.8-19.2,2.9  c-7,2.4-13,6-18.3,10.2c-1.5,1.2-2.9,2.4-4.3,3.7c1.2-81.2,2.7-160.4,3.9-241.5c1.1,0,2.2,0,3.4,0c2.5,0,5.2,0,7.8,0  c3.8,25.2,11.6,46.6,20.9,65.9c10,20.7,23.4,38.9,38.9,54.4c7.6,7.6,15.8,14.9,24.9,21.5c9.2,6.6,19.3,12.4,30.6,16.9  c11.4,4.5,24.4,7.8,38.9,8.7c3.3,0.2,6.6,0.3,9.9,0.3c11,0,22.3-1.1,33.5-3.1c13.1-2.3,25-6.1,35.6-11.5c7.9-4.1,15.1-9,21.4-14.9  c9.4-8.8,16.8-19.8,21.7-32.6c5-12.9,7.5-27.7,7.5-44.3c0-0.8,0-1.7,0-2.5v0c-0.2-11.7-1.9-22-4.9-31.1c-2.3-6.8-5.3-13-8.9-18.5  c-5.4-8.3-12.2-15.2-19.8-21.1c-7.6-5.9-16-10.8-24.9-15.3c-5.4-2.7-10.9-4.8-16-7c-5-2.2-10-4.8-15.5-7.1c-21.3-9-43.9-17-67-24.2  c-11-3.5-22.2-7.6-32.5-12c-10.3-4.4-20-9.6-28-15.3c-8.4-5.9-15.5-12.9-21.6-21c-6-8.1-11-17.4-15-27.9  c-3.9-10.2-6.9-22.9-7.5-35.6c-0.1-3.1-0.2-6.1-0.2-9.1c0-10.7,0.8-21.4,2.1-32.5c3.1-26.2,9.3-50,17.7-70.7  c6.3-15.5,14.2-29.9,23.5-42.3c9.3-12.4,19.9-23.1,32.9-32.3c8.7-6.1,17.8-11.7,27.5-15.8c20.7-8.6,44.4-14.2,72.2-15.5  c5.4-0.3,10.8-0.4,16.1-0.4c32,0,62.5,4.3,89.9,9.3c7.1,1.3,14.3,2.9,22.1,4.3c7.8,1.3,16,2.3,25.1,2.3c1.9,0,3.8,0,5.7-0.1  c15.3-0.7,30.8-1.9,47.2-2.8c-3.7,23-8.3,46.5-12.3,70.2c-4.2,24.6-7.8,49.1-13.3,72.1c-5.2,0-10.2-0.3-15.1-0.6  c-3.8-13.9-9.5-25.7-16.4-36.1c-7.6-11.5-16.6-21.4-26.1-30.9c-6.9-6.9-15-13.8-23.8-19.4c-7-4.5-14.7-8.9-23.3-12.5  c-8.6-3.6-18.1-6.4-28.4-7.8c-4.7-0.6-9.3-0.9-13.9-0.9c-13.4,0-26,2.5-37,6.4c-7.4,2.6-14.1,5.8-20.1,9.7  c-6,3.9-11.3,8.6-15.9,13.9c-4.7,5.5-8.7,11.9-11.5,19.3c-2.8,7.3-4.5,15.5-5,24.6c-0.1,1.3-0.1,2.6-0.1,3.9  c0,9.4,1.7,17.5,4.9,24.5c2.4,5.2,5.5,9.8,9.2,13.6c5.6,5.8,12.3,10.2,19.5,13.7c7.2,3.5,15,6.2,22.8,8.5  c28.6,8.6,55.5,17.4,84.3,26c28.4,8.5,51.8,19.1,74.2,33.6c11.1,7.2,21.8,14.3,31.5,22.4c20,16.7,37.7,34.5,51.2,56.1  c6.9,11,12.2,23.3,15.7,37c2.3,9.1,3.4,19.1,3.4,29.4C486.4,501.8,486,507.8,485.3,513.9z M2848.8,432.3c-4.4-2.5-9-4.4-13.4-6.2  l-5.6-2.3l-2.4,5.6c-7.1,16.8-14.8,32.8-23.6,47.7c-8.8,14.8-18.7,28.3-30.5,40.1c-11.4,11.4-24.6,22.1-40.2,30  c-15.7,7.9-33.8,13.1-55.6,13.5c-1.5,0-2.9,0-4.3,0c-11.5,0-21.1-1-28.6-3.5c-3.7-1.2-6.9-2.8-9.7-4.7c-2.7-1.9-5-4.2-6.9-7  c-2-2.9-3.5-6.4-4.7-10.5c-1.8-6.1-2.8-13.3-3.3-21.3c-0.5-8-0.5-16.8-0.5-25.9c0-0.4,0-0.7,0-1.1c0-0.3,0-0.6,0-0.9  c0-22.4,0-45.3,0-68.2c0-23.8,0-47.5,0.2-70.7c0.9,0,1.9,0,2.8,0c8.8,0,17.1-0.3,24.9-0.3c5.4,0,10.5,0.2,15.4,0.7  c7,0.7,13.3,2.2,18.9,4.3c5.6,2.1,10.6,4.9,14.9,8.4c8.7,6.8,15.8,15.8,21.8,25.8c6.1,10,11.2,21.4,15.4,33.8l1.5,4.5l4.8-0.4  c4.4-0.3,8.7-0.9,12.8-1.5l5.9-1l-0.9-6c-8.9-61.6-18-122.9-26.7-184.6l-0.8-5.9l-5.9,0.7c-4.8,0.5-9.1,1.4-13.2,2.3l-4.9,1.1l0.1,5  c0,0.6,0,1.1,0,1.7c0,6.3-0.4,12-1.3,17c-1.3,7.6-3.6,13.8-6.9,18.5c-1.6,2.4-3.5,4.4-5.7,6.2c-2.2,1.8-4.7,3.3-7.6,4.5  c-4.6,1.9-10.1,3.1-16.3,3.9c-6.2,0.7-13.1,0.9-20.4,0.9c-8.1,0-16.6-0.2-25.2-0.2c-1.2,0-2.5,0-3.7,0c0-3.4,0-6.9,0-10.3  c0-11,0-21.9,0-32.6c0-0.5,0-0.9,0-1.3v0v0v0c0-8.4,0.3-16.2,1.5-22.7c0.6-3.3,1.4-6.3,2.4-9c1-2.7,2.2-5,3.8-7.1  c1.4-1.9,3.1-3.6,5.1-5.1c3-2.2,6.7-3.9,11.1-5.2c4.4-1.3,9.5-2.1,15-2.4c3-0.2,6-0.3,9-0.3c12.4,0,25.2,1.6,35.2,4.5  c12.3,3.6,23.3,8.8,33.1,15.3c9.8,6.5,18.4,14.3,26,23.1c15.4,17.7,26.5,39.9,33.3,65.5l1.8,7l6.6-2.9c3.8-1.7,8.4-3.2,13-5.1  l4.7-1.9l-0.9-4.9c-10.4-55.6-20.6-111.4-31.1-167l-0.3-1.7l-1.2-1.3c-0.4-0.4-0.9-0.9-1.7-1.3c-0.4-0.2-0.9-0.4-1.4-0.6  c-0.5-0.2-1.1-0.2-1.7-0.2c-1.1,0-2.1,0.3-2.8,0.7c-0.7,0.3-1.1,0.7-1.5,1c-0.5,0.5-0.8,0.9-1,1.2c-1.5,1.4-2.9,2.6-4.5,3.5  c-2.6,1.6-5.6,2.7-9.2,3.5c-3.6,0.8-7.9,1.3-13,1.5c-4.2,0.2-8.5,0.3-13.1,0.3c-9.1,0-18.7-0.3-28.1-0.3c-84.9,0-171.9,0-255.2,0  h-6.1v6.1c0,6,0,12.1,0,18.1v6.2l6.2-0.1c0.2,0,0.4,0,0.6,0c2.3,0,4.3,0.2,6.1,0.7c3.1,0.8,5.5,2.1,7.6,3.8c1.6,1.3,3,3,4.2,5  c1.9,3,3.4,6.7,4.5,10.9c1.2,4.2,2,8.9,2.6,13.7c1.5,11.7,1.7,24.9,1.7,38.3c0,7.1-0.1,14.3-0.1,21.4c0,83.9,0,167.1,0,250.8  c0,4.7,0,9.5,0,14.2c0,15.8-0.3,31.1-2.9,44c-0.8,4-1.7,7.8-3,11.2c-0.9,2.5-2,4.8-3.2,6.8c-0.9,1.5-1.9,2.8-3,3.9  c-1.7,1.7-3.5,2.9-5.8,3.9c-2.3,0.9-5,1.5-8.5,1.5c-0.3,0-0.6,0-0.9,0l-6.3-0.2v2l-2-1c-4.8-2.3-9-4.3-12.4-6.6  c-1.7-1.1-3.2-2.3-4.5-3.6c-1.3-1.3-2.5-2.8-3.5-4.5c-2.1-3.5-3.4-7.8-4.3-13.1c-0.9-5.2-1.3-11.2-1.7-17.8  c-0.4-6.8-0.5-14-0.5-21.4c0-5.8,0.1-11.8,0.1-17.8v-0.1c0-5.9,0-11.6,0-17.3c0-15.5,0-30.5,0-46.1c0-5.7,0-11.4,0-17.3  c0-7.6-0.2-15.1-0.2-22.1c0-5.9,0.2-11.5,0.7-16.7c0.6-5.8,1.6-11.1,3.1-15.6c1.1-3.4,2.5-6.4,4.2-9c2.5-3.9,5.6-6.8,9.5-8.9  c3.9-2.1,8.9-3.4,15.2-3.7l5.9-0.2v-5.9c0-6,0-12.1,0-18.1v-6.1l-6.1-0.1c-25.7-0.2-51.6-0.3-77.5-0.3c-29.2,0-58.5,0.1-87.8,0.1  c-10.3,0-20.6,0-30.9,0l-6.1,0v6.1c0,6.1,0,12.3,0,18.4v5.9l5.9,0.2c5.3,0.2,9.6,1.1,13.1,2.7c2.6,1.1,4.8,2.6,6.7,4.4  c2.9,2.7,5.1,6.1,6.9,10.4c1.8,4.3,3,9.4,3.7,15.2c0.8,6.8,1,14.5,1,22.7c0,3.9,0,7.9,0,12v0.1c0,5.3,0,10.6,0,15.9  c0,14.4,0,28.7,0,42.9c0,5.2,0,10.3,0,15.5v0.1c0,0.1,0,0.3,0,0.4c0,12.3-0.1,23.9-1.9,33.8c-0.9,5-2.2,9.4-3.8,13.2  c-2.5,5.7-5.7,9.9-10.1,13.3c-4.3,3.3-9.9,5.8-17.1,7.3c-4.3,0.9-8.5,1.3-12.6,1.3c-8.2,0-16-1.6-23.2-4c-7.2-2.4-13.7-5.7-19-9  c-7.4-4.6-13.7-9.9-19.4-15.9c-5.7-6-10.8-12.6-15.5-19.7c-9.5-14.5-17.1-30.7-23.4-48.9c-6.2-18.1-11-38.2-13.7-59.3  c-1.7-13.8-2.6-27.9-2.6-41.9c0-32.4,4.5-64,12.4-88.6c5.9-18.3,13.5-34.9,23.6-48.6c10.1-13.6,22.5-24.4,38.2-31.3  c8.4-3.7,17.2-6.4,27.2-7.6c4.4-0.5,8.6-0.8,12.7-0.8c13.9,0,26.6,2.8,37.9,7.2c11.3,4.4,21.3,10.4,29.7,16.7  c13.7,10.3,25.3,22.6,35,36.7c9.7,14.1,17.6,30.2,24,48.2l1.7,4.8l5-0.8c3.2-0.5,7-1.2,9.8-1.7c0,0,0,0,0.1,0c0.2,0,0.5,0,0.9-0.1  c0.3,0,0.7-0.1,1.2-0.2c0.7-0.2,1.7-0.5,2.8-1.2c0.5-0.4,1.1-0.9,1.5-1.4c0.5-0.6,0.8-1.2,1.1-1.8l0.6-1.4l-0.2-1.5  c-6.3-56.5-12.5-113.1-18.9-169.4l0,0c0-0.1,0-0.3-0.1-0.6c-0.1-0.3-0.1-0.7-0.3-1.2c-0.2-0.4-0.4-0.8-0.7-1.3  c-0.5-0.7-1.4-1.5-2.3-2c-1-0.5-2-0.6-2.8-0.6c-0.6,0-1,0.1-1.4,0.2l-2.7,0.6l-1.3,2.4c-3.3,5.9-8.1,10.6-14.3,13.7  c-2.3,1.1-4.5,1.9-6.9,2.5c-2.4,0.5-5,0.8-7.9,0.8c-2.6,0-5.5-0.2-8.7-0.7c-8.5-1.3-17.3-3.5-26.3-5.6c-8.8-2-17.9-4.1-27.4-5.5  c-16.3-2.3-34.2-3.5-52.1-3.5c-24.6,0-49,2.2-69.1,6.8c-35.7,8.1-66.2,22.7-90.5,42.7c-22.6,18.6-41.2,42.3-54.6,70.5  c-0.4,0.9-1,2-1.6,3.4c-0.3,0.7-0.6,1.4-0.9,2.2c-0.3,0.8-0.5,1.8-0.5,3.1c0,26.9,0,53.6,0,80.2c0,41.9,0,83.7,0,125.9  c0,0,0,0.1,0,0.1c0,2.2-0.1,4.7-0.1,7.2c0,1.3,0,2.6,0.1,3.9c0.1,1.3,0.3,2.6,0.7,4c0.7,2.6,1.7,4.9,2.7,7.2c1,2.3,2.1,4.4,3,6.4  c5.8,12.8,12.4,25.8,19.6,36.9c9.9,15.3,21.1,29.5,33.9,42c12.8,12.5,27.1,23.3,43.4,32c16.7,8.8,34.8,15.4,55.4,20.2  c31.5,7.3,66.7,8.1,103.4,8.1c12,0,24.2-0.1,36.4-0.1h0.1h0c0.3,0,0.7,0,1,0c23.2,0,46,0,69,0c25.3,0,50.6,0.1,76.5,0.3l6.2,0.1V621  l4.7,0c15.6,0,31.3,0,47.3,0c47.9,0,97.2,0,145.9,0c19.3,0,38.6,0,57.6,0h0l0,0h0c12,0,25.1-0.3,37.9-0.3c8.4,0,16.6,0.1,24.3,0.5  c2.9,0.2,5.9,0.5,8.6,1c2.6,0.5,4.9,1.3,6.4,2c0.7,0.4,1.7,1,2.6,1.8c0.9,0.8,1.8,1.6,2.5,2.5c0.1,0.1,0.1,0.2,0.3,0.4  c0.1,0.2,0.3,0.3,0.4,0.6c0.3,0.3,0.6,0.7,1.3,1.3c0.3,0.3,0.8,0.6,1.4,0.9c0.3,0.2,0.7,0.3,1.2,0.4c0.5,0.1,1,0.2,1.7,0.2  c0.6,0,1.3-0.1,1.9-0.3c1-0.3,1.9-0.9,2.5-1.5c0.6-0.6,1-1.2,1.3-1.7l0.3-0.6l0.2-0.7c17.5-62.6,34.6-125.5,51.7-188.3l1.3-4.6  L2848.8,432.3z M2379.8,284.3C2379.8,284.3,2379.8,284.3,2379.8,284.3C2379.8,284.3,2379.8,284.3,2379.8,284.3L2379.8,284.3z   M2437.6,609c-23.8-0.2-47.2-0.2-70.4-0.2c-23,0-45.9,0-69,0c-0.3,0-0.7,0-1,0c0,0,0,0,0,0h-0.1c-12.3,0-24.4,0.1-36.4,0.1  c-36.5,0-70.9-0.9-100.6-7.8c-19.8-4.6-36.8-10.8-52.4-19.1c-15.2-8-28.6-18.1-40.6-29.9c-12-11.8-22.6-25.2-32.2-39.9  c-6.7-10.3-13.1-22.8-18.7-35.2c-1-2.3-2.1-4.4-3-6.4c-0.9-2-1.6-3.8-2.1-5.5c-0.1-0.3-0.2-1-0.3-1.8c-0.1-0.8-0.1-1.8-0.1-2.8  c0-2.1,0.1-4.5,0.1-7.1l0,0v-0.1c0-42.3,0-84.1,0-126c0-26.5,0-53,0-79.8c0.1-0.3,0.3-0.8,0.7-1.5c0.3-0.7,0.8-1.5,1.2-2.4  c12.7-26.6,30.1-48.9,51.3-66.3c22.7-18.6,51.4-32.4,85.5-40.2c18.8-4.3,42.5-6.5,66.3-6.4c17.3,0,34.7,1.1,50.3,3.4  c8.8,1.2,17.6,3.3,26.5,5.3c8.8,2,17.8,4.3,27.1,5.7c3.7,0.6,7.2,0.9,10.5,0.9c3.7,0,7.2-0.4,10.6-1.1c3.4-0.8,6.6-1.9,9.7-3.5  c3.7-1.8,7-4.1,9.9-6.7c5.6,50,11.1,100.1,16.7,150.2c-0.7,0.1-1.4,0.2-2.1,0.4c-6.4-16.9-14.1-32.4-23.6-46.2  c-10.4-15.2-22.9-28.4-37.7-39.6c-9.2-6.9-20.1-13.5-32.7-18.3c-12.6-4.9-26.8-8-42.4-8c-4.6,0-9.3,0.3-14.2,0.9  c-11.3,1.4-21.4,4.5-30.7,8.6c-17.9,7.9-32,20.2-43.1,35.2c-11.1,15.1-19.3,32.9-25.4,52.1c-8.4,26.1-13,58.8-13,92.3  c0,14.5,0.9,29.1,2.7,43.5c2.8,22,7.7,42.8,14.3,61.8c6.5,18.9,14.5,36.1,24.7,51.6c5,7.6,10.5,14.8,16.8,21.5  c6.3,6.6,13.5,12.7,21.8,17.9c6.1,3.8,13.4,7.5,21.6,10.2c8.2,2.8,17.4,4.6,27.1,4.6c4.9,0,10-0.5,15.1-1.5c5.8-1.2,11-3,15.6-5.4  c3.5-1.8,6.6-4.1,9.4-6.6c4.2-3.9,7.5-8.5,10.1-13.8c2.6-5.3,4.3-11.2,5.5-17.8c2-11.3,2-23.5,2.1-35.9c0-0.1,0-0.3,0-0.4v0  c0-5.1,0-10.3,0-15.5c0-14.1,0-28.4,0-42.9c0-5.3,0-10.6,0-15.9v0v-0.1c0-4,0-8,0-12c0-8.3-0.1-16.5-1.1-24.2  c-0.7-5.8-1.9-11.4-3.8-16.5c-1.4-3.8-3.2-7.4-5.4-10.6c-3.4-4.9-7.9-8.9-13.5-11.7c-4-2-8.6-3.4-13.6-4.1c0-2.2,0-4.4,0-6.6  c8.3,0,16.5,0,24.8,0c29.2,0,58.5-0.1,87.8-0.1c23.9,0,47.6,0.1,71.3,0.2c0,2.1,0,4.3,0,6.4c-4.6,0.6-8.9,1.8-12.7,3.6  c-4.1,1.9-7.6,4.4-10.6,7.4c-4.5,4.5-7.8,10.1-10.2,16.3c-2.3,6.2-3.7,13-4.5,20.4c-0.6,5.8-0.7,11.9-0.7,18  c0,7.3,0.2,14.8,0.2,22.1c0,5.9,0,11.6,0,17.3c0,15.5,0,30.5,0,46.1c0,5.7,0,11.4,0,17.3v0.1c0,5.9-0.1,11.9-0.1,17.8  c0,7.5,0.1,15,0.6,22.2c0.4,6.6,0.9,13,1.9,19.1c1,6.1,2.7,11.9,5.8,17.2c1.6,2.7,3.4,5,5.4,7c3,3,6.4,5.3,9.8,7.3  c2.3,1.3,4.6,2.5,7,3.6C2437.6,603.5,2437.6,606.3,2437.6,609z M2790.7,615c-0.8-0.6-1.7-1.1-2.7-1.6c-2.9-1.5-6.2-2.4-9.6-3.1  c-3.4-0.7-6.9-1.1-10.3-1.2c-8-0.4-16.4-0.5-24.9-0.5c-13,0-26.1,0.3-37.9,0.3h-0.1c-19.1,0-38.3,0-57.6,0c-48.8,0-98,0-145.9,0  c-13.8,0-27.6,0-41.1,0c0-2.1,0-4.1,0-6.2c3.7-0.5,7.1-1.5,10.1-3c3.3-1.6,6.1-3.8,8.4-6.3c3.5-3.8,6-8.2,7.9-12.9  c1.9-4.7,3.1-9.7,4.1-14.6c2.8-14.4,3.1-30.4,3.1-46.3c0-4.7,0-9.5,0-14.2c0-83.7,0-166.9,0-250.8c0-7.1,0.1-14.3,0.1-21.4  c0-13.6-0.3-27.2-1.8-39.9c-0.7-5.3-1.6-10.7-3-15.7c-1.1-3.8-2.4-7.5-4.2-10.9c-1.3-2.6-2.9-5-4.8-7.2c-2.8-3.3-6.4-6.1-10.6-8.1  c-2.8-1.3-5.8-2.1-9.1-2.5c0-2.1,0-4.2,0-6.2c81.4,0,166.2,0,249.1,0c9.1,0,18.7,0.3,28.1,0.3c4.7,0,9.2-0.1,13.7-0.3  c7.3-0.4,13.6-1.1,19.5-3c2.7-0.9,5.4-2,7.9-3.5c9.5,50.6,18.9,101.4,28.4,152.2c-0.7,0.3-1.5,0.6-2.2,0.8  c-7.3-24.3-18.6-46-34-63.7c-8.2-9.5-17.7-18.1-28.5-25.2c-10.8-7.2-22.9-12.9-36.5-16.8c-11.5-3.3-25.2-4.9-38.6-5  c-3.3,0-6.6,0.1-9.8,0.3c-8.3,0.5-16,1.9-22.9,4.7c-3.5,1.4-6.7,3.1-9.6,5.3c-2.9,2.2-5.6,4.7-7.8,7.7c-2.2,3.1-4,6.4-5.3,10  c-2,5.3-3.2,11.1-3.8,17.1c-0.7,6-0.9,12.4-0.9,18.9v0c0,0,0,0,0,0c0,0.4,0,0.9,0,1.3c0,10.7,0,21.6,0,32.6c0,5.5,0,11,0,16.6l0,6.3  l6.3-0.2c3.2-0.1,6.4-0.1,9.6-0.1c8.3,0,16.8,0.2,25.2,0.2c7.5,0,14.8-0.2,21.8-1c7-0.8,13.6-2.2,19.7-4.7c5.2-2.2,9.8-5.2,13.6-9  c2.8-2.8,5.3-6,7.2-9.5c3-5.3,5-11.3,6.3-17.8c1.1-5.6,1.7-11.6,1.8-18.1c0.4-0.1,0.8-0.2,1.2-0.2c8.1,57.7,16.7,115,25,172.4  c-0.4,0-0.7,0.1-1.1,0.1c-4.1-11.4-9.1-22-14.9-31.7c-6.5-10.8-14.5-21-24.8-29.1c-5.4-4.2-11.4-7.6-18.1-10.2  c-6.7-2.6-14.1-4.3-22.1-5.1c-5.5-0.6-11-0.7-16.6-0.7c-8.1,0-16.4,0.3-24.9,0.3c-2.9,0-5.7,0-8.7-0.1l-6.3-0.2l-0.1,6.3  c-0.2,25.2-0.3,51.1-0.3,77c0,22.9,0,45.8,0,68.2c0,0.3,0,0.6,0,0.9c0,0.4,0,0.7,0,1.1c0,12.2,0,24.1,1.3,35  c0.6,5.5,1.6,10.7,3.1,15.7c1.5,4.9,3.5,9.6,6.3,13.8c2.7,4.1,6.1,7.5,10,10.2c5.8,4.1,12.7,6.7,20.3,8.3c7.6,1.6,16,2.2,25.1,2.2  c1.5,0,3,0,4.6,0c23.6-0.5,43.7-6.2,60.9-14.9c17.1-8.7,31.3-20.2,43.4-32.3c12.7-12.7,23.2-27.1,32.4-42.6  c8.2-13.8,15.3-28.4,21.9-43.5c0.8,0.3,1.6,0.7,2.3,1C2822.7,499,2806.8,557.1,2790.7,615z M810.8,268l-1.2-7.1  c-6.9-42-13.9-84-21.3-125.6l-0.9-5.1l-5.1,0c-41,0-82.3,0-123.7,0c-67.4,0-135,0-201.7,0h-1l-0.9,0.3c-0.5,0.2-1.1,0.4-1.7,0.8  c-0.4,0.3-0.9,0.7-1.3,1.1c-0.6,0.7-1.1,1.5-1.4,2.4c-0.2,0.5-0.3,1-0.3,1.5c-7.6,41.4-14.9,83-22.5,124.2l-1.2,6.5l6.6,0.7  c2.5,0.3,5,0.3,7.5,0.3c2.8,0,5.5-0.1,8.1-0.1c0.9,0,1.8,0,2.6,0l4,0.1l1.7-3.7c4.5-9.8,9.7-18.8,15.7-26.9  c9-12.1,19.8-22.1,33.4-29.3c12.1-6.4,26.6-10.7,44.1-12.2c-0.2,29.7-0.3,59.7-0.3,89.7c0,57.8,0.3,116,0.3,173.8  c0,23.8,0,47.5-0.2,71.2c0,9-0.6,17.6-2,25.2c-1.4,7.6-3.5,14.3-6.5,19.3c-1.5,2.5-3.2,4.7-5.3,6.6c-3.1,2.8-6.8,4.9-11.5,6.4  c-4.7,1.5-10.2,2.3-16.7,2.3l-6.1,0v6.1c0,6,0,12.1,0,18.1v6.1h6.1c72.7,0,148.9,0,221.6,0h6.1v-6.1c0-6,0-11.9,0-17.9v-6l-6-0.1  c-8.6-0.2-15.5-1.7-20.9-4.2c-2.7-1.3-5.1-2.8-7.1-4.7c-2.1-1.8-3.8-4-5.4-6.5c-3-5-5.2-11.5-6.7-19.1c-1.4-7.6-2-16.2-2-25.3v0  c0-0.3,0-0.7,0-1c0-75.1-0.3-151.7-0.3-227.5c0-35.6,0.1-71.1,0.3-106.2c9.7,1.1,18.4,3.1,26.3,5.8c14.4,5,26,12.4,35.9,21.8  c9.8,9.4,17.9,20.9,24.9,34c0.2,0.4,0.5,1,0.9,1.7c0.6,1.1,1.2,2.4,1.9,3.6c0.4,0.6,0.7,1.2,1.3,1.9c0.3,0.3,0.6,0.7,1,1.1  c0.2,0.2,0.5,0.4,0.9,0.7c0.4,0.2,0.8,0.5,1.5,0.8c0.8,0.3,1.5,0.4,2,0.5c0.5,0.1,1,0.1,1.4,0.1c0.8,0,1.5-0.1,2.1-0.1  c0.6,0,1.1-0.1,1.3-0.1c4.8,0,10.4,0,14.5,0H810.8z M789.1,255.7c-0.6,0-1.1,0-1.5,0.1c-0.3-0.5-0.5-1-0.8-1.5  c-0.4-0.8-0.8-1.5-1.1-2.2c-4.9-9.2-10.5-17.9-16.9-25.8c-9.6-11.8-21.2-21.9-35.5-29.3c-14.3-7.4-31.1-12.1-51.1-13.6l-6.5-0.5  l0,6.5c-0.2,37.3-0.3,75.1-0.3,113c0,75.9,0.3,152.4,0.3,227.5c0,0.4,0,0.7,0,1.1c0,0,0,0,0,0c0,9.6,0.6,18.9,2.2,27.5  c1.6,8.6,4.2,16.5,8.2,23.2c2.1,3.5,4.7,6.6,7.7,9.3c4.5,4,9.8,7,15.9,8.9c4.3,1.4,9,2.3,14.1,2.8c0,2,0,4,0,6  c-68.8,0-140.5,0-209.4,0c0-2,0-4.1,0-6.1c7.5-0.6,14.2-2.2,20.2-5c3.7-1.8,7.2-4,10.1-6.7c3-2.7,5.5-5.9,7.6-9.4  c4-6.8,6.4-14.7,8-23.3c1.5-8.6,2.1-17.8,2.2-27.3c0.1-23.6,0.2-47.4,0.2-71.2c0-57.8-0.3-116.1-0.3-173.8c0-32.3,0.1-64.4,0.3-96.2  l0.1-6.4l-6.4,0.3c-14.7,0.6-27.7,3-39.4,6.9c-17.5,5.9-31.7,15.4-43.2,27.2c-10.6,11-19,23.9-25.9,38.1c-2.2,0-4.4,0.1-6.5,0.1  c6.9-37.7,13.6-75.6,20.5-113.3c65.2,0,131.1,0,196.9,0c39.7,0,79.2,0,118.5,0c6.7,37.5,13,75.3,19.2,113.3  C793.9,255.7,791.4,255.7,789.1,255.7z M1998.8,590.1c-4.4,0-7.7-0.8-10.3-2.1c-2-1-3.7-2.2-5.2-3.7c-2.3-2.3-4.1-5.4-5.6-9.1  c-1.5-3.7-2.7-8.1-3.5-12.7c-1.1-5.9-1.8-12.6-2.2-19.6c-0.4-7-0.5-14.4-0.5-21.9c0-6.2,0.1-12.4,0.1-18.5c0-19,0-37.9,0-56.8  c0-49.1,0-97.9,0-146.9c0-17,0-34,0-51v0v0v-0.1c0-5.3,0-10.7,0-16.1c0-7.8,0.1-15.5,0.4-22.8c0.4-7.3,1-14.2,2.2-20.4  c0.8-4.1,1.7-8.1,3-11.5c0.9-2.6,2-4.9,3.3-6.9c0.9-1.5,2-2.8,3.1-3.9c1.7-1.7,3.6-3,6-3.9c2.4-0.9,5.3-1.5,8.9-1.5  c0.2,0,0.4,0,0.6,0l6.2,0.1v-6.2c0-6,0-12.1,0-18.1v-6.1h-6.1c-40.9,0-81.9,0-122.8,0h-6.1v6.1c0,6,0,12.1,0,18.1v6.3l6.3-0.2  c0.3,0,0.6,0,0.9,0c3.2,0,5.9,0.5,8.2,1.3c3.5,1.2,6.3,3.2,8.7,5.8c2.4,2.6,4.5,6,6.1,9.8c2.2,5.2,3.9,11.6,5.1,18.6  c1.1,7,1.7,14.6,1.8,22.2c0.2,21.1,0.3,43.2,0.3,65c0,5.3,0,10.6,0,15.9c-18.1-26.2-37.1-54.5-55-80.7c-4.6-6.6-9.5-12.5-13.7-18.8  c-1.8-2.8-4-6.2-5.8-9.7c-1.8-3.5-3.4-7.2-4.2-10.2c-0.5-2-0.7-3.8-0.7-5.4c0-1.7,0.2-3.1,0.6-4.4c0.6-1.9,1.6-3.5,2.9-4.9  c1.3-1.4,3-2.6,5.1-3.5h0c0.1,0,0.4-0.1,0.9-0.3c0.3-0.1,0.8-0.3,1.3-0.5c0.4-0.2,0.8-0.4,1.3-0.7c0.7-0.5,1.7-1.1,2.5-2.3  c0.4-0.6,0.8-1.3,1-2c0.2-0.7,0.4-1.5,0.4-2.3c0-1.6,0-3.5,0-5.5c0-4,0-8.2,0-11.4v-6.1l-6.1,0c-30.6-0.2-61.4-0.3-92.2-0.3  c-34.8,0-69.6,0.1-104.4,0.1c-12.3,0-24.6,0-36.8,0l-6.1,0v6.1c0,3,0,6.3,0,9.4c0,1.6,0,3.1,0,4.5c0,0.1,0,0.4,0,0.8  c0,0.4-0.1,0.9-0.1,1.5c0,0.7,0,1.5,0.3,2.7c0.2,0.6,0.4,1.2,0.8,1.9c0.4,0.7,1,1.4,1.7,2l1.7,1.4l2.2,0h0h0c4.6,0,8,0.9,10.7,2.2  c2,1,3.7,2.4,5.2,4.1c2.2,2.6,4.1,6,5.5,10.3c1.4,4.2,2.5,9.2,3.3,14.5c1.9,12,2.2,25.7,2.2,39.4c0,5.3,0,10.6,0,15.8v0.2  c0,16.7,0,33.4,0,50c0,45.3,0,90.2,0,135.3c0,16.5,0,33,0,49.6c0,11.5,0.2,23.4,0.2,34.9c0,8-0.1,15.7-0.5,23.1  c-0.4,9-1.2,17.7-2.8,25.2c-0.8,3.7-1.8,7.2-3.1,10.3c-0.2,0.6-0.5,1.1-0.7,1.6c-3.2-4.1-5.9-8.8-8.3-13.9  c-3.6-7.6-6.5-16.2-9.1-24.9c-5.4-18-10.6-37.1-15.9-55.6c-10.5-37-21-75-31.6-111.8c-15.9-55.1-32.1-111.4-47-167.6  c-2.4-9.1-5.3-18.6-7.3-28.1c-0.3-1.6-0.5-3.1-0.5-4.5c0-1.6,0.2-3,0.6-4.2c0.3-0.9,0.6-1.6,1-2.3c0.6-1,1.3-1.7,2.4-2.3  c1-0.6,2.4-1.1,4.3-1.3l5-0.5l0.5-5c0.3-2.6,0.3-5.2,0.3-7.7c0-2.9-0.1-5.7-0.1-8.4c0-0.9,0-1.8,0-2.7l0.2-6.3h-6.3  c-59.3,0-118.7,0-178,0h-5.5l-0.6,5.5c-0.3,2.5-0.3,5.1-0.3,7.6c0,2.8,0.1,5.7,0.1,8.3c0,0.9,0,1.8,0,2.7l-0.1,5.4l5.4,0.8  c1.7,0.3,2.9,0.7,3.8,1.3c0.7,0.4,1.2,0.9,1.7,1.5c0.7,0.9,1.3,2.1,1.8,3.7c0.4,1.6,0.7,3.5,0.7,5.7c0,2.6-0.3,5.6-1,8.7  c-1.9,8.8-5.1,17.9-7.9,25.7c-6.5,18.3-11.3,35.3-16.7,52.7c-11.1,35.3-22.3,70.4-33.3,104.9c-11.1,34.7-22.1,70.5-33.3,104.9  c-5.8,17.6-11,35.3-16.9,52.1c-3,8.5-5.9,16.8-9.2,24.5c-1.8,4.1-3.6,8.1-5.7,11.9c-2.6-6.7-4.9-13.8-7-21  c-3.2-11.1-6.2-22.5-9.9-33.7c-14.6-44.3-33.4-85.3-56-121.5c-10-16.1-21.1-31.7-33-45.8c15-9.8,29.7-20.7,42.5-33.6  c14.5-14.6,26.6-31.9,34.2-53.4c3.9-11.1,6.7-23.5,6.7-37.3h0v0v0c0-7.3-0.5-13.8-1.8-19.9c-1.2-6.2-3.2-11.9-6-17.6  c-5.1-10.4-12.1-18.6-20.6-25.2c-6.2-4.8-13.3-8.3-21.1-10.9c-11.7-3.9-24.8-5.9-38.6-6.9c-13.8-1-28.3-1.1-42.6-1.1  c-3,0-5.9,0-8.8,0c-84.4,0-168,0-251.5,0h-0.4l-0.4,0.1c-0.5,0.1-1,0.2-1.5,0.4c-0.9,0.4-1.8,1-2.4,1.8c-0.5,0.5-0.8,1.1-1,1.6  c-0.3,0.7-0.4,1.3-0.5,1.7c-0.1,0.4-0.1,0.8-0.1,1c0,0.2,0,0.3,0,0.4c0,5.7,0,11.5,0,17.2v6.2l6.2-0.1c0.1,0,0.3,0,0.4,0  c4.3,0,7.6,0.8,10.2,2.1c2,1,3.6,2.2,5.1,3.7c2.2,2.3,4,5.4,5.5,9.2c1.5,3.8,2.6,8.1,3.4,12.8c1.3,7.1,2,15.2,2.4,23.7  c0.4,8.5,0.4,17.4,0.4,26.3c0,3.2,0,6.5,0,9.7v0.1c0,18.1,0,36.1,0,54c0,49.1,0,97.8,0,146.8c0,17.9,0,35.9,0,53.9  c0,2.4,0,4.8,0,7.2c0,9.3,0,18.7-0.4,27.6c-0.4,8.9-1.1,17.5-2.4,24.9c-0.7,4.2-1.7,8.1-2.9,11.6c-0.9,2.6-2,5-3.2,7  c-0.9,1.5-1.9,2.8-3,4c-1.7,1.7-3.6,3-5.9,3.9c-2.4,0.9-5.2,1.5-8.9,1.5c-0.2,0-0.4,0-0.6,0l-6.4-0.1l0.2,6.4c0,0.9,0,1.8,0,2.7  c0,2.7-0.1,5.5-0.1,8.4c0,2.6,0.1,5.1,0.3,7.7l0.6,5.5l5.6,0c31.6-0.2,63.6-0.3,95.5-0.3c32,0,64,0.1,95.6,0.3l5.6,0l0.6-5.6  c0.3-2.6,0.3-5.2,0.3-7.7c0-2.9-0.1-5.7-0.1-8.4c0-0.9,0-1.8,0-2.7l0.2-6.5l-6.5,0.2c-0.4,0-0.8,0-1.2,0c-3.7,0-6.6-0.7-9-1.8  c-1.8-0.8-3.3-1.9-4.7-3.2c-2.1-2-3.9-4.7-5.3-7.9c-1.5-3.2-2.6-6.9-3.5-10.8c-1.7-7.2-2.6-15.7-3-24.8c-0.5-9.1-0.5-18.7-0.5-28.2  c0-0.1,0-0.2,0-0.3c0-9.1,0-18.2,0-27.4c0-22.7,0-45.6,0-68c0-5.8,0-11.6,0-17.3c4.3-1.7,8.6-3.5,12.8-5.2  c10,13.8,18.9,29,27.9,44.6c9.8,16.9,19.3,34,27.7,51.8c8.2,17.4,17.1,36.1,23,56c1.1,3.6,2.1,7.7,2.9,11.9  c0.8,4.2,1.3,8.6,1.3,12.6c0,2.6-0.2,5-0.7,7.1c-0.4,2.2-1.1,3.7-1.9,5c-0.6,0.9-1.3,1.7-2.2,2.4c-1.3,1-3,1.9-5.4,2.5  c-2.4,0.6-5.4,1.1-8.9,1.2l-5.9,0.2v5.9c0,6,0,11.9,0,17.9v0.6l0.1,0.6c0.1,0.8,0.5,1.6,0.9,2.3c0.3,0.5,0.7,0.9,1,1.3  c0.5,0.5,1,0.8,1.3,1c0.3,0.2,0.5,0.3,0.6,0.3l1.3,0.7l1.5,0c35.8-0.2,71.9-0.3,108.2-0.3c40.9,0,81.8,0.1,122.3,0.1  c14.3,0,28.6,0,42.8,0l6.1,0v-6.1c0-6,0-12.1,0-18.1v-5.5l-5.5-0.6c-4-0.4-7.4-1.3-10.1-2.4c-2-0.9-3.7-1.9-5.2-3.1  c-2.1-1.8-3.8-3.9-5-6.8c-1.2-2.8-2-6.3-2.2-10.7c-0.1-1-0.1-2.1-0.1-3.1c0-6.7,1.1-13.9,2.4-20.9c1.5-7.9,3.5-15.8,5.3-22.7  c7.3-28.2,16.4-56.1,24.4-83.4c1.2,0,2.5-0.1,3.7-0.1c11.7,0,22.2,1.6,31.8,4.3c9.6,2.7,18.2,6.5,26,11.1c17.3,10,32.4,23,44.4,38  c5.8,7.3,11.7,15.5,16.5,24.7c4.8,9.2,8.4,19.3,9.7,30.2c0.3,2.9,0.5,5.8,0.5,8.5c0,5.4-0.7,10.3-2,14.5c-1,3.2-2.2,6-3.8,8.5  c-2.4,3.7-5.3,6.7-9,9c-3.7,2.3-8.1,3.8-13.5,4.4l-5.4,0.6v5.4c0,6,0,11.9,0,17.9v6.1h6.1c95.1,0,193.7,0,288.8,0h6.1v-6.1  c0-6,0-12.1,0-18.1v-6.3l-6.3,0.2c-0.4,0-0.8,0-1.1,0c-3.3,0-6-0.5-8.1-1.4c-1.6-0.6-3-1.5-4.2-2.5c-1.9-1.5-3.5-3.5-4.9-6  c-1.4-2.5-2.5-5.4-3.5-8.6c-1.8-5.9-2.9-12.9-3.5-20.5c-0.7-7.5-1-15.6-1.3-23.6c-0.2-5.3-0.3-10.7-0.3-16.3  c0-11.1,0.3-22.7,0.3-34.2v0c0-20.6,0-41.3,0-61.9c0-49.5,0-98.9,0-148.1c0-8.6,0-17.2,0-25.8c50.8,69.5,102.5,140,152.9,209.9  c11,15.2,22.6,29.8,32.7,44.9c4.9,7.3,9.4,15.4,12.9,24.4c3.4,9,5.8,18.9,6.4,29.9c0.1,1.5,0.1,2.9,0.1,4.3c0,5.1-0.6,9.6-1.6,13.5  c-1.5,5.9-4.1,10.4-7.5,13.8c-3.4,3.4-7.8,5.9-13.5,7.4c-0.1,0-0.3,0-0.5,0.1c-0.6,0.1-1.5,0.2-2.7,0.6c-0.6,0.2-1.3,0.5-2,1  c-0.7,0.5-1.4,1.1-1.9,1.9l-1.2,1.7l0.1,2.1c0,0.8,0,1.7,0,2.5c0,2.5-0.1,5.1-0.1,7.9c0,2.4,0.1,4.8,0.3,7.3l0.6,5.5l5.6-0.1  c15.9-0.2,32.1-0.3,48.4-0.3c18.4,0,36.9,0.1,55.1,0.1c6.4,0,12.7,0,19,0l6.1,0v-6.1c0-6,0-11.9,0-17.9v-6.2l-6.2,0L1998.8,590.1z   M1992.8,608c-4.3,0-8.6,0-12.9,0c-18.1,0-36.6-0.1-55.1-0.1c-14.3,0-28.6,0.1-42.6,0.2c0-0.1,0-0.3,0-0.4c0-1.9,0-4,0.1-6.1  c4.7-1.3,8.9-3.2,12.7-5.8c3-2,5.7-4.5,8-7.3c3.5-4.2,6.1-9.2,7.7-14.8c1.7-5.6,2.5-11.8,2.5-18.5c0-1.6,0-3.3-0.1-4.9  c-0.7-12.4-3.4-23.5-7.2-33.6c-3.9-10-8.9-19-14.1-26.9c-10.5-15.7-22.2-30.4-33-45.3c-54.2-75.1-109.7-150.7-164-225.1l-11.1-15.2  v18.8c0,14.8,0,29.6,0,44.5c0,49.1,0,98.6,0,148.1c0,20.7,0,41.3,0,61.9v0c0,11.3-0.3,22.8-0.3,34.2c0,5.7,0.1,11.3,0.3,16.8  c0.4,8,0.7,16.2,1.4,24.2c0.7,8,1.9,15.8,4,22.9c1,3.4,2.3,6.7,3.9,9.9c1.2,2.4,2.7,4.7,4.5,6.7c2.6,3.1,6,5.9,10.1,7.7  c2.8,1.3,5.9,2.1,9.2,2.5c0,2.1,0,4.1,0,6.2c-91.2,0-185.4,0-276.5,0c0-2.2,0-4.4,0-6.6c4-0.9,7.8-2.3,11.2-4.2c3.7-2,7-4.5,9.8-7.5  c4.3-4.4,7.4-9.9,9.5-16c2.1-6.1,3.1-12.9,3.1-20.1c0-3.2-0.2-6.5-0.6-9.9c-1.5-12.7-5.7-24.2-10.9-34.4  c-5.3-10.2-11.7-19.1-17.8-26.8c-13-16.2-29.1-30.2-47.8-40.9c-8.6-5-18.2-9.2-28.8-12.2c-10.6-3-22.3-4.8-35.1-4.8  c-2.8,0-5.7,0.1-8.7,0.3l-4.3,0.3l-1.2,4.1c-8.3,28.3-18,57.8-25.8,88c-1.8,6.9-3.9,15-5.5,23.4c-1.4,7.4-2.6,15.3-2.7,23.2  c0,1.2,0,2.5,0.1,3.7c0.3,4.8,1.1,9.3,2.6,13.4c1.1,3,2.7,5.9,4.6,8.3c2.9,3.7,6.7,6.7,11.2,8.8c2.9,1.4,6.1,2.4,9.5,3.1  c0,2.3,0,4.5,0,6.8c-12.2,0-24.4,0-36.7,0c-40.5,0-81.5-0.1-122.3-0.1c-34.3,0-68.6,0.1-102.6,0.3c0-2.2,0-4.4,0-6.6  c1.6-0.2,3.1-0.5,4.6-0.8c2.4-0.6,4.8-1.4,6.9-2.5c3.2-1.6,6.1-3.9,8.2-6.9c2.2-2.9,3.6-6.4,4.4-10.2c0.7-3.2,0.9-6.4,0.9-9.6  c0-5-0.6-10.1-1.5-14.8c-0.9-4.8-2.1-9.2-3.2-13.1c-6.2-21.1-15.5-40.4-23.6-57.8c-8.6-18.3-18.4-35.7-28.2-52.7  c-9.9-17.1-19.9-34.1-31.5-49.7l-2.9-3.8l-4.4,1.8c-7,2.9-13.9,5.8-21,8.5l-3.9,1.5v4.2c0,7.1,0,14.3,0,21.5c0,22.4,0,45.3,0,68  c0,9.2,0,18.3,0,27.4c0,0.1,0,0.2,0,0.3c0,9.5,0,19.3,0.5,28.8c0.5,9.5,1.4,18.6,3.3,26.9c0.9,4,2.1,8,3.7,11.8  c1.2,2.9,2.7,5.6,4.5,8.2c2.7,3.8,6.2,7.2,10.7,9.6c3.2,1.7,6.9,2.9,10.9,3.4c0,1.9,0.1,3.7,0.1,5.4c0,0.3,0,0.6,0,1  c-29.7-0.2-59.7-0.3-89.8-0.3c-30,0-60.1,0.1-89.7,0.3c0-0.3,0-0.6,0-0.9c0-1.8,0-3.6,0.1-5.5c3.7-0.5,7.1-1.5,10.1-3  c3.3-1.6,6.2-3.9,8.6-6.4c3.6-3.9,6.1-8.4,7.9-13.3c1.8-4.8,3-10,4-15.1c1.5-8.3,2.2-17.3,2.6-26.5c0.4-9.3,0.4-18.8,0.4-28.1  c0-2.4,0-4.8,0-7.2c0-18,0-36,0-53.9c0-49,0-97.7,0-146.8c0-18,0-36,0-54v0v0c0-3.2,0-6.4,0-9.7c0-8.9-0.1-18-0.5-26.9  c-0.4-8.8-1.2-17.4-2.6-25.3c-0.8-4.6-1.9-9.1-3.4-13.4c-1.2-3.2-2.6-6.4-4.4-9.3c-1.4-2.2-2.9-4.3-4.8-6.1  c-2.8-2.8-6.2-5.1-10.1-6.7c-2.4-0.9-5-1.6-7.8-2c0-2.1,0-4.2,0-6.3c81.6,0,163.3,0,245.7,0c2.9,0,5.9,0,8.8,0  c19.1,0,38,0.2,54.5,2.4c8.3,1.1,15.9,2.7,22.7,5c6.8,2.3,12.7,5.2,17.5,9c7.2,5.6,12.9,12.2,17.1,20.9c2.3,4.8,3.9,9.4,5,14.6  c1,5.2,1.5,10.8,1.5,17.5v0c0,12.1-2.4,23.1-6,33.3c-6.9,19.5-17.8,35.2-31.3,48.8c-13.5,13.6-29.5,25-46.1,35.6l-3,1.9l0.2,3.6  c0.1,1.4,0.5,2.6,1,3.6c0.4,0.7,0.8,1.2,1.2,1.7c0.6,0.6,1,1,1.3,1.3c0.1,0.1,0.2,0.2,0.2,0.2c12.2,14.1,23.6,30.1,33.9,46.7  c22,35.2,40.4,75.4,54.8,118.8c3.5,10.7,6.4,22,9.8,33.3c3.3,11.3,7.1,22.7,12.4,33.4l4.6,9.3l5.9-8.5c5.2-7.4,9.3-15.5,12.8-23.7  c3.5-8.3,6.6-16.8,9.5-25.3c6-17.2,11.3-35,17-52.3c11.3-34.6,22.3-70.4,33.4-105c11.1-34.5,22.2-69.6,33.4-105  c5.5-17.6,10.3-34.4,16.6-52.3c2.8-7.8,6.2-17.4,8.3-27.3c0.8-3.8,1.3-7.6,1.3-11.3c0-2.7-0.3-5.4-0.9-8c-0.5-1.9-1.1-3.9-2.1-5.7  c-1.4-2.7-3.5-5.2-6.1-7c-1.2-0.9-2.6-1.6-4.1-2.2c0-2.2-0.1-4.4-0.1-6.5c0-0.3,0-0.6,0-0.9c55.3,0,110.7,0,166,0  c0,1.8,0.1,3.5,0,5.1c0,0.7,0,1.4,0,2.1c-1.1,0.4-2.1,0.8-3.1,1.3c-1.9,1-3.6,2.2-5,3.7c-2.1,2.2-3.7,4.8-4.6,7.6  c-1,2.8-1.4,5.7-1.4,8.6c0,2.3,0.3,4.6,0.7,6.9c2.1,10.3,5.1,20,7.4,28.8c15,56.3,31.2,112.7,47.1,167.8  c10.6,36.8,21.1,74.7,31.6,111.8c5.3,18.5,10.6,37.6,16,55.7c2.7,9,5.7,18.1,9.8,26.7c4.1,8.5,9.2,16.6,16.1,23.3l4.9,4.8l4.2-5.4  c2.6-3.4,4.7-7.1,6.3-11c2.4-5.9,3.9-12.3,4.9-19c1-6.7,1.5-13.6,1.8-20.6c0.4-7.7,0.5-15.7,0.5-23.7c0-11.7-0.2-23.5-0.2-34.9  c0-16.6,0-33.1,0-49.6c0-45.1,0-90,0-135.3c0-16.6,0-33.2,0-50V247c0-5.2,0-10.5,0-15.8c0-13.9-0.3-28.1-2.3-41.3  c-0.8-5.1-1.8-10.1-3.3-14.8c-1.1-3.6-2.5-7-4.3-10.1c-1.3-2.4-2.9-4.6-4.8-6.7c-2.8-3.1-6.3-5.6-10.5-7.3c-2.6-1.1-5.5-1.8-8.5-2.2  c0-1,0-1.9,0-2.9c0-1.1,0-2.2,0-3.3c10.2,0,20.5,0,30.7,0c34.8,0,69.6-0.1,104.4-0.1c28.8,0,57.5,0.1,86.1,0.2c0,1.8,0,3.6,0,5.3  c0,0.8,0,1.6,0,2.3c0,0,0,0-0.1,0c-4.4,2-8.4,5-11.3,9c-1.4,2-2.6,4.3-3.4,6.8c-0.8,2.5-1.2,5.2-1.2,8c0,2.7,0.4,5.6,1.1,8.5  c1.1,4.4,3.1,8.8,5.2,12.8c2.1,4.1,4.4,7.8,6.5,10.9c4.7,7,9.7,13,13.8,18.9c21.6,31.6,44.9,66.3,66.2,96.9l11.1,16l0-19.5  c0-11.5,0-23.4,0-35.4c0-21.8,0-44-0.3-65.1c-0.1-8.1-0.7-16.3-2-24c-1.3-7.7-3.1-15-5.9-21.5c-1.4-3.1-3-6.2-5-9.1  c-3-4.3-6.9-8.2-11.8-10.9c-3.6-2-7.8-3.4-12.4-4c0-2.1,0-4.1,0-6.2c36.9,0,73.7,0,110.6,0c0,2.1,0,4.2,0,6.2  c-3.7,0.5-7.1,1.5-10.1,2.9c-3.3,1.6-6.2,3.8-8.6,6.4c-3.6,3.8-6.1,8.4-8,13.2c-1.9,4.8-3.1,9.9-4.1,15c-1.3,7-2,14.4-2.4,22  c-0.4,7.7-0.5,15.6-0.5,23.5c0,5.4,0,10.8,0,16.1v0.1c0,17,0,34,0,51c0,49,0,97.8,0,146.9c0,18.9,0,37.8,0,56.8  c0,6-0.1,12.2-0.1,18.5c0,7.6,0.1,15.2,0.5,22.5c0.4,7.4,1.1,14.5,2.4,21.2c0.9,4.6,2,9.1,3.6,13.4c1.2,3.2,2.7,6.3,4.5,9.2  c2.8,4.3,6.5,8.2,11.4,10.9c2.4,1.3,5.1,2.4,8,3.1c1.1,0.3,2.2,0.5,3.4,0.6C1992.8,604,1992.8,606,1992.8,608z M1387.5,231.8  l-5.9-21.3l-5.9,21.3c-12.7,45.5-25.6,90.8-38.2,136.3l-2.1,7.6l7.8,0.2c17.9,0.5,32.3,4.5,44.9,10.5c12.7,6,23.5,13.9,34,22.3l0,0  c0,0,0.1,0.1,0.3,0.3c0.3,0.2,0.6,0.5,1.2,0.9c0.3,0.2,0.6,0.4,1.1,0.7c0.3,0.1,0.6,0.3,1,0.4c0.5,0.1,1,0.3,1.9,0.3  c0.6,0,1.4-0.1,2.3-0.4c0.6-0.2,1.3-0.6,1.9-1.2c0.9-0.8,1.4-1.7,1.7-2.5c0.3-0.8,0.4-1.5,0.4-2l0-1l-0.3-0.9  C1418.3,346.2,1403.3,288.7,1387.5,231.8z M1393.4,375.2c-12.1-5.7-25.9-9.8-42-11.2c10-35.9,20.2-71.7,30.2-107.7  c12.1,44.3,23.9,88.9,35.9,133.3C1410.2,384.4,1402.2,379.4,1393.4,375.2z M1429.8,399C1429.8,399,1429.8,399,1429.8,399L1429.8,399  L1429.8,399z M1052.3,196.7c-4.8-5.8-11-10.5-18.5-13.7c-7.4-3.2-16.1-4.8-25.8-4.8c-1.4,0-2.8,0-4.3,0.1c-4.3,0.2-8.6,0.7-12.7,1.5  c-4.1,0.8-8.1,1.9-11.8,3.3c-3.4,1.3-6.9,3.1-10.1,5.3c-1.6,1.1-3.1,2.3-4.5,3.7c-1.4,1.4-2.7,2.9-3.7,4.7c-1.4,2.3-2.3,4.8-3,7.4  c-1,3.9-1.5,8-1.8,12.2c-0.3,4.2-0.3,8.4-0.3,12.4c0,1.2,0,2.5,0,3.7c0,7.8,0,15.6,0,23.5c0,21.6,0,43.6,0,64.7c0,7.7,0,15.3,0,22.8  l0,8.2l7.8-2.3c20.2-5.9,38.9-14.3,55.2-25.3l0,0c7.9-5.4,15.5-11.7,22.1-19.1c6.7-7.4,12.4-15.8,16.6-25.2  c4.2-9.4,7.4-21.1,8.1-33.5c0.1-2,0.2-3.9,0.2-5.9c0-11.2-1.9-21.8-5.8-30.8C1058.2,204.9,1055.5,200.6,1052.3,196.7z M1053.6,245.6  c-0.6,10.7-3.5,21.2-7.1,29.3c-3.6,8-8.5,15.4-14.4,21.9c-5.9,6.5-12.7,12.3-19.9,17.2c-13,8.8-27.8,15.9-43.9,21.3  c0-4.8,0-9.6,0-14.4c0-21.1,0-43.1,0-64.7c0-7.9,0-15.8,0-23.5c0-1.2,0-2.4,0-3.7c0-5.2,0.1-10.6,0.6-15.2c0.2-2.3,0.6-4.5,1.1-6.3  c0.5-1.8,1.1-3.3,1.7-4.3c0.4-0.6,1-1.4,1.8-2.2c1.2-1.2,2.8-2.4,4.6-3.5c1.8-1.1,3.8-2,5.7-2.8c2.8-1.1,6.2-2,9.7-2.7  c3.5-0.7,7.3-1.1,10.9-1.3c1.3-0.1,2.5-0.1,3.7-0.1c5.6,0,10.5,0.6,14.9,1.8c6.5,1.7,11.8,4.5,16,8.3c4.3,3.7,7.6,8.4,10,14.1  c3.1,7.1,4.8,16.1,4.8,25.9C1053.8,242.1,1053.7,243.8,1053.6,245.6z M3395.6,712.7c-4.2-0.1-7.9-0.9-11.2-2.2  c-5-1.9-9.3-5.1-13.2-9c-3.8-3.9-7.1-8.6-9.9-13.5c-7.5-12.9-12.7-28.5-16.8-44.3c-8.5-32.7-19.9-65.9-32.1-95.4  c-24.1-58.4-54.9-112.8-92.6-157.8c20.2-12.8,39.9-27.9,56.4-45.5c8.6-9.2,16.7-19,23.9-29.9c7.1-10.9,13.3-22.9,17.7-36.4  c4.8-14.8,7.4-30.3,7.4-47v0v0c0-17.5-3.7-32.5-10-45.1c-6.3-12.6-15.3-22.8-25.8-30.6c-5.4-4.1-11-7.6-17.8-10.3  c-15.5-6.3-33.4-9.4-52.6-11.1c-19.3-1.6-39.9-1.7-60.7-1.7c-2.2,0-4.3,0-6.5,0c-66.7,0-132.9,0-199.5,0c-33.3,0-66.6,0-100.1,0  c-2.6,0-5.7-0.3-8.9-0.3c-1.4,0-2.9,0.1-4.4,0.2c-0.2,0-0.5-0.1-1-0.1c-0.4,0-1,0-1.8,0.2c-0.5,0.1-1.2,0.4-1.8,0.7  c-1,0.5-1.8,1.4-2.4,2.3c-0.6,0.9-0.8,1.7-1,2.5v0c-0.3,1.5-0.4,2.9-0.4,4.3c0,1.4,0.1,2.7,0.1,4c0.1,1.3,0.1,2.6,0.1,3.7v0v0  c0,2.8-0.1,5.7-0.1,8c0,0.6,0,1.1,0,1.6c0,0.3,0,0.5,0,0.8c0,0.2,0,0.4,0,0.8c0,0.5,0,1.1,0.3,1.8c0.2,0.6,0.5,1.3,0.9,1.9  c0.3,0.5,0.8,1,1.3,1.4c0.7,0.6,1.6,0.9,2.3,1.1c0.7,0.2,1.3,0.2,1.8,0.2c0.1,0,0.1,0,0.2,0v0c0.1,0,0.3,0,0.4,0  c5.7,0,10.1,1.1,13.5,2.8c2.6,1.3,4.8,3,6.7,5.1c2.9,3.2,5.2,7.4,7,12.4c1.8,5,3.2,10.8,4.3,16.8c1.5,8,2.3,16.8,2.8,26.2  c0.5,9.3,0.6,19.1,0.6,29c0,6.5,0,13.1,0,19.6v0.1v0.1c0,22.6,0,45.2,0,67.7c0,61.6,0,122.9,0,184.6c0,22.6,0,45.2,0,67.9  c0,5.5,0,11.2,0,16.8c0,10.5-0.1,21-0.5,30.9c-0.5,10-1.3,19.5-2.8,28c-0.9,5.3-2.1,10.3-3.7,14.8c-1.2,3.4-2.6,6.4-4.2,9.1  c-1.2,2-2.6,3.8-4.1,5.3c-2.3,2.3-4.8,4.1-8,5.3c-3.2,1.3-7,2-11.8,2c-0.1,0-0.3,0-0.4,0l-5.7,0l-0.5,5.7c-0.2,3.1-0.3,6.3-0.3,9.4  c0,3.6,0.1,7.1,0.1,10.5c0,1.2,0,2.4,0,3.5l-0.1,6.3h6.3c16.1,0,32.4,0,48.6,0c44.5,0,89.3,0,134.1,0c16.4,0,32.8,0,49.2,0  c0.7,0,1.7,0,2.7,0.1c1,0,2,0.1,3,0.1c0.5,0,1,0,1.6-0.1c0.3,0,0.6-0.1,1.1-0.2c0.2,0,0.5-0.1,0.8-0.2c0.3-0.1,0.7-0.3,1.2-0.5  c0.2-0.1,0.4-0.2,0.6-0.4c0.2-0.2,0.5-0.4,0.9-0.7c0.3-0.3,0.6-0.6,0.9-1.1c0.5-0.7,0.9-1.6,1-2.2c0.2-0.9,0.2-1.4,0.3-1.8  c0-0.4,0-0.6,0.1-1c0.2-3,0.3-7.1,0.3-11.1c0-1.8,0-3.6-0.1-5.3c0-1.3-0.1-2.5-0.2-3.7c0-0.2,0.1-0.5,0.1-0.8c0-0.6-0.1-1.3-0.3-1.9  c-0.2-0.5-0.4-1-0.6-1.3c-0.4-0.7-0.8-1.1-1.1-1.3c-0.4-0.4-0.7-0.6-1-0.8c-0.2-0.2-0.4-0.3-0.6-0.4l-1.5-0.9l-1.7,0  c-0.2,0-0.4,0-0.6,0c-5.1,0-9.2-0.9-12.5-2.4c-2.5-1.1-4.6-2.6-6.5-4.4c-2.8-2.7-5.2-6.3-7.1-10.6c-1.9-4.3-3.4-9.2-4.5-14.5  c-2.1-9.7-3.2-20.3-3.7-31.8c-0.5-11.4-0.5-23.7-0.5-36.5c0-8.1,0-16.1,0-24.2c0-26.7,0-53.5,0-80.5c0-11.3,0-22.6,0-34  c0-1-0.1-1.9-0.1-2.6c0,0,0,0,0,0c0.9-0.5,2.1-0.9,3.3-1.4c1.8-0.7,3.9-1.4,6-2.3c3.2-1.3,6.4-2.7,9.3-3.9c2.7,3.7,5.3,8.1,8.3,12.6  c22.7,34.8,43.7,71.1,62.1,110.3c5.3,11.3,10.8,22.4,15.6,33.8c4.8,11.5,9.1,23.5,12.8,35.9c1.4,4.9,2.9,10.1,3.9,15.5  c1.1,5.4,1.8,10.9,1.8,16.1c0,3-0.2,5.9-0.7,8.7c-0.5,2.8-1.2,5-2.1,6.8c-0.7,1.3-1.4,2.4-2.3,3.3c-1.3,1.4-2.9,2.5-5.1,3.4  c-2.2,0.9-4.9,1.7-8.2,2.2h0c-0.2,0-0.9,0.1-2,0.1c-1,0-2.3,0.1-3.9,0.4l0,0c0,0-0.1,0-0.2,0c-0.2,0-0.4,0-0.7,0.1  c-0.2,0-0.4,0.1-0.7,0.1c-0.2,0-0.4,0.1-0.6,0.2c-0.3,0.1-0.6,0.2-1.2,0.6l0,0c-0.2,0.1-0.4,0.2-0.7,0.5c-0.2,0.2-0.5,0.4-0.8,0.7  c-0.2,0.2-0.5,0.5-0.7,0.9c-0.4,0.5-0.7,1.3-0.9,2c-0.2,0.7-0.2,1.3-0.2,1.8c0,0.1,0,0.2,0,0.3c-0.1,0.3-0.1,0.7-0.1,1  c-0.2,1.4-0.2,2.7-0.2,4.2c0,2,0.1,4.1,0.1,6.1c0.1,2,0.1,3.8,0.1,5c0,0.2,0,0.6-0.1,1.2c0,0.6-0.1,1.3-0.1,2.2c0,0.9,0.1,2,0.4,3.3  l0,0c0.1,0.2,0.1,0.4,0.2,0.7c0.1,0.2,0.1,0.4,0.3,0.7c0.1,0.3,0.3,0.6,0.6,1c0.2,0.3,0.5,0.7,1,1.1c0.3,0.3,0.7,0.6,1.2,0.9  c0.7,0.4,1.4,0.6,1.9,0.7c0.2,0,0.4,0.1,0.6,0.1c0.2,0.1,0.4,0.1,0.6,0.1c0.6,0.1,1.1,0.2,1.5,0.2c0.4,0,0.9,0,1.3,0  c1.1,0,2.2-0.1,3.3-0.1c1.1-0.1,2.1-0.1,2.9-0.1c19.1,0,38.5,0,57.8,0c48,0,96.4,0,143.9,0c15.3,0,30.5,0,45.6,0h6.1v-6.1  c0-7.7,0-15.4,0-23v-6L3395.6,712.7z M3132.8,719.2L3132.8,719.2L3132.8,719.2C3132.8,719.2,3132.8,719.2,3132.8,719.2z   M2830.9,160.3L2830.9,160.3L2830.9,160.3L2830.9,160.3z M2838.3,133L2838.3,133L2838.3,133C2838.3,133,2838.3,133,2838.3,133  L2838.3,133z M2830.8,161.6L2830.8,161.6L2830.8,161.6L2830.8,161.6z M3137.8,747.6C3137.8,747.6,3137.8,747.6,3137.8,747.6  L3137.8,747.6L3137.8,747.6z M3205.9,735.8c-19.4,0-38.7,0-57.8,0c-1.1,0-2.2,0.1-3.2,0.1c0-1.5-0.1-3.4-0.1-5.3  c-0.1-2-0.1-4-0.1-5.7c0-0.2,0-0.3,0-0.5c0.7,0,1.6,0,2.7-0.2l0,0c3.6-0.5,7-1.4,10.1-2.6c2.3-0.9,4.5-2,6.5-3.5  c3-2.1,5.6-4.9,7.4-8.2c1.9-3.3,3.1-7.1,3.9-11.3c0.6-3.6,0.9-7.3,0.9-10.9c0-6.3-0.8-12.6-2-18.5c-1.2-5.9-2.7-11.5-4.2-16.6  c-3.8-12.9-8.3-25.3-13.2-37.2c-5-12-10.6-23.2-15.8-34.3c-18.7-39.9-40-76.6-62.9-111.8c-3.2-5-6.4-10.4-10.4-15.4  c-0.1-0.2-0.3-0.4-0.5-0.6c-0.2-0.2-0.3-0.4-0.7-0.8c-0.2-0.3-0.5-0.6-1-0.9c-0.6-0.5-1.5-1-2.4-1.2c-0.9-0.2-1.6-0.3-2.2-0.3  c-0.3,0-0.5,0-0.8,0l0,0c0,0,0,0-0.1,0c0,0,0,0,0,0l0,0c-0.4,0-0.6,0.1-0.8,0.1c-0.3,0.1-0.4,0.1-0.6,0.1c-0.2,0.1-0.3,0.1-0.3,0.1  c-0.1,0-0.2,0.1-0.2,0.1c-0.1,0.1-0.3,0.1-0.4,0.2c-0.4,0.2-1,0.5-1.3,0.6c-3.4,1.4-7.2,3.1-11,4.6c-1.6,0.7-3.6,1.4-5.7,2.1  c-2,0.7-4,1.6-6.1,2.7c0,0-0.1,0-0.1,0c-0.3,0.1-0.9,0.3-1.6,0.8c-0.4,0.2-0.8,0.5-1.1,0.9c-0.4,0.3-0.7,0.7-0.9,1.1  c-0.8,1.2-1.1,2.4-1.3,3.3c-0.2,0.9-0.2,1.7-0.2,2.4c0,1,0.1,1.9,0.1,2.6c0.1,0.7,0.1,1.4,0.1,1.7c0,11.4,0,22.7,0,34  c0,27,0,53.8,0,80.5c0,8.1,0,16.2,0,24.2c0,12.9,0,25.3,0.5,37.1c0.6,11.8,1.7,23.1,4,33.8c1.1,5.2,2.6,10.3,4.5,15.1  c1.5,3.6,3.3,7.1,5.5,10.3c3.3,4.8,7.6,8.9,13.1,11.8c4.3,2.3,9.2,3.7,14.8,4.2c0,1.3,0.1,2.8,0.1,4.3c0,2.3,0,4.7-0.1,6.8  c-0.7,0-1.4,0-2.2,0c-16.4,0-32.8,0-49.2,0c-44.8,0-89.7,0-134.1,0c-14.2,0-28.4,0-42.5,0c0-2.7-0.1-5.4-0.1-8c0-1,0-2.1,0-3.1  c5-0.5,9.5-1.8,13.5-3.8c4-2,7.5-4.6,10.4-7.8c4.3-4.7,7.4-10.2,9.7-16.2c2.3-6,3.8-12.3,4.9-18.7c1.6-9.3,2.5-19.2,3-29.5  c0.5-10.3,0.6-21,0.6-31.5c0-5.6,0-11.2,0-16.8c0-22.7,0-45.3,0-67.9c0-61.7,0-123,0-184.6c0-22.5,0-45.1,0-67.7v0v-0.2  c0-6.5,0-13,0-19.6c0-10-0.1-19.9-0.6-29.6c-0.5-9.7-1.4-19-3-27.8c-1.1-5.7-2.3-11.4-4.2-16.8c-1.4-4.1-3-8-5.2-11.6  c-1.6-2.7-3.5-5.3-5.7-7.6c-3.3-3.5-7.4-6.3-12.2-8.3c-3.4-1.4-7.2-2.3-11.3-2.7c0-1.6,0.1-3.5,0.1-5.5l0,0v-0.1v0v0  c0-1.5-0.1-3-0.1-4.3c0-0.5,0-0.9-0.1-1.4c0.1,0,0.2,0,0.4,0c2.5,0,5.6,0.3,8.9,0.3c33.5,0,66.9,0,100.1,0c66.5,0,132.8,0,199.5,0  c2.2,0,4.3,0,6.5,0c20.8,0,41.1,0.1,59.7,1.6c18.6,1.5,35.3,4.6,49,10.2c5.6,2.3,10.2,5.1,15.1,8.8c9.1,6.9,16.8,15.5,22.2,26.3  c5.4,10.8,8.7,23.8,8.7,39.6v0v0c0,15.4-2.4,29.6-6.8,43.1c-4.1,12.4-9.6,23.4-16.3,33.5c-6.6,10.1-14.3,19.4-22.6,28.2  c-17,18.2-38,33.9-59.5,47l-3.3,2l0.4,3.9c0.1,1.1,0.5,2.1,0.8,2.8c0.6,1.1,1.1,1.8,1.6,2.3c0.4,0.5,0.8,0.9,1,1.1  c37.7,44.2,68.7,98.6,92.9,157.2c12,29.1,23.3,61.7,31.6,93.8c4.2,16.3,9.7,32.9,18,47.4c4.2,7.2,9.6,14.7,16.8,20.6  c3.6,2.9,7.8,5.4,12.4,7.2c2.9,1.1,6.1,2,9.4,2.5c0,3.8,0,7.5,0,11.3c-13.1,0-26.2,0-39.5,0C3302.3,735.8,3253.9,735.8,3205.9,735.8  z M3136.1,713.6C3136.1,713.6,3136.1,713.6,3136.1,713.6L3136.1,713.6L3136.1,713.6z M3030,463.6C3030,463.6,3030,463.6,3030,463.6  C3030,463.6,3030,463.6,3030,463.6L3030,463.6z M3030,463.6L3030,463.6C3030,463.6,3030,463.6,3030,463.6L3030,463.6z M3146.9,216.5  c-5.9-7.2-13.4-13.1-22.5-17.1c-9.1-4-19.7-6.1-31.7-6.1c-1.6,0-3.3,0-5,0.1c-9.7,0.5-20,2.2-29.3,5.5c-4.6,1.7-8.9,3.7-12.8,6.2  c-3.8,2.5-7.2,5.6-9.6,9.4c-2,3.1-3.4,6.5-4.4,10.1c-1.5,5.4-2.2,11.1-2.6,17c-0.4,5.9-0.4,12-0.4,17.9c0,11.3,0,22.7,0,34.1  c0,27.5,0,55.2,0,82.1c0,8.1,0,16.2,0,24.1v8l7.7-2.1c25.2-6.9,48.4-18,68.5-31.7c9.9-6.8,19.3-14.6,27.5-23.7  c8.2-9.1,15.3-19.4,20.5-31.1c5.2-11.6,9.4-26,10.1-41.7c0.1-2.2,0.2-4.4,0.2-6.7c0-13.8-2-27-6.8-38.4  C3154,226.7,3150.8,221.3,3146.9,216.5z M3150.8,277c-0.6,13.8-4.4,26.9-9,37.2c-4.7,10.4-10.9,19.6-18.4,27.9  c-7.4,8.2-16.1,15.5-25.3,21.8c-16.9,11.5-36.3,21.2-57.1,27.8c0-5.2,0-10.5,0-15.8c0-26.8,0-54.6,0-82.1c0-11.5,0-22.9,0-34.1  c0-7.9,0-15.6,0.8-22.4c0.4-3.4,0.9-6.5,1.7-9.2c0.8-2.7,1.8-5,2.9-6.8c1.3-2,3.3-4,6.1-5.8c4.2-2.8,9.9-5.1,16.2-6.8  c6.3-1.7,13.2-2.7,19.6-3c1.5-0.1,3-0.1,4.4-0.1c7,0,13.3,0.8,18.9,2.3c8.4,2.3,15.2,6,20.7,11c5.5,4.9,9.8,11.1,12.8,18.4  c3.9,9.3,5.8,21.1,5.8,33.7C3150.9,272.9,3150.9,275,3150.8,277z M2428.7,992.8c0.6-5.8,1.6-11.1,3.2-15.7c1.1-3.4,2.6-6.4,4.2-9  c2.5-3.9,5.6-6.8,9.5-9c3.9-2.1,8.9-3.5,15.2-3.7l5.9-0.2v-5.9c0-6,0-12.1,0-18.1v-6.1l-6.1-0.1c-25.7-0.2-51.5-0.3-77.4-0.3  c-29.2,0-58.4,0.1-87.6,0.1c-10.3,0-20.6,0-30.9,0l-5.5,0l-0.6,5.5c-0.3,2.5-0.3,5.1-0.3,7.6c0,2.8,0.1,5.7,0.1,8.3  c0,0.9,0,1.8,0,2.7l-0.2,6l6,0.3c5.2,0.3,9.5,1.3,13,2.8c2.6,1.2,4.9,2.6,6.8,4.4c2.9,2.6,5.2,6,7,10.2c1.8,4.2,3,9.3,3.7,15.2  c0.8,7,1,14.9,1,23.3c0,3.9,0,7.9,0,12v0c0,2.7,0,5.3,0,8c0,7.3,0,14.6,0,21.6c0,2.6,0,5.1,0,7.6c0,0,0,0,0,0.1v0.1  c0,12.2,0.3,24.1,0.3,35.4c0,13-0.4,25-2.2,35.4c-0.9,5.1-2.1,9.5-3.7,13.3c-2.5,5.7-5.7,10.1-10,13.5c-4.3,3.4-9.7,5.9-16.8,7.4  c-3.8,0.8-7.8,1.2-11.8,1.2c-6.5,0-13-1-18.9-2.4c-9.2-2.2-17.4-6.4-24.2-10.6c-7.4-4.5-13.8-9.9-19.5-15.9  c-5.7-6-10.8-12.7-15.6-19.8c-9.8-14.6-17.5-30.9-23.6-48.9c-6.1-18-10.4-37.8-13.5-59.3c-2-13.9-2.9-28.4-2.9-42.8  c0-31.2,4.4-62.2,12.2-86.8c5.8-18.5,13.5-35,23.5-48.7c10-13.7,22.3-24.6,37.8-32c11.1-5.3,25.9-8.3,40.6-8.3  c6.4,0,12.8,0.5,18.9,1.6c19.6,3.5,35.7,12,48.9,21.9c13.8,10.4,25.3,22.6,35,36.7c9.7,14.1,17.6,30.2,23.9,48.2l1.6,4.6l4.8-0.5  c2.5-0.3,4.7-0.7,6.8-1.1c2-0.4,3.9-0.7,5.8-0.9l6.2-0.5l-0.7-6.2c-6-56.1-12.4-113.8-18.9-170.2l-2-17.1l-9.3,14.5  c-1.9,2.9-4,5.6-6.4,7.9c-2.4,2.3-5.1,4.3-8.2,5.9c-2.1,1.1-4.4,1.9-7,2.5c-2.6,0.6-5.4,0.9-8.4,0.9c-2.4,0-5-0.2-7.7-0.5  c-8.1-1.1-16.6-3.5-25.4-5.5c-9-2.1-17.9-3.8-27.2-5.2c-16.9-2.6-35.9-3.9-54.7-3.9c-23,0-45.8,1.9-64.6,5.9  c-35.3,7.5-65.1,21.3-90,40.6c-21,16.3-39.6,37-52.9,61.8c-0.3,0.6-0.8,1.4-1.3,2.3c-0.8,1.4-1.7,3.1-2.5,4.8  c-0.4,0.9-0.8,1.7-1.1,2.6c-0.3,0.9-0.6,1.8-0.8,3l0,0.2l0-0.2c-0.3,1.9-0.4,3.7-0.4,5.4c0,3.5,0.3,6.9,0.3,9.7v0  c0,13.9,0,27.8,0,41.6c0,36.3,0,72.3,0,108.3c0,12.6,0,25.2,0,37.9h0l0,0c0,6.3-0.3,12.9-0.3,19.5c0,3.3,0.1,6.6,0.3,9.9v0  c0.1,0.8,0.2,1.5,0.3,2.3c0.2,1.1,0.6,2.1,0.9,2.8c0.3,0.7,0.5,1.1,0.7,1.6l-0.1-0.2l0.1,0.2c3.3,7.6,6.9,15.2,10.5,21.8  c15.3,28.2,34,52.9,57.9,72.4c24,19.5,53.2,33.6,89.1,41c20.8,4.3,42.9,6.2,66.2,7.2c5.9,0.3,11.7,0.3,17.6,0.3  c6.1,0,12.3-0.1,18.4-0.1c1.2,0,2.5,0,3.7,0c28,0,55.9,0,83.9,0c31.1,0,62.1-0.1,93.1-0.3l6.1,0v-6.1c0-6,0-11.9,0-17.9v-3.9  l-3.5-1.7c-4.8-2.2-9-4.2-12.5-6.4c-1.7-1.1-3.2-2.3-4.6-3.6c-1.4-1.3-2.5-2.8-3.6-4.5c-1-1.6-1.8-3.5-2.6-5.7  c-1.1-3.3-1.8-7.1-2.4-11.4c-0.5-4.2-0.8-8.8-1-13.6c-0.5-11.4-0.7-23.5-0.7-35.8c0-14.7,0.2-29.6,0.2-44.1c0-4.2,0-8.6,0-13.1  c0-8.9,0-18.1,0-27.1v-0.1l0,0c0-7.6-0.2-15-0.2-22.1C2428,1003.6,2428.2,998,2428.7,992.8z M2429.8,1195.7c3,3,6.4,5.2,9.9,7.2  c2.3,1.3,4.6,2.4,7,3.5c0,2.6,0,5.3,0,7.9c-29,0.2-58,0.3-87,0.3c-27.9,0-55.9,0-83.9,0c-1.2,0-2.5,0-3.7,0  c-6.2,0-12.4,0.1-18.4,0.1c-5.8,0-11.5-0.1-17.1-0.3c-22.9-1-44.4-2.9-64.2-7c-34.2-7.1-61.4-20.3-83.9-38.6  c-22.4-18.2-40.2-41.5-54.9-68.7c-3.4-6.3-6.9-13.5-10.1-20.8l0,0c-0.2-0.6-0.5-1-0.6-1.3c-0.1-0.2-0.2-0.4-0.2-0.5  c-0.1-0.1,0-0.1-0.1-0.2c0-0.1-0.1-0.3-0.1-0.7l0,0c-0.2-2.9-0.3-5.9-0.3-8.9c0-6.2,0.3-12.8,0.3-19.4l0,0v0c0-12.6,0-25.3,0-37.9  c0-36,0-72,0-108.3c0-13.8,0-27.7,0-41.6v0c0-3.6-0.3-7-0.3-9.7c0-1.4,0.1-2.6,0.2-3.5c0,0,0-0.2,0.1-0.4c0.1-0.4,0.4-1.1,0.8-1.8  c0.5-1.1,1.2-2.3,1.8-3.5c0.7-1.2,1.3-2.3,1.8-3.2c12.4-23.1,29.8-42.5,49.6-57.9c23.4-18.2,51.4-31.2,85-38.3  c17.7-3.7,39.8-5.6,62.1-5.6c18.3,0,36.7,1.3,52.9,3.7c8.9,1.4,17.6,3.1,26.3,5.1c8.4,1.9,17.3,4.5,26.5,5.7  c3.2,0.4,6.3,0.7,9.3,0.7c3.9,0,7.6-0.4,11.1-1.1c3.5-0.8,6.9-2,10-3.6c3.6-1.9,6.8-4.1,9.6-6.7c5.7,49.9,11.4,100.6,16.6,150.2  c-0.3,0-0.5,0.1-0.8,0.1c-0.4,0.1-0.8,0.1-1.2,0.2c-6.3-17-14.1-32.5-23.6-46.3c-10.4-15.2-22.9-28.4-37.7-39.5  c-14.3-10.8-32.3-20.2-54.1-24.2c-6.9-1.2-14-1.8-21.1-1.8c-16.4,0-32.7,3.2-45.9,9.5c-17.5,8.3-31.4,20.7-42.4,35.8  c-11,15.1-19.1,32.9-25.3,52.2c-8.3,26.1-12.8,58.1-12.8,90.5c0,15,1,30,3,44.5c3.1,22.1,7.6,42.6,14,61.5  c6.4,18.9,14.5,36.2,25,51.9c5.1,7.6,10.6,14.8,16.9,21.5c6.4,6.7,13.6,12.7,22,17.9c7.5,4.6,16.8,9.4,27.7,12  c6.6,1.6,14,2.7,21.7,2.7c4.7,0,9.6-0.4,14.3-1.4c5.7-1.2,10.9-3.1,15.4-5.6c3.4-1.9,6.6-4.1,9.3-6.8c4.1-3.9,7.4-8.7,10-14  c2.5-5.4,4.2-11.3,5.4-17.9c1.9-11.5,2.4-24.2,2.4-37.4c0-11.5-0.3-23.4-0.3-35.4v0v0c0-2.5,0-5,0-7.6c0-7,0-14.3,0-21.6  c0-2.7,0-5.3,0-8v0c0-4,0-8,0-12c0-8.5-0.1-16.9-1.1-24.7c-0.7-6-1.9-11.5-3.8-16.6c-1.4-3.8-3.3-7.4-5.6-10.6  c-3.4-4.8-8-8.8-13.5-11.5c-4-2-8.4-3.4-13.3-4.1c0-1.9-0.1-3.8-0.1-5.6c0-0.3,0-0.6,0-0.9c8.4,0,16.7,0,25.1,0  c29.2,0,58.4-0.1,87.6-0.1c23.8,0,47.6,0.1,71.2,0.2c0,2.2,0,4.3,0,6.5c-4.6,0.7-8.9,1.9-12.7,3.7c-4,1.9-7.6,4.4-10.6,7.5  c-4.5,4.5-7.8,10.1-10.2,16.3c-2.3,6.2-3.7,13.1-4.5,20.4c-0.6,5.8-0.7,11.8-0.7,17.9c0,7.3,0.2,14.7,0.2,22.1l0,0h0  c0,9.1,0,18.3,0,27.1c0,4.4,0,8.8,0,13.1c0,14.3-0.2,29.3-0.2,44.1c0,12.4,0.2,24.6,0.7,36.4c0.3,6.5,0.7,13,1.8,19.2  c0.5,3.1,1.2,6.1,2.2,9c1,2.9,2.2,5.7,3.7,8.3C2425.9,1191.5,2427.7,1193.8,2429.8,1195.7z M2847.6,1028.3l0.3,1.2L2847.6,1028.3  c-4.5-19.8-13.2-37.2-23.9-51.3c-15.8-21-37.7-37.7-62.3-49.4c-17-8.1-35.5-13.5-53-19.8c-17.8-6.4-35.6-12.4-52.9-18.8  c-8.2-3.1-16.1-6.7-22.6-11.2c-3.3-2.3-6.2-4.7-8.7-7.5c-2.5-2.8-4.6-5.8-6.3-9.2c-2.3-4.8-3.6-11.1-3.6-17.6c0-3.2,0.3-6.4,0.9-9.5  c0.8-4.3,2.2-8,3.9-11.4c2.6-5.1,6.3-9.4,10.7-13c4.4-3.6,9.7-6.6,15.5-9c8-3.3,17.3-5.5,27.4-5.9c1,0,2-0.1,3-0.1  c9.5,0,18.4,2.1,25.9,4.6c8.2,2.8,16.2,6.9,22.7,11.1c23.8,15.4,42.6,38.6,54.9,66c0.9,2,1.8,4.1,2.6,6c0.3,0.7,0.6,1.7,0.9,2.9  c0.3,1.1,0.7,2.3,1.3,3.7c0,0.1,0.1,0.2,0.1,0.4c0.1,0.4,0.3,0.9,0.7,1.6c0.2,0.4,0.5,0.8,1,1.4c0.4,0.5,1.1,1.1,2,1.5l0,0  c0,0,0.1,0,0.1,0.1c0,0,0.1,0,0.1,0l0,0c0.6,0.3,0.9,0.3,1.2,0.4c0.4,0.1,0.7,0.1,0.9,0.1c0.2,0,0.3,0,0.4,0c0.3,0,0.4,0,0.5,0  c0.2,0,0.3,0,0.4,0c0.4,0,0.7-0.1,1.2-0.2c1.4-0.2,3.5-0.6,4.8-0.8c1-0.2,2-0.3,3-0.5c1-0.2,2.1-0.3,3.2-0.6  c0.6-0.2,1.4-0.4,2.2-0.9c0.6-0.4,1.2-0.8,1.7-1.4c0.8-0.9,1.2-2,1.5-2.8c0.2-0.9,0.2-1.5,0.2-2c0-0.7-0.1-1.1-0.1-1.4  c0-0.3,0-0.5,0-0.6l0,0c-0.3-6.8-1.4-13.3-2-19.5c-4.1-43.7-9.6-93.3-13.5-135.6l-0.2-2l-1.3-1.5c-0.4-0.5-1-1-1.8-1.5  c-0.4-0.2-0.9-0.5-1.5-0.6c-0.6-0.2-1.2-0.2-1.7-0.2c-1.1,0-2.1,0.3-2.8,0.6c-0.7,0.3-1.1,0.7-1.5,1c-0.6,0.6-1,1-1.2,1.4  c-0.1,0.2-0.2,0.3-0.3,0.5c-2.6,2.9-5.6,5.5-9,7.5c-3.6,2.2-7.8,3.9-12.8,5c-2.8,0.6-5.4,0.9-8.1,0.9c-2.8,0-5.7-0.3-8.7-0.9  c-5.9-1.2-11.8-2.5-17.4-3.9c-23.5-5.6-51.4-10.2-78.1-10.2h-0.1v0c-14.7,0-28.3,0.4-41.3,2.8c-36.7,6.8-67.2,23.6-88.5,47  c-10.6,11.6-19.5,25.5-26.1,41.7c-6.7,16.1-11.1,34.4-12.7,54.9c-0.5,5.6-0.7,11.4-0.7,17.2c0,8.3,0.6,16.8,2,25.1  c2.3,12.9,6,24.4,10.9,34.8c4.9,10.3,11,19.4,17.9,27.5c7,8.1,15.2,15.1,24.2,21.1c13.5,9.1,28.7,16.3,44.3,22.7  c15.7,6.4,31.8,12.1,47.2,18.2c9.9,3.9,20.5,8.3,31.2,12.3c10.4,3.8,20.6,7.8,29.2,12.8c4.3,2.5,8.2,5.3,11.5,8.4  c3.3,3.1,6.1,6.6,8.3,10.6l0.5,0.9l-0.5-0.9c1.5,2.7,2.7,6.1,3.5,9.9c0.8,3.9,1.2,8.2,1.2,12.8c0,3.5-0.2,7.2-0.7,10.8  c-1.1,8.6-3.6,15.8-7.1,22c-2.6,4.6-5.8,8.6-9.7,12.1c-5.7,5.3-12.8,9.4-21.2,12.5c-8.4,3.1-18.1,5.1-28.8,6  c-4.5,0.4-8.8,0.6-13,0.6c-17.6,0-32.9-3.3-46.3-8.6c-13.4-5.3-24.8-12.7-34.5-21c-14.8-12.6-27.5-28.5-37.3-47.3  c-9.8-18.8-16.9-40.6-20.4-65l1.6-7.6l-9.2,2c-1.4,0.3-2.7,0.5-4.1,0.7c-1.4,0.2-2.9,0.4-4.7,0.7c0,0-0.2,0-0.4,0  c-0.4,0-0.9,0.1-1.5,0.2c-0.3,0.1-0.7,0.1-1.1,0.2c-0.3,0.1-0.6,0.2-1,0.3c-0.3,0.1-0.6,0.2-1,0.3c-0.5,0.2-1,0.5-1.4,0.8  c-0.4,0.3-0.8,0.7-1,1c-0.5,0.6-0.8,1.1-0.9,1.5c-0.3,0.6-0.4,1-0.5,1.3c-0.1,0.3-0.2,0.6-0.2,1l0,0.2l0-0.2  c-0.2,0.9-0.2,1.6-0.2,2.1c0,0.8,0.1,1.5,0.1,1.8v0c4.3,63.2,8.7,128.3,12.7,192.7l0-0.4l0,0.4c0.1,1.1,0.1,2.4,0.2,3.7  c0,0.6,0.1,1.3,0.2,1.9c0,0.3,0.1,0.7,0.2,1.1c0,0.1,0,0.2,0,0.3c0,0.2,0.1,0.5,0.2,1c0.1,0.3,0.2,0.8,0.5,1.3  c0.2,0.4,0.5,0.8,0.9,1.3c0.6,0.6,1.4,1.2,2.3,1.6c0.9,0.3,1.7,0.4,2.3,0.4c0.8,0,1.4-0.1,1.9-0.3c0.9-0.3,1.4-0.6,1.7-0.9  c0.3-0.2,0.5-0.4,0.7-0.6c0.3-0.3,0.5-0.5,0.6-0.7c0.1-0.1,0.2-0.2,0.2-0.3c0-0.1,0.1-0.1,0.2-0.2l0.2-0.2l-0.2,0.2  c3.6-3.6,6.9-6.8,10.6-9.3c1.8-1.2,3.7-2.3,5.9-3.1c2.1-0.8,4.5-1.4,7.2-1.8c1.5-0.2,3-0.3,4.6-0.3c4.9,0,10.1,0.8,14.7,1.7  c6.5,1.2,12.7,2.7,18.5,4.1c19.2,4.6,38.1,8.4,59.4,10.7c7.3,0.8,15,1.4,22.4,1.7l0.2,0h0.2c7.2,0,14.4,0,21.6,0h0.1l0.1,0  c23.4-0.8,45.1-3.5,64.9-8.3c29.7-7.2,55.2-19,75.7-36.1c20.5-17.1,35.9-39.6,45.4-67.3c6.4-18.6,10.4-40.6,10.4-63.8v0  C2850.7,1050.2,2850,1039.1,2847.6,1028.3z M2781.6,882.1l0.1,0.2c0,0,0,0,0,0L2781.6,882.1z M2784,889.2L2784,889.2  C2784,889.3,2784,889.3,2784,889.2L2784,889.2z M2795.2,884.3C2795.2,884.3,2795.2,884.3,2795.2,884.3L2795.2,884.3L2795.2,884.3z   M2781.6,725.3L2781.6,725.3C2781.6,725.4,2781.6,725.4,2781.6,725.3L2781.6,725.3z M2478.2,1233.5L2478.2,1233.5L2478.2,1233.5  C2478.2,1233.5,2478.2,1233.5,2478.2,1233.5L2478.2,1233.5z M2804.2,1167.2c-15.6,18.9-36,32.9-61.2,42.7c-25.1,9.7-55,15-89.1,16.2  c-7.1,0-14.2,0-21.3,0c-7.2-0.4-14.6-0.9-21.6-1.7c-20.7-2.2-38.9-5.9-57.8-10.4c-5.8-1.4-12.2-3-19.2-4.2  c-4.8-0.9-10.6-1.9-16.9-1.9c-2,0-4,0.1-6.1,0.4c-3.7,0.5-7.1,1.3-10.2,2.5c-4.6,1.8-8.5,4.3-11.8,7c-0.1,0.1-0.2,0.2-0.3,0.2  c-3.9-61.7-8.1-123.9-12.2-184.3c0.7-0.1,1.4-0.2,2.1-0.3c4,23.4,11,44.7,20.8,63.3c10.5,20.2,24.2,37.3,40.2,51  c10.6,9,23.2,17.2,38,23c14.8,5.9,31.7,9.4,50.8,9.4c4.6,0,9.3-0.2,14.1-0.6c10.3-0.9,19.9-2.7,28.7-5.6c6.6-2.2,12.7-4.9,18.3-8.3  c8.3-5.1,15.4-11.8,20.6-20c5.3-8.2,8.8-18,10.2-29.2c0.6-4.2,0.8-8.4,0.8-12.4c0-5.3-0.5-10.5-1.5-15.3c-1-4.8-2.5-9.3-4.7-13.3  l-0.5-0.9l0.5,0.9c-2.9-5.2-6.5-9.8-10.7-13.6c-6.2-5.8-13.5-10.3-21.2-14c-7.7-3.7-15.7-6.8-23.6-9.7c-10.5-3.9-20.9-8.2-31-12.2  c-20.9-8.2-42.5-15.6-62-24.6c-9.7-4.5-18.9-9.4-27.2-15c-8.3-5.6-15.6-11.8-21.7-19c-6.3-7.3-11.7-15.5-16.2-24.8  c-4.4-9.3-7.8-19.7-9.9-31.6c-1.3-7.4-1.8-15.1-1.8-22.9c0-5.4,0.3-10.8,0.7-16.2c1.6-19.3,5.7-36.3,11.8-51.2  c6.1-14.8,14.3-27.5,23.9-38.1c19.3-21.3,47.3-36.8,81.7-43.2c11.7-2.2,24.6-2.6,39.1-2.6h0c25.4,0,52.5,4.5,75.3,9.9  c5.7,1.3,11.7,2.7,17.9,4c3.7,0.7,7.4,1.2,11.1,1.2c3.5,0,7.1-0.4,10.8-1.2c6.2-1.4,11.7-3.6,16.5-6.5c1.4-0.8,2.7-1.7,3.9-2.6  c3.8,39.6,8.7,84.1,12.4,123.6c0.6,5.8,1.4,11.2,1.8,16.2c-0.4,0.1-0.9,0.1-1.4,0.2c-0.3,0-0.6,0.1-0.9,0.2c-0.3-1-0.6-2.1-1.1-3.4  l0,0c-0.9-2.4-1.9-4.7-2.8-6.7c-13.1-29.3-33.3-54.4-59.4-71.3c-7.2-4.7-16-9.2-25.4-12.4c-8.4-2.9-18.6-5.3-29.8-5.3  c-1.2,0-2.4,0-3.6,0.1c-11.5,0.5-22.2,3-31.5,6.8c-9,3.7-17.3,8.8-23.9,15.8c-3.3,3.5-6.2,7.5-8.5,11.9c-2.3,4.5-4,9.4-5.1,14.8  c-0.7,3.9-1.1,7.9-1.1,11.8c0,8,1.5,15.9,4.8,22.9c2.2,4.6,5,8.6,8.3,12.1c4.9,5.3,10.7,9.5,16.8,13.1c6.2,3.5,12.7,6.3,19.2,8.8  c17.5,6.6,35.4,12.6,53,18.9c18,6.4,36,11.8,51.9,19.4c23.2,11,43.4,26.5,57.8,45.7c9.7,12.9,17.6,28.7,21.7,46.7l-0.3-1.2l0.3,1.2  c2.2,9.4,2.8,19.5,2.8,31.7c0,21.8-3.8,42.5-9.7,59.8C2822.8,1139.8,2814.6,1154.6,2804.2,1167.2z M2809,883.1  C2809,883.1,2809,883.1,2809,883.1l0-0.4L2809,883.1z M923.6,866.1c-7.2-41.7-14-83.7-21.3-125.3l-0.9-5.1l-5.1,0  c-33.9,0-68.1,0-102.3,0c-69.1,0-138.5,0-207.1,0c-5.4,0-10.8,0-16.1,0h-0.6l-0.6,0.1c-0.7,0.1-1.5,0.4-2.2,0.8  c-0.6,0.4-1.1,0.8-1.5,1.3c-0.3,0.3-0.5,0.7-0.7,0.9l-0.7,0.7l-0.4,2c-7.3,41.6-15,82.8-22.3,124.5l-1.3,7.2h7.3  c5.8,0,11.6,0,17.4,0h3.9l1.7-3.5c4.7-9.8,9.8-18.9,15.8-26.9c9.1-12,20-22,33.6-29.3c12.2-6.5,26.6-10.8,43.9-12  c0,17.8,0,35.6,0,53.4c0,54.7,0,109.8,0,164.7c0,20.1,0,40.1,0,60l0,0.1c0,11.4,0.2,22.7,0.2,33.7c0,7.7-0.1,15.3-0.4,22.6  c-0.4,9.4-1,18.1-2.2,25.6c-1.2,7.6-3.2,13.9-6.3,19.1c-1.5,2.5-3.2,4.6-5.3,6.4c-3.1,2.8-6.9,5-11.6,6.5  c-4.7,1.5-10.2,2.4-16.7,2.4l-6.1,0v6.1c0,6,0,12.1,0,18.1v6.1h6.1c74,0,147.9,0,221.9,0h6.1v-6.1c0-6,0-12.1,0-18.1v-6.1l-6.1-0.1  c-8.5-0.1-15.6-1.6-21.1-4.1c-2.8-1.3-5.2-2.8-7.2-4.7c-2.1-1.8-3.8-3.9-5.3-6.4c-1.9-3.2-3.4-6.9-4.6-11.2  c-1.8-6.4-2.9-13.8-3.4-21.9c-0.6-8.1-0.7-16.8-0.7-25.7c0-4.6,0-9.2,0-13.8c0-24.5,0-49,0-73.5c0-60.7,0-121.5,0-181.9  c0-17.2,0-34.3,0-51.4c9.6,1.2,18.3,3.2,26.1,5.9c14.4,5,26.2,12.4,36.2,21.7c9.9,9.4,18.1,20.7,25,33.7c0.1,0.3,0.4,0.9,0.7,1.6  c0.2,0.5,0.5,1.1,0.8,1.7c0.4,0.9,0.9,1.9,1.5,3c0.3,0.5,0.7,1.1,1.3,1.7c0.3,0.3,0.6,0.7,1.1,1c0.5,0.3,1.1,0.7,1.8,1l0,0  c0.8,0.3,1.5,0.4,2,0.5c0.5,0.1,1,0.1,1.4,0.1c0.8,0,1.5-0.1,2.1-0.1c0.6,0,1.1-0.1,1.3-0.1c4.9,0,10.6,0,14.7,0h7.3L923.6,866.1z   M901.4,861.1c-0.2-0.4-0.4-0.8-0.6-1.3c-0.4-0.8-0.7-1.7-1.2-2.6c-4.9-9.2-10.5-17.9-17-25.7c-9.7-11.8-21.5-21.7-35.8-29.1  c-14.3-7.4-31.2-12.1-51-13.6l-6.6-0.5v6.6c0,19.3,0,38.7,0,58.2c0,60.4,0,121.2,0,181.9c0,24.5,0,49.1,0,73.5c0,4.6,0,9.2,0,13.8  c0,12,0.2,23.9,1.5,35c0.7,5.5,1.6,10.9,3.1,15.9c1.4,5,3.3,9.8,5.9,14.1c2.1,3.5,4.7,6.6,7.7,9.3c4.5,4,10,6.9,16.1,8.9  c4.4,1.4,9.1,2.3,14.1,2.7c0,2.1,0,4.1,0,6.2c-69.9,0-139.7,0-209.6,0c0-2.1,0-4.1,0-6.2c7.5-0.6,14.3-2.3,20.2-5.1  c3.7-1.8,7.1-4,10.1-6.7c3-2.7,5.5-5.8,7.6-9.3c4.2-7,6.4-14.9,7.8-23.4c1.4-8.5,1.9-17.5,2.4-27c0.4-7.6,0.5-15.3,0.5-23.2  c0-11.2-0.2-22.5-0.2-33.7v0c0-20,0-40,0-60.1c0-54.8,0-110,0-164.7c0-20,0-40,0-59.9v-6.3L670,789c-21.8,0.6-40.2,5.6-55.6,13.8  c-15.4,8.2-27.7,19.6-37.6,32.8c-6,7.9-10.9,16.5-15.4,25.5c-2.1,0-4.2,0-6.3,0c6.7-37.7,13.6-75.2,20.3-113c3.8,0,7.6,0,11.4,0  c68.6,0,138,0,207.1,0c32.5,0,64.9,0,97.2,0c6.5,37.5,12.8,75.3,19.2,113c-2.5,0-5.1,0-7.4,0C902.3,861,901.9,861.1,901.4,861.1z   M896,872.9C896,872.9,896,872.9,896,872.9L896,872.9L896,872.9z M1372.2,1196l-6.5,0.2c-0.3,0-0.7,0-1,0c-4.3,0-7.4-0.8-10-2.1  c-1.9-1-3.5-2.2-5-3.8c-2.2-2.3-3.9-5.5-5.4-9.3c-1.4-3.8-2.5-8.1-3.4-12.8c-1.1-6-1.8-12.8-2.2-19.9c-0.4-7.1-0.5-14.7-0.5-22.2  c0-5.9,0.1-11.9,0.1-17.7v-0.1c0-17.4,0-34.7,0-52c0-49.2,0-98,0-147.2c0-18.6,0-37.3,0-56c0-3.4,0-6.8,0-10.2  c0-8.9,0.1-17.7,0.4-26.1c0.4-8.4,1.1-16.4,2.4-23.4c0.8-4.1,1.7-8,3-11.4c0.9-2.6,2-4.9,3.3-6.8c1.9-3,4.1-5.2,6.7-6.7  c1.3-0.8,2.8-1.4,4.5-1.8c1.7-0.4,3.7-0.7,5.9-0.7c0.3,0,0.7,0,1,0l6.3,0.2V760c0-6,0-12.1,0-18.1v-6.1h-6.1c-65,0-129.9,0-194.9,0  h-6.1v6.1c0,6,0,12.1,0,18.1v6.1l6.1,0c5.1,0,8.9,1,12,2.6c2.3,1.2,4.2,2.8,5.9,4.7c2.6,2.9,4.6,6.9,6.2,11.6  c1.6,4.7,2.8,10.1,3.7,15.9c1.8,11.7,2.2,25.6,2.2,39.8c0,7.8-0.1,15.7-0.1,23.4c0,0.6,0,1.2,0,1.8c-4.3,0-8.7,0-13,0  c-18.1,0-36.3,0.1-54.3,0.1c-14,0-27.9-0.1-41.6-0.2c0-1.6,0-3.1,0-4.7c0-8.3-0.1-16.8-0.1-25c0-12.5,0.3-24.6,1.8-35.1  c0.7-5.3,1.8-10.1,3.2-14.4c1.4-4.3,3.1-8,5.2-11.1c2-2.8,4.2-4.9,7-6.4c2.7-1.5,6.2-2.5,10.6-2.9c0.3,0,0.7,0.1,1.2,0.1  c0.4,0,0.8,0,1.4-0.1c0.8-0.1,1.8-0.5,2.7-1.2c0.9-0.7,1.7-1.6,2.1-2.5l0.6-1.3v-1.4c0-6,0-11.9,0-17.9v-6.1h-6.1  c-64.8,0-129.6,0-194.4,0h-0.4l-0.4,0.1c-0.5,0.1-1,0.2-1.5,0.4c-0.9,0.4-1.8,1-2.4,1.8c-0.5,0.5-0.8,1.1-1,1.6  c-0.3,0.7-0.4,1.3-0.5,1.7c-0.1,0.4-0.1,0.8-0.1,1c0,0.2,0,0.3,0,0.4c0,5.7,0,11.5,0,17.2v6.3l6.3-0.2c0.3,0,0.6,0,0.9,0  c2.2,0,4.2,0.2,5.9,0.7c3,0.8,5.3,2,7.4,3.9c1.6,1.4,2.9,3,4.2,5c1.9,3,3.4,6.8,4.6,11c1.2,4.2,2,8.9,2.7,13.8  c1.5,11.7,1.7,25.1,1.7,38.6c0,7.2-0.1,14.4-0.1,21.4c0,14.7,0,29.4,0,44.1c0,48.5,0,96.8,0,145.2c0,20.2,0,40.4,0,60.7  c0,4.4,0,8.8,0,13.3c0,8.1-0.1,16.1-0.5,23.8c-0.4,7.6-1.1,14.9-2.4,21.4c-0.8,4-1.7,7.8-3,11.1c-0.9,2.5-2,4.8-3.2,6.8  c-0.9,1.5-1.9,2.8-3,3.9c-1.7,1.7-3.5,2.9-5.8,3.9c-2.3,0.9-5,1.5-8.4,1.5c-0.3,0-0.7,0-1,0l-6.3-0.2v6.3c0,6.1,0,12.3,0,18.4v6.1  h6.1c64.9,0,129.8,0,194.7,0h6.1l0-6.1c0-2.5,0-5.9,0-9.2c0-3.3,0-6.7,0-9.2l0-6.1l-6.1-0.1c-2.7,0-5.1-0.3-7.2-0.9  c-3.7-0.9-6.5-2.5-8.9-4.6c-1.8-1.6-3.4-3.5-4.8-5.8c-2.1-3.4-3.7-7.7-5-12.5c-1.2-4.8-2.1-10.2-2.7-15.7c-1.1-10-1.2-21.2-1.2-32.9  c0-1.6,0-3.2,0-4.9c0-15.5,0-31.1,0-46.7c0-38.5,0-77.2,0-115.4c0-10.3,0-20.5,0-30.7c36.4,0,72.7,0,109.1,0c0,7.6,0,15.2,0,22.9  c0,30.6,0,61.6,0,92.5c0,12.6,0,25.1,0,37.6v0v0.1c0,11.4,0.2,23.5,0.2,35.4c0,14.8-0.3,29.3-1.6,41.8c-0.6,5.7-1.5,11.2-2.7,16.1  c-0.9,3.7-2.1,7-3.5,9.9c-1.1,2.2-2.3,4.1-3.6,5.7c-2,2.5-4.4,4.3-7.4,5.7c-3,1.3-6.6,2.2-11.3,2.2l-6.1,0.1v6.1  c0,6.1,0,12.3,0,18.4v6.1h6.1c64.9,0,129.8,0,194.7,0h5.5l0.6-5.5c0.3-2.6,0.3-5.2,0.3-7.7c0-2.9-0.1-5.7-0.1-8.4c0-0.9,0-1.8,0-2.7  L1372.2,1196z M1119.3,753.9L1119.3,753.9L1119.3,753.9C1119.3,753.9,1119.3,753.9,1119.3,753.9  C1119.3,753.9,1119.3,753.9,1119.3,753.9z M1195.3,1200c2.9-2.5,5.2-5.5,7.2-8.7c2.9-4.8,4.9-10.2,6.3-15.9c1.4-5.7,2.3-11.6,3-17.6  c1.4-13.3,1.7-28.2,1.7-43.1c0-12.1-0.2-24.1-0.2-35.4v-0.1v0c0-12.5,0-25,0-37.6c0-30.9,0-61.9,0-92.5c0-9.7,0-19.4,0-29l0-6.1  h-6.1c-40.5,0-80.9,0-121.4,0h-6.1v6.1c0,12.2,0,24.5,0,36.8c0,38.2,0,76.9,0,115.4c0,15.6,0,31.1,0,46.7c0,1.6,0,3.2,0,4.9  c0,11.8,0.1,23.4,1.3,34.3c0.7,6,1.6,12,3.1,17.7c1.1,4.3,2.6,8.4,4.5,12.2c1.4,2.9,3.1,5.6,5.2,8.1c3.1,3.7,7,6.8,11.7,9  c3.1,1.4,6.4,2.4,10.1,2.9c0,1.1,0,2.3,0,3.5c0,1,0,2.1,0,3.1c-60.8,0-121.6,0-182.4,0c0-2.1,0-4.3,0-6.4c3.7-0.5,7.2-1.5,10.2-3  c3.3-1.6,6.1-3.8,8.4-6.3c3.5-3.8,6-8.2,7.9-12.9c1.9-4.7,3.1-9.6,4.1-14.6c1.4-7.3,2.2-15.1,2.6-23.1c0.4-8,0.5-16.3,0.5-24.4  c0-4.5,0-8.9,0-13.3c0-20.3,0-40.5,0-60.7c0-48.4,0-96.7,0-145.2c0-14.7,0-29.4,0-44.1c0-7,0.1-14.2,0.1-21.4  c0-13.7-0.3-27.5-1.8-40.1c-0.7-5.4-1.6-10.7-3.1-15.8c-1.1-3.8-2.5-7.5-4.3-11c-1.3-2.6-2.9-5-4.8-7.2c-2.8-3.3-6.3-6.2-10.5-8.1  c-2.8-1.3-5.9-2.2-9.2-2.6c0-2.1,0-4.1,0-6.2c60.8,0,121.6,0,182.4,0c0,2.1,0,4.2,0,6.4c-4.5,0.7-8.5,2-12.1,3.9  c-4.6,2.5-8.4,6-11.3,10.3c-2.9,4.3-5.1,9.1-6.8,14.2c-2.5,7.7-3.9,16.3-4.7,25.3c-0.8,9-0.9,18.5-0.9,28c0,8.4,0.1,16.9,0.1,25  c0,3.6,0,7.1-0.1,10.6l-0.1,6.2l6.2,0.1c15.9,0.2,31.9,0.3,47.9,0.3c18.1,0,36.3-0.1,54.3-0.1c6.4,0,12.8,0,19.1,0l6.2,0l-0.1-6.2  c0-2.6,0-5.2,0-7.8c0-7.6,0.1-15.5,0.1-23.4c0-14.4-0.3-28.9-2.3-41.7c-0.9-5.5-2-10.9-3.6-16c-1.2-3.9-2.7-7.6-4.7-11  c-1.5-2.6-3.2-5-5.2-7.2c-3-3.3-6.8-6.1-11.3-8c-2.8-1.2-5.8-2-9.1-2.5c0-2.1,0-4.2,0-6.3c60.9,0,121.8,0,182.6,0c0,2.1,0,4.1,0,6.2  c-3.6,0.5-7,1.4-10,2.9c-3.2,1.6-6,3.7-8.4,6.2c-3.5,3.7-6.1,8.2-8,12.9c-1.9,4.8-3.2,9.8-4.2,15c-1.4,7.8-2.2,16.3-2.6,25  c-0.4,8.7-0.5,17.8-0.5,26.7c0,3.4,0,6.8,0,10.2c0,18.7,0,37.4,0,56c0,49.1,0,98,0,147.2c0,17.3,0,34.6,0,52v0.1  c0,5.8-0.1,11.7-0.1,17.7c0,7.7,0.1,15.4,0.5,22.9c0.4,7.5,1.1,14.8,2.4,21.5c0.8,4.5,1.9,9,3.4,13.3c1.1,3.2,2.5,6.4,4.3,9.3  c1.3,2.2,2.9,4.3,4.7,6.1c2.7,2.8,6.1,5.2,10,6.8c2.6,1,5.3,1.7,8.3,2.1c0,1.9,0.1,3.7,0.1,5.4c0,0.3,0,0.7,0,1  c-60.9,0-121.8,0-182.7,0c0-2.2,0-4.4,0-6.6c1.4-0.2,2.7-0.4,4-0.8C1186.7,1205.9,1191.4,1203.4,1195.3,1200z M1512.8,735.7  c-28.6,0-57.3,0.1-85.8,0.1c-10.1,0-20.2,0-30.3,0l-0.5,0l-0.4,0.1c-0.5,0.1-1,0.2-1.5,0.4c-0.9,0.4-1.8,1-2.4,1.8  c-0.5,0.5-0.8,1.1-1,1.6c-0.3,0.7-0.4,1.3-0.5,1.7c-0.1,0.4-0.1,0.8-0.1,1c0,0.2,0,0.3,0,0.4c0,5.7,0,11.5,0,17.2v6.3l6.3-0.2  c0.3,0,0.5,0,0.8,0c4.1,0,7.1,0.8,9.7,2c1.9,1,3.5,2.2,5,3.8c2.2,2.3,4.1,5.5,5.5,9.2c1.5,3.7,2.6,8.1,3.5,12.6  c1.3,6.7,2,14.3,2.4,22.3c0.4,8,0.5,16.4,0.5,24.8c0,4.2,0,8.4,0,12.5v0.1c0,18.1,0,36.1,0,54.1c0,49.1,0,97.9,0,147  c0,17.9,0,35.9,0,53.9c0,3.5,0,7,0,10.6c0,8.7-0.1,17.5-0.4,25.9c-0.4,8.4-1.1,16.3-2.4,23.3c-0.8,4.2-1.7,8.1-2.9,11.7  c-0.9,2.6-2,5-3.2,7c-0.9,1.5-1.9,2.8-3,4c-1.6,1.7-3.5,3-5.8,3.9c-2.3,0.9-5.2,1.5-8.8,1.5c-0.3,0-0.5,0-0.8,0l-6.3-0.1v6.3  c0,6.1,0,12.3,0,18.4v6.1h6.1c64.1,0,128.1,0,192.2,0h6.1v-6.1c0-6.1,0-12.3,0-18.4v-6.3l-6.3,0.1c-0.3,0-0.5,0-0.8,0  c-4.3,0-7.5-0.8-10.1-2.1c-1.9-1-3.5-2.2-4.9-3.8c-2.1-2.3-3.9-5.5-5.3-9.3c-1.4-3.8-2.5-8.2-3.4-12.9c-1.3-7-2-15-2.4-23.4  c-0.4-8.4-0.4-17.2-0.4-26c0-3.5,0-6.9,0-10.3c0-85.6,0-169.8,0-255.2c0-4.3,0-8.6,0-12.9c0-8.4,0.1-16.7,0.5-24.6  c0.4-7.9,1.1-15.4,2.4-22.1c1.2-6.2,2.9-11.9,5.3-16.3c1.2-2.2,2.5-4.1,4-5.6c1.5-1.5,3.2-2.7,5.1-3.6c0.4-0.2,1-0.4,1.7-0.6  c1.1-0.3,2.4-0.6,3.7-0.8c1.1-0.2,2.2-0.3,3.1-0.5c0.2,0,0.5,0,0.9,0c0.4,0,0.9,0,1.5-0.1c0.5-0.1,1-0.3,1.6-0.5  c0.5-0.2,0.9-0.5,1.4-0.9c0.7-0.6,1.3-1.4,1.7-2.2c0.4-0.8,0.6-1.7,0.6-2.4l0-0.2v-0.2c0-5.8,0-11.6,0-17.4v-6.1l-6.1-0.1  C1563.4,735.8,1538.1,735.7,1512.8,735.7z M1586.1,754L1586.1,754L1586.1,754C1586.1,753.9,1586.1,753.9,1586.1,754  C1586.1,754,1586.1,754,1586.1,754z M1576.7,755.7c-1.1,0.3-2.3,0.7-3.4,1.2c-3.4,1.5-6.3,3.6-8.7,6.1c-3.7,3.7-6.3,8.2-8.3,13.1  c-2,4.8-3.3,10-4.3,15.2c-1.4,7.4-2.2,15.5-2.6,23.8c-0.4,8.3-0.5,16.8-0.5,25.3c0,4.4,0,8.7,0,12.9c0,85.4,0,169.6,0,255.2  c0,3.4,0,6.8,0,10.3c0,8.8,0.1,17.8,0.5,26.6c0.4,8.7,1.2,17.2,2.6,25c0.8,4.5,1.9,9.1,3.4,13.4c1.1,3.3,2.5,6.4,4.3,9.3  c1.3,2.2,2.9,4.3,4.7,6.2c2.7,2.8,6.1,5.2,10.1,6.8c2.5,1,5.2,1.7,8.2,2.1c0,2.1,0,4.3,0,6.4c-60,0-120,0-180,0c0-2.2,0-4.3,0-6.5  c3.8-0.5,7.2-1.5,10.3-3c3.3-1.7,6.2-3.9,8.5-6.5c3.5-3.9,6-8.5,7.8-13.3c1.8-4.8,3-9.9,3.9-15c1.4-7.8,2.2-16.2,2.6-24.9  c0.4-8.7,0.5-17.7,0.5-26.4c0-3.6,0-7.1,0-10.6c0-18,0-36,0-53.9c0-49,0-97.8,0-147c0-18,0-36,0-54.1v-0.1c0-4.1,0-8.3,0-12.5  c0-8.5-0.1-17-0.5-25.4c-0.4-8.3-1.2-16.4-2.6-23.9c-0.9-4.5-2-9-3.5-13.3c-1.2-3.2-2.6-6.3-4.4-9.2c-2.7-4.3-6.3-8.2-11-10.9  c-2.3-1.4-4.9-2.4-7.7-3.1c-1.2-0.3-2.5-0.5-3.8-0.7c0-2.1,0-4.1,0-6.2c8.1,0,16.3,0,24.4,0c28.6,0,57.3-0.1,85.8-0.1  c23.3,0,46.6,0.1,69.7,0.2c0,2.1,0,4.2,0,6.2c-0.8,0.1-1.5,0.2-2.3,0.4C1579,755.1,1577.8,755.3,1576.7,755.7z M2011.5,735.8  c-40.9,0-81.7,0-122.6,0h-6.1v6.1c0,6,0,12.1,0,18.1v6.3l6.3-0.2c0.3,0,0.5,0,0.8,0c3.2,0,5.9,0.5,8.2,1.3c3.5,1.2,6.2,3.1,8.6,5.8  c2.4,2.6,4.4,6,6.1,9.8c2.3,5.2,3.9,11.5,5.1,18.5c1.1,6.9,1.8,14.5,2,22.2c0.2,7.2,0.3,14.5,0.3,21.9c0,17.9-0.5,36.3-0.5,54.1  c0,1.5,0,3,0,4.4c-18-26-36.4-53.5-54.4-79.7c-4.5-6.6-9.5-12.6-13.8-18.8c-4.3-6.2-7.9-12.6-9.9-19.8c-0.6-2.3-0.9-4.3-0.9-6  c0-1.9,0.3-3.6,0.8-5c0.8-2.2,2.1-3.9,3.8-5.4c1.8-1.5,4-2.7,6.7-3.4l4.5-1.2V760c0-6,0-12.1,0-18.1v-6.1h-6.1  c-77.7,0-155.4,0-233.2,0h-0.4l-0.4,0.1c-0.5,0.1-1,0.2-1.5,0.4c-0.9,0.4-1.8,1-2.4,1.8c-0.5,0.5-0.8,1.1-1,1.6  c-0.3,0.7-0.4,1.3-0.5,1.7c-0.1,0.4-0.1,0.8-0.1,1c0,0.2,0,0.3,0,0.4c0,5.7,0,11.5,0,17.2v6.2l6.2-0.1c0.1,0,0.3,0,0.4,0  c2.4,0,4.5,0.2,6.3,0.7c3.2,0.8,5.6,2,7.7,3.8c1.5,1.3,2.9,3,4.1,4.9c1.8,3,3.3,6.7,4.5,10.9c1.2,4.3,2,9,2.7,14  c1.5,10.9,1.8,23.8,1.8,36.8c0,7.8-0.1,15.7-0.1,23.2c0,83.7,0,166.6,0,250.1c0,3.9,0,7.9,0,11.9c0,8.3-0.1,16.7-0.5,24.6  c-0.4,7.9-1.1,15.4-2.4,22c-0.8,4-1.7,7.8-2.9,11.2c-0.9,2.5-2,4.8-3.2,6.8c-0.9,1.5-1.9,2.8-3,3.9c-1.6,1.7-3.5,2.9-5.7,3.8  c-2.3,0.9-5,1.5-8.5,1.5c-0.4,0-0.7,0-1.1,0l-6.3-0.2v6.3c0,6,0,12.1,0,18.1v6l6,0.1c15.5,0.2,31.1,0.3,46.8,0.3  c17.7,0,35.4-0.1,53-0.1c6.2,0,12.5,0,18.7,0l5.6,0l0.6-5.5c0.3-2.5,0.3-5.1,0.3-7.6c0-2.8-0.1-5.6-0.1-8.3c0-0.9,0-1.8,0-2.7  l0.2-6.4l-6.4,0.1c-0.2,0-0.3,0-0.5,0c-3.5,0-6.2-0.5-8.4-1.4c-1.7-0.6-3.1-1.5-4.4-2.5c-1.9-1.5-3.6-3.5-5-5.9  c-1.4-2.5-2.7-5.4-3.7-8.7c-1.8-5.8-3.1-12.9-3.8-20.5c-0.8-7.6-1-15.6-1-23.5v0v0v0c0-23,0-46,0-69c0-59,0-118.1,0-176.8  c0-13.6,0-27.1,0-40.7c50.8,69.5,102.2,140.2,152.9,209.9l-1.2-1.7l1.2,1.7c11,15.1,22.3,29.9,32.5,45.2l0.3,0.5l-0.3-0.5  c4.9,7.3,9.6,15.4,13.1,24.3c3.6,9,6,18.8,6.4,29.7v0c0,1.1,0.1,2.3,0.1,3.4c0,5.3-0.5,10-1.5,14c-0.7,3-1.7,5.7-3,8  c-1.9,3.5-4.2,6.3-7.2,8.6c-3,2.3-6.6,4-11,5.2c-0.1,0-0.2,0-0.5,0.1c-0.5,0.1-1.4,0.2-2.5,0.6c-0.6,0.2-1.2,0.5-1.9,0.9  c-0.6,0.4-1.3,0.9-1.9,1.6l-1.6,1.7v2.3c0,5.7,0,11.4,0,17.2v6.1h6.1c40.9,0,81.7,0,122.6,0h6.1v-6.1c0-6,0-12.1,0-18.1v-6.2l-6.2,0  c-0.1,0-0.2,0-0.3,0c-4.2,0-7.4-0.8-10-2c-1.9-0.9-3.6-2.1-5-3.6c-2.2-2.2-4-5.3-5.5-8.9c-1.5-3.7-2.6-8-3.5-12.6  c-1.4-7.4-2.2-16-2.6-25.1c-0.4-9.1-0.4-18.6-0.4-28c0-1.6,0-3.3,0-4.9v-0.2c0-17.7,0-35.4,0-53c0-48.2,0-96.2,0-144.2  c0-17.6,0-35.2,0-52.8c0-5.6,0-11.3,0-17c0-15,0.3-30.1,1.9-42.8c0.7-5.1,1.6-10,2.8-14.3c0.9-3.2,2-6.2,3.3-8.7  c1-1.9,2-3.5,3.2-4.9c1.8-2.1,3.7-3.7,6.2-4.8c2.4-1.1,5.4-1.8,9.2-1.8c0.3,0,0.5,0,0.8,0l6.3,0.2V760c0-6,0-12.1,0-18.1v-6.1  H2011.5z M1989.2,761.3c-2.6,2.2-4.7,4.9-6.5,7.7c-2.6,4.3-4.5,9.1-5.9,14.1c-1.4,5-2.3,10.4-3.1,15.7c-1.8,13.7-2,29.2-2,44.4  c0,5.7,0,11.4,0,17c0,17.6,0,35.2,0,52.8c0,48.1,0,96.1,0,144.2c0,17.6,0,35.3,0,53v0.2c0,1.6,0,3.3,0,4.9c0,9.4,0,19.1,0.5,28.5  c0.4,9.4,1.2,18.5,2.9,26.9c0.9,4.5,2,9,3.6,13.3c1.2,3.2,2.6,6.3,4.5,9.1c2.7,4.3,6.4,8.1,11.2,10.7c2.4,1.3,5,2.3,7.8,3  c1.1,0.3,2.2,0.4,3.3,0.6c0,2.1,0,4.2,0,6.3c-36.8,0-73.6,0-110.3,0c0-2.2,0-4.4,0-6.6c4.8-1.4,9.2-3.3,13-6c3-2.1,5.7-4.6,8-7.5  c3.4-4.3,5.9-9.4,7.6-15.1c1.6-5.7,2.4-12,2.4-18.9c0-1.3,0-2.5-0.1-3.8l0,0.3l0-0.3c-0.5-12.5-3.3-23.7-7.3-33.7  c-4-10-9.1-18.8-14.3-26.6l-0.3-0.5l0.3,0.5c-10.5-15.6-21.7-30.4-32.6-45.4l-0.1-0.2c-54.4-74.8-109.6-150.7-164-225.1l-11.1-15.1  l0,18.7c0,19.7,0,39.5,0,59.4c0,58.7,0,117.8,0,176.8c0,23.1,0,46.1,0,69v0c0,8.1,0.3,16.6,1.1,24.7c0.8,8.1,2.1,15.9,4.3,22.9  c1.1,3.5,2.4,6.9,4.1,10.1c1.3,2.4,2.8,4.7,4.6,6.8c2.7,3.1,6.2,5.8,10.3,7.6c2.6,1.1,5.5,1.9,8.6,2.4c0,1.8,0.1,3.6,0.1,5.4  c0,0.3,0,0.6,0,0.9c-4.3,0-8.6,0-12.9,0c-17.7,0-35.4,0.1-53,0.1c-13.6,0-27.1-0.1-40.6-0.2c0-2.1,0-4.2,0-6.2  c3.8-0.5,7.2-1.5,10.3-3c3.3-1.6,6.1-3.8,8.4-6.3c3.5-3.8,6-8.2,7.8-12.9c1.8-4.7,3.1-9.7,4-14.6c1.4-7.4,2.2-15.4,2.6-23.7  c0.4-8.3,0.5-16.8,0.5-25.2c0-4,0-8,0-11.9c0-83.5,0-166.4,0-250.1c0-7.5,0.1-15.3,0.1-23.2c0-13.2-0.3-26.5-1.9-38.4  c-0.7-5.4-1.7-10.8-3.1-15.9c-1.1-3.8-2.4-7.5-4.2-11c-1.3-2.6-2.9-5-4.8-7.3c-2.8-3.3-6.4-6.2-10.7-8.1c-2.8-1.2-5.8-2.1-9.1-2.5  c0-2.1,0-4.2,0-6.2c73.7,0,147.4,0,221.1,0c0,2.6,0,5.1,0,7.7c-1.2,0.5-2.3,1.1-3.4,1.7c-3.7,2.2-6.8,5.3-9,9.1  c-2.2,3.8-3.5,8.3-3.4,13.2c0,3,0.5,6.1,1.4,9.4c2.6,9.1,6.9,16.7,11.6,23.4c4.7,6.8,9.7,12.8,13.7,18.8  c21.8,31.8,44.4,65.6,66,96.4l11.9,17l-0.8-20.8c-0.3-7.9-0.4-16-0.4-24.3c0-17.7,0.5-36,0.5-54.1c0-7.5-0.1-14.9-0.3-22.3  c-0.3-8.1-0.9-16.2-2.2-23.8c-1.3-7.6-3.1-14.9-5.9-21.3c-1.4-3.1-3-6.2-5-9.1c-3-4.3-6.8-8.2-11.7-10.9c-3.6-2-7.7-3.4-12.3-4  c0-2.1,0-4.1,0-6.2c36.8,0,73.6,0,110.3,0c0,2.1,0,4.1,0,6.2c-1.3,0.2-2.5,0.4-3.7,0.7C1996.8,756.1,1992.6,758.3,1989.2,761.3z   M0.1,0v63H3332v-6.1V0H0.1z M12.3,12.3h3307.3v38.5H12.3V12.3z M2831.1,804.1v63h570.5v-6.1v-56.9H2831.1z M2843.3,816.3h546v38.5  h-546V816.3z M0,804v63.1h510v-6.2V804H0z M12.4,816.4h485.3v38.4H12.4V816.4z"/>
</svg>
