<?xml version="1.0" encoding="utf-8"?>
<!-- Generator: Adobe Illustrator 24.1.2, SVG Export Plug-In . SVG Version: 6.00 Build 0)  -->
<svg xmlns="http://www.w3.org/2000/svg" xmlns:xlink="http://www.w3.org/1999/xlink" version="1.1" x="0px" y="0px" width="3401.6px" height="987.9px" viewBox="0 0 3401.6 987.9" style="enable-background:new 0 0 3401.6 987.9;" xml:space="preserve">
<path d="M436.8,947.2c-4.6,0.3-9.3,0.4-13.9,0c-3.7-0.2-6.9,0.3-9.4,3.1c0.2,0.2,0.4,0.4,0.6,0.4c21.8,0.1,43.6,0.2,65.5,0.2  c0.7,0,1.3-1.4,2.2-2.3C475,947.3,445.7,946.6,436.8,947.2z M608.8,917.2c0.8,0.3,1.8,0.3,2.4,0.8c5.2,4.7,10.3,2.4,15.4-0.1  c1.3-0.7,2.5-1.5,3.8-2.2c0.5-0.2,1-0.3,1.5-0.4c1.3,0.6,2.4,1.2,4.6,2.2c-0.4-3.5-0.6-5.8-0.9-8.1c2.1,1.1,3.2,2.5,3.5,4  c0.5,2.3,0.4,4.6,0.5,7c0,2.7,1.3,5.2,3.7,5.2c7,0.1,13.5,3,20.7,2.1c3.8-0.5,6.9-2.7,10.6-2.7c4.1,0,8.2-0.3,12.3-0.4  c2.2,0,4.5,0.1,6.7,0.1c3.9,0.1,7.5-0.6,10.4-4.3c-35.6-167.9-71.2-335.8-106.9-504.1H487.9c-36.2,169.8-72.3,339.4-108.6,509.7  c5.8-2.2,10.6-4.1,15.7-6c0.4-2.8,0.6-6,1.3-9c0.2-0.9,1.9-1.4,3.6-2.6c-0.1,5-3,9.6,2.1,12.8c1.1-1.8,2-3.1,2.9-4.5  c1.2,1.8,2.3,3.4,3.4,5c2.9-0.7,5.4-1.3,7.7-1.9c1-2.6,1.8-4.8,3.1-8.3c1.4,4,2.3,6.7,3.1,9.2c18.3,3.2,35.9,0.8,53.5-0.7  c0.9-1.4,1.8-2.7,2.9-4.3c1.6,4.3,1.2,9.1,7.6,9.9c18.4-95.2,36.7-189.9,55-284.5c5.3,14.4,7.3,29.4,10.2,44.1  c3.1,15.2,5.8,30.4,8.8,45.6c2.9,14.9,5.7,29.8,8.6,44.8c2.9,14.9,5.7,29.8,8.6,44.8c2.9,15.2,5.8,30.4,8.7,45.6  c2.8,14.8,5.1,29.7,8.8,44.2C607.5,909,608.3,909.4,608.8,917.2z M630.7,952.8c-0.3-0.4-0.7-1.3-1-1.3c-8.7,0.5-17.3,1-26,1.6  C611.9,957.3,622.5,956.6,630.7,952.8z M674.4,945.1c-21.2,1.5-40.6,0.4-61.1,1.1c8.6,3.9,16.2,3.9,24.1,2.2  c2.8-0.6,5.9-1.9,8.6-1.3c9.6,2.1,19.2,0.5,28.7,0.5c2.6,0,5.2,0.7,7.8,0.8c7.3,0.2,14.6,0.3,21.9,0.3c1.4,0,2.9-1.1,5.5-2.1  c-9-0.9-16.5-1.8-24.1-2.5c-3.1-0.3-5.8-0.8-6.5-5.4c9.4-1,18.5,4.4,28.7,1.4c-3-3.1-6-2.2-8.7-2.2c-30.7-0.1-61.4-0.1-92.1-0.1  c-1.7,0-3.6-0.2-5.2,0.4c-0.8,0.3-1.1,2.1-1.6,3.3c1.1,0.4,1.6,0.8,2.1,0.8c19.9-0.2,39.8-0.4,59.6-0.7  C665.9,941.5,669.6,941.4,674.4,945.1z M687.5,956c-2,0-4.2,0-6,0.8c-6.1,2.8-12.5,2.6-18.9,2c-5.2-0.5-10.5-0.3-15.7-0.9  c-15-1.7-28,3.7-40.9,11.4c1.1,5.6,2.1,11.1,3.3,16.9H718c-2.1-9.5-3.4-19.1-6.5-28.5C703.2,955.9,695.4,956,687.5,956z   M651.7,953.8c10.4,3.1,19.1,4.1,27.5-1.5C670.6,954,661.6,947.4,651.7,953.8z M695.7,953.3c3.9,1,7.8,1.7,13.5-0.3  C703.4,950.7,699.6,950.5,695.7,953.3z M474.7,937.5c-29.8-0.1-59.5-0.1-89.3-0.1c-1.7,0-3.5,0-5.2,0.1c-3.5,0.3-4.2,2.6-3.8,5.4  c8.5,0.9,16.3,2,24.1,2.5c4.3,0.2,8.7-0.2,12.9-1.1c4-0.9,7.8-2.3,12-1c1.6,0.5,3.5,0.5,5.2,0.2c13.7-2.1,27.4-0.6,41.1-0.3  c2.9,0.1,5.9,0.4,8.7,0.1c3.2-0.3,3.6-2.4,2.1-5.3C479.9,937.7,477.3,937.5,474.7,937.5z M1021,949.7c-5.3,0.7-0.1,4-1.7,6.1  c-9.9,2.1-20.4,2.3-30.8,2.6c-4.3,0.1-8.6-0.5-12.9,1c-3.3,1.1-6.7-0.3-8.9-4.6c5.2,0,10.3,0.1,15.5,0c5.3-0.1,10.5-0.2,15.8-0.7  c5-0.5,10.2,0.5,14.7-2.9c-8.7-0.3-17.4,0.1-26.1,0.4c-5.2,0.2-10.5,0.4-15.7,0.3c-9.3-0.3-18.6-0.9-28-1.3  c-1.3-0.1-2.6,0.4-3.9,0.7c2.5,1.5,5,1.9,7.5,2.1c2.3,0.2,4.7-0.2,7,0.3c1.1,0.2,1.8,1.9,3.6,3.8c-8.4,0.5-15.3,1.3-22.1-1.6  c-2.9-1.3-6.1-1.6-9.9,0.4c4.3,10.3,8.5,20.2,12.5,30h84.9v-17.4h0C1022.3,960.9,1021.8,953.3,1021,949.7z M1205.6,953.3h-5.5  l0.1,2.3c1.8-0.3,3.6-0.5,5.5-0.8L1205.6,953.3z M1150.8,938.6v4.9c3.2,0,6.1,0,8.9,0c17.8,0,35.7,0.1,53.5,0.1c2.6,0,5.3,0,7.9,0.4  c0.9,0.1,1.6,1.6,3.5,3.9c-7.5,0-13.3,0-19,0c-16.7,0-33.4-0.1-50-0.1c-1.7,0-4.3-0.9-4.5,3.1c3,0,5.9,0,8.7,0  c13.2,0,26.3-0.1,39.5,0.1c7,0.1,14,0.4,21,1.2c6.8,0.7,13.3,0.5,20-0.6c9.4-1.6,18.8-3,28.7-1.6c11.5,1.7,23.3,1.8,35,2.3  c6.1,0.3,12.1-0.7,17.9-3.3c-1.9-0.2-3.8-0.7-5.7-0.7c-8.2-0.1-16.4-0.1-24.6-0.2c-19.6-0.1-39.2-0.1-58.8-0.3  c-2.4,0-5.1,0.8-7.4-2.1c2.8-3,6.2-2,9.1-2c30.4,0,60.9,0.2,91.3,0.3c2,0,4.1,0.1,6.1,0.3c0.3,0,0.5,0.8,1,1.7  c-1.9,1-3.9,1.9-5.5,2.8c0.7,2.2,1.2,3.9,1.7,5.4c-1,0.8-1.5,1.3-2,1.4c-13.6,2.3-27.3,3.7-40.9,0.2c-9-2.3-17.9-1.9-27-0.5  c-8.1,1.3-16.3,1.8-24.4-0.3c-5.8-1.5-11.5-1-17.2,1c-4.1,1.3-8.5,1.9-12.8,2c-4.9,0.2-9.9-0.5-14.9-0.7  c-11.4-0.5-22.8-1.1-34.2-1.5c-2-0.1-5.3-0.1-5.7,0.9c-1.8,4.2-5.2,3-8.2,3c-3.2,0.1-6.4-0.3-9.6-0.5c-2.4-4.8-7-3.4-10.7-3.2  c-14.3,0.7-28.6,1.7-42.9,2.6c-4,0.3-8,0.7-12.8,1.1c0,8.9-0.3,17.4,0.2,26.3h219.1c3.7-0.6,7.4-1.3,11.1-2.2  c22.5-5.4,39.7-18,50.1-39.1c1-2,1.5-4.2,2.3-6.4C1340.1,937,1157.9,937.2,1150.8,938.6z M1490.9,958.6c-6.6,0-12.8,0-18.9,0  c-7.9,0-15.8-0.2-23.7,0c-3.1,0.1-4.5-1.5-5.6-4.2c-4.3,0.6-9.5,0-12.7,2.3c-3.9,2.7-7.5,2.3-11.3,2.3c-11.4-0.1-22.8-0.4-34.2-0.6  c-4.9-0.1-9.8-0.6-14.3,2.9c-1.8,1.4-5,1.3-7.6,1.7c-2.6,0.4-5.1,0.6-8.2,0.9c-1.6,7.5-3.1,14.7-4.8,22.3h154.7  c-1.7-7.2-3.4-13.9-5.1-21C1494.2,965.4,1492,962.2,1490.9,958.6z M374.3,948.1c0.2,1.5,0.4,2.5,0.7,4.1c8.3-0.4,16.3-0.8,24.3-1.2  C391.4,947.3,383.1,947.3,374.3,948.1z M932.2,945.1c2.5-1.4,2.9-5.8,6.5-5.1c9.3,1.8,20.1-3.7,27.9,5.7c0.3,0.4,1,0.5,1.6,0.8  c2.8,1.4,5.2,0.9,6.6-2c1.1-2.2,2.2-4.5,4.9-4.3c2.6,0.2,6.5,0.2,7.4,1.7c2.5,4.6,7,3.7,10.3,5.6c2.8-2.5,2.7-7.2,7.5-7  c4.5,0.2,5.9,3.8,7.5,6.3c3.6-1.3,6.4-2.4,9.4-3.6v-4.7c-10.7-1.5-96.1-1.2-103.6,0.5c0.5,1.3,0.5,3.1,1.4,3.7  c1.3,0.9,3.8,2,4.6,1.4C927.4,942,929.6,944.1,932.2,945.1z M832.3,938.1c-2.1-0.2-3.2-0.4-4.4-0.4c-29.2,0-58.4,0-87.6,0  c-1.5,0-3.2-0.3-4.3,0.4c-1.1,0.6-1.5,2.4-2.9,4.8h99.2V938.1z M820.9,953.5c-3.6-1-7.1-2-12.2,1C814,955.1,817.6,955.9,820.9,953.5  z M982.2,928.7c1.7-0.2,3.6-0.6,4.9-1.5c7.3-5.3,15.4-6.5,24.1-5.8c3.4,0.2,6.8,0,9.9,0c0.5-1.2,0.9-1.7,0.9-2.2  c0.1-163.1,0.1-326.2,0.2-489.3h0v-13.4h-99.4v9.5h0c-0.1,5.8,0.1,11.5,0.1,17.1c-0.1,9.4,0,18.7,0,28.1v165c0,9.4,0.1,18.7,0,28.1  c-0.1,8.9,0.5,17.9-1.2,27c-9.5-22.6-17.9-45.4-26.4-68.3c-8.6-23-17.2-46-25.7-69c-8.7-23.3-17.4-46.5-26-69.8  c-8.4-22.5-16.7-45-25.2-67.7h-84.5v0.6l0,0c0,1.9,0,4.2,0,6.6c0,0.9,0,1.7,0,2.6v0.2c0.1,165.5,0.2,331,0.3,496.6  c0,0.3,0.2,0.5,0.4,0.8c0.1,0.2,0.3,0.5,0.8,1.2c7.4,1.3,15.1,2.2,23,0.9c0.3-2.9,0.5-5.5,0.8-8c7.4,1.5,2.1,10.8,9.6,13.3  c3.8-5.2,9.4-4.7,14.9-5.3c5.4-0.6,11.1,0.4,16.1-2.7c0.5-0.3,1.6,0.1,2.2,0.5c3.9,2.7,6.4-0.2,8.7-2c7.1,5.4,14.5,3.7,22.5,3.7  V762.2c0-3.8-0.1-7.6,0-11.4c0.1-3.5-0.5-7.2,2.1-10.8c25.7,61.7,51.4,123.3,77,184.7c8.7,1.1,16.9,1.9,24.9,3  C951.9,929.9,967,930.9,982.2,928.7z M832.4,958.1c-3.5,0-6.3,0.1-9.2,0c-11.7-0.3-23.3-0.5-35-0.9c-4.9-0.2-9.9-1-14.8-0.8  c-12.5,0.3-25,1-37.6,1.6c-0.5,0-0.9,0.6-2.1,1.4c0,4.1,0,8.7,0,13.4c0.1,4.4,0.2,8.9,0.3,13.5h98.8  C832.6,976.5,833.2,967.6,832.4,958.1z M832.1,950.5c0.1-0.6,0.1-1.2,0.2-1.8c-7.6-2.1-15.6-1.3-23.4-1.5  c-8.2-0.2-16.3-0.2-24.5-0.2c-8.2,0-16.3,0-24.5,0c-7.8,0-15.5,0-23.2,1.1c11.9,1.2,23.8,1.9,35.7,2.5c4.1,0.2,8.2,0.2,12.2-0.3  c13.7-1.8,27.3-1.9,41,0.1C827.6,950.8,829.9,950.5,832.1,950.5z M1491,939.9c-0.1-0.7-0.7-1.2-1.6-2.5c-1.3,2.3-2.2,3.9-3.5,6.1  C1491,945.2,1491.5,943,1491,939.9z M1132,925.9c0.3,0.2,1.3,0.1,1.6-0.2c1.6-1.8,1.5-3.6-0.1-5.3c-0.2-0.2-0.5-0.2-1.5-0.5  C1130,922,1129.7,924,1132,925.9z M1477.3,944.7c4.5-0.1,4.5-0.1,6-7.2C1478.7,939.1,1478.7,939.1,1477.3,944.7z M1075.1,927.1  c12.5-0.9,25.1-1.7,37.6-2.3c4.6-0.2,9.2,0.5,14.7,0.9c0.1-3.5,0.3-6.6,0.4-9.7c0.1-4.7,0-4.7,1.5-8.2c2.2,2.5-0.9,7.1,3.4,9.1  c3.8-6.9,5.3-13.8,5-21.3c-0.2-4.4-0.8-9.1,0.5-13.1c2-5.8,1.5-11.5,1.7-17.3c0.1-2.5,0-5,0-7.5c1.1,5.9,0.4,11.9,1.3,17.5  c1.6,9.8,2.9,19.5,2.3,29.4c-0.2,2.5,0.9,4.8,2.9,6.9c1.1-1.9,1.9-3.2,3.1-5.3c1.6,7.4-0.8,14,2.1,20c1.8,0.1,3.2,0.3,4.7,0.3  c7.6,0.1,15.1,0.4,22.7,1.2c12.7,1.4,25.8,2.5,36.6-6.4c1.9,0.6,3.4,0.8,4.7,1.4c7.1,3.6,14.3,4.7,22,2c2.7-1,5.8-0.9,8.7-1.1  c9.6-0.7,19.3-1.4,28.9-1.7c2.9-0.1,6.1,0.1,8.6,1.3c7.4,3.6,14.4,3.4,21.9,0.1c4.5-2,9.3-2,14.4-0.4c9.3,2.9,19,0.8,28.6,1.3  c2.9-11.1,3.7-21.6,3.7-32.1c0.1-127,0.1-253.9-0.1-380.9c0-10.2-1.1-20.5-3.1-30.5c-6.7-33.3-26.4-54.6-59.9-62.5  c-3.4-0.8-6.8-1.4-10.3-1.9h-217.4v509.2C1069.3,928.5,1072.2,927.3,1075.1,927.1z M1169.1,521.4c1.8-0.2,3.7-0.5,5.7-0.5  c18.4,0,36.9,0,55.3,0c1.5,0,2.9,0,4.4,0.1c12.9,1.1,18.8,7.4,19.2,20.4c0,1.8,0,3.5,0,5.3c0,104.4,0,208.9,0,313.3  c0,2.9,0.1,5.9-0.2,8.8c-0.9,8.8-5.5,13.8-14.2,15.5c-3.1,0.6-6.4,0.9-9.6,0.9c-18.4,0.1-36.9,0.1-55.3,0c-1.7,0-3.4-0.5-5-0.7  C1168,877.6,1167.7,531.8,1169.1,521.4z M1143.5,847.9c-3.7,3.5-4,3.5-7.8,0H1143.5z M1407.7,956.1c3.5-0.4,6.6-0.6,9.6-1.1  c0.3,0,0.6-0.8,0.9-1.2C1411.2,951.9,1411.2,951.9,1407.7,956.1z M1481.6,951.4c4,1.2,6.5,2.1,9.1-1.6c-2.5-0.2-4.1-0.5-5.8-0.4  C1484.3,949.4,1483.6,950.1,1481.6,951.4z M1475.6,951.9c1.3-0.3,2.7-0.8,4-1.3l-0.3-1.3c-1.5,0.2-2.9,0.4-4.4,0.7  C1475.2,950.7,1475.6,952,1475.6,951.9z M1615.6,938c6.4-0.1,12.1,1.2,16.7,6.9c2.3-2.1,3.9-3.2,6.6-1.6c3.5,2.2,7.3,2.8,11.7,1.9  c5.3-1.1,10.9-1,16.4-1.2c2.2-0.1,4.5,0.5,6.7,1c6.1,1.5,12.2,2.2,19.2,1.9c-1-3.5-1.7-6.5-2.5-9.4h-99.2  C1599.3,938,1607.4,938.1,1615.6,938z M1492.2,908.5c-5.9,9.6-6.5,11.5-5.7,17.8C1491.1,921.2,1493.1,916.1,1492.2,908.5z   M1646.7,954c8.1,1.4,15.5,2.2,22.2-2.6c-4.6-0.4-9.2-0.8-13.8-1.2C1651.8,949.9,1648.6,950.2,1646.7,954z M1358.8,949.4  c0,0.6,0,1.2,0.1,1.8c3.4,0.7,6.8,1.3,10.1,2.3c5.5,1.7,10.8,1.2,16.3-0.4c4.7-1.4,9.7-2.2,14.6-2.2c20.2,0.1,40.3,0.7,60.5,1.1  c2.9,0.1,5.8,0.2,8.8,0c0.8,0,1.6-1,2.8-1.9c-2.2-1-3.6-1.6-5.9-2.7c3.2-0.9,5.3-1.5,7.6-2.2c0.5-2.5,0.9-4.7,1.4-7.3  c-2.3-0.2-4-0.5-5.7-0.5c-34.2,0-68.4,0-102.6,0.1c-1.7,0-3.6-0.1-5.2,0.5c-1,0.4-1.5,2.1-2.5,3.6c14.6,2,28.6,3.9,42.5,1.9  c17.8-2.5,35,1.2,52.4,3.6C1422.1,945.4,1390.5,947.7,1358.8,949.4z M1533.1,952.9c-4.9,10.8-3.6,22-2.2,33.1c0,0.1,0,0.1,0.1,0.2  h2.4c-0.8-5.7-1.8-10.6-1.9-15.6C1531.4,964.7,1532.5,958.8,1533.1,952.9z M1076.8,945.6c16-0.5,32.1-1.2,48.1-1.9  c0.8,0,1.6-0.5,2.7-0.9c-0.2-1.7-0.5-3.2-0.8-5.3c-8.4,0-16.2,0-24.1,0c-11.4,0-22.8,0.1-34.1,0.2c-0.7,0-1.5,0.7-2.6,1.2  c0.1,1.7,0.2,3.4,0.3,5.8C1070,945.1,1073.4,945.8,1076.8,945.6z M350.3,937.7c-1.2-0.6-2.8-0.4-4.3-0.4  c-28.9-0.1-57.7-0.2-86.6-0.2c-1.7,0-3.3,0.4-5,0.7v4.9c32.7-0.3,65-0.7,98.1-1C351.5,939.8,351.2,938.2,350.3,937.7z M266.9,954.4  c-0.1-0.5-0.2-1-0.2-1.5c-1.9,0.1-3.7,0.3-5.6,0.4c0.1,0.8,0.2,1.5,0.3,2.3L266.9,954.4z M319.2,958.6c-6.7,0.1-13.4,0.6-20.1,0.8  c-12.6,0.5-25.2-1.8-37.9-0.8c-4.8,0.4-7.3,1.7-7.4,5.5c-0.2,7.1-0.1,14.2-0.1,22.1h98.1v-27.6C340.6,958.6,329.9,958.5,319.2,958.6  z M477.2,955.9c-32.1,0.1-64.3,0.1-96.4,0.2c-2.5,0-5.1,0.6-7.9,0.9c-2.1,9.6-4,18.8-6.2,29.1h107.7c3.4-11.9,5.3-24.5,4.5-29.8  C478.3,956.2,477.7,955.9,477.2,955.9z M300.6,955.4c4.4,1,7.9,0.8,12.7-1.8C308,952.5,304.4,951.8,300.6,955.4z M299.3,946.3  c-6.1,0.1-12.1,0.4-18.1-1.6c-2.1-0.7-5.4-1.4-6.7-0.3c-4.1,3.4-8.8,2.3-13.3,3.3c-2.1,0.4-4.2,1.2-6.3,1.9c7,1.3,13.9,1.4,20.7,1.3  c20.7-0.5,41.3-1.1,62-1.5c4.6-0.1,9.2,0,15.5,0c-2.4-2.1-2.8-2.8-3.2-2.8C333.1,946.4,316.2,946.1,299.3,946.3z M98.6,937.1  c-32.9-0.5-65.5-0.2-98.4-0.1c0.3,2.5,0.5,4.1,0.8,6.5c13.6,0,26.7,0,39.8,0c1.1,0,2.3-0.4,3.4-0.8c5.2-1.6,10.4-1.3,15.6-0.1  c2.5,0.5,5.1,1,7.7,1.1c8.5,0.2,16.9,0.2,25.4,0.1c2,0,3.9-0.4,5.8-0.7V937.1z M1106,950.8c6.1,0,12.3,0.1,18.4-0.1  c1.1,0,2.1-1,3.2-1.6c-8.9-1.7-17.4-3.9-26.1-2c-5.2,1.1-10.3,1.3-15.6,0.6c-4.9-0.6-9.9-0.4-14.8-0.2c-1.4,0.1-2.8,1.3-4.3,2  c6.6,1.3,12.9,1.4,19.2,1.7c0.4,0,0.7,0.4,1.1,0.7c-1.7,0.5-3.2,0.9-4.8,1.3c0.1,0.6,0.3,1.3,0.4,1.9c5.3-0.2,10.5-0.5,16.1-0.7  c-0.7-1.5-1.1-2.2-1.7-3.6C1100.2,950.8,1103.1,950.8,1106,950.8z M7.4,947.6c-1.5,0-2.9,0-4.4,0c-3,0.1-3.1,2-2.6,3.6  c5.6,0,11.1-0.1,16.5,0c4.5,0.1,9.4-0.4,13.4,1.2c4,1.6,6.7,1.6,10.5-0.3c4.6-2.2,9.8-3.2,14.7,0.3c3.9,2.7,8.4,2.3,12.6,1.3  c9.1-2.3,15.2-2.4,26,0.2c3.1,0.8,4.2-0.5,4.2-5.4c-2.2-0.2-4.4-0.6-6.7-0.6C63.5,947.9,35.4,947.7,7.4,947.6z M253.8,920.8  c7.7,1.5,8.9-3.7,10.5-8.5c3.2,6.7,3.2,6.9,10.9,8.4c6.3,1.2,12.7,1.7,19.1,2.5c5,0.6,9.3-0.1,11.7-5.2c0.1-0.3,1-0.3,0.5-0.1  c3,1.3,5.2,3,7.3,3c6.4,0.2,12.9-0.2,19.3-0.6c1.8-0.1,3.5-1.3,4.9-1.8c4.2,2.1,8.4,4.2,12.5,6.3c0.7-0.6,1-0.8,1.1-1  c0.2-0.5,0.5-1.1,0.5-1.6c0.1-1.5,0.1-2.9,0.1-4.4c-0.1-163.3-0.2-326.6-0.3-489.8h0v-11.3h-91.6c-27.2,69.3-53.9,138.5-81.7,209.4  c-28-71.2-55.2-140.5-82.2-209.4H0.5v502.7c5.8,0.3,11.2,1.4,16.3-1.8c-0.6-1.6-1.1-3-2-5.3c3.6,1.3,6.1,2.2,9.6,3.5  c-1-4.2-1.7-7.4-2.4-10.5c2.9,0.3,5.7,0.6,8.4,0.9c2.9,4.7-5,8.3-0.8,13.5c9.4,1.7,19.9-2.9,29.9,2.9c0.3-2.2,0.9-3.7,0.7-5  c-0.3-1.5-1.3-2.8-2-4.2c2.1-0.4,4-0.8,6-1.2c-0.2,2.6-0.3,4.8-0.4,6.8c4.9,1.2,9.4,2.4,14,3.4c5.2,1.1,6.5,0.3,9.4-5  c-1.3-0.6-2.5-1.3-3.7-1.9c1.5-3.1,2.9-6.1,5.2-10.8c1.1,6.2,1.8,10.6,2.6,15.2c5.7-1.2,8.6-4,7.9-9.8c-0.2-2,0-4.1,0-6.1V691.5  c0.7-0.1,1.4-0.2,2.1-0.2c25.5,58.6,51,117.2,77.1,177.1c1.9-4.3,3.3-7.1,4.5-10.1c22.1-53.5,44.2-107,66.3-160.5  c0.9-2.2,2.1-4.2,3.1-6.3c0.5,0.2,1,0.3,1.4,0.5v163.1c0,11.1,0,22.2,0,33.4C253.7,899.2,253.5,909.9,253.8,920.8z M98.5,957.6H0  c0,3.2,0,5.9,0,8.5h0v20h99.2v-16.7h0C99.1,965.6,99,961.6,98.5,957.6z M1555,703c0.6,0.5,1.5,1.2,2.4,2c8.9,8.2,15.7,4.4,18.4-3.3  c0.3-0.8,0.7-1.6,1-2.4c2.3-5.4,4.4-10.8,6.8-16.2c4.6-10.3,6.9-21.1,7-32.3c0-2.7,0.3-5.5,0.5-8.2c2.1,1.2,2.9,2.5,3.3,4  c1.1,3.9,1.6,8.1,3.1,11.8c2.8,7.2,7,9.3,14.5,7.9c2.1-0.4,4.2-0.9,8.5-1.8c-2.9,3.3-4.2,5.2-5.9,6.6c-3.3,2.8-6.7,5.7-10.4,8  c-8.7,5.7-14.1,13.8-17.6,23.4c-1.3,3.5-2.7,7-4,10.2c0.4,0.6,0.5,0.9,0.7,1.1c7.2,4.9,12.8,10.8,15.3,19.5  c2.4,8.6-0.2,16.8-0.5,25.2c-5.4,3.9-1.4,7.8-0.3,11.9c1.6,6.2,2.8,12.5,3.6,18.9c0.4,3.7-0.2,7.3,2.9,10.5c1.2,1.2,0.8,4.5,0.4,6.6  c-1.3,6-2.9,11.9-4.5,17.8c-0.8,2.8-1.8,5.5-2.9,8.2c-2.1,4.9-5,9.2-4.7,15.2c0.2,3.7-2.3,7.7-4.2,11.3c-1.4,2.7-3.2,5.2-7.3,5.3  c-2.6,0.1-5.2,2.3-8,3.6c-1.1,7.8-3.2,15.3-2.9,22.8c0.4,7.8-1,15.1-2,22.6c-0.3,1.9-0.7,3.8-1.1,6.3h12.2c3,5.9,7.4,6.6,13.3,5  c3-0.8,6-0.3,8.1-3.6c0.6-1,3.2-0.8,4.9-1.1c0.7,0.9,1.2,1.5,1.7,2.2c4.3,6.5,5.5,7.1,12.5,3.3c3-1.6,5.7-1.4,8.4-0.4  c9.5,3.6,18.8,1.1,27.4-2.1c4.9-1.8,9.3-2.2,14.3-2c5.7,0.2,11.4,0.8,17.4-0.4c-35.8-168.7-71.4-336.6-106.9-504.1H1471  c-35.7,167.7-71.6,335.7-107.4,504.3c4.3,0.6,7.8,1.1,11.2,1.5c6.3,0.7,12.9,0.2,18.7,3.8c1.3,0.8,3.7,1.1,5.1,0.5  c5.2-2.4,10.3-0.5,15.5-0.2c4,0.2,8.5,0.5,12-0.9c3.4-1.4,5.9-5,9.3-8c1.7,1.7,4.3,3.3,5.7,5.7c2.5,4.1,5.9,5.2,10.4,4.6  c7.2-0.8,14.5-1.3,21.8-2c2-0.2,4-0.5,6.1-0.7c1-2.8,1.9-5.2,2.7-7.7c1.7-5.6,2.9-11.3,8.2-15.1c1-0.7,1.6-2.5,1.6-3.8  c0-3.2-0.4-6.4-0.7-9.6c-0.3-2.9-0.5-5.8-0.8-8.7c-1.9,1.8-2.5,3.7-2.9,5.6c-0.3,1.7-0.2,3.5-0.7,5.2c-0.8,2.4-2.5,3.1-4.9,1.2  c0.2-3,0.7-6.2,0.7-9.3c-0.1-11.4-0.9-22.8-0.4-34.1c0.3-6.3,1.2-13.3,4.2-18.6c2.7-4.7,2.7-9.2,3.4-14c-1.3,0.8-2.2,1.8-2.8,3  c-3,5.7-5.7,11.5-8.9,17.1c-3.5,6-5.7,12-3.1,19.1c0.8,2.3,1.5,5.8-2.4,7.7c-1.2-1.9-2.2-3.6-3.6-5.8c-1.5,6.7,8.8,11,2.6,17.8  c-1-0.2-1.8-0.1-2.1-0.5c-6.8-7.3-11.1-15.5-9.7-25.9c0.3-2.5,2.2-5.2-0.3-7.4c-1.9-1.7-1.3-3.3-0.9-5.4c0.9-4.7,3.9-9.2,1.8-14.3  c-3.6-0.3-7-0.6-9,3.5c-0.6,1.2-2.1,2-3.2,2.9c-5.5,3.9-11,7.7-16.6,11.5c-7.4,5.2-7.6,5.2-15.9,0.9c-6.4,2.4-10.8,6.4-11.1,14  c-0.1,2.7-1.5,5.3-2.7,9.3c0.5-6.6,0.9-11.7,1.3-17.1c-2.1-0.5-3.7-0.8-5.8-1.3c2.2-1,3.9-1.8,5.6-2.6c-0.5-1.4-0.9-2.4-1.3-3.4  c6.9-1.7,11.9-5.8,15.8-11.6c1.9-2.8,4.5-5.2,6.4-7.5c16.1,3.8,29.9-6.3,39.2-22.2c-6.9,5.6-11.1,12.1-18.1,14.2  c5-5.5,10.2-10.9,15.1-16.5c5.2-5.9,10.2-12,15.3-18c0.5-0.6,1.2-1.6,1-2.1c-1.6-4.3,1.9-7.1,2.8-10.7c0.7-2.7,1.9-5.3,3-8.2  c-2.7-0.9-4.8-1.6-7-2.4c-0.5-6.1,1.5-11.3,3.3-16.5c2.9-8.2,7.5-15.2,15.4-19.5c1.7-0.9,3.3-2.4,4.3-4.1c2.8-4.7,6.5-7.2,12.1-6.1  c0.7-5-0.1-9.2-1.8-13.3c-3.1-7.2-3.2-14.7-1.7-22.3c2.5-12.3,16.4-21.1,28.7-18.7c10.3,2,14.3,9.5,16.6,18.2  c1.5,5.9,2.2,12.1,2.8,18.2C1555.4,694.2,1555,698.5,1555,703z M2594,959.7c-3.5,0-7-0.4-10.5-0.7c-14.3-1.4-28.5-2.7-42.7,0.8  c-7.5,1.9-15.1,1.8-22.5-0.4c-7.6-2.2-14.3-0.3-21.4,2.9c2.7,8.1,5.4,16,8.1,23.9h110.1c-3.5-9.4-6.9-18.8-10.7-27.5  C2600.3,959.1,2597.2,959.7,2594,959.7z M2510.7,955.1c6.3-0.5,12.6-2.2,19,0.3c2.1,0.8,5.1-0.3,7.6-0.9c1.7-0.4,3.2-1.9,4.8-1.9  c12.3-0.2,24.5-0.3,36.8-0.2c1.9,0,4.4,2.4,5.5,1.7c5.4-2.9,11.4-0.5,17.4-2.2c-2-5.2-3.8-9.9-5.7-15c-3.3,0-6.2,0-9.1,0  c-32.1,0.1-64.2,0.1-96.4,0.2c-0.3,0-0.6,0.2-0.8,0.4c-0.2,0.2-0.2,0.5-0.6,1.4c0.8,2.5,1.9,5.4,2.9,8.5c3.6,0,6.8,0.1,10,0  c6.4-0.2,12.4-0.6,18.6-3.6c4.2-2,10.7-1.7,15.2,0c4.8,1.9,9.5,2.5,14.3,2.5c6.1-0.1,12.2-0.7,18.3-1.3c4.8-0.5,9.8,1.3,14.2-2.3  c1-0.8,3.5-0.3,5.1,0.2c2.6,0.9,5.1,2.3,8.8,4.1c-34.9,2.8-68.7,1.3-102.2,4.4c-0.6,3.1,0.5,4.7,3,4.6  C2501.9,956,2506.3,955.5,2510.7,955.1z M2696,937c-19.3,0-38.6,0-57.9,0.1c-1.4,0-2.7,0.5-4.4,0.8c0.2,2.6,0.3,4.8,0.5,7.6  c3.9,0.1,7.4,0.4,10.8,0.4c12.3-0.2,24.6-0.5,36.8-0.7c2.3,0,4.7-0.3,7,0.1c1.1,0.2,2,1.6,4.1,3.3c-3.5,0.6-5.7,1.2-7.9,1.2  c-14.9,0.3-29.8,0.4-44.7,0.6c-2,0-4.5-0.7-6.7,2.4c33.2,4.8,65.4,0.2,97.5-0.8c0.2,0.7,0.5,1.4,0.7,2.1c-1.3,0.9-2.5,2.3-3.9,2.6  c-2.5,0.5-5.2,0.5-7.8,0.5c-19.3,0.1-38.6,0-57.9,0.1c-9.3,0.1-18.5,0.6-28.5,0.9c0,5.4-0.1,10,0,14.6c0.1,2.7-0.2,5.5-0.1,8.2h0  v5.1h103v-48.7c-2.7-0.2-4.9-0.5-7.2-0.5C2718.2,936.9,2707.1,937,2696,937z M2725.7,947.3c-6.5,0.6-13,1.3-19.7,1.9  c-0.8-3-0.4-4.8,2.3-4.9c5.2-0.2,10.4-0.2,15.6-0.1c0.6,0,1.2,0.9,1.9,1.4C2725.7,946.1,2725.7,946.7,2725.7,947.3z M2634.1,426.6  c-1,72.1-0.6,493.1,0.8,500h8.4c16.7,0,33.4,0,50,0c3.8,0,7.4,0.3,11.1,1.8c3.9,1.6,8.5,2.7,12.6,2.5c6.3-0.4,12.4-2.3,19.4-3.7  c0.2-0.8,0.5-1.7,0.5-2.5c0-167.5,0-335,0-502.6h0v-5.6h-102.9V426.6z M2999.3,923c0.6-0.1,1.3-0.2,1.7,0.1  c5.4,3.7,11.3,2.5,17.3,2.3c3.7-0.1,6.6-1.5,9.9-2.2c8.2-1.6,16.5-2.4,24.8-3.3c1.6-0.2,3.4,0.7,4.9,1.4c2.7,1.2,5.2,2.8,7.9,3.7  c1.8,0.6,4,0.9,5.8,0.5c3.9-0.9,7.7-2.3,12.1-3.7c-35.7-168.5-71.4-336.8-107.2-505.4H2868c-6.2,24.9-109.5,507.2-108.8,513.4  c1.9-0.2,4.3,0.2,5.6-0.8c3.8-3.1,8.1-2.9,12.5-2.8c6.7,0.2,13.4,0.7,20.2,0.8c7.3,0.1,14.6,0.1,21.9-0.1c2.7-0.1,5-0.4,7.3,1.7  c2.9,2.8,6.6,2.6,9.6,0.1c3.1-2.5,6.5-2.2,10-1.9c6.1,0.5,12.1,0.9,18.4,1.4c0.7-1.6,0.8-1.9,0.9-2.2c0.2-0.6,0.4-1.1,0.5-1.7  c18.2-93.8,36.4-187.6,54.6-281.4c0.1-0.3,0.3-0.6,0.5-0.7c0.2-0.1,0.5,0,1.7,0.1c17.4,91.2,34.9,182.6,52.4,273.8  C2983,920.3,2990.3,924.6,2999.3,923z M2825.2,925.7c-0.8-1.6-1.7-2.6-1.5-3.3c0.2-0.8,1.4-1.3,2.2-1.9c0.6,0.8,1.7,1.6,1.6,2.3  C2827.5,923.6,2826.4,924.3,2825.2,925.7z M1526.5,937.8c1.8,3.3,3.3,6.1,5.3,9.8c1-3.6,2.6-6.3,0.7-9.8H1526.5z M2235.4,937.4  c0.8,1.8,1.2,4,1.8,4c4.6,0.4,9.2,1,13.4,3.2c0.7,0.3,2.1,0.3,2.5-0.1c2.7-3.5,7.2-1.5,10.1-2.9c0.4-1.1,0.8-1.6,0.9-2.1  c0.1-0.6,0-1.1-0.1-2H2235.4z M2239.5,946.3c-1.9,0-3.5,0.4-3.6,2.7c-0.1,2.3,1.7,2.8,3.5,2.9c6.1,0.3,12.1,0.6,18.2,0.7  c2.4,0.1,3.7-1.2,3.7-4.9c-5.9-0.4-11.7-0.9-17.4-1.3C2242.4,946.3,2241,946.3,2239.5,946.3z M2517.5,931.8c1.7,0.1,3.5,0.6,5,1.3  c4.6,2.3,8.4,1.5,11.6-2.5c2.3-2.9,5.7-5,9.2-4.1c4.6,1.2,9.1,0.9,13.6,1.1c5.8,0.3,11.6,0.4,17.4,0.3c4.1,0,8.2-0.4,12.2-0.7  c1.6-0.1,3.2-0.5,5.3-0.9c-1.2-3.4-2.2-6.1-3.2-8.8c-20.5-53.2-41.1-106.3-61.5-159.5c-1.2-3.1-3.4-6.1-2.4-9.7  c7.6-1,14.9-1.5,22-2.9c24-4.6,38.6-18.8,42.7-41.8c1.1-6,1.6-12.2,1.6-18.3c0.1-64.9,0.2-129.9,0-194.8c0-12.9-0.9-25.7-4.5-38.2  c-5.1-17.5-16.3-28.5-33.8-33.5c-3.6-1-7.3-1.8-11-2.3h-238.7c-0.1,4.2-0.2,7.9-0.2,11.5c0,162.9,0,325.9,0,488.8  c0,2.3-0.1,4.7,0.1,7c0.2,1.9,0.8,3.8,1.2,5.7c9.9,0.6,19.1,0.5,28.4-1.4c4.1-0.8,9.2-0.7,12.7,1.2c5.7,3.1,10.3,2.6,15.6,0  c1.8-0.9,5.4-1.2,6.3-0.1c2,2.2,4,2.7,6.6,3.1c1.6,0.3,2.9,2.2,5.7,4.5c-4.7,0-7.6,0-10.5,0c-20.8,0-41.5,0-62.3,0.1  c-1.1,0-2.1,0.5-3.6,0.8c0.2,2.5,0.4,4.7,0.6,7.3c8.1,0.4,15.6,1.1,23.1,1.1c3.3,0,6.6-1.3,9.9-2c-0.1,0.1-0.1,0.1-0.2,0.2  c8.1-1.8,16.1-1.4,24.4-1c13.4,0.8,26.9,0.4,40.3,0.2c4.6-0.1,4.6-0.5,3.9-6.6H2387c5.9-4.4,13.7-4.5,19.3-11.2v-10.2  c0-127,0-253.9,0-380.9c0-2.6-0.1-5.3,0.1-7.9c0.1-1.9,0.6-3.8,0.9-5.7c1.7-0.1,2.9-0.3,4-0.3c19.3,0,38.6,0,57.9,0  c1.2,0,2.3,0,3.5,0.1c7.5,0.8,11.1,4,12.1,11.4c0.6,4,0.8,8.2,0.8,12.2c0.1,25.5,0.1,50.9,0,76.4c0,3.8-0.2,7.6-0.6,11.4  c-1,8.5-4.3,11.7-13,12.6c-2.3,0.2-4.7,0.2-7,0.2c-9.7,0-19.3,0-29,0c-2.2,0-4.5,0.4-7.1,0.6c-0.1,2.2-0.3,3.9-0.3,5.6  c0,34.5-0.1,69,0.1,103.6c0,3.1,0.7,6.4,1.7,9.4c17.6,52.6,35.4,105.3,53.1,157.9c2.4,7,2.7,7.2,9.8,7.7  C2501.3,930.5,2509.4,931.1,2517.5,931.8z M2336.7,944.2c-3-0.4-6.1-0.8-9.6-1.3c5-3,6.1-3.3,12.5-2.4  C2338.5,941.9,2337.6,943.1,2336.7,944.2z M2308,956.9c3.5-0.3,7.1-0.4,10.3-1.4c6.3-2,12.5-2.1,19-1.2c5.1,0.7,10.6,1.3,15.6,0.4  c10-1.8,19.6-1,29.4,0.9c7.7,1.5,15.5,1.2,23.3,0.4v-6.5c-2.3,0-4.3,0-6.3,0c-5.5-0.2-11.2,0.2-16.6-0.6  c-19.8-3.1-39.5-1.4-59.2,1.2c-5.2,0.7-10.4,1-15.6,1.6c-1.9,0.2-4.6,0.1-4.6,2.9C2303.4,957.4,2306.1,957,2308,956.9z   M2302.9,961.5c0.4,8.5-0.6,16.7,0.5,24.7h102.4v-25.1c-17.3-0.6-33.8-0.3-50-2.1C2338.1,957,2321.1,961.4,2302.9,961.5z   M2265,470.3c-4-30.2-21.2-48-51.3-52.8c-10.3-1.7-20.9-2.2-31.4-2.2c-40.7-0.2-81.3-0.1-122-0.1c-5.8,0-11.8-0.2-17.5,0.5  c-8.7,1-17.5,2.1-25.9,4.3c-21.3,5.6-34.3,19.7-37.8,41.4c-2.1,12.9-3,26.2-3.1,39.3c-0.2,133.1-0.2,266.2-0.1,399.3  c0,9.6,0.8,19.3,1.4,28.9c0.1,1.8,1,3.6,1.7,6c3.7-1.1,6.7-2.1,9.4-2.9c0.7-2,1.2-3.6,1.7-4.8c0.9-0.2,1.2-0.3,1.5-0.3  c9.8,0.3,19.9-2.5,28.9,3.8c0.6,0.4,1.7,0.1,2.6,0.3c2.2,0.3,4.6,0.3,6.6,1.2c5.4,2.6,10.5,3.1,15.6-0.8v-6.9  c2.3,1.7,3.8,2.8,5.3,3.9c0.9,0.7,1.5,2.2,2.4,2.2c5.1,0.3,10.5,2.3,15.3-1.1c4.4-3.1,8.6-3.1,13-0.2c4.1,2.7,7.6,2.2,12.1-0.2  c9.8-5.4,20.4-2.3,30.7-1.2c0.2,0,0.4,0.4,0.7,0.5c9.5,5.3,19.3,4.4,28.7,0.3c4.8-2.1,8.7-2.9,13.1,0.1c3.1,2.1,6.4,2.1,10,1.3  c9-1.8,18-4.1,27.4-1.9c0.4,0.1,0.9-0.5,2-1.3v-21.4c0-3.8-0.1-7.6,0-11.4c0.2-3.5-0.9-7.3,2.5-10.6c0.4,4.7,0.8,9.4,1.2,14.5  c1.6-0.3,3.4-0.3,3.6-0.8c2.5-7,5.9-13.8,6-21.4c0.1-10.3,0.2-20.5,1.9-30.9c1.8-11.4,0.4-23.2,0.4-34.7c-1.2-2.1-6-0.1-4.9-5  c3.5,0.2,7,0.3,11.6,0.5c-2,3.6-5.7,4.3-5.7,8.3c0.1,17.8,2.6,35.4,4.4,53c0.4,4.2,0,8.5-0.1,12.8c-0.1,4.3,1.2,8.1,4.2,11.7  c1.1-3.1,2-5.6,2.9-8c0.6,0.1,1.1,0.2,1.7,0.3v44.7c8.1,2.1,14.8,3.6,22,2.5c8.2-1.2,8.8-1.1,9.2-9c0.3-7,0.4-14,0.4-21.1  c0-69.3,0-138.7,0-208c0-62.9,0.1-125.8-0.1-188.7C2267,493,2266.5,481.6,2265,470.3z M2163.4,883.1c-0.5,0.6-0.6,0.8-0.8,1  c-0.2,0.2-0.4,0.4-0.7,0.4c-0.6,0.2-1.1,0.3-1.7,0.3c-24.3,0.1-48.6,0.1-72.8,0.1c-2.3,0-4.6,0-7.5,0c-0.4-2.3-0.8-4.2-1-6.1  c-0.2-1.7,0-3.5,0-5.3V532.2c0-3.5,0-6.9,0-11.1h83.3c0.6,0.5,0.9,0.7,1,0.9c0.2,0.2,0.3,0.5,0.3,0.8c0.1,118.5,0.2,237,0.3,355.4  C2163.7,880,2163.5,881.8,2163.4,883.1z M3369.1,937.6c-2.4,3.4-2.5,6.9-0.3,11.6C3371.6,944.5,3371.1,941.1,3369.1,937.6z   M3340.9,872.4c-3.3,0.2-5.8,0.4-8.1,0.5c-2,8.5-1.8,17.8,0.6,24.9c2.8-0.7,5.7-1.4,8.8-2.1C3341.1,887.6,3342.4,880.1,3340.9,872.4  z M3079.3,937c-32.7,0.1-65.5,0.2-98.2,0.3c-0.3,0-0.5,0.2-0.8,0.4c-0.2,0.2-0.3,0.4-0.9,1.3c2.9,15.3,6,31.2,9.1,47.2h108.9  c-3.5-16.6-7-32.7-10.5-49.2C3084,937,3081.7,937,3079.3,937z M3367.7,871.1c-0.2,3.3-0.3,5.2-0.5,7.2  C3371.3,876.4,3370.9,874.4,3367.7,871.1z M3332.3,948.5h9v-11h-9V948.5z M3400.6,959.1c-9.3,0.6-18.7-2.8-27.5,2.5  c-0.4,0.3-1.1,0.1-1.7,0.1c-11.7,0-23.4,0.1-35-0.1c-1.9,0-3.8-1.2-5.5-2.1c-2.4-1.2-0.2-4.2-0.5-4.3c-5.4-1.2-3.2-5.4-3.6-8.5  c-0.4-3.1,0.9-6.4-1.5-9.5h-28.8c7.1,17.1,13.7,33,20.4,49h84.7c0-4.6,0.1-8.8,0-13C3401.3,968.6,3402.2,963.9,3400.6,959.1z   M3162.3,937c-8.2,0-16.4-0.1-24.6,0c-8.1,0.1-16.2-0.7-24.3,0.6v48.6h98.7c0.1-16,0.2-32.2,0-49.2H3162.3z M3316.3,911.4  c7.6,0.5,10.4-3.5,10.4-11.7c0.1-13.5,0.1-26.9,0.1-40.4c0-5.3,0-10.5,0.3-15.8c0-1.1,1-2.2,1.6-3.2c4.1,8.3,1.7,16.8,3.5,25.4h8.1  c-0.3-5.2-0.9-10.3,4-13.5c1.4-7.3,3.2-14.5,4-21.9c0.5-5.1-0.6-10.4-0.5-15.5c0.2-7.6,0.9-15.1,1.2-22.7c0-1.2-1.1-2.5-1.7-3.8  c4.7-3.1,5.3-7.5,5.4-12.4c0.3-17.5-1.4-35,0.9-52.5c0.3-1.9-0.3-3.9-0.4-5.4c-3-0.2-5.6,0-7.8-0.7c-3.5-1.1-2.6-3.8-1.9-6.1  c3.7-2.3,5.9,0.8,8.6,1.7c3.2,1,5.9-4,9.7-1.8c3.1,6.5-2.9,6.9-5.8,8.6c0,19.9,0,39.2,0,58.5c0,1.4,0.3,2.9,0.8,4.2  c3.2,7,4,14.4,4.3,22.1c0.2,4.7-1.8,10,2.4,14.1c0.4,0.4-0.3,2.1-0.6,3c-0.4,1-1.4,2-1.5,3c-0.5,10.6-1.1,21.3,5.7,30.6  c0.9,1.3,0.8,3.3,1.1,5c0.1,0.9,0,1.8,0,2.6c0,0.9,0.2,1.7,0.3,2.6c2.9-4.2,1.8-8.5,2-12.8c0.3-4.3-0.8-9,3.7-13.3  c3.3,10,1.2,19.4,1.9,28.6c0.7,9.2,0.4,18.4,0.4,27.6c8.6-1.2,16.3-2.3,24.9-3.6c0-3.2,0-6.7,0-10.1c0-151.8,0-303.7,0-455.5  c0-0.6,0-1.3,0-1.9h0v-0.1c0-0.7,0-1.3,0-2v-6.1h-99.2v275.7c-0.6,0.1-1.2,0.3-1.8,0.4c-34.4-92-68.5-184.1-102.9-276.1H3113v8.7  c0,163,0,325.9,0,488.9c0,2-0.1,4.1,0.1,6.1c0.3,3.3,2.1,4.9,5.2,4.2c2.5-0.5,5.1-1.5,7.2-2.9c3.4-2.4,6.5-2.9,10.6-1.8  c3.6,0.9,7.5,0.9,11.3,0.8c6.4-0.2,12.8-0.7,19.2-1.2c4.9-0.4,10.1-0.5,14.7-1.9c5.5-1.7,10.1-1.3,15.1,1.5  c4.5,2.5,9.4,4.3,15.6,3.7c0.1-3.9,0.3-7.3,0.3-10.7c0-54.1,0-108.2,0.1-162.4c0-3-0.8-6.3,1.6-10.3  c24.8,59.5,49.1,117.9,73.5,176.3c1.5,0,2.4,0.1,3.2,0C3299.1,914,3307.2,910.9,3316.3,911.4z M3401,954.2v-16  c-6-1.6-14.7-1.8-24.1-0.3c-1.5,5.7,0.7,11.9-1.4,18.3C3383.9,955.5,3392.2,954.9,3401,954.2z M3367,896.5c1-0.2,2.4-0.1,2.6-0.5  c1.8-3.8,1.2-7.5-1.1-11.2C3368.1,888.7,3365.2,892.3,3367,896.5z M2746,986.2h108c3.1-16.1,6.2-31.9,9.4-48.8h-107.1  C2752.9,953.6,2749.5,969.6,2746,986.2z M2858.1,942.6c0,0.6-0.1,1.2-0.1,1.9c-1.7-0.1-3.3-0.2-5-0.3c0-0.4,0-0.9,0-1.3  C2854.7,942.8,2856.4,942.7,2858.1,942.6z M2856.7,950.9c-5.9,3.1-11.8,2-17.8,0.5C2844.6,949,2847.7,948.9,2856.7,950.9z   M2815.5,945.7c-6.4,2.8-9.3,2.9-15.8,0.7C2805.1,944.9,2809.8,945.6,2815.5,945.7z M2784.3,947.1c-6.9,2.8-13.7,1.2-22.1,0.2  C2769.8,945,2773.6,944.9,2784.3,947.1z M2761.1,956.5h14.3c0,0.4,0,0.8,0,1.2c-2.2,0-4.4,0-6.7,0c-2.6,0-5.1,0-7.7,0  C2761.1,957.3,2761.1,956.9,2761.1,956.5z M1930.7,958.9c-27.5-2.6-54.9,0.9-82.4,0.5c-5.2-0.1-10,1.2-13.9,4.5  c-3.2,2.7-6.4,3.6-10.4,3.1c-2.5-0.3-5.2-0.1-7.8-0.1c-0.6-1.8-0.7-2.9-1.3-3.9c-1.6-2.9-3.9-6-7.3-4.6c-3.1,1.3-5.7,0.8-8.5,0.3  c-16.7-2.6-33.4-0.8-49.8,1.5c-12.9,1.8-25.5,1.7-39,0.3c-0.1,5.3-0.3,10.7-0.2,16.2h0v9.4h240.5c0.1-9.7,0.3-18.6-0.1-27.2  C1943.4,959,1937,959.6,1930.7,958.9z M1789.4,961.8h14.9C1800.3,966.1,1796,966.2,1789.4,961.8z M1577,827.6  c0.1-2.4,0.2-4.8,0.4-7.8C1572.3,822.1,1574.4,824.8,1577,827.6z M1675,959.9c-10.4,0-20.9,0.2-31.3-0.3c-6.3-0.3-12.6-1-19.4-3.3  c2.2-1.3,3.8-2.2,5.3-3.1c-0.2-0.5-0.4-1-0.5-1.6c-3.9-0.8-7.7-1.9-11.7-2.2c-4.1-0.2-8.4,2.1-12.1-1.4c1.8-1.6,2.7-3.6-0.1-4.7  c-2.3-0.9-5.1-1.2-7.7-1.1c-6.4,0.4-12.7,1.2-19.1,2c-0.5,0.1-0.9,1.2-1.6,2.3c8.2,3.9,16.2-1.9,24.2,0.2c0.3,1.9,0.6,3.5,0.9,5.5  c1.9,0.7,3.8,1.5,5.7,2.1c1.9,0.6,3.9,1,5.9,1.5c-3.4,1.5-6.6,1.8-9.7,2c-11.4,0.8-22.7,1.7-34.1,2.2c-4.3,0.2-7,1.9-9.2,5.4  c-4.1,6.4-4.7,13.7-5.8,20.9h146.3c-1.8-8.6-3.7-17.2-5.6-26.3C1688.3,959.9,1681.7,959.9,1675,959.9z M1598.5,965.7  c-6.3,1.3-12.5,2.5-18.8,3.8c-2.1,0.4-3.8-0.6-3.9-2.4c-0.1-1.3,1.2-2.9,2.1-4.1c0.4-0.6,1.6-0.8,2.4-0.9c6.6-0.4,13.2-0.1,19.8,0.3  c0.1,0.6,0.3,1.2,0.4,1.7C1599.8,964.7,1599.2,965.6,1598.5,965.7z M1613.4,964.7c4-2.5,6.5-1.8,9,0H1613.4z M1716.8,954.8  c0.2-0.7,0.3-1.5,0.5-2.2c-1.7-0.4-3.3-1-5-1.1c-0.5,0-1.6,1.1-1.5,1.5c0.2,0.9,0.9,2.4,1.5,2.5  C1713.7,955.6,1715.2,955.1,1716.8,954.8z M1757.1,951.3c-6.8,0-13.7,0-20.5,0c-1.2,0-2.3,0-3.5,0c-0.5,0-1.1,0.3-1.6,0.5  c-0.2,0.1-0.5,0.3-0.6,0.5c-0.2,0.2-0.3,0.5-0.7,1.4c5.5,2.6,16.8,3.3,23.1,1.4C1755.1,954.7,1757.6,954.6,1757.1,951.3z   M1422.9,837.3c4.7-2.9,9.3-5.8,15-9.3c-8-1-11.2,4.7-16,7.4L1422.9,837.3z M1473.7,786.1c-1.8,1.9-3.6,3.9-6.6,7.1  C1472.8,790.5,1472.8,790.5,1473.7,786.1z M1533,908.6c-4.1,3.9-3.1,8.5-5.6,13.2c2.7-0.7,4.2-1,5.6-1.4V908.6z M1459.9,811.1  c3.5-2.6,6.9-5.1,10.8-8c-1.3-0.9-2.1-1.9-2.6-1.7C1463.4,802.9,1461.5,806.8,1459.9,811.1z M1778.6,956.2c6,0,11.6-1.6,17.4-4  c-1.6-1.4-3.3-2.6-4.9-2.5c-5.5,0.3-10.9,1.1-16.3,1.8c-0.7,0.1-1.4,0.9-2.4,1.6C1773.8,956.4,1776.3,956.2,1778.6,956.2z   M1577.7,794.9c-0.9-2.4-0.4-5.7-4-6.7c-0.5,17.6-0.5,17.6,3.2,20.5c0.3-3.7,0.6-7,0.8-10.3C1577.9,797.2,1578.1,795.9,1577.7,794.9  z M1842.2,954.7c5.4,0.2,10.8,0.3,16.2,0.2c0.4,0,0.7-1.7,1.3-3.2c-6.9-1.2-12.9-0.9-20.8,0C1841.1,953.7,1841.6,954.7,1842.2,954.7  z M2037.2,955.9c5.4,0.1,10.7,1.3,15.9-2C2047.1,949.6,2039.5,950.6,2037.2,955.9z M2107.2,952.1c-14.6-1.7-29.3-3.2-43.9-5.3  c-7.7-1.1-15.3-1.6-22.9,0.1c9.3,1,18.7,1.4,27.9,3.2C2081.2,952.6,2094.2,953,2107.2,952.1z M2118.6,956.8  c-33.6,0-67.2,2.6-100.8,1.1c-2-0.1-4.1,0.1-6.1,0.1c-2.7-0.1-5,0.5-6.9,2.9c-3,3.8-7.2,3.4-11.2,1.9c-1.9-0.7-3.7-1.7-7.1-3.3  c7.8,12.8,17.9,19.1,29.9,23c12.1,3.9,24.5,5.3,37.2,5.3c45.3,0,90.6,0.1,135.9-0.1c7.9,0,15.8-0.8,23.6-1.9  c10.5-1.5,20.5-4.6,29.4-10.6c5.8-3.9,10.7-8.8,14.2-15.3c-9.4-0.7-18.1-1.3-26.7-1.9C2192.9,955.7,2155.7,956.8,2118.6,956.8z   M2209.1,902.3c-0.3,8.6-0.6,16.9,0.4,25.3c0,0.4,1.3,0.7,2.6,1.4c0.3-4.2-0.5-8.6,1.2-11.5c3-5.2,1.1-9.9,1.2-15.2H2209.1z   M2182.7,949.7c8,1,15.2,2.6,24.1,0.2C2200.5,946.6,2189.7,946.7,2182.7,949.7z M2209.2,939.7c0.1,0.9,1.1,2.3,1.7,2.3  c1.4,0,2.8-0.7,5.3-1.5c-1.8-1.7-2.5-3.1-3.6-3.4C2210.9,936.7,2209.1,937.3,2209.2,939.7z M1991.5,942c0.6,1,1.3,2.7,1.8,2.7  c7-0.4,10.7,3.7,12.4,9.3c4-1.1,7.2-2.3,10.6-2.9c6.3-1,12.8-1.4,19.1-2.3c1.4-0.2,2.8-1.2,4.1-1.9h-16.2  c19.1-5.5,38.6-5.6,58.1-4.2c15.4,1.1,30.9,2.5,46.4,2.5c22.5,0,45-1.2,67.5-2c2.6-0.1,5.3-0.3,7.9-0.7c2.9-0.4,2.8-2.4,2.2-4.6  c-6.8-1.3-217.9-1.3-225.8,0c-0.7,3,0.1,5.6,2.6,8.3c2.6-2.1,5-4,8.3-6.7C1990.8,940.5,1991.1,941.3,1991.5,942z M1826.2,955.7  c0.1-0.8,0.3-1.5,0.4-2.3c-3.9-3.7-9-2-13.6-2.3c-3.1-0.2-7-1.3-9.3,2.7c0.8,0.7,1.4,1.8,2,1.8  C1812.6,955.8,1819.4,955.7,1826.2,955.7z M1907.8,951.6c-12.5-3.7-23.7-0.7-34.9-0.4c-0.5,0-1,1.1-2,2.1c1.3,0.7,2.3,1.7,3.2,1.7  c10.2-0.1,20.4-0.4,30.5-0.7C1905.3,954.2,1905.9,953.2,1907.8,951.6z M1948.6,930.3c2.4-3.5,2.2-7.1,2.3-10.8c0-8.5,0.1-17,0-25.4  c0-1.9-0.6-3.8-0.9-6.1h-78.5c-8.5,0-17,0.2-25.4,0c-8.6-0.2-17.3,0.9-25.6-0.7c-0.4-0.9-0.6-1.1-0.6-1.4c-0.1-0.3-0.1-0.6-0.1-0.9  c0-0.3-0.1-0.6-0.1-0.9c0-0.3,0-0.6,0-0.9c0-0.3,0-0.6,0-0.9c0-150.7,0-301.4,0-452.1v-13.8h-109.1V427c0,160.6,0,321.2,0,481.7  c0,2-0.1,4.1,0,6.1c0.3,4.9,2.6,7.4,7.4,7.9c1.4,0.2,3-0.2,4.4,0c1.9,0.3,4.2,0.6,5.6,1.7c2.8,2.3,5.8,2.3,9.1,2.1  c10.8-0.7,21.5-2.1,32-5c5.7-1.6,11.7-2.3,14.3,5c3-0.2,5.6-0.5,8.2-0.5c16.7,0.1,33.3,0.1,50,0.3c23.4,0.3,46.7,0.7,70.1,1.2  c3.2,0.1,6.4,0.9,9.6,1.2c4.9,0.4,9.8,0.6,14.8,0.8c1.9,0.1,3.9,0,6.1,0c0.3,2,0.6,3.7,0.8,5.5c0,0.4-0.5,0.9-1.2,2.2h-230.6v9.3  c4.6-0.3,8.6-0.9,12.6-0.8c8.7,0.2,17.5,1.8,26.2-0.3c1-0.2,2.3,0.2,3.4,0.5c6.1,1.9,12.2,1.4,18.1-0.5c4.3-1.4,8.3-1.8,12.8-0.5  c3.2,0.9,7.1,0.9,10.3,0.1c5.6-1.4,10.9-1.3,16.5-0.1c13.6,3,27.2,3.7,40.9,1c3.7-0.7,7.2-1.6,10.7-2.7c6.8-2.1,14.1-3,21.3,0.2  c12.2,5.5,24.8,5.6,37.7,2.1c3.3-0.9,7-1.9,10.3-1.3c5,1,9.1,0.6,13-2.8c1.4-1.2,3.8-1.3,7.1-2.3  C1947.4,936.9,1946.6,933.2,1948.6,930.3z M1906.3,943c-3.3-0.1-6.6-0.5-9.9-0.7l0.1-1.3h19.5C1912.8,944.5,1909.3,943.1,1906.3,943  z M1492.4,324.2H0.5v-21.9h1491.9V324.2z M3401.5,324.2H1910.2v-21.9h1491.3V324.2z M1863.1,288c0-6.2,0-11.8,0-18  c-22.7,0-45.3,0-68,0c0-4.3,0-8,0-12.1c23.4,0,46.4,0,69.7,0c0-7.3,0-14.3,0-21.4c-31,0-61.8,0-92.7,0c0,29.3,0,58.3,0,87.5  c31.3,0,62.4,0,93.7,0c0-7.2,0-14.1,0-21.5c-23.8,0-47.3,0-70.6,0c0-5.1,0-9.7,0-14.5C1817.9,288,1840.3,288,1863.1,288z   M1715.3,236.4c0,10.8,0,21.2,0,31.9c-20.5,0-40.4,0-61,0c0-10.8,0-21.4,0-31.8c-7.9,0-15.1,0-22.6,0c0,29.2,0,58.3,0,87.5  c7.6,0,14.9,0,22.8,0c0-12,0-23.8,0-35.7c20.4,0,40.4,0,60.9,0c0,12,0,23.8,0,35.7c7.9,0,15.2,0,22.8,0c0-29.3,0-58.3,0-87.5  C1730.6,236.4,1723.4,236.4,1715.3,236.4z M1562.3,324c0-23,0-45.5,0-68.5c12.7,0,25,0,37.3,0c0-6.7,0-12.9,0-19.1  c-32.7,0-65.2,0-97.7,0c0,6.4,0,12.6,0,19.3c12.5,0,24.7,0,37.4,0c0,23,0,45.6,0,68.3C1547.1,324,1554.4,324,1562.3,324z   M2322.4,46.2h70.7V0h-90.9c-8.5,0-20.5,4.4-27.3,9.4c-6.9,5.1-16.8,16.6-16.8,32.5c0,15.9,9.7,28.3,9.7,28.3  c5,6.1,17.5,18.9,17.5,18.9c0.3,0.3,0.4,0.7,0.4,1.1c0,0.9-0.8,1.7-1.7,1.7h-70c-8.5,0-9.1-3.4-9.1-3.9c0-0.9,1.1-1.4,1.1-1.4  c3.2-1.5,9.7-6.6,9.7-6.6c13.9-10.7,15.5-25.5,15.5-33.4c0-7.9-1.2-21.9-15.4-34.1C2201.5,0.4,2183.5,0,2183.5,0h-99.9  c0,0,0,141.6,0,141.6c0,0.4,0.4,0.8,0.9,0.8h55.6v-39.7c0-0.7,1.1,0,1.1,0l29,29c10.3,10.4,27.3,10.7,27.3,10.7l109.6,0  c18.7,0,29.1-10.1,31.9-13c2.8-2.8,12.3-13.4,12.3-31c0-17.6-8-26.5-11.5-30.7c-3.1-3.7-15.3-16.6-17.8-19.2c-0.3-0.2-0.5-0.6-0.5-1  C2321.5,46.9,2321.9,46.4,2322.4,46.2 M2172.8,58.3l-31.2,0c0,0-0.8-0.2-0.8-1.2l0-15.7c0-0.9,0.8-1.2,0.8-1.2h28.6  c3.3,0,10.1,1.7,10.1,9.3C2180.2,57.3,2172.8,58.3,2172.8,58.3 M2030.1,1.3c-0.2-0.7-0.8-1.2-1.6-1.3h-76.2  c-0.8,0.1-1.4,0.6-1.6,1.3c0,0-42.1,139.7-42.1,139.9c0,0.7,0.6,1.3,1.3,1.3l50.4,0c0.4-0.1,0.7-0.5,0.8-1l5.9-18.8  c0.2-0.5,0.6-0.8,1.2-0.8l46.5,0c0.5,0,0.9,0.4,1.1,0.8l6,18.8c0.1,0.4,0.4,0.8,0.8,1c0,0,49.5,0,49.6,0c0.7,0,1.3-0.5,1.3-1.2  C2073.2,141,2030.1,1.3,2030.1,1.3 M2002.1,83.1h-20.8c-0.7,0-1.3-0.8-1.3-1.6c0-0.3,11-36,11-36c0.4-1.3,0.4-1.4,0.6-1.4h0  c0.2,0,0.2,0,0.6,1.4c0,0,11,35.7,11,36C2003.4,82.3,2002.8,83.1,2002.1,83.1 M1839.3,142.5c-0.3,0-0.6-0.2-0.6-0.5l-15.9-52.6  c-0.1-0.3-0.2-0.5-0.5-0.5s-0.4,0.2-0.5,0.5v0l-16.3,52.4c-0.1,0.3-0.4,0.7-0.7,0.7c0,0-46.7,0-46.8,0c-0.4,0-0.6-0.3-0.7-0.7  c0-0.1-43.5-140.7-43.5-140.7s0-0.2,0-0.2c0-0.5,0.4-0.8,0.8-0.8h56.3c0.2,0,0.4,0.2,0.4,0.4l10.9,36.8c0,0.2,0.2,0.4,0.5,0.4  c0.3,0,0.4-0.2,0.5-0.5l10.3-36.8c0.1-0.2,0.2-0.3,0.4-0.3c0,0,58.3,0,58.3,0c0.3,0,0.5,0.2,0.5,0.5l11.4,36.7  c0,0.2,0.3,0.5,0.5,0.5c0.3,0,0.4-0.2,0.5-0.5c0,0,10.9-36.6,10.9-36.6c0.1-0.3,0.2-0.5,0.5-0.5h52.8c0.4,0,0.6,0.4,0.6,0.8  c0,0.1-42.9,141-42.9,141c-0.1,0.4-0.4,0.7-0.8,0.7H1839.3z M1619.4,92.1c-8.4,0-9-3.4-9-3.9c0-0.9,1.1-1.4,1.1-1.4  c3.2-1.5,9.6-6.6,9.6-6.6c13.7-10.7,15.3-25.5,15.3-33.4c0-7.9-1.2-21.9-15.2-34.2c-14-12.3-31.8-12.7-31.8-12.7h-98.7  c0,0,0,141.7,0,141.7c0,0.5,0.4,0.8,0.9,0.8c0.1,0,55,0,55,0v-39.7c0-0.7,1.1,0,1.1,0l28.6,29c10.2,10.4,27,10.7,27,10.7h84.5V92.1  H1619.4z M1578.8,58.4l-30.8,0c0,0-0.8-0.2-0.8-1.2l0-15.7c0-1,0.8-1.2,0.8-1.2h28.3c3.3,0,9.9,1.7,9.9,9.3  C1586.1,57.3,1578.8,58.4,1578.8,58.4 M1439,1.2c-0.2-0.7-0.8-1.2-1.6-1.2h-76.9c-0.8,0-1.4,0.5-1.6,1.2c0,0-42.5,139.8-42.5,140  c0,0.7,0.6,1.3,1.3,1.3h50.9c0.4-0.1,0.7-0.5,0.8-1l5.9-18.9c0.2-0.4,0.6-0.8,1.2-0.8l46.9,0c0.5,0,1,0.3,1.2,0.8l6.1,18.8  c0.1,0.4,0.4,0.8,0.8,1c0,0,50,0,50,0c0.7,0,1.3-0.5,1.3-1.2C1482.6,141.1,1439,1.2,1439,1.2 M1410.8,83.1h-21  c-0.8,0-1.3-0.8-1.3-1.6c0-0.3,11.2-36,11.2-36c0.4-1.3,0.5-1.4,0.6-1.4h0c0.1,0,0.2,0,0.6,1.4c0,0,11.2,35.8,11.2,36  C1412,82.3,1411.5,83.1,1410.8,83.1 M1336.3,0v46.5h-61.1v96.1h-50.3V46.2h-65.4c-0.6,0.2-0.9,0.7-0.9,1.4c0,0.4,0.2,0.8,0.5,1  c2.5,2.7,14.6,15.5,17.6,19.2c3.4,4.1,11.3,13.2,11.3,30.8c0,17.6-9.4,28.2-12.2,31c-2.8,2.8-13.1,13-31.6,13h-135.9V92.2  c0,0,112.9,0,113.1,0c1,0,1.7-0.8,1.7-1.7c0-0.4-0.2-0.8-0.5-1.1c0,0-12.4-12.9-17.3-19c0,0-9.6-12.4-9.6-28.3  c0-15.9,9.8-27.5,16.6-32.5c6.8-5.1,18.6-9.4,27-9.4H1336.3z"/>
</svg>
