<?xml version="1.0" encoding="utf-8"?>
<!-- Generator: Adobe Illustrator 24.1.2, SVG Export Plug-In . SVG Version: 6.00 Build 0)  -->
<svg xmlns="http://www.w3.org/2000/svg" xmlns:xlink="http://www.w3.org/1999/xlink" version="1.1" x="0px" y="0px" width="1200px" height="347.8px" viewBox="0 0 1200 347.8" style="enable-background:new 0 0 1200 347.8;" xml:space="preserve">
<style type="text/css">
	.st0{fill:#FFFFFF;}
</style>
<path class="st0" d="M472.1,16.4h-21.2c-0.3,0-0.5,0.2-0.5,0.5v33.4h-17.5V16.9c0-0.3-0.2-0.5-0.5-0.5l-22.5,0  c-0.5,0-0.7,0.5-0.4,0.9c3.8,3.9,10.3,9.5,10.3,17.5c0,8.6-5.8,15.6-15.8,15.6s-47.5,0-47.5,0V32.8l39.8,0c0.6,0,0.9-0.8,0.4-1.2  c-4.3-3.7-9.6-10.1-9.6-16.6c0-7.2,5.6-15,17.8-15s67.3,0,67.3,0V16.4z M502.9,42.8h-17l-2.4,7.5h-18.4l14.9-50  c0.1-0.2,0.3-0.4,0.5-0.4h26.8c0.2,0,0.4,0.1,0.5,0.3l15.5,50h-18.1L502.9,42.8z M499.1,30.3l-4.4-14.5L490,30.3H499.1z M731.8,50.3  h-18.1l-2.3-7.5h-17l-2.4,7.5h-18.4l15-50.3h27.5L731.8,50.3z M707.6,30.3l-4.4-14.5l-4.7,14.5H707.6z M572.1,32.8h23.8v17.5h-30  c-3.7,0-7.3-1.5-9.9-4.1L545.8,36v14.4h-19.5V0h32.3c10.6,0,19.2,6.4,19.2,16.3c0,6.8-3.3,12-9,14.5c-0.3,0.1-0.3,0.5-0.1,0.7  l0.6,0.4C570.1,32.5,571.1,32.8,572.1,32.8z M545.8,20c0,0.5,0.4,0.9,0.9,0.9h10c1.8,0,3.3-1.5,3.3-3.3c0-1.8-1.5-3.3-3.3-3.3h-10  c-0.5,0-0.9,0.4-0.9,0.9V20z M821,17.3c3.8,3.9,10.3,9.5,10.3,17.5c0,8.6-5.8,15.6-15.8,15.6c-3.1,0-40.1,0-40.1,0  c-3.7,0-7.3-1.5-9.9-4.1L755.4,36v14.4H736V0h32.3c10.6,0,19.2,6.4,19.2,16.3c0,6.8-3.3,12-9,14.5c-0.3,0.1-0.3,0.5-0.1,0.7l0.6,0.4  c0.8,0.6,1.8,0.9,2.8,0.9l26,0c0.6,0,0.9-0.8,0.4-1.2c-4.3-3.7-9.6-10.1-9.6-16.6c0-7.2,5.6-15,17.8-15c4.8,0,28.1,0,28.1,0v16.4  l-23,0C820.9,16.4,820.7,16.9,821,17.3z M769.6,17.5c0-1.8-1.5-3.3-3.3-3.3h-10c-0.5,0-0.9,0.4-0.9,0.9V20c0,0.5,0.4,0.9,0.9,0.9h10  C768.1,20.9,769.6,19.4,769.6,17.5z M605,0l15.6,50.3h16.7l5.8-19.2h0.3l5.8,19.2h16.7L681.2,0h-18.9l-4.2,13.9L653.7,0h-20.3  l-3.9,13.9L625.3,0H605z M0,112.9h526.9v-7.2H0V112.9z M673.1,112.9H1200v-7.2H673.1V112.9z M565,82h-36.1v7.5h13.3v23.4h9.5V89.5  H565V82z M603.9,82v11.1h-20V82h-9.5v30.9h9.5v-11.7h20v11.7h9.5V82H603.9z M658.1,89v-7h-33.9v30.9h33.9v-7.2h-24.5v-4.7h24.5v-7.5  h-24.5V89H658.1z M1164.7,146v95.6l-38.4-95.6H1098v201.9h35.6v-89.5l36.1,89.5h30.3V146H1164.7z M324.7,146v95.6L286.4,146H258  v201.9h35.6v-89.5l36.1,89.5h30.3V146H324.7z M1094.6,347.8L1051,146h-38.6l-43.1,201.9h38.4l24.2-122.1l23.9,122.1H1094.6z   M600,347.8L556.3,146h-38.6l-43.1,201.9H513l24.2-122.1l23.9,122.1H600z M254.4,347.8L210.8,146h-38.6L129,347.8h38.4l24.2-122.1  l23.9,122.1H254.4z M965.3,146h-37.3v201.9h37.3V146z M641.1,310.3V146h-37.3v201.9H689v-37.5H641.1z M0.3,146v201.9h35.6V246.6  l27.2,57.8L89,246.1v101.8h34.8V146H92.9l-30.7,72.2L33.1,146H0.3z M478.2,186.1v122.7c0,21.6-17.5,39.1-39.1,39.1h-63V146h62  C463.8,146,478.2,163.9,478.2,186.1z M440.7,189.5c0-3.5-2.8-6.3-6.3-6.3h-20.9v127.1h20.9c3.5,0,6.3-2.8,6.3-6.3V189.5z   M798.8,164.2v165.4c0,10.1-8.1,18.2-20.5,18.2h-61.1c-12.1,0-20.5-8.2-20.5-18.2V164.2c0-10.1,8.3-18.2,20.5-18.2h61.1  C790.7,146,798.8,154.1,798.8,164.2z M761.3,183.4h-27v127.1h27V183.4z M890.8,262.5h5.2c10.1,0,18.2-8.6,18.2-30.3v-67.5  c0-10.3-7-18.7-23.6-18.7h-78.4v201.9h37.3V182.9h27.2v42.5h-19.5v43.7l27.8,78.7h37L890.8,262.5z"/>
</svg>
