<?xml version="1.0" encoding="UTF-8" standalone="no"?>
<svg xmlns:dc="http://purl.org/dc/elements/1.1/" xmlns:cc="http://creativecommons.org/ns#" xmlns:rdf="http://www.w3.org/1999/02/22-rdf-syntax-ns#" xmlns:svg="http://www.w3.org/2000/svg" xmlns="http://www.w3.org/2000/svg" xmlns:sodipodi="http://sodipodi.sourceforge.net/DTD/sodipodi-0.dtd" xmlns:inkscape="http://www.inkscape.org/namespaces/inkscape" height="166.34055" width="208.05093" version="1.1" id="svg21">
  <metadata id="metadata25">
    
  </metadata>
  
  <defs id="defs15">
    <linearGradient id="a" y2="101.356" gradientUnits="userSpaceOnUse" y1="107.511" x2="101.202" x1="101.202">
      <stop stop-color="red" offset="0" id="stop2"/>
      <stop stop-color="#fff" offset=".2" id="stop4"/>
      <stop stop-color="#fff" offset=".501961" id="stop6"/>
      <stop stop-color="#fff" offset=".8" id="stop8"/>
      <stop stop-color="red" offset="1" id="stop10"/>
    </linearGradient>
    <style type="text/css" id="style13">.str0 {stroke:white;stroke-width:0.0762}
    .fil2 {fill:black}
    .fil1 {fill:#CC3300}
    .fil0 {fill:#DEB94E}
    .fil6 {fill:url(#a)}
    .fil5 {fill:url(#id1)}
    .fil4 {fill:url(#id2)}
    .fil3 {fill:url(#id3)}
    .fil7 {fill:url(#id4)}</style>
  </defs>
  <g transform="translate(210.71168,-253.7891)" id="g19" style="fill:#ffffff">
    <path d="m -182.322,256.369 h -13.5698 v 29.6388 h 4.16262 c 3.9955,0 6.65963,-4.24625 8.15863,-12.8212 l 0.2495,-1.24875 h 2.58062 v 30.3875 h -2.66362 c 0,-0.33375 -0.083,-0.66625 -0.2495,-1.24875 -1.665,-8.24125 -4.41313,-12.405 -8.32563,-12.405 h -3.91262 v 33.635 h 7.24212 v 2.66375 h -22.062 v -2.66375 h 5.66113 v -65.9375 h -5.66113 v -2.58 h 42.21 v 22.0625 h -2.748 c -0.33212,-1.41625 -0.74912,-3.2475 -1.33112,-5.57875 -2.1655,-9.32375 -4.66313,-13.9038 -7.65963,-13.9038 h -2.08162 z m 160.93,9.74125 h 7.4925 v 10.4062 h 8.65875 v 2.33125 h -8.65875 v 34.8 c 0,3.33 0.3325,5.745 0.99875,7.24375 0.66625,1.415 1.665,2.08 3.16375,2.08 1.915,0 3.24625,-1.08125 3.99625,-3.4125 0.8325,-2.33125 1.24875,-6.41 1.24875,-12.2388 v -1.2475 h 1.7475 v 1.91375 c 0,0.91625 0.08375,1.66625 0.08375,2.24875 0,5.8275 -0.8325,9.99 -2.33,12.4875 -1.5,2.4975 -3.9975,3.74625 -7.49375,3.74625 -3.24625,0 -5.5775,-1.165 -6.91,-3.41375 -1.3325,-2.2475 -1.9975,-6.66 -1.9975,-13.2375 v -30.97 h -4.49625 v -2.33125 h 4.49625 v -10.4062 z m -6.16125,12.405 c -1.83125,-0.99875 -3.6625,-1.74875 -5.57875,-2.24875 -1.83,-0.49875 -3.6625,-0.8325 -5.41,-0.8325 -4.6625,0 -8.40875,1.3325 -11.24,3.91375 -2.91375,2.58125 -4.32875,5.91125 -4.32875,9.9075 0,2.83 0.74875,5.16125 2.2475,7.075 1.49875,1.8325 4.9125,4.16375 10.1575,6.8275 4.32875,2.24875 7.07625,4.08 8.24,5.5775 1.1675,1.5 1.8325,3.33125 1.8325,5.57875 0,2.83125 -0.915,5.16125 -2.66375,7.16 -1.74875,1.915 -3.995,2.91375 -6.66,2.91375 -2.7475,0 -4.6625,-0.8325 -5.8275,-2.4975 -1.0825,-1.665 -2.33125,-6.74375 -3.83,-15.4025 h -3.08 v 14.8188 c 1.33125,1.5825 3.16375,2.83125 5.49375,3.7475 2.2475,0.915 4.74625,1.415 7.32625,1.415 4.6625,0 8.40875,-1.49875 11.3238,-4.41125 2.9125,-2.915 4.32875,-6.57875 4.32875,-10.99 0,-3.08125 -0.74875,-5.66125 -2.165,-7.82625 -1.49875,-2.165 -4.07875,-4.24625 -7.7425,-6.3275 -0.91625,-0.58375 -2.33125,-1.24875 -3.99625,-2.165 -5.745,-3.08 -8.575,-6.16125 -8.575,-9.32375 0,-2.33125 0.75,-4.33 2.415,-5.745 1.58125,-1.49875 3.6625,-2.2475 6.24375,-2.2475 3.49625,0 6.0775,3.49625 7.65875,10.49 0.41625,1.915 0.75,3.49625 1.0825,4.6625 h 2.7475 v -14.07 z m -50.8688,15.9012 15.07,0.0825 c 0.0825,-0.74875 0.0825,-1.33125 0.0825,-1.9975 v -1.665 c 0,-4.57875 -0.49875,-8.075 -1.665,-10.3238 -1.08125,-2.2475 -2.7475,-3.33 -4.995,-3.33 -2.4975,0 -4.49625,1.49875 -5.99375,4.49625 -1.49875,2.99625 -2.33125,7.24375 -2.49875,12.7375 z m 21.0638,11.6562 h 1.99875 c -0.4175,6.57625 -1.8325,11.5712 -4.33,15.1512 -2.41375,3.49625 -5.74375,5.245 -9.99,5.245 -4.74625,0 -8.65875,-2.415 -11.8225,-7.32625 -3.16375,-4.82875 -4.745,-10.99 -4.745,-18.4825 0,-7.41 1.58125,-13.57 4.745,-18.3162 3.08,-4.8275 6.99375,-7.15875 11.7388,-7.15875 4.4125,0 7.82625,1.74875 10.2412,5.3275 2.41375,3.58 3.6625,8.575 3.6625,14.9862 v 1.3325 h -22.8112 v 1.91375 c -0.08375,0.91625 -0.08375,1.66625 -0.08375,2.165 0,7.57625 0.8325,13.2375 2.58125,17.0675 1.665,3.82875 4.1625,5.74375 7.41,5.74375 3.1625,0 5.8275,-1.49875 7.82625,-4.6625 1.9975,-3.08 3.1625,-7.40875 3.57875,-12.9862 z m -55.5295,19.065 v -2.415 h 4.07863 v -43.875 h -4.07863 v -2.33125 h 10.9058 v 7.66 c 0.75,-2.83125 1.9975,-5.07875 3.74625,-6.66 1.74875,-1.5825 3.7475,-2.33125 6.0775,-2.33125 0.91625,0 1.74875,0.0838 2.58125,0.41625 0.8325,0.25 1.665,0.665 2.41375,1.24875 v 17.7325 l -2.41375,-0.0837 c -0.08375,-0.5825 -0.25,-1.49875 -0.41625,-2.58 -1.74875,-8.9925 -3.41375,-13.4875 -5.07875,-13.4875 -1.915,0 -3.4975,1.5825 -4.745,4.6625 -1.3325,3.16375 -1.99875,7.2425 -1.99875,12.3212 v 27.3075 h 5.995 v 2.415 h -17.067 z m -26.5581,0 v -2.415 h 4.07962 v -43.875 h -4.07962 v -2.33125 h 10.9898 v 7.66 c 0.749,-2.83125 1.99762,-5.07875 3.74562,-6.66 1.7485,-1.5825 3.74613,-2.33125 6.07763,-2.33125 0.916,0 1.7485,0.0838 2.58112,0.41625 0.8325,0.25 1.665,0.665 2.4975,1.24875 v 17.7325 l -2.414,-0.0837 c -0.167,-0.5825 -0.33312,-1.49875 -0.49962,-2.58 -1.665,-8.9925 -3.413,-13.4875 -5.0785,-13.4875 -1.83163,0 -3.49663,1.5825 -4.74613,4.6625 -1.33162,3.16375 -1.91462,7.2425 -1.91462,12.3212 v 27.3075 h 5.91112 v 2.415 h -17.1499 z m 120.551,31.719 c -2.665,0 -4.6625,1.83112 -5.91125,5.49462 -1.33125,3.66263 -1.915,9.24125 -1.915,16.8174 0,8.07575 0.58375,13.9029 1.915,17.5665 1.24875,3.663 3.33,5.41112 6.0775,5.41112 2.58125,0 4.57875,-1.83162 5.74375,-5.66062 1.25,-3.82963 1.8325,-9.82425 1.8325,-17.983 0,-7.16013 -0.6675,-12.5712 -1.915,-16.2349 -1.3325,-3.6625 -3.2475,-5.41112 -5.8275,-5.41112 z m -2.9975,63.273 h -15.985 v -2.415 h 4.24625 v -60.1089 h -4.24625 v -2.41462 h 10.5738 v 6.91012 c 0.8325,-2.664 1.9975,-4.66212 3.6625,-6.07712 1.5825,-1.4155 3.4975,-2.165 5.66125,-2.165 4.24625,0 7.7425,2.3315 10.49,6.99312 2.66375,4.66263 3.99625,10.7402 3.99625,18.3164 0,7.57575 -1.3325,13.7369 -4.1625,18.649 -2.83,4.91162 -6.24375,7.32612 -10.3238,7.32612 -1.9975,0 -3.74625,-0.583 -5.32875,-1.748 -1.4975,-1.2495 -2.74625,-2.91462 -3.745,-5.16162 v 19.4805 h 5.16125 z m -70.6825,-16.3184 v -2.49712 h 4.1625 v -43.7084 h -4.1625 v -2.41462 h 10.49 v 8.32613 c 0.8325,-3.08101 2.08125,-5.41201 3.83,-7.16013 1.74875,-1.6655 3.82875,-2.498 6.24375,-2.498 2.66375,0 4.82875,0.8325 6.41,2.4145 1.5825,1.58213 2.58125,3.99613 3.08125,7.24363 0.8325,-3.08101 2.08125,-5.41201 3.82875,-7.16013 1.74875,-1.6655 3.83,-2.498 6.245,-2.498 3.66375,0 6.24375,1.332 7.7425,3.91312 1.49875,2.58101 2.2475,7.74263 2.2475,15.4022 v 28.1396 h 4.16375 v 2.49712 h -14.32 v -2.49712 h 3.41375 v -30.1381 c 0,-5.66112 -0.4175,-9.40725 -1.16625,-11.2388 -0.8325,-1.832 -2.2475,-2.665 -4.1625,-2.665 -2.415,0 -4.33,1.4155 -5.66125,4.33 -1.24875,2.91313 -1.915,7.07625 -1.915,12.4048 v 27.3071 h 3.995 v 2.49712 h -14.1525 v -2.49712 h 3.4125 v -34.2172 c 0,-3.3305 -0.415,-5.82813 -1.33125,-7.40963 -0.8325,-1.665 -2.2475,-2.415 -4.07875,-2.415 -2.415,0 -4.24625,1.4155 -5.495,4.2465 -1.3325,2.91363 -1.9975,6.99325 -1.9975,12.4048 v 27.3906 h 3.995 v 2.49712 h -14.8188 z m -36.9641,-48.6201 h 11.5717 v 36.7984 c 0,3.247 0.4165,5.66163 1.3325,7.32663 0.91563,1.66462 2.24763,2.49762 3.99563,2.49762 2.41462,0 4.24662,-1.49912 5.57862,-4.41262 1.24813,-2.91363 1.91413,-6.99363 1.91413,-12.3218 v -27.4736 h -5.41113 v -2.41462 h 12.7376 v 46.123 h 4.16375 v 2.49712 h -11.0738 v -8.57475 c -0.666,2.99763 -1.91513,5.49463 -3.66263,7.24325 -1.832,1.831 -3.99662,2.664 -6.41062,2.664 -3.83013,0 -6.57763,-1.3325 -8.15925,-3.91262 -1.5815,-2.6645 -2.331,-7.74313 -2.331,-15.4852 v -28.1401 h -4.24563 v -2.41462 z m -27.4736,-78.0085 c -3.08062,0 -5.24562,1.83125 -6.57712,5.41125 -1.3325,3.66375 -2.08163,9.74125 -2.08163,18.15 0,8.40875 0.74913,14.4862 2.08163,18.1488 1.3315,3.74625 3.4965,5.57875 6.57712,5.57875 3.07963,0 5.24513,-1.8325 6.57663,-5.495 1.33212,-3.66375 2.08112,-9.74125 2.08112,-18.2325 0,-8.40875 -0.749,-14.4862 -2.08112,-18.15 -1.3315,-3.58 -3.497,-5.41125 -6.57663,-5.41125 z m 0,-1.9975 c -4.82862,0 -8.74175,2.41375 -11.9058,7.2425 -3.24712,4.82875 -4.82862,10.99 -4.82862,18.3162 0,7.40875 1.5815,13.57 4.82862,18.3988 3.164,4.91125 7.16013,7.32625 11.9058,7.32625 4.74513,0 8.74175,-2.4975 11.9882,-7.32625 3.16363,-4.9125 4.82863,-11.0725 4.82863,-18.3988 0,-7.32625 -1.665,-13.4875 -4.82863,-18.3162 -3.2465,-4.82875 -7.24312,-7.2425 -11.9882,-7.2425 z m 23.061,61.4411 c -2.0815,-1.58212 -4.3295,-2.83062 -6.66012,-3.58012 -2.3315,-0.83225 -4.74563,-1.2485 -7.24313,-1.2485 -7.82625,0 -14.2364,3.5795 -19.2315,10.6562 -5.07912,7.15962 -7.57662,16.4004 -7.57662,27.7231 0,10.8232 2.3315,19.5649 6.91062,26.1421 4.57913,6.57712 10.7398,9.90662 18.3989,9.90662 3.08012,0 6.16075,-0.666 9.07475,-1.8315 2.99762,-1.165 5.49412,-2.83012 7.49262,-4.91162 v -24.31 h 4.07963 v -2.58163 h -19.7314 v 2.58163 h 7.41013 v 17.8159 c 0,4.07963 -0.75,6.91063 -2.082,8.57563 -1.41413,1.66512 -3.66313,2.49712 -6.90975,2.49712 -5.32813,0 -9.24163,-2.83012 -11.8218,-8.40862 -2.498,-5.57813 -3.83013,-14.1529 -3.83013,-25.7251 0,-11.9888 1.49813,-20.896 4.41213,-26.8916 2.91462,-5.99313 7.32625,-8.90675 13.1544,-8.90675 4.496,0 8.15863,6.57662 11.0728,19.897 0.166,0.6655 0.333,1.165 0.4165,1.498 h 2.664 v -18.8979" fill-rule="evenodd" fill="#2d2c56" id="path17" style="fill:#ffffff"/>
  </g>
</svg>
