<?xml version="1.0" encoding="UTF-8" standalone="no"?>
<svg xmlns:dc="http://purl.org/dc/elements/1.1/" xmlns:cc="http://creativecommons.org/ns#" xmlns:rdf="http://www.w3.org/1999/02/22-rdf-syntax-ns#" xmlns:svg="http://www.w3.org/2000/svg" xmlns="http://www.w3.org/2000/svg" xmlns:sodipodi="http://sodipodi.sourceforge.net/DTD/sodipodi-0.dtd" xmlns:inkscape="http://www.inkscape.org/namespaces/inkscape" width="2500.0078" height="320.92786" viewBox="14.796 15 971.81904 124.72396" version="1.1" id="svg8">
  <metadata id="metadata14">
    
  </metadata>
  <defs id="defs12"/>
  
  <path d="m 121.002,85.515549 c -2.114,1.187 -3.171,3.274 -3.171,6.266 v 39.140001 c 0,0.104 -0.104,0.259 -0.31,0.465 a 33.69,33.69 0 0 1 -8.122,4.485 49.731,49.731 0 0 1 -9.127,2.555 74.31,74.31 0 0 1 -9.438,1.082 c -3.146,0.154 -6.215,0.23 -9.205,0.23 -4.54,0 -9.128,-0.155 -13.769,-0.464 -8.149,-0.619 -15.497,-2.68 -22.045,-6.188 -6.551,-3.506 -12.121,-8.068 -16.708,-13.691 -4.59,-5.62 -8.122,-12.015 -10.597,-19.184 -2.476,-7.167001 -3.714,-14.722001 -3.714,-22.664001 0,-9.18 1.649,-17.302 4.95,-24.366 3.3,-7.063 7.813,-12.996 13.537,-17.791 5.726,-4.795 12.401,-8.404 20.034,-10.83 7.631,-2.422 15.78,-3.635 24.444,-3.635 4.641,0 9.306,0.258 14,0.772 a 551.82,551.82 0 0 1 13.846,1.702 c 2.062,0.311 4.1,0.619 6.11,0.929 2.012,0.31 4.047,0.568 6.11,0.773 0.411,0 0.619,0.208 0.619,0.619 a 124.875,124.875 0 0 1 -1.083,10.907 3506.17,3506.17 0 0 0 -1.546,10.752 c -0.104,0.723 -0.208,1.419 -0.31,2.088 -0.104,0.672 -0.208,1.314 -0.31,1.934 0,0.311 -0.182,0.491 -0.542,0.542 -0.363,0.053 -0.595,-0.077 -0.697,-0.387 -0.825,-4.434 -2.319,-8.25 -4.485,-11.448 -2.167,-3.196 -4.823,-5.852 -7.967,-7.967 -3.147,-2.113 -6.68,-3.66 -10.598,-4.642 -3.921,-0.979 -7.994,-1.471 -12.222,-1.471 -7.116,0 -13.745,1.188 -19.879,3.56 -6.138,2.374 -11.476,5.699 -16.013,9.979 -4.538,4.281 -8.121,9.438 -10.751,15.47 -2.626,6.035 -3.941,12.663 -3.941,19.881 0,7.839 1.442,15.237 4.332,22.199 2.887,6.962001 6.832,13.049001 11.835,18.255001 5.001,5.211 10.931,9.336 17.791,12.378 6.856,3.042 14.257,4.562 22.2,4.562 3.402,0 6.857,-0.387 10.364,-1.161 3.505,-0.772 6.498,-2.448 8.974,-5.026 V 91.316549 c 0,-2.475 -0.773,-4.149 -2.32,-5.027 -1.547,-0.875 -3.302,-1.625 -5.26,-2.243 a 22.766,22.766 0 0 1 -2.476,-0.774 c -0.827,-0.309 -1.65,-0.72 -2.476,-1.237 -0.31,-0.206 -0.413,-0.438 -0.31,-0.696 0.102,-0.256 0.31,-0.387 0.618,-0.387 6.188,0 12.299,0.054 18.333,0.155 6.034,0.104 12.145,0.31 18.333,0.619 l 0.155,1.237 c -2.683,0.516 -5.081,1.367 -7.193,2.552 z m 81.452,41.074001 a 590.187,590.187 0 0 0 -4.1,-0.31 38.328,38.328 0 0 0 -2.552,-0.231 44.96,44.96 0 0 0 -2.708,-0.078 c -2.374,0 -4.745,0.104 -7.116,0.311 -2.374,0.208 -4.746,0.413 -7.117,0.618 -0.311,0 -0.519,-0.155 -0.619,-0.464 -0.104,-0.31 0,-0.566 0.309,-0.773 l 6.034,-2.938 a 398.936,398.936 0 0 0 -5.492,-14.312 333.817,333.817 0 0 1 -5.491,-14.465001 h -23.98 a 609.532,609.532 0 0 0 -2.243,5.956 212.05,212.05 0 0 0 -2.861,8.199001 221.689,221.689 0 0 0 -2.476,8.045 c -0.723,2.528 -1.083,4.357 -1.083,5.492 0,1.546 0.669,2.553 2.012,3.016 1.339,0.465 2.63,0.801 3.867,1.007 v 1.237 c -1.96,-0.205 -3.971,-0.387 -6.033,-0.542 a 83.122,83.122 0 0 0 -12.376,0 c -2.064,0.155 -4.126,0.337 -6.188,0.542 -0.309,0.104 -0.491,-0.05 -0.542,-0.464 -0.053,-0.411 0.077,-0.67 0.387,-0.773 5.671,-0.721 9.644,-3.714 11.912,-8.973 v 0.154 c 2.99,-7.527 5.879,-15.058 8.664,-22.587001 a 1469.353,1469.353 0 0 0 8.2,-22.742 c 1.855,-5.156 3.66,-10.288 5.414,-15.394 a 505.958,505.958 0 0 1 5.569,-15.393 c 0.102,-0.309 0.31,-0.464 0.618,-0.464 0.31,0 0.516,0.155 0.619,0.464 a 102.432,102.432 0 0 0 1.625,4.254 110.28,110.28 0 0 1 1.624,4.254 1525.089,1525.089 0 0 0 13.229,34.809 339.608,339.608 0 0 0 15.702,34.188001 c 1.237,2.375 2.809,4.075 4.718,5.106 1.907,1.03 4.1,1.649 6.575,1.855 v 1.237 c -1.448,0.212 -2.813,0.263 -4.101,0.159 z M 161.689,56.663549 a 1282.056,1282.056 0 0 0 -5.027,16.013 425.898,425.898 0 0 1 -5.337,16.167 h 19.957 z m 156.508,70.080001 h -12.531 c -4.126,0 -8.199,-0.101 -12.221,-0.309 -0.619,0 -0.827,-0.258 -0.619,-0.773 0.102,-0.206 0.179,-0.412 0.231,-0.618 a 3.03,3.03 0 0 1 0.231,-0.618 l 0.928,-2.785 c 0.31,-0.929 0.465,-1.804 0.465,-2.631 0,-5.878 -0.286,-11.68 -0.853,-17.403 a 682.024,682.024 0 0 0 -1.934,-17.249001 714.24,714.24 0 0 0 -1.16,-9.36 c -0.363,-2.73 -0.646,-5.902 -0.852,-9.514 a 762.933,762.933 0 0 0 -11.293,22.586 c -3.61,7.53 -7.221,15.161001 -10.828,22.896001 a 986.57,986.57 0 0 0 -3.637,7.656 939.738,939.738 0 0 1 -3.635,7.659 c -0.104,0.208 -0.259,0.31 -0.464,0.31 -0.208,0 -0.414,-0.102 -0.619,-0.31 -4.745,-6.6 -8.845,-13.33 -12.299,-20.188 a 499.359,499.359 0 0 1 -9.824,-20.653001 678.056,678.056 0 0 1 -4.409,-9.824 219.436,219.436 0 0 0 -4.562,-9.669 986.35,986.35 0 0 1 -0.93,7.503 c -0.31,2.425 -0.618,4.823 -0.928,7.193 a 628.059,628.059 0 0 0 -2.166,19.029 195.504,195.504 0 0 0 -0.929,19.183001 c 0,1.856 0.464,3.12 1.393,3.79 0.929,0.673 2.062,1.266 3.403,1.78 0.411,0.207 0.979,0.438 1.701,0.694 0.721,0.261 1.185,0.439 1.393,0.542 0.311,0.207 0.411,0.464 0.311,0.773 -0.104,0.309 -0.311,0.464 -0.619,0.464 -1.445,0 -2.862,-0.023 -4.254,-0.077 a 125.396,125.396 0 0 1 -4.255,-0.231 123.452,123.452 0 0 0 -4.332,-0.232 c -1.446,-0.05 -2.89,-0.076 -4.332,-0.076 h -3.095 c -0.928,0 -1.96,0.104 -3.094,0.31 -0.31,0.104 -0.518,-0.052 -0.619,-0.464 -0.104,-0.411 0,-0.671 0.311,-0.773 0.824,-0.206 1.442,-0.31 1.856,-0.31 a 24.756,24.756 0 0 0 2.939,-0.696 c 0.824,-0.257 1.598,-0.952 2.32,-2.088 0.206,-0.312 0.487,-1.648 0.851,-4.023 0.36,-2.371 0.773,-5.387 1.238,-9.05 0.464,-3.659 0.979,-7.812 1.546,-12.453001 a 988.663,988.663 0 0 0 1.625,-14.233 c 0.515,-4.846 1.03,-9.615 1.547,-14.31 0.515,-4.692 0.979,-8.998 1.392,-12.918 0.411,-3.403 0.722,-6.42 0.929,-9.05 0.206,-2.63 0.411,-4.511 0.619,-5.647 0,-0.31 0.128,-0.487 0.387,-0.542 0.257,-0.05 0.489,0.026 0.697,0.232 1.236,1.342 2.989,3.998 5.259,7.967 2.268,3.972 4.719,8.586 7.349,13.846 a 1349.13,1349.13 0 0 1 8.199,16.708 1827.905,1827.905 0 0 1 7.812,16.398 c 1.753,3.612 3.196,6.706001 4.332,9.283001 1.135,2.579 2.166,4.745 3.095,6.497 a 244.703,244.703 0 0 0 5.027,-10.752 c 1.701,-3.868001 3.377,-7.709001 5.028,-11.525001 a 884.947,884.947 0 0 1 11.448,-25.371 c 4.021,-8.56 8.301,-16.191 12.84,-22.896 0.206,-0.206 0.411,-0.283 0.619,-0.233 0.206,0.054 0.31,0.233 0.31,0.542 0.206,1.237 0.387,2.966 0.542,5.183 0.155,2.22 0.387,4.771 0.696,7.658 0.31,3.817 0.696,7.994 1.16,12.531 0.464,4.539 0.953,9.181 1.47,13.923 0.515,4.745 1.03,9.36 1.547,13.846 a 333.379,333.379 0 0 0 1.624,12.300001 c 0.566,3.713 1.107,6.833 1.625,9.358 0.515,2.529 1.03,4.101 1.547,4.718 1.134,1.652 2.217,2.709 3.249,3.173 1.029,0.465 2.268,0.801 3.713,1.007 0.721,0.207 1.471,0.336 2.243,0.387 0.774,0.053 1.572,0.284 2.398,0.695 z m 49.609,-7.812 a 749.544,749.544 0 0 0 -0.929,6.884 c 0,0.311 -0.208,0.465 -0.619,0.465 l -0.153,0.154 c -0.827,0.309 -1.496,0.464 -2.011,0.464 -2.374,0 -4.771,-0.022 -7.194,-0.077 a 335.497,335.497 0 0 0 -7.193,-0.078 c -2.063,0 -4.075,-0.023 -6.034,-0.075 a 223.494,223.494 0 0 0 -6.033,-0.078 c -2.785,0 -5.597,0.025 -8.432,0.078 -2.838,0.052 -5.646,0.13 -8.431,0.23 v -1.237 c 1.547,0 2.808,-0.334 3.79,-1.007 a 6.669,6.669 0 0 0 2.243,-2.552 c 0.515,-1.03 0.851,-2.191 1.006,-3.481 0.154,-1.287 0.231,-2.603 0.231,-3.943 V 50.320549 c 0,-2.062 -0.49,-3.402 -1.47,-4.021 a 16.439,16.439 0 0 0 -3.171,-1.547 l -2.089,-0.697 c -0.773,-0.256 -1.573,-0.644 -2.397,-1.16 -0.208,-0.206 -0.285,-0.438 -0.231,-0.696 0.05,-0.256 0.231,-0.387 0.541,-0.387 h 44.09 a 10.08,10.08 0 0 1 1.315,-0.542 c 0.464,-0.155 0.9,-0.333 1.314,-0.542 0.516,-0.205 0.773,0 0.773,0.619 a 92.533,92.533 0 0 1 -1.16,7.503 c -0.464,2.32 -0.955,4.667 -1.47,7.039 -0.104,0.31 -0.336,0.439 -0.696,0.387 -0.362,-0.051 -0.542,-0.231 -0.542,-0.542 -0.208,-3.609 -1.445,-5.979 -3.712,-7.117 -2.271,-1.134 -5.056,-1.701 -8.354,-1.701 h -12.222 v 31.715 h 17.945 c 0.516,0 1.185,-0.154 2.012,-0.465 0.823,-0.31 1.647,-0.618 2.475,-0.928 a 15.812,15.812 0 0 1 3.404,-1.393 c 0.515,-0.205 0.773,0 0.773,0.618 -0.104,1.237 -0.231,2.58 -0.388,4.022 a 68.403,68.403 0 0 1 -0.542,4.022 43.336,43.336 0 0 0 -0.464,3.868 44.932,44.932 0 0 1 -0.464,3.867 c 0,0.31 -0.13,0.518 -0.386,0.619 -0.259,0.104 -0.491,0.053 -0.696,-0.155 -0.518,-0.515 -0.851,-1.029 -1.006,-1.547 a 55.129,55.129 0 0 0 -0.542,-1.701 c -0.208,-0.618 -0.414,-1.237 -0.619,-1.856 -0.208,-0.619 -0.568,-1.185 -1.083,-1.701 -0.518,-0.515 -1.47,-0.901 -2.862,-1.161 a 53.007,53.007 0 0 0 -4.486,-0.618 49.227,49.227 0 0 0 -4.719,-0.231 h -8.2 v 31.869001 c 1.547,2.271 3.736,3.998 6.574,5.183 2.836,1.188 5.594,1.779 8.276,1.779 3.61,0 6.677,-0.953 9.205,-2.862 2.526,-1.907 4.201,-4.614 5.028,-8.122 l 1.236,0.31 a 95.086,95.086 0 0 0 -1.231,6.883 z M 462.14,72.501549 c -0.061,0.178 -0.192,0.253 -0.4,0.222 -0.207,-0.028 -0.309,-0.133 -0.309,-0.311 0,-1.953 -0.532,-3.328 -1.598,-4.127 -1.065,-0.798 -2.545,-1.198 -4.438,-1.198 -0.83,0 -1.613,0.045 -2.354,0.134 -0.739,0.088 -1.523,0.191 -2.352,0.31 -0.592,0.12 -1.242,0.209 -1.952,0.268 -0.71,0.06 -1.362,0.089 -1.953,0.089 v 17.395 h 11.98 c 0.414,0 0.888,-0.178 1.42,-0.532 0.532,-0.355 0.947,-0.711 1.243,-1.064 0.117,-0.118 0.251,-0.148 0.398,-0.09 0.148,0.061 0.223,0.178 0.223,0.355 a 80.157,80.157 0 0 1 -1.242,9.496 c -0.061,0.178 -0.192,0.252 -0.399,0.222 -0.208,-0.028 -0.311,-0.134 -0.311,-0.311 0.058,-1.953 -0.431,-3.298 -1.464,-4.038 -1.036,-0.739 -2.501,-1.108 -4.395,-1.108 h -7.455 v 17.750001 c 0,0.708 0.147,1.448 0.444,2.219 0.295,0.769 0.71,1.449 1.243,2.041 0.533,0.592 1.152,1.063 1.863,1.42 0.71,0.354 1.479,0.532 2.307,0.532 v 0.71 h -0.621 c -0.652,0 -1.273,-0.03 -1.864,-0.088 -0.592,-0.059 -1.214,-0.117 -1.862,-0.179 a 51.421,51.421 0 0 0 -1.864,-0.132 c -0.592,-0.03 -1.185,-0.045 -1.775,-0.045 -0.59,0 -1.184,0.03 -1.773,0.089 l -1.775,0.177 a 48.663,48.663 0 0 1 -4.081,0.178 h -0.533 c -0.178,0 -0.281,-0.104 -0.311,-0.312 -0.031,-0.207 0.044,-0.339 0.222,-0.398 1.064,-0.179 1.894,-0.399 2.484,-0.666 0.59,-0.267 1.021,-0.621 1.287,-1.065 0.267,-0.443 0.414,-1.004 0.444,-1.687 0.028,-0.68 0.043,-1.553 0.043,-2.617 V 69.041549 c 0,-1.361 -0.267,-2.204 -0.798,-2.53 a 6.688,6.688 0 0 0 -1.862,-0.753 21.898,21.898 0 0 0 -1.109,-0.4 6.256,6.256 0 0 1 -1.375,-0.666 c -0.177,-0.118 -0.238,-0.251 -0.177,-0.399 0.058,-0.146 0.177,-0.222 0.354,-0.222 3.729,0.177 7.483,0.267 11.271,0.267 h 6.301 c 0.295,0 0.605,0.015 0.932,0.045 0.324,0.029 0.665,0.044 1.021,0.044 1.358,0.06 2.765,0.06 4.214,0 1.45,-0.059 2.707,-0.384 3.771,-0.977 0.118,-0.119 0.25,-0.119 0.4,0 0.146,0.119 0.191,0.267 0.132,0.444 z" id="path2" style="fill:#ffffff"/>
  <path d="m 946.348,28.825549 c -0.109,3.634 -0.597,6.911 -1.462,9.838 -0.109,0.325 -0.327,0.487 -0.651,0.487 -0.325,0 -0.543,-0.162 -0.651,-0.487 -0.543,-2.709 -1.382,-4.903 -2.521,-6.586 a 12.63,12.63 0 0 0 -4.31,-3.983 c -1.734,-0.976 -3.687,-1.651 -5.854,-2.033 a 39.872,39.872 0 0 0 -6.831,-0.569 H 511.512 v 94.969001 c 0,4.337 1.383,8.024 4.146,11.059 2.765,3.037 6.205,4.878 10.325,5.53 0.325,0.106 0.461,0.352 0.407,0.729 -0.056,0.38 -0.245,0.568 -0.569,0.568 a 398.864,398.864 0 0 0 -11.465,-0.812 c -3.85,-0.216 -7.725,-0.324 -11.626,-0.324 -2.821,0 -5.61,0.08 -8.375,0.243 -2.764,0.163 -5.556,0.354 -8.375,0.569 -0.325,0 -0.516,-0.188 -0.569,-0.569 -0.057,-0.378 0.082,-0.623 0.407,-0.73 2.603,-0.542 4.634,-1.139 6.099,-1.789 1.463,-0.651 2.545,-1.516 3.252,-2.604 0.705,-1.082 1.14,-2.464 1.302,-4.146 0.163,-1.681 0.245,-3.823 0.245,-6.424 V 25.653549 h -26.832 c -3.473,0 -6.534,1.219 -9.189,3.659 -2.657,2.439 -4.635,5.178 -5.935,8.212 -0.218,0.325 -0.464,0.462 -0.731,0.406 -0.271,-0.054 -0.407,-0.244 -0.407,-0.569 -0.218,-1.083 -0.325,-2.058 -0.325,-2.927 0,-2.167 0.27,-4.281 0.812,-6.342 a 213.38,213.38 0 0 1 2.766,-9.514 c 0.325,-1.028 0.595,-2.032 0.813,-3.009 0.216,-0.649 0.541,-0.757 0.976,-0.325 2.277,1.41 4.497,2.306 6.667,2.685 2.169,0.38 4.66,0.568 7.48,0.568 h 463.457 c 0.867,0 1.813,-0.135 2.846,-0.406 1.029,-0.271 1.978,-0.514 2.847,-0.731 a 47.93,47.93 0 0 1 1.87,-0.325 c 0.702,-0.106 1.436,-0.217 2.194,-0.325 0.325,0 0.488,0.219 0.488,0.65 v 1.3 a 354.37,354.37 0 0 1 -0.165,10.165 z" id="path4" style="fill:#ffffff"/>
  <path d="m 611.158,127.20855 a 286.011,286.011 0 0 0 -16.244,-0.466 c -1.96,0 -3.894,0.026 -5.801,0.078 -1.91,0.055 -3.895,0.13 -5.957,0.231 -0.309,0 -0.49,-0.178 -0.541,-0.541 -0.054,-0.361 0.078,-0.592 0.389,-0.696 3.193,-0.929 5.259,-2.166 6.187,-3.713 0.928,-1.547 1.394,-3.97 1.394,-7.271 V 82.653549 h -47.494 v 32.487001 c 0,6.498 3.352,10.057 10.056,10.675 0.311,0 0.465,0.208 0.465,0.619 0,0.414 -0.154,0.618 -0.465,0.618 h -4.796 c -1.445,0 -2.991,0.054 -4.642,0.154 -1.135,0 -2.45,0.026 -3.944,0.077 -1.496,0.054 -2.812,0.077 -3.943,0.077 h -3.868 c -1.342,0 -2.684,-0.051 -4.021,-0.154 -0.413,0 -0.905,-0.023 -1.47,-0.076 a 16.115,16.115 0 0 0 -1.471,-0.078 c -0.311,0 -0.49,-0.179 -0.541,-0.541 -0.054,-0.361 0.077,-0.592 0.387,-0.696 1.647,-0.31 2.989,-0.643 4.021,-1.005 1.03,-0.36 1.805,-0.875 2.32,-1.548 0.516,-0.67 0.851,-1.521 1.006,-2.553 0.154,-1.029 0.23,-2.371 0.23,-4.021 V 50.784549 c 0,-2.268 -0.902,-3.969 -2.707,-5.104 -1.805,-1.133 -3.737,-1.752 -5.801,-1.856 v -1.237 c 4.331,0.31 8.61,0.465 12.841,0.465 1.753,0 3.505,-0.024 5.261,-0.078 1.752,-0.05 3.505,-0.077 5.259,-0.077 h 3.25 c 0.309,0 0.464,0.208 0.464,0.619 0,0.414 -0.155,0.619 -0.464,0.619 -1.856,0 -3.534,0.567 -5.028,1.702 -1.497,1.136 -2.243,2.733 -2.243,4.796 v 26.918 h 47.341 v -26.3 c 0,-2.477 -0.646,-4.048 -1.936,-4.72 -1.291,-0.669 -2.861,-1.262 -4.718,-1.778 a 29.764,29.764 0 0 1 -1.161,-0.311 43.741,43.741 0 0 0 -1.16,-0.31 c -0.31,-0.103 -0.439,-0.333 -0.386,-0.696 0.05,-0.36 0.229,-0.541 0.542,-0.541 a 231.023,231.023 0 0 0 20.653,0.386 c 2.112,-0.051 4.2,-0.128 6.266,-0.231 0.309,0 0.488,0.181 0.542,0.541 0.051,0.362 -0.077,0.595 -0.388,0.696 -2.27,0.413 -4.075,1.006 -5.414,1.778 -1.342,0.774 -2.012,2.451 -2.012,5.028 v 63.429001 c 0,3.508 0.773,6.137 2.319,7.89 1.549,1.756 4.074,2.939 7.582,3.559 z m 82.971,1.16 a 23.82,23.82 0 0 1 -5.646,0.696 c -3.094,0 -5.879,-0.566 -8.354,-1.702 -2.475,-1.133 -4.693,-2.576 -6.651,-4.332 -1.96,-1.752 -3.79,-3.764 -5.492,-6.033 a 128.755,128.755 0 0 1 -4.872,-6.961 136.219,136.219 0 0 0 -4.562,-6.42 c -1.603,-2.112 -3.354,-4.021001 -5.262,-5.724001 -1.908,-1.703 -3.971,-3.067 -6.188,-4.1 -2.218,-1.03 -4.718,-1.548 -7.503,-1.548 h -2.476 c -0.724,0 -1.496,0.104 -2.32,0.31 v 21.968001 c 0,2.992 0.902,5.545 2.707,7.657 1.804,2.115 4.201,3.326 7.193,3.636 v 1.237 a 371.51,371.51 0 0 0 -7.039,-0.541 105.53,105.53 0 0 0 -7.037,-0.231 c -2.375,0 -4.67,0.104 -6.886,0.31 -2.22,0.208 -4.514,0.464 -6.885,0.772 -0.311,0.104 -0.542,-0.023 -0.696,-0.387 -0.153,-0.36 -0.076,-0.644 0.232,-0.851 2.165,-1.03 3.969,-2.576 5.415,-4.642 1.442,-2.062 2.165,-4.279 2.165,-6.653 V 53.105549 c 0,-2.372 -0.852,-4.46 -2.553,-6.266 -1.701,-1.804 -3.739,-3.018 -6.11,-3.637 -0.31,-0.102 -0.44,-0.333 -0.388,-0.695 0.052,-0.36 0.232,-0.542 0.541,-0.542 h 30.478 c 3.196,0 6.344,0.387 9.438,1.16 3.093,0.773 5.824,1.987 8.198,3.636 2.371,1.65 4.278,3.815 5.725,6.497 1.442,2.683 2.165,5.879 2.165,9.592 0,4.95 -1.367,9.645 -4.1,14.077 -2.734,4.436 -5.802,8.253 -9.205,11.449 1.135,1.236 2.371,2.811 3.714,4.718 a 229.062,229.062 0 0 0 4.33,5.957 411.301,411.301 0 0 0 7.195,9.514001 c 2.525,3.249 5.182,6.188 7.967,8.818 2.784,2.631 5.67,4.694 8.663,6.188 2.99,1.496 6.034,2.038 9.127,1.625 l 0.465,1.237 a 28.733,28.733 0 0 1 -5.493,1.935 z M 659.32,60.530549 c -0.771,-2.681 -1.933,-5.104 -3.479,-7.271 a 19.503,19.503 0 0 0 -5.725,-5.337 c -2.27,-1.393 -4.899,-2.088 -7.891,-2.088 -1.237,0 -2.475,0.077 -3.713,0.231 a 12.262,12.262 0 0 0 -3.56,1.006 v 38.521 c 1.753,0.31 3.455,0.517 5.105,0.618 a 81.14,81.14 0 0 0 5.104,0.154 c 5.775,0 9.771,-1.57 11.989,-4.719 2.217,-3.145 3.326,-7.503 3.326,-13.073 0.005,-2.678 -0.38,-5.359 -1.156,-8.042 z m 113.384,43.240001 c -2.425,5.106 -5.646,9.514 -9.67,13.227 -4.022,3.714 -8.688,6.603 -13.999,8.664 -5.313,2.064 -10.906,3.095 -16.785,3.095 -4.851,0 -9.878,-1.186 -15.084,-3.559 a 57.724,57.724 0 0 1 -14.311,-9.283 c -4.332,-3.813 -7.916,-8.146 -10.753,-12.994 -2.837,-4.848001 -4.254,-9.746001 -4.254,-14.697001 0,-7.527 0.696,-14.001 2.089,-19.416 1.393,-5.415 3.635,-10.002 6.729,-13.77 3.097,-3.764 7.168,-6.857 12.223,-9.281 5.052,-2.422 11.24,-4.409 18.564,-5.957 l 2.012,-0.155 c 6.6,-0.515 12.736,0.44 18.409,2.862 5.671,2.424 10.621,5.828 14.853,10.21 4.228,4.385 7.554,9.566 9.979,15.547 2.422,5.982 3.635,12.273 3.635,18.874 -10e-4,5.984 -1.216,11.527 -3.637,16.633001 z M 730.711,44.758549 a 38.053,38.053 0 0 0 -3.854,0.255 l -10e-4,78.102001 c 1.246,0.269 2.53,0.456 3.854,0.567 z m 9.217,78.517001 c 2.754,-0.488 5.301,-1.316 7.639,-2.487 4.021,-2.012 7.396,-4.691 10.132,-8.046 2.731,-3.35 4.796,-7.243 6.189,-11.679 1.391,-4.434001 2.086,-9.127001 2.086,-14.078001 0,-5.052 -0.748,-10.105 -2.241,-15.161 -1.496,-5.052 -3.714,-9.591 -6.652,-13.613 -2.938,-4.022 -6.552,-7.271 -10.83,-9.747 a 26.584,26.584 0 0 0 -6.322,-2.633 v 77.444001 z m -2.683,-78.042001 a 32.027,32.027 0 0 0 -3.854,-0.433 v 79.003001 h 0.25 c 1.235,0 2.438,-0.056 3.604,-0.166 z m -13.049,0.2 c -2.396,0.478 -4.638,1.203 -6.723,2.179 -4.074,1.91 -7.503,4.54 -10.287,7.892 -2.785,3.353 -4.926,7.22 -6.421,11.602 -1.496,4.385 -2.242,9.051 -2.242,14.001 0,5.158 0.773,10.264 2.32,15.315 1.547,5.054001 3.841,9.617001 6.885,13.690001 3.041,4.076 6.729,7.375 11.061,9.902 a 26.745,26.745 0 0 0 5.409,2.397 z m 143.916,-1.688 c -0.052,-0.051 -0.181,-0.023 -0.386,0.078 a 53.227,53.227 0 0 0 -4.564,1.547 c -1.6,0.619 -2.396,1.702 -2.396,3.249 l 0.154,37.284 v 6.343 a 498.9,498.9 0 0 1 -0.311,17.714001 341.402,341.402 0 0 1 -1.082,17.559 c 0,0.208 -0.131,0.387 -0.388,0.541 -0.258,0.154 -0.489,0.13 -0.695,-0.077 -4.951,-4.229 -9.899,-8.792 -14.852,-13.691 a 568.09,568.09 0 0 1 -14.62,-15.006001 794.419,794.419 0 0 1 -14.155,-15.47 965.635,965.635 0 0 1 -13.305,-15.239 87.932,87.932 0 0 1 -3.867,-4.408 88.17,88.17 0 0 0 -3.868,-4.409 73.025,73.025 0 0 0 -0.464,8.045 c 0,3.92 0.051,7.839 0.155,11.757 0.102,3.92 0.256,7.839 0.464,11.757 a 449.31,449.31 0 0 1 0.619,23.670001 c 0,1.755 0.155,3.171 0.464,4.254 0.311,1.083 0.696,1.935 1.16,2.554 0.464,0.618 1.029,1.058 1.702,1.314 0.669,0.259 1.364,0.44 2.088,0.541 0.825,0.208 1.648,0.439 2.477,0.696 0.823,0.259 1.802,0.8 2.938,1.624 0.206,0.207 0.281,0.438 0.231,0.697 -0.053,0.258 -0.231,0.386 -0.543,0.386 -1.03,-0.103 -2.037,-0.204 -3.016,-0.311 -0.981,-0.101 -1.986,-0.205 -3.019,-0.309 a 62.507,62.507 0 0 0 -4.408,-0.465 64.214,64.214 0 0 0 -4.409,-0.154 44.23,44.23 0 0 0 -5.725,0.387 c -1.96,0.26 -3.92,0.541 -5.879,0.852 -0.309,0.104 -0.54,0 -0.694,-0.311 -0.155,-0.309 -0.131,-0.565 0.076,-0.772 0.824,-0.721 1.572,-1.289 2.244,-1.701 a 25.684,25.684 0 0 1 1.934,-1.084 c 1.236,-0.618 2.345,-1.47 3.326,-2.552 0.979,-1.083 1.47,-2.81 1.47,-5.184 V 43.051549 l 1.237,-2.477 c 0.103,-0.206 0.257,-0.359 0.465,-0.464 0.205,-0.102 0.359,-0.051 0.464,0.154 a 2765.867,2765.867 0 0 1 32.644,34.421 2554.123,2554.123 0 0 1 32.022,35.041001 v -0.464 c 0,-4.743 -0.026,-9.438001 -0.077,-14.078001 -0.053,-4.641 -0.13,-9.384 -0.232,-14.232 -0.104,-4.434 -0.208,-9.151 -0.309,-14.155 -0.104,-5.001 -0.154,-9.72 -0.154,-14.155 0,-1.752 -0.183,-3.171 -0.543,-4.254 -0.361,-1.083 -0.851,-1.908 -1.47,-2.477 -0.618,-0.565 -1.291,-0.951 -2.011,-1.159 a 16.69,16.69 0 0 0 -2.166,-0.465 21.99,21.99 0 0 1 -2.243,-0.387 3.62,3.62 0 0 1 -1.779,-1.005 c -0.207,-0.206 -0.231,-0.464 -0.076,-0.774 0.155,-0.309 0.334,-0.41 0.542,-0.309 2.371,0.309 4.586,0.464 6.65,0.464 h 6.498 c 1.341,0 2.707,-0.023 4.101,-0.077 a 40.243,40.243 0 0 1 4.254,0.077 c 0.517,0 1.083,0.027 1.701,0.078 a 20.02,20.02 0 0 0 1.702,0.077 l 0.311,1.238 c -0.206,0.102 -0.335,0.129 -0.387,0.076 z m 58.574,75.186001 a 750.27,750.27 0 0 0 -0.928,6.884 c 0,0.311 -0.209,0.465 -0.619,0.465 l -0.155,0.154 c -0.826,0.309 -1.496,0.464 -2.011,0.464 -2.373,0 -4.771,-0.022 -7.194,-0.077 a 335.497,335.497 0 0 0 -7.193,-0.078 c -2.063,0 -4.075,-0.023 -6.032,-0.075 a 223.44,223.44 0 0 0 -6.033,-0.078 c -2.785,0 -5.597,0.025 -8.433,0.078 -2.838,0.052 -5.646,0.13 -8.431,0.23 v -1.237 c 1.546,0 2.809,-0.334 3.79,-1.007 a 6.666,6.666 0 0 0 2.242,-2.552 c 0.516,-1.03 0.852,-2.191 1.006,-3.481 0.155,-1.287 0.231,-2.603 0.231,-3.943 V 50.320549 c 0,-2.062 -0.489,-3.402 -1.47,-4.021 a 16.42,16.42 0 0 0 -3.172,-1.547 l -2.088,-0.697 c -0.772,-0.256 -1.574,-0.644 -2.396,-1.16 -0.208,-0.206 -0.286,-0.438 -0.232,-0.696 0.051,-0.256 0.232,-0.387 0.541,-0.387 H 922.2 c 0.41,-0.206 0.853,-0.387 1.314,-0.542 a 9.733,9.733 0 0 0 1.315,-0.542 c 0.516,-0.205 0.773,0 0.773,0.619 a 93.856,93.856 0 0 1 -1.161,7.503 c -0.464,2.32 -0.955,4.667 -1.47,7.039 -0.104,0.31 -0.336,0.439 -0.696,0.387 -0.362,-0.051 -0.542,-0.231 -0.542,-0.542 -0.207,-3.609 -1.445,-5.979 -3.712,-7.117 -2.271,-1.134 -5.056,-1.701 -8.354,-1.701 h -12.222 v 31.715 h 17.944 c 0.515,0 1.187,-0.154 2.012,-0.465 l 2.476,-0.928 a 15.805,15.805 0 0 1 3.403,-1.393 c 0.515,-0.205 0.772,0 0.772,0.618 -0.104,1.237 -0.232,2.58 -0.386,4.022 a 71.036,71.036 0 0 1 -0.542,4.022 42.618,42.618 0 0 0 -0.463,3.868 45.318,45.318 0 0 1 -0.466,3.867 c 0,0.31 -0.13,0.518 -0.387,0.619 -0.258,0.104 -0.491,0.053 -0.697,-0.155 -0.516,-0.515 -0.85,-1.029 -1.004,-1.547 a 68.759,68.759 0 0 0 -0.542,-1.701 c -0.209,-0.618 -0.413,-1.237 -0.619,-1.856 -0.208,-0.619 -0.567,-1.185 -1.083,-1.701 -0.518,-0.515 -1.469,-0.901 -2.862,-1.161 a 53.012,53.012 0 0 0 -4.484,-0.618 49.264,49.264 0 0 0 -4.72,-0.231 h -8.201 v 31.869001 c 1.548,2.271 3.738,3.998 6.575,5.183 2.836,1.188 5.594,1.779 8.275,1.779 3.609,0 6.679,-0.953 9.205,-2.862 2.526,-1.907 4.201,-4.614 5.028,-8.122 l 1.237,0.31 a 95.066,95.066 0 0 0 -1.23,6.883 z m 57.064,-4.564 c -1.907,2.992 -4.33,5.544 -7.27,7.659 -2.939,2.114 -6.188,3.767 -9.747,4.949 -3.56,1.188 -6.938,1.779 -10.133,1.779 -1.548,0 -3.172,-0.18 -4.872,-0.542 -1.703,-0.36 -3.25,-0.951 -4.643,-1.778 -1.394,-0.824 -2.529,-1.881 -3.404,-3.172 -0.876,-1.289 -1.314,-2.912 -1.314,-4.873 0,-1.238 0.13,-2.477 0.387,-3.713 0.258,-1.237 0.489,-2.422 0.697,-3.56 l 0.772,-3.712 c 0,-0.31 0.206,-0.465 0.619,-0.465 0.411,0 0.62,0.155 0.62,0.465 v 2.32 c 0,2.166 0.463,4.076 1.391,5.724 a 14.828,14.828 0 0 0 3.559,4.254 c 1.443,1.188 3.119,2.064 5.027,2.632 1.907,0.566 3.842,0.85 5.803,0.85 1.856,0 3.764,-0.309 5.725,-0.927 a 18.037,18.037 0 0 0 5.338,-2.708 15.072,15.072 0 0 0 3.943,-4.331 c 1.028,-1.702 1.547,-3.583 1.547,-5.647 0,-1.958 -0.464,-3.892 -1.393,-5.801 -0.928,-1.907 -2.166,-3.841001 -3.713,-5.801001 a 68.029,68.029 0 0 0 -5.261,-5.879 342.52,342.52 0 0 0 -6.032,-5.879 711.478,711.478 0 0 1 -6.498,-6.266 c -2.166,-2.113 -4.076,-4.278 -5.725,-6.498 -1.65,-2.216 -2.991,-4.46 -4.022,-6.729 -1.031,-2.268 -1.546,-4.587 -1.546,-6.961 0,-3.504 0.979,-6.521 2.939,-9.051 1.957,-2.525 4.383,-4.588 7.271,-6.188 2.885,-1.597 6.032,-2.785 9.437,-3.558 3.403,-0.774 6.549,-1.161 9.438,-1.161 4.124,0 7.891,0.517 11.293,1.547 0.311,0.208 0.466,0.413 0.466,0.618 a 222.43,222.43 0 0 1 -1.856,15.625 c -0.104,0.309 -0.312,0.465 -0.619,0.465 -0.311,0 -0.518,-0.156 -0.619,-0.465 -0.826,-3.609 -2.398,-6.703 -4.719,-9.282 -2.319,-2.577 -5.391,-3.868 -9.205,-3.868 -3.92,0 -7.193,1.264 -9.822,3.79 -2.63,2.529 -3.945,5.75 -3.945,9.668 0,2.065 0.438,3.972 1.315,5.725 0.874,1.756 2.011,3.457 3.401,5.105 1.395,1.651 3.019,3.275 4.875,4.873 a 574.2,574.2 0 0 0 5.725,4.874 160.66,160.66 0 0 1 6.42,5.492 47.757,47.757 0 0 1 5.646,6.034 31.107,31.107 0 0 1 4.022,6.729 c 1.028,2.374 1.547,4.950001 1.547,7.735001 -0.002,3.613 -0.957,6.913 -2.865,9.903 z M 432.164,99.883549 c -1.377,2.900001 -3.208,5.406001 -5.496,7.518001 -2.285,2.11 -4.938,3.75 -7.957,4.923 -3.021,1.173 -6.198,1.76 -9.541,1.76 -2.755,0 -5.613,-0.674 -8.571,-2.022 a 32.797,32.797 0 0 1 -8.134,-5.276 c -2.462,-2.167 -4.5,-4.63 -6.11,-7.385001 -1.612,-2.755 -2.418,-5.54 -2.418,-8.353 0,-4.279 0.396,-7.959 1.188,-11.037 0.792,-3.077 2.066,-5.685 3.824,-7.824 1.76,-2.14 4.074,-3.898 6.947,-5.275 2.871,-1.377 6.388,-2.506 10.551,-3.386 l 1.144,-0.088 c 3.75,-0.292 7.239,0.25 10.464,1.626 a 25.57,25.57 0 0 1 8.439,5.804 c 2.403,2.493 4.293,5.438 5.671,8.837 1.376,3.399 2.066,6.976 2.066,10.727 0,3.399 -0.69,6.55 -2.067,9.451 z m -23.867,-33.54 c -0.751,0.013 -1.48,0.062 -2.189,0.146 v 44.390001 c 0.708,0.151 1.438,0.259 2.188,0.322 z m 5.238,44.626001 a 15.78,15.78 0 0 0 4.342,-1.413 c 2.286,-1.146 4.205,-2.667 5.759,-4.573 1.553,-1.904 2.727,-4.117 3.519,-6.638001 0.791,-2.521 1.187,-5.188 1.187,-8.003 0,-2.871 -0.425,-5.743 -1.275,-8.615 -0.85,-2.872 -2.11,-5.452 -3.78,-7.738 a 19.881,19.881 0 0 0 -6.155,-5.54 15.212,15.212 0 0 0 -3.595,-1.496 v 44.016001 z m -1.523,-44.356001 a 18.569,18.569 0 0 0 -2.189,-0.246 v 44.902001 h 0.141 c 0.703,0 1.387,-0.031 2.05,-0.095 z m -7.416,0.115 a 16.642,16.642 0 0 0 -3.82,1.238 c -2.316,1.086 -4.264,2.581 -5.847,4.484 -1.583,1.905 -2.801,4.104 -3.649,6.594 -0.851,2.491 -1.275,5.144 -1.275,7.958 0,2.932 0.44,5.832 1.32,8.703 0.878,2.873 2.183,5.467001 3.912,7.781001 a 20.922,20.922 0 0 0 6.287,5.628 15.19,15.19 0 0 0 3.074,1.364 z" id="path6" style="fill:#ffffff"/>
</svg>
