<?xml version="1.0" encoding="utf-8"?>
<!-- Generator: Adobe Illustrator 24.1.2, SVG Export Plug-In . SVG Version: 6.00 Build 0)  -->
<svg xmlns="http://www.w3.org/2000/svg" xmlns:xlink="http://www.w3.org/1999/xlink" version="1.1" x="0px" y="0px" width="1200px" height="932.6px" viewBox="0 0 1200 932.6" style="enable-background:new 0 0 1200 932.6;" xml:space="preserve">
<g>
	<path d="M77.1,162.9L85,448.3H0V2.7h123.5c0,0,18.7,192,18.7,255.5h7.8c0-47.2,17.8-255.5,17.8-255.5h127.1v445.7h-85.2l4.8-285.5   h-8.8c1.6,23.7-31.7,285.5-31.7,285.5l-54.8,1.5c0,0-38.5-268.2-33.3-287H77.1z M321.6,92.2c0-41.4,6.1-67.2,18.2-77.2   C352,5,381.8,0,429.1,0c48.4,0,78.6,5.4,90.6,16.1c12,10.7,18,36.1,18,76.1v266.1c0,40.9-6.1,66.7-18.2,77.3   c-12.2,10.6-42.1,15.9-89.8,15.9c-48.2,0-78.3-5.4-90.2-16.3c-11.9-10.9-17.8-36.5-17.8-76.9V92.2z M416,94.9v260.8   c0,8.4,1,14.2,3.1,17.6c2.1,3.3,5.6,5,10.6,5c4.5,0,7.9-1.2,10.2-3.6c2.3-2.4,3.5-5.8,3.5-10v-8.8V94.9c0-8.6-1.1-14.4-3.2-17.4   c-2.1-3-6.2-4.6-12.1-4.6c-3.9,0-6.9,1.2-9,3.6c-2.1,2.4-3.1,5.8-3.1,10.1V94.9z M564.8,448.3V2.7h91.3c0,0,40.6,216.2,43.7,272   h8.4c-8.8-56.4-9-272-9-272H781v445.7h-96.9c0,0-41-202.4-41-267.1H635c5.5,33.1,8.4,267.1,8.4,267.1H564.8z M808.4,448.3V2.7   h149.8v71.8h-56v92.7h56v72.6h-56V376h56v72.4H808.4z M1040.6,448.3V274.6l-64.3-272h88.7c9.1,27.7,19,197.2,19,197.2h9.3   c0,0,7.4-174.9,17.2-197.2h89.5l-63,272v173.7H1040.6z"/>
	<path d="M119.3,929.3V483.7h93.8v164.5h27.9V483.7h94.6v445.7h-94.6V720.9h-27.9v208.5H119.3z M365.1,929.3V483.7h149.8v71.8h-56   v92.7h56v72.6h-56V857h56v72.4H365.1z M537.9,929.3V483.7h93.8v445.7H537.9z M658,750.3h94.6v87.4c0,7.9,1.1,13.5,3.2,16.9   c2.1,3.4,5.8,5.1,11,5.1c4.1,0,7.5-1.3,10.2-3.9c2.7-2.6,4-5.9,4-9.8v-8.3v-66.5c0-8.9-1.3-15.4-3.8-19.4c-2.5-4-7.4-8-14.7-11.9   l-63.2-35.1c-14.5-8-25-18.3-31.5-30.7c-6.5-12.4-9.8-28.9-9.8-49.4v-52c0-39.8,6-65.1,18.1-75.7c12.1-10.6,41.9-15.9,89.6-15.9   c44.8,0,74,4.7,87.4,14.2c13.4,9.5,20.1,26.3,20.1,50.4v27.1v66.5h-92.7v-63.8c0-8.8-1.1-14.6-3.2-17.6c-2.1-2.9-6-4.4-11.5-4.4   c-4.6,0-8,1.6-10,4.8c-2.1,3.2-3.1,8.9-3.1,17.2v42.3c0,8.6,1.2,14.9,3.8,19c2.5,4.1,7.4,8.1,14.7,12.1l58.2,31.4   c15.9,8.4,27.2,18.4,33.9,29.9s10.1,27.2,10.1,47v101.6c0,15.2-0.9,26.5-2.5,33.9c-1.7,7.4-4.7,13.8-9,19.2   c-5.7,7.9-14.5,13.3-26.4,16.3c-11.9,3-34.5,4.6-67.9,4.6c-48.8,0-79.2-5.5-91.3-16.6C664,904.9,658,879.7,658,840.4V750.3z    M938.7,929.3V557.1h-48.2v-73.4h190.3v73.4h-48.2v372.2H938.7z"/>
</g>
</svg>
