<?xml version="1.0" encoding="utf-8"?>
<!-- Generator: Adobe Illustrator 24.1.2, SVG Export Plug-In . SVG Version: 6.00 Build 0)  -->
<svg xmlns="http://www.w3.org/2000/svg" xmlns:xlink="http://www.w3.org/1999/xlink" version="1.1" x="0px" y="0px" width="1200px" height="236.6px" viewBox="0 0 1200 236.6" style="enable-background:new 0 0 1200 236.6;" xml:space="preserve">
<g>
	<path d="M40.4,85.4l4.1,149.6H0V1.4h64.7c0,0,9.8,100.6,9.8,133.9h4.1c0-24.7,9.3-133.9,9.3-133.9h66.6v233.5h-44.7l2.5-149.6h-4.6   c0.8,12.4-16.6,149.6-16.6,149.6l-28.7,0.8c0,0-20.2-140.5-17.4-150.4H40.4z M168.5,48.3c0-21.7,3.2-35.2,9.5-40.4   c6.4-5.2,22-7.9,46.8-7.9c25.4,0,41.2,2.8,47.5,8.4c6.3,5.6,9.4,18.9,9.4,39.9v139.4c0,21.4-3.2,34.9-9.5,40.5   c-6.4,5.6-22,8.4-47,8.4c-25.3,0-41-2.9-47.3-8.6c-6.2-5.7-9.3-19.1-9.3-40.3V48.3z M218,49.7v136.6c0,4.4,0.5,7.5,1.6,9.2   c1.1,1.7,2.9,2.6,5.5,2.6c2.3,0,4.1-0.6,5.3-1.9c1.2-1.3,1.8-3,1.8-5.3v-4.6V49.7c0-4.5-0.6-7.5-1.7-9.1c-1.1-1.6-3.2-2.4-6.3-2.4   c-2.1,0-3.6,0.6-4.7,1.9c-1.1,1.3-1.6,3-1.6,5.3V49.7z M295.9,234.9V1.4h47.9c0,0,21.3,113.3,22.9,142.5h4.4   c-4.6-29.6-4.7-142.5-4.7-142.5h42.8v233.5h-50.8c0,0-21.5-106.1-21.5-140h-4.2c2.9,17.3,4.4,140,4.4,140H295.9z M423.6,234.9V1.4   h78.5V39h-29.3v48.6h29.3v38.1h-29.3V197h29.3v37.9H423.6z M545.2,234.9v-91L511.5,1.4H558c4.8,14.5,10,103.3,10,103.3h4.9   c0,0,3.9-91.6,9-103.3h46.9l-33,142.5v91H545.2z"/>
	<path d="M696.2,234.9V1.4h49.1v86.2H760V1.4h49.6v233.5H760V125.7h-14.6v109.3H696.2z M825,234.9V1.4h78.5V39h-29.3v48.6h29.3v38.1   h-29.3V197h29.3v37.9H825z M915.6,234.9V1.4h49.1v233.5H915.6z M978.5,141.1h49.6v45.8c0,4.1,0.6,7.1,1.7,8.8   c1.1,1.8,3,2.7,5.8,2.7c2.2,0,3.9-0.7,5.3-2c1.4-1.4,2.1-3.1,2.1-5.1v-4.4v-34.8c0-4.7-0.7-8.1-2-10.2c-1.3-2.1-3.9-4.2-7.7-6.2   l-33.1-18.4c-7.6-4.2-13.1-9.6-16.5-16.1c-3.4-6.5-5.1-15.1-5.1-25.9V48c0-20.9,3.2-34.1,9.5-39.7c6.3-5.6,22-8.4,47-8.4   c23.5,0,38.8,2.5,45.8,7.4c7,5,10.5,13.8,10.5,26.4V48v34.8h-48.6V49.4c0-4.6-0.6-7.7-1.7-9.2c-1.1-1.5-3.1-2.3-6-2.3   c-2.4,0-4.2,0.8-5.3,2.5c-1.1,1.7-1.6,4.7-1.6,9v22.2c0,4.5,0.7,7.8,2,10c1.3,2.2,3.9,4.3,7.7,6.3l30.5,16.4   c8.3,4.4,14.3,9.6,17.8,15.7c3.5,6,5.3,14.3,5.3,24.6v53.2c0,8-0.4,13.9-1.3,17.8c-0.9,3.9-2.5,7.2-4.7,10c-3,4.1-7.6,7-13.8,8.6   c-6.2,1.6-18.1,2.4-35.6,2.4c-25.6,0-41.5-2.9-47.8-8.7c-6.3-5.8-9.5-19-9.5-39.6V141.1z M1125.6,234.9V39.9h-25.3V1.4h99.7v38.5   h-25.3v195.1H1125.6z"/>
</g>
</svg>
