<?xml version="1.0"?>
<svg xmlns="http://www.w3.org/2000/svg" width="5669.3" height="2745.4" xml:space="preserve">
  <linearGradient id="a" gradientUnits="userSpaceOnUse" x1="0" y1="1766.191" x2="4378.674" y2="1766.191">
    <stop offset="0" stop-color="#1f1e31"/>
    <stop offset=".011" stop-color="#212033"/>
    <stop offset=".094" stop-color="#303041"/>
    <stop offset=".187" stop-color="#3d3c4c"/>
    <stop offset=".295" stop-color="#474756"/>
    <stop offset=".424" stop-color="#4e4e5c"/>
    <stop offset=".597" stop-color="#525260"/>
    <stop offset="1" stop-color="#545461"/>
  </linearGradient>
  <path d="M3934.7 2006.5c-14.5 32.7-51.9 66.4-88.1 97.9-56.4 49-146.5 116.2-261 91.3-68.6-14.9-106.2-71-117.5-150.1-28.9 15.2-52.6 46-84.8 71.8-81.2 64.9-202.6 143.3-332.8 153.3-98.9 7.6-161.9-31.2-176.2-120.7-57.3 67.4-166.3 172.1-300.2 172.9-95.3.6-148.1-62.4-172.9-143.6-85.5 70.7-223.7 193.8-381.7 215.3-86.8 11.8-177.6-28.4-199-107.7-93.8 65-172 163.2-290.4 192.5-130.7 32.3-255.2-28.5-241.4-176.2 8.3-89 77.2-182.4 137-251.2 117.3-135.1 249.6-267.2 450.2-326.3 109.1-32.1 338.4-52.2 358.9 78.3 11.2 71.4-35.9 110.6-94.6 120.7 112.9 89.6-128.8 203.1-110.9 323 8.8 58.6 96.2 22.5 130.5 3.3 114.1-64.1 201.6-162.7 283.8-254.5 19-79 69.9-169 124-234.9 16.4-20.1 44.2-50.7 62-55.5 52.2-14 109.7 10.1 140.3 35.9-45.7 103.9-159.5 211.7-176.2 349.1-5.8 47.5.7 109 48.9 114.2 57.8 6.2 114.6-61.7 146.8-94.6 121.8-124.4 199.4-284.8 306.7-417.6 51.2-5.7 139.1 10.9 146.8 42.4 5.1 20.9-33.8 77.9-48.9 104.4-21 36.9-39.3 67.5-55.5 97.9-40.2 75.6-81.9 147.5-58.7 228.4 105.5 19.8 176.3-52.2 241.4-107.7 62.4-53.2 143-111.7 179.4-182.7 26.7-52 38.8-112.2 62-166.4 109.4-255.5 271.2-490.3 440.4-698.2 62.3-76.5 146.7-181.5 238.2-215.3 91.3-33.7 141.5 30.2 137 130.5-4.7 105.5-69.4 196.1-117.5 274.1-142.3 230.9-352 479.2-551.4 619.9-20.4 65.5-80 256.9 13.1 274.1 85.3 15.8 134.6-80 212.3-88zm-156.6-358.9c96.5-74.7 177.6-180.4 261-290.4 79.8-105.2 180.6-230.4 208.8-378.5-.2-2-.5-3.9-3.3-3.3-181.4 198.2-343.3 415.9-466.5 672.2zm-1693.3 172.9c-11.2-24.3-62-32.7-84.8-32.6-76.5.1-143.1 55.9-202.3 101.2-102.6 78.4-179.4 155.5-244.7 277.3-21.2 39.6-79.9 171-32.6 195.7 24.7 12.9 63.6-12.1 88.1-26.1 184.3-105.6 303.6-273.5 440.4-414.4 11.7-1.4 17.4-8.7 32.6-6.5-13.8-33.4 19.8-58.6 3.3-94.6zM153.3 2234.9C79.4 2279.9.5 2368.5 0 2476.3c-.5 96.8 65.9 192.6 140.3 228.4 77 37 193.8 44.5 293.6 39.2 307.5-16.5 578.5-148.6 698.2-323 30.5-44.4 60.3-114.6 55.5-182.7-7.8-108.3-77.5-182.2-150.1-221.9-81.4-44.5-198.2-65-319.7-94.6-100.8-24.6-244.6-55.6-267.5-146.8-11.8-47 5.4-100.3 19.6-130.5 70.2-149.2 237.5-264.8 407.8-323 48-16.4 170.6-47.6 186 13.1 8.3 32.7-17.3 74.8-29.4 104.4-12.8 31.3-24.9 64.3-39.1 94.6-22.2 47.2-80 139-75 195.8 4 45.9 58.3 97.3 107.7 84.8 20-5.1 45.2-59 62-84.8 59.3-91.2 121.8-192.6 137-306.7 18-134.3-57.9-225-189.2-215.3-162.2 11.9-330.2 67.3-456.8 143.6-110.5 66.6-233 184.5-290.4 300.2-26.4 53.3-51.7 160.8-26.1 228.4 62 164 326 193.8 502.4 251.2 108.7 35.4 240.7 81.3 231.6 215.3-3.8 55.4-53.8 113.6-88.1 140.3-83.8 65.2-256.6 141.3-401.3 150.1-100.5 6.1-196.1-15.5-248-75-101.8-117 26.7-283.3 88.1-349.1 14.1-15.1 38-26.5 35.9-39.1-107.2 10.8-163.6 20.2-231.7 61.7z" fill-rule="evenodd" clip-rule="evenodd" fill="url(#a)"/>
  <linearGradient id="b" gradientUnits="userSpaceOnUse" x1="433.928" y1="972.599" x2="5669.292" y2="972.599">
    <stop offset="0" stop-color="#545261"/>
    <stop offset=".009" stop-color="#565463"/>
    <stop offset=".111" stop-color="#6b6976"/>
    <stop offset=".228" stop-color="#7c7b87"/>
    <stop offset=".369" stop-color="#898893"/>
    <stop offset=".559" stop-color="#91919b"/>
    <stop offset="1" stop-color="#94949e"/>
  </linearGradient>
  <path d="M3092.9 779.8c7.5 50.2 27.3 88 29.4 143.6-16.5 22.8-59.6 45.7-88.1 29.4-36.7-21.1-60.6-121.9-84.8-150.1-34.4 23.1-67.3 132.9-110.9 150.1-23.9 9.4-79.7 8.9-94.6-16.3 27.1-74.1 76.8-137.7 120.7-202.3 45.7-67.2 89.7-137.6 146.8-192.5 116-1.6 280 5.8 261 117.5-9.5 55.8-118.5 102.8-179.5 120.6zm-3.2-166.4c-28.6 35.6-71.6 74.1-84.8 114.2 75.5-12.6 131.9-44.3 179.4-84.8-5.8-35.6-53.6-29.2-94.6-29.4zm-701.5-45.7c-128.9 6.1-312.8 6.3-381.7 65.2 41.9 31 126.8 10.1 182.7 6.5-30.8 54.3-65.1 107-97.9 159.9-32.6 52.6-77.2 104.6-81.6 172.9 79.1 54.2 107.6-34.1 137-81.6 47.1-76 77-117.5 130.5-182.7 24.8-30.2 50.6-72 78.3-81.6 46.1-16 112.4 9.5 153.3-35.9-17.4-30.7-73.7-24.9-120.6-22.7zm352.4 0H2584c-62.3 72.2-127.9 186.3-186 280.6-13.8 22.3-58.2 75.1-55.5 94.6 2.9 20.9 56.6 44.8 75 45.7 17.2.8 42.4-9.6 68.5-13.1 66.8-8.9 178.5 2.1 205.5-39.2-46.6-36.7-154.1 3.5-215.3-6.5 23.8-42.6 51.9-80.7 81.6-117.5 53.7-10.5 135.8 7.5 163.1-29.4-20.5-28.4-85.9-11.9-130.5-16.3 19-25.6 37.3-50.4 58.7-78.3 15.5-20.2 43.5-68.6 65.3-75 57.5-17.1 146.5 28.5 169.7-32.6-34.9-22-91.9-13-143.5-13zM1827.1 584c-121 5.6-253.7 5.9-323 58.7 40.5 36.5 121.7 9.4 182.7 9.8-58.8 110.9-143.8 195.6-182.7 326.3 10.2 21.3 42.8 20.3 75 19.6 44.1-55.7 78.8-122.4 127.2-189.2 19.9-27.4 40.2-57 68.5-91.4 18.9-22.9 54.2-74 78.3-81.6 47.1-14.8 127.3 12.9 150.1-39.2-42.1-29.2-118.7-15.7-176.1-13zm-492.7 19.6h-156.6c-67.2 76.1-124.9 183-186 280.6-12.9 20.5-58.5 72-55.5 94.6 2.8 21.3 56.5 44.8 75 45.7 17 .8 36.9-9.5 58.7-13.1 32.8-5.4 78.8-7.1 117.5-9.8 41.3-2.9 91.5 3 94.6-32.6-50.3-29.9-151.7 5.6-212.1-3.3 22.3-44.1 52-80.7 81.6-117.5 52-10 130.1 6.2 159.9-26.1-13.8-35.1-84.3-13.6-127.2-19.6 39.3-52.1 76.3-106.4 120.7-153.3 63.4-5.1 154.8 17.8 172.9-32.6-34.9-22-91.9-13-143.5-13zM848.3 812.4c38.7 19.5 77.3 71 42.4 120.7-45 64-252.7 134.7-349.1 78.3-23.6 26.4-88.3 30.7-107.7-3.3C487.5 888.8 560.6 789 636.2 691.7c-15.1-10.1-36.1-8-35.9-26.1.3-28.7 44.2-15.4 71.8-26.1 25.4-9.8 45.4-55.3 78.3-16.3 95.9 4.5 244.6-21.5 251.2 62 5.8 73-86.7 107.6-153.3 127.2zm-45.7-140.3c-14.4 17.8-33 33.7-48.9 52.2-14.2 16.6-30.8 32.8-29.4 45.7 79.9-9.8 150.6-34.1 182.7-88.1-21-17.1-69-7.1-104.4-9.8zM642.7 861.3c-25.3 33.5-52.4 65-75 101.1 54.4-1.3 104.9-1.3 146.8-16.3 38-13.6 82.2-32.8 97.9-68.5-30.2-31.8-114.3-9.7-169.7-16.3zm2593.8 251.2c-51.5 105.8-115.9 203.1-182.7 300.2-11.5 16.7-67.6 77.5-62 101.2 6.2 25.9 57.5 17.2 81.6 13 30.3-5.2 64.2-16.4 88.1-19.6 73.5-9.8 142.9.6 163.1-52.2-46.6-24.2-120.8 9.8-179.4-6.5 48.6-90.7 110.3-174.4 172.9-248 20.4-23.9 50.8-45.8 55.5-78.3-24-37.4-98.3-24.6-137.1-9.8zm-440.5 9.8c-38 71.9-77.6 139.9-120.7 205.5-43.7 66.4-90.6 130.1-127.2 199 40.5 35.8 113.1.9 172.9-6.5 60.8-7.6 141.7-.9 159.9-52.2-46.1-25.7-122.5 9.4-179.4-6.5 35.4-58.6 68.2-117 107.7-169.7 40.1-53.6 92.3-96.5 124-156.6-24-36.9-95.1-25.5-137.2-13zm-342.5 13.1c43.8 1.9 98.3-7 124 13-65.3 98.9-98 230.4-117.5 375.2-27.5 14.6-87.7 19.7-117.5 3.3 3.7-31.1 13.1-56.5 16.3-88.1-31.4-1.4-64 6.1-97.9 13-28 5.7-65.5 6.9-97.9 19.6-32.3 12.6-68.3 94.4-107.7 84.8-59.9-14.5 57.1-106 75-124 72.6-72.6 131.8-132.8 205.5-199 42.7-38.1 89.3-61.1 117.7-97.8zm-238.2 287.1c47-16.1 97.6-28.5 156.6-32.6 8.3-52.6 23.4-98.5 39.2-143.6 3.4-.2 2.6-4.2-3.3-3.3-63.4 60.6-132.2 115.8-192.5 179.5zm-277.3-88.1c3 31.6 70.2 32.4 97.9 19.6 36.1-16.7 95.3-100.8 88.1-143.6-14.6-86.8-209.5-58.8-267.5-22.8-47.9 29.7-98.7 81.6-143.5 133.8-29.7 34.6-100.5 127-88.1 192.5 17.3 91.1 182.6 68.2 257.7 39.1 45.6-17.6 98.8-38.7 114.2-81.6-30.2-17.9-56.5 15.9-84.8 29.4-47.6 22.6-121.1 45.5-176.2 16.3 3.5-68.8 58.9-128.1 104.4-172.9 22.3-22 51.9-44.1 78.3-65.2 25.1-20.1 56.5-54.4 91.4-39.2 8.2 39.6-75.6 57-71.9 94.6zm3425.7 257.8c108.5-8.4 209.7-65.7 283.8-101.2-189.8 26.3-423.6 20.7-606.8 3.3 71.1 72.1 183.7 108.6 323 97.9zm-492.6 326.2c74.7-8 144.4-16.2 218.6-42.4 57.9-20.5 149.2-50.3 156.6-104.4 13.4-97.7-138.4-115.8-238.2-124-110.1-9-237.9-17.1-326.3-6.5-48.7 5.9-120.5.5-133.8 42.4 199.4 29 464.2-4.1 616.6 71.8C5022 1852.6 4789 1860.5 4561 1876c-226 15.4-487.8 27.4-681.9-9.8 246.2 105 675.4 86.2 992 52.2zM4078.2 388.2c7.6 44.9 19.2 92.3 29.4 140.3 9.3 43.9 29.1 94.8 13 133.8-31.1-.5-30.4-40-35.9-62-17.9-71.7-37.5-161-52.2-238.2-36.2-30.2-68.6-64.1-97.9-101.1-133.3 129.8-254.1 272.3-394.8 394.8 118.8-147.7 253.3-279.6 375.2-424.1-53.8-64.3-83-231.5 42.4-231.6 63.1-.1 165 65.5 215.3 91.4 66.6 34.2 135.3 74.5 192.5 110.9 130.5 83.1 233.7 176.6 339.3 267.5 227.3 195.7 460.1 364.3 711.3 505.7 37.5-37.5 59.7-90.4 107.7-117.5 32.4 38.3 27.2 114.2 45.7 166.4 16.4 1.2 29.6-.9 39.2-6.5 14.2-120.2-63.8-190.6-137-244.7-23.8-17.6-63.7-31.2-62-68.5 28.9-28.7 64 7.4 91.3 29.4 60.6 48.6 152.8 142.3 166.4 225.1 11.4 69.2-22.6 126.3-84.8 127.2 18.5 93.6 32.7 185.4 52.2 290.4 3.8 20.2 27.3 82.7 0 88.1-27.2 5.4-27.7-59-32.6-84.8-18.1-94.7-40-199.9-55.5-293.6-51-9.9-99.5-22.3-140.3-42.4-124.1 132.6-226.7 286.6-352.4 417.6 18.4-38.9 48.1-72.4 75-107.7 79.7-104.3 166-215 244.7-323-209.5-101.5-410.9-211.2-580.7-352.4-87.5 279-179.5 570-264.3 854.8-28.3 95.1-46.7 193.2-94.6 277.3-16.1-51.9 8.5-103.7 19.6-153.3 78.1-351.5 158.7-710.2 231.6-1070.1-182.8-147.9-377.3-380-623.2-495.9-36.3-17.2-107-56.5-140.3-32.6-43.3 31.1-7.8 114 9.8 150.1 31.2-6 43.8-58.3 81.6-68.5 18.7 28.9 20.7 68.8 29.4 107.7 7.9 35.7 13.4 85.7 26.1 110.9 16.4 32.5 55.6 33.3 81.6 55.5-20.5.7-51.4-16.2-71.8-26.4zm-123.9-143.5c10.2 10.5 20.3 27.6 32.6 42.4 10.8 13 26.1 34.9 35.9 29.4-10.1-38.9-13.7-84.2-26.1-120.7-11.7 18.7-33.4 27.4-42.4 48.9zm1494.2 743.9c27.2 9.8 54.4 19.6 84.8 26.1-11.1-31.3-7.5-77.3-26.1-101.1-16.2 28.3-42 47-58.7 75zM3523.6 701.5c56.4 70.6 176.8 111.4 309.9 101.1 109.9-8.5 217.3-67.4 280.6-104.4-184.3 29-403.1 25.1-590.5 3.3z" fill-rule="evenodd" clip-rule="evenodd" fill="url(#b)"/>
</svg>
