<?xml version="1.0" encoding="UTF-8" standalone="no"?>
<svg xmlns:dc="http://purl.org/dc/elements/1.1/" xmlns:cc="http://creativecommons.org/ns#" xmlns:rdf="http://www.w3.org/1999/02/22-rdf-syntax-ns#" xmlns:svg="http://www.w3.org/2000/svg" xmlns="http://www.w3.org/2000/svg" xmlns:sodipodi="http://sodipodi.sourceforge.net/DTD/sodipodi-0.dtd" xmlns:inkscape="http://www.inkscape.org/namespaces/inkscape" version="1.1" x="0px" y="0px" width="368.586" height="219.595" viewBox="0 0 368.58599 219.595" id="svg52">
  <metadata id="metadata58">
    
  </metadata>
  <defs id="defs56"/>
  
  <title id="title2">Breaking Bad logo </title>
  <linearGradient id="SVGID_1_" gradientUnits="userSpaceOnUse" x1="0.75199997" y1="0.7529" x2="109.8259" y2="109.8269" gradientTransform="translate(0.001)">
    <stop offset="0" stop-color="#15453D" id="stop4"/>
    <stop offset="1" stop-color="#006C24" id="stop6"/>
  </linearGradient>
  <rect x="0.75199997" y="0.75199997" style="fill:url(#SVGID_1_)" width="109.074" height="109.074" id="rect9"/>
  <path style="fill:#072508" d="M 0,110.576 V 0 h 110.576 v 109.826 0.75 z m 109.826,-0.75 v -0.75 z M 1.5,109.076 H 109.074 V 1.502 H 1.5 Z" id="path11"/>
  <path style="fill:#ffffff" d="m 17.439,25.684 h 28.532 c 9.963,0 17.965,5.023 17.965,15.074 0,6.643 -3.658,10.984 -10.303,12.26 v 0.172 c 8.346,0.852 13.027,7.75 13.027,14.988 0,15.158 -10.813,18.141 -23.416,18.141 H 17.439 Z m 11.413,24.357 h 13.541 c 5.023,0 9.625,-1.961 9.625,-7.752 0,-4.6 -2.984,-7.578 -9.625,-7.578 H 28.852 Z m 0,26.23 H 43.67 c 6.898,0 11.07,-2.133 11.07,-8.434 0,-6.814 -4.258,-9.283 -11.156,-9.283 H 28.852 Z" id="path13"/>
  <path style="fill:#ffffff" d="m 73.809,43.227 h 10.392 v 5.959 h 0.17 c 2.471,-4.938 7.238,-6.98 13.285,-6.98 v 10.561 c -7.07,0 -13.455,3.32 -13.455,12.686 V 86.32 H 73.809 Z" id="path15"/>
  <path style="fill:#ffffff" d="m 86.275,15.782 h 0.893 c 0.912,0 1.623,-0.42 1.623,-1.387 0,-1.039 -0.602,-1.676 -1.641,-1.676 -1.258,0 -1.66,1.094 -1.75,2.133 L 82.974,14.34 c 0.4,-2.406 1.932,-3.664 4.357,-3.664 2.023,0 3.902,1.076 3.902,3.318 0,1.441 -0.693,2.262 -2.043,2.607 v 0.037 c 1.551,0.363 2.334,1.477 2.354,3.063 0,2.572 -2.115,3.811 -4.486,3.811 -2.426,0 -4.303,-1.129 -4.303,-4.266 h 2.334 c 0,1.33 0.674,2.225 2.041,2.225 1.168,0 1.861,-0.785 1.861,-1.914 0,-1.387 -0.875,-1.842 -1.824,-1.842 h -0.893 v -1.933 z" id="path17"/>
  <path style="fill:#ffffff" d="m 94.119,10.895 h 6.928 l -0.236,2.152 h -4.795 l -0.383,2.588 c 0.637,-0.564 1.404,-0.875 2.225,-0.875 2.643,0 3.902,1.951 3.902,4.248 0,2.846 -1.988,4.504 -4.613,4.504 -2.316,0 -4.213,-1.148 -4.322,-3.646 l 2.553,-0.199 c 0.018,1.039 0.693,1.914 1.787,1.914 1.494,0 2.043,-1.258 2.043,-2.553 0,-1.641 -0.84,-2.334 -2.08,-2.334 -0.912,0 -1.422,0.4 -1.768,1.186 l -2.115,-0.164 z" id="path19"/>
  <path style="fill:#154f3c" d="m 128.881,63.998 c -2.941,0 -3.277,0.084 -3.277,2.352 0,6.807 5.545,13.025 13.107,13.025 3.109,0 5.967,-0.924 8.74,-2.857 1.932,-1.344 3.193,-2.941 4.873,-2.941 1.26,0 2.186,0.926 2.186,2.102 0,1.26 -1.346,3.361 -3.949,5.461 -4.623,3.781 -8.908,5.715 -14.705,5.715 -12.186,0 -21.26,-9.412 -21.26,-21.596 0,-13.361 9.242,-22.939 22.268,-22.939 11.008,0 17.898,6.721 17.898,17.393 0,3.949 -1.01,4.287 -4.791,4.287 h -20.502 c -0.252,-0.002 -0.42,-0.002 -0.588,-0.002 z m 13.611,-4.875 c 2.018,0 2.689,-0.252 2.689,-1.596 0,-5.295 -3.949,-9.748 -9.748,-9.748 -5.629,0 -9.41,4.453 -9.41,9.748 0,1.344 0.588,1.596 2.604,1.596 z" id="path21"/>
  <path style="fill:#154f3c" d="m 196.514,79.039 c 2.523,0.756 4.035,0.756 4.035,2.52 0,2.521 -4.119,5.379 -9.58,5.379 -3.195,0 -5.379,-4.453 -6.219,-4.453 -1.346,0 -5.043,4.453 -12.521,4.453 -8.318,0 -13.949,-5.293 -13.949,-13.109 0,-8.99 6.723,-14.537 18.824,-14.537 2.184,0 4.873,0.252 7.982,0.756 V 55.51 c 0,-5.041 -2.27,-7.814 -6.303,-7.814 -2.857,0 -5.209,1.26 -7.395,3.781 -1.766,2.018 -2.857,4.369 -6.387,4.369 -2.27,0 -3.697,-1.596 -3.697,-4.033 0,-4.873 6.471,-9.494 17.73,-9.494 6.471,0 11.008,1.764 13.445,4.873 2.186,2.773 2.354,6.975 2.354,13.025 v 13.779 c 0.001,2.942 0.421,4.707 1.681,5.043 z M 178.867,64.754 c -6.219,0 -9.748,2.941 -9.748,7.73 0,4.453 3.109,7.479 8.236,7.479 5.797,0 7.73,-2.438 7.73,-8.15 V 65.51 c -2.269,-0.504 -4.368,-0.756 -6.218,-0.756 z" id="path23"/>
  <path style="fill:#154f3c" d="m 217.561,57.023 c 0,1.764 0.084,2.604 0.84,2.604 0.42,0 2.186,-1.092 4.875,-3.529 3.445,-3.193 5.377,-5.125 5.377,-6.133 0,-1.094 -3.193,-1.01 -3.193,-3.361 0,-2.857 3.445,-3.445 10.588,-3.445 5.211,0 7.814,1.008 7.814,3.193 0,3.277 -4.033,2.268 -7.563,4.369 -1.68,1.008 -3.529,2.941 -5.881,5.293 -1.178,1.178 -1.85,1.934 -1.85,2.438 0,0.84 1.512,2.773 4.201,6.303 5.967,7.73 10,12.184 12.018,13.697 2.856,2.016 6.553,1.344 6.553,4.201 0,2.52 -2.688,3.445 -8.57,3.445 -2.438,0 -4.033,-0.252 -4.537,-0.42 -2.354,-0.842 -4.285,-3.865 -7.73,-8.236 -7.395,-9.41 -11.262,-14.369 -12.102,-14.369 -0.756,0 -0.84,0.674 -0.84,2.27 0,0.504 0,1.092 0,1.848 0,7.059 0.168,11.094 1.176,12.27 1.178,1.344 4.371,0.924 4.371,3.613 0,2.438 -3.109,3.025 -9.832,3.025 -7.479,0 -10.672,-0.42 -10.672,-3.277 0,-1.934 1.764,-1.934 3.193,-2.689 1.764,-1.008 2.1,-4.033 2.1,-9.748 0,-3.193 -0.084,-7.059 -0.084,-11.932 0,-1.848 0,-3.613 0,-5.293 0,-12.521 -0.084,-17.328 -1.176,-18.588 -0.672,-0.756 -2.102,-0.924 -3.865,-1.514 -1.346,-0.42 -1.934,-0.756 -1.934,-2.016 0,-1.765 1.598,-2.437 4.707,-3.529 4.873,-1.682 8.57,-2.186 10.166,-2.186 1.85,0 2.354,1.094 2.354,3.613 0,4.453 -0.504,8.923 -0.504,17.328 z" id="path25"/>
  <path style="fill:#154f3c" d="m 268.403,72.064 c 0,4.537 0.252,7.143 1.68,7.898 1.934,1.092 3.781,0.84 3.781,3.109 0,2.438 -3.025,3.025 -9.748,3.025 -7.479,0 -10.755,-0.42 -10.755,-3.277 0,-1.934 1.766,-1.934 3.192,-2.689 1.682,-0.924 2.018,-3.025 2.018,-6.723 0,-1.764 -0.084,-3.781 -0.084,-6.303 0,-1.596 0,-3.107 0,-4.453 0,-6.891 -0.084,-10.504 -1.514,-11.26 -2.099,-1.092 -4.62,-0.924 -4.62,-3.025 0,-1.344 1.177,-2.268 3.445,-3.193 5.798,-2.268 10.167,-2.855 11.007,-2.855 1.682,0 2.186,1.176 2.186,3.613 0,1.092 0,2.604 -0.084,4.453 l -0.336,10.924 c -0.084,3.698 -0.168,7.311 -0.168,10.756 z m -5.547,-45.401 c 3.865,0 6.471,2.438 6.471,5.462 0,3.025 -2.857,5.629 -6.975,5.629 -3.781,0 -6.387,-2.268 -6.387,-5.209 0.001,-3.109 2.942,-5.882 6.891,-5.882 z" id="path27"/>
  <path style="fill:#154f3c" d="m 305.231,42.318 c 4.368,0 8.318,2.1 10.755,4.957 3.362,4.033 3.613,8.99 3.613,15.713 0,3.193 0,5.127 0,5.799 0,2.016 -0.084,3.697 -0.084,5.209 0,3.361 0.253,5.211 1.934,6.135 1.429,0.756 3.194,0.756 3.194,2.689 0,2.857 -3.194,3.193 -10.504,3.193 -6.891,0 -10.084,-0.42 -10.084,-2.941 0,-2.27 1.847,-2.018 3.78,-3.109 1.513,-0.84 1.764,-3.697 1.764,-8.906 0,-13.529 -0.168,-20.504 -7.981,-20.504 -3.025,0 -6.052,1.932 -7.563,5.041 -1.596,3.193 -1.68,8.824 -1.68,16.975 0,4.201 0.084,6.555 1.595,7.395 1.935,1.092 3.782,0.84 3.782,3.109 0,2.438 -3.025,3.025 -9.749,3.025 -7.478,0 -10.755,-0.42 -10.755,-3.277 0,-1.934 1.766,-1.934 3.192,-2.689 1.683,-0.924 2.019,-3.025 2.019,-6.723 0,-1.764 -0.084,-3.781 -0.084,-6.303 0,-1.596 0,-3.107 0,-4.453 0,-6.891 -0.085,-10.504 -1.515,-11.26 -2.1,-1.092 -4.62,-0.924 -4.62,-3.025 0,-1.344 1.175,-2.268 3.445,-3.193 5.462,-2.1 9.495,-2.688 10.587,-2.688 1.596,0 2.271,0.756 2.271,2.688 v 2.354 c 0,0.252 0,0.42 0,0.504 0,0.336 0,0.504 0.335,0.504 0.169,0 0.336,-0.084 0.421,-0.168 l 1.007,-0.924 c 2.522,-2.271 4.79,-5.127 10.925,-5.127 z" id="path29"/>
  <path style="fill:#154f3c" d="m 327.916,58.535 c 0,-9.244 7.731,-16.217 18.57,-16.217 2.941,0 6.639,0.672 11.092,1.68 2.271,0 4.705,-1.176 7.983,-3.445 1.175,0.756 1.85,1.766 1.85,2.773 0,2.352 -1.767,4.705 -5.212,6.471 1.177,2.268 1.767,4.453 1.767,6.975 0,9.242 -7.396,15.965 -18.825,15.965 -3.107,0 -5.964,-0.42 -8.57,-1.344 -1.176,1.26 -1.764,2.352 -1.764,3.361 0,2.771 2.771,3.949 8.318,3.949 4.286,0 8.655,-0.926 13.194,-0.926 7.982,0 12.267,3.361 12.267,9.328 0,8.74 -9.411,15.883 -23.696,15.883 -11.596,0 -18.991,-5.545 -18.991,-11.346 0,-3.109 2.018,-5.209 6.051,-7.646 -3.36,-1.176 -5.21,-3.445 -5.21,-6.303 0,-2.939 2.101,-5.713 6.218,-8.234 -3.362,-2.857 -5.042,-6.555 -5.042,-10.924 z m 7.228,32.268 c 0,3.781 4.117,6.641 11.343,6.641 8.066,0 13.275,-3.615 13.275,-7.648 0,-2.689 -1.931,-4.285 -5.628,-4.285 -2.606,0 -6.472,0.84 -11.428,0.84 -1.683,0 -3.445,-0.084 -5.379,-0.336 -1.512,1.426 -2.183,2.94 -2.183,4.788 z m 10.587,-23.614 c 4.788,0 8.402,-3.865 8.402,-9.662 0,-5.967 -3.53,-9.832 -8.318,-9.832 -4.371,0 -7.9,3.949 -7.9,9.748 0,5.965 3.276,9.746 7.816,9.746 z" id="path31"/>
  <path style="fill:#154f3c" d="m 255.648,190.841 c 0,-0.756 -0.168,-1.092 -0.338,-1.092 -0.252,0 -1.259,0.924 -3.191,2.352 -3.276,2.438 -6.471,3.697 -10.084,3.697 -10.42,0 -18.066,-8.15 -18.066,-20.754 0,-13.95 8.57,-23.527 20.67,-23.527 5.884,0 9.497,2.521 10.168,2.521 0.504,0 0.588,-0.756 0.588,-2.102 v -3.041 c 0,-3.866 -0.504,-5.128 -2.688,-5.883 -2.017,-0.672 -3.78,-0.672 -3.78,-2.606 0,-1.848 1.764,-2.688 5.293,-3.948 3.695,-1.345 6.637,-1.849 8.738,-1.849 1.932,0 2.688,1.008 2.688,3.529 0,1.429 -0.504,8.925 -0.504,26.569 0,14.369 0.084,21.68 1.262,22.52 1.848,1.344 5.209,0.504 5.209,3.025 0,2.016 -2.27,2.689 -6.639,4.117 -2.941,1.008 -5.967,1.344 -7.059,1.344 -1.596,0 -2.267,-0.84 -2.267,-2.771 z m -0.421,-24.201 c 0,-2.352 0,-3.95 -0.84,-5.042 -1.763,-2.353 -5.376,-4.283 -9.074,-4.283 -6.135,0 -10.42,5.291 -10.42,14.536 0,9.998 4.873,16.217 11.008,16.217 5.965,0 9.326,-3.277 9.326,-9.746 z" id="path33"/>
  <linearGradient id="SVGID_2_" gradientUnits="userSpaceOnUse" x1="218.91701" y1="218.8477" x2="109.8402" y2="109.7709" gradientTransform="translate(0.001)">
    <stop offset="0" stop-color="#15453D" id="stop35"/>
    <stop offset="1" stop-color="#006C24" id="stop37"/>
  </linearGradient>
  <rect x="109.84" y="109.771" style="fill:url(#SVGID_2_)" width="109.078" height="109.075" id="rect40"/>
  <path style="fill:#072508" d="M 109.088,219.595 V 109.021 h 110.58 v 109.825 0.748 h -110.58 z m 109.83,-0.748 v -0.75 z m -108.33,-0.75 h 107.58 L 218.166,110.522 H 110.588 Z" id="path42"/>
  <path style="fill:#ffffff" d="m 118.002,134.705 h 28.525 c 9.965,0 17.969,5.025 17.969,15.073 0,6.642 -3.662,10.98 -10.307,12.26 v 0.171 c 8.348,0.85 13.031,7.747 13.031,14.983 0,15.16 -10.814,18.145 -23.42,18.145 h -25.799 v -60.632 z m 11.41,24.354 h 13.539 c 5.021,0 9.623,-1.959 9.623,-7.747 0,-4.598 -2.982,-7.581 -9.623,-7.581 h -13.539 z m 0,26.227 h 14.813 c 6.9,0 11.076,-2.129 11.076,-8.432 0,-6.811 -4.26,-9.279 -11.158,-9.279 h -14.73 v 17.711 z" id="path44"/>
  <path style="fill:#ffffff" d="m 210.393,188.097 c 0,4.428 1.021,6.303 1.615,7.24 h -10.984 c -0.678,-1.023 -1.02,-2.813 -1.02,-3.92 -4.002,3.236 -8.689,4.938 -14.055,4.938 -8.174,0 -14.646,-5.193 -14.646,-13.535 0,-8.434 6.727,-12.184 13.115,-13.461 l 4.342,-0.848 c 3.748,-0.766 8.604,-1.619 11.244,-2.555 v -1.277 c 0,-4.258 -3.662,-5.449 -8.178,-5.449 -6.045,0 -8.006,1.787 -8.006,6.473 l -10.389,-0.428 c 0,-10.132 8.941,-14.045 18.395,-14.045 9.287,0 18.566,1.873 18.566,14.131 v 22.736 z M 200.004,173.79 c -1.359,0.682 -3.066,1.193 -4.941,1.531 l -5.707,1.195 c -3.916,0.766 -7.15,1.871 -7.15,5.959 0,3.238 2.977,5.367 6.727,5.367 4.854,0 11.072,-2.385 11.072,-7.918 v -6.134 z" id="path46"/>
  <path style="fill:#ffffff" d="m 192.705,119.196 h 6.93 l -0.238,2.151 h -4.795 l -0.383,2.59 c 0.639,-0.566 1.404,-0.876 2.225,-0.876 2.645,0 3.902,1.951 3.902,4.25 0,2.843 -1.988,4.503 -4.613,4.503 -2.316,0 -4.213,-1.15 -4.322,-3.647 l 2.553,-0.2 c 0.018,1.039 0.693,1.914 1.787,1.914 1.496,0 2.043,-1.257 2.043,-2.553 0,-1.641 -0.84,-2.334 -2.08,-2.334 -0.91,0 -1.422,0.401 -1.768,1.186 l -2.115,-0.163 z" id="path48"/>
  <path style="fill:#ffffff" d="m 207.824,122.442 c -0.072,-0.875 -0.637,-1.422 -1.477,-1.422 -1.77,0 -2.17,2.313 -2.17,3.772 h 0.037 c 0.309,-0.455 1.021,-1.147 2.424,-1.147 2.316,0 3.666,1.659 3.666,4.084 0,2.299 -1.678,4.085 -4.139,4.085 -3.611,0 -4.432,-3.228 -4.432,-6.109 0,-3.92 1.531,-6.729 4.631,-6.729 2.08,0 3.465,1.077 3.813,3.154 z m -3.465,5.287 c 0,1.276 0.639,2.042 1.807,2.042 1.166,0 1.805,-0.766 1.805,-2.042 0,-1.276 -0.639,-2.042 -1.805,-2.042 -1.168,0.001 -1.807,0.766 -1.807,2.042 z" id="path50"/>
</svg>
