<?xml version="1.0" standalone="no"?>
<!DOCTYPE svg PUBLIC "-//W3C//DTD SVG 20010904//EN" "http://www.w3.org/TR/2001/REC-SVG-20010904/DTD/svg10.dtd">
<svg xmlns="http://www.w3.org/2000/svg" version="1.0" width="1920.000000pt" height="1080.000000pt" viewBox="0 0 1920.000000 1080.000000" preserveAspectRatio="xMidYMid meet">

<g transform="translate(0.000000,1080.000000) scale(0.100000,-0.100000)" fill="#e52312" stroke="none">
<path d="M12920 7275 c-173 -38 -342 -169 -416 -321 l-39 -79 -3 -859 c-2 -775 -1 -865 14 -910 55 -170 212 -320 394 -377 251 -79 539 18 690 233 95 135 90 80 90 1032 0 732 -2 839 -16 887 -49 167 -209 322 -394 380 -85 27 -233 34 -320 14z m198 -435 l32 -20 0 -825 0 -825 -32 -20 c-64 -39 -149 -12 -162 50 -8 42 -8 1548 0 1590 13 62 98 89 162 50z"/>
<path d="M18368 7280 c-189 -34 -348 -142 -426 -288 -104 -196 -96 -475 21 -711 67 -134 135 -226 285 -384 280 -295 352 -416 353 -592 0 -81 -9 -111 -46 -145 -37 -35 -134 -36 -181 -3 -54 39 -64 74 -64 232 l0 141 -236 0 -235 0 3 -217 3 -218 33 -69 c46 -98 143 -192 254 -245 121 -58 198 -75 353 -75 114 0 140 4 210 27 254 85 405 303 405 587 0 252 -86 435 -356 755 -323 384 -356 435 -373 560 -16 112 7 178 72 209 44 20 70 20 108 0 54 -28 69 -78 69 -241 l0 -143 236 0 235 0 -3 218 -3 218 -37 75 c-94 191 -289 307 -528 314 -58 2 -126 0 -152 -5z"/>
<path d="M80 7045 l0 -215 175 0 175 0 0 -1050 0 -1050 250 0 250 0 0 1050 0 1050 165 0 165 0 0 215 0 215 -590 0 -590 0 0 -215z"/>
<path d="M1390 5995 l0 -1265 250 0 250 0 0 510 0 510 115 0 115 0 0 -510 0 -510 255 0 255 0 0 1265 0 1265 -255 0 -255 0 0 -530 0 -530 -115 0 -115 0 0 530 0 530 -250 0 -250 0 0 -1265z"/>
<path d="M2790 5996 l0 -1266 255 0 255 0 0 510 0 510 56 0 c48 0 59 -4 85 -29 l29 -29 0 -324 c0 -332 9 -448 46 -580 l17 -58 244 0 c228 0 244 1 239 18 -3 9 -15 62 -27 117 -20 89 -22 141 -28 485 l-6 385 -30 54 c-29 53 -96 116 -158 147 l-29 16 48 32 c64 43 110 91 137 141 21 38 22 54 25 367 2 202 -1 349 -7 385 -32 171 -161 301 -357 359 -50 15 -115 18 -426 21 l-368 5 0 -1266z m630 804 c34 -18 40 -65 40 -310 0 -307 -4 -320 -109 -320 l-51 0 0 320 0 320 51 0 c28 0 59 -4 69 -10z"/>
<path d="M4150 5995 l0 -1265 495 0 495 0 0 225 0 225 -245 0 -245 0 0 320 0 320 160 0 160 0 0 225 0 225 -160 0 -160 0 0 285 0 285 245 0 245 0 0 210 0 210 -495 0 -495 0 0 -1265z"/>
<path d="M5280 5995 l0 -1265 495 0 495 0 0 225 0 225 -245 0 -245 0 2 318 3 317 163 3 162 2 -2 223 -3 222 -162 3 -163 2 0 285 0 285 245 0 245 0 0 210 0 210 -495 0 -495 0 0 -1265z"/>
<path d="M6940 5995 l0 -1265 328 0 c357 1 439 9 538 54 126 58 207 146 245 265 17 57 19 94 19 403 0 232 -4 353 -12 380 -14 47 -77 122 -135 158 l-42 27 49 32 c57 37 96 81 121 136 17 36 19 72 19 367 0 295 -2 332 -19 389 -50 159 -184 268 -376 304 -58 11 -158 15 -406 15 l-329 0 0 -1265z m639 789 c20 -25 21 -39 21 -261 0 -134 -4 -242 -10 -253 -12 -22 -61 -40 -111 -40 l-39 0 0 290 0 290 59 0 c52 0 62 -3 80 -26z m2 -1023 c17 -21 19 -45 19 -272 0 -167 -4 -256 -12 -274 -12 -27 -69 -49 -116 -43 l-27 3 -3 309 -2 308 61 -4 c49 -4 66 -9 80 -27z"/>
<path d="M8240 5995 l0 -1265 250 0 250 0 0 1265 0 1265 -250 0 -250 0 0 -1265z"/>
<path d="M8920 5995 l0 -1265 495 0 495 0 0 225 0 225 -245 0 -245 0 0 1040 0 1040 -250 0 -250 0 0 -1265z"/>
<path d="M10050 5995 l0 -1265 495 0 495 0 0 225 0 225 -245 0 -245 0 0 1040 0 1040 -250 0 -250 0 0 -1265z"/>
<path d="M11180 5995 l0 -1267 363 5 c294 3 372 7 416 20 179 53 294 164 336 322 22 84 22 678 0 751 -18 60 -61 114 -126 158 l-49 33 54 37 c58 40 100 93 122 153 20 58 20 627 -1 708 -42 158 -157 269 -336 322 -44 13 -122 17 -416 20 l-363 5 0 -1267z m631 796 l24 -19 0 -246 c0 -239 -1 -246 -22 -267 -16 -16 -38 -24 -77 -27 l-56 -4 0 291 0 291 54 0 c38 0 61 -6 77 -19z m-4 -1025 l28 -24 0 -261 c0 -304 2 -298 -98 -308 l-57 -6 0 312 0 311 49 0 c38 0 56 -6 78 -24z"/>
<path d="M14070 7255 c0 -4 -74 -566 -165 -1251 -91 -685 -165 -1252 -165 -1260 0 -12 35 -14 219 -14 l219 0 6 28 c3 15 12 88 21 162 8 74 18 152 21 173 l6 37 114 0 c63 0 114 -3 114 -7 0 -5 7 -84 15 -178 8 -93 15 -180 15 -192 l0 -23 260 0 c201 0 260 3 260 13 0 16 -329 2466 -336 2495 l-4 22 -300 0 c-165 0 -300 -2 -300 -5z m330 -1261 c16 -214 30 -397 30 -406 0 -16 -11 -18 -81 -18 l-81 0 6 43 c10 67 86 745 86 764 0 9 2 14 5 11 3 -2 18 -180 35 -394z"/>
<path d="M15150 5995 l0 -1265 250 0 250 0 0 510 0 510 56 0 c48 0 59 -4 85 -29 l29 -29 0 -299 c0 -324 9 -441 42 -575 l21 -88 244 0 c133 0 243 1 243 3 0 1 -12 56 -26 122 -25 114 -27 138 -33 505 l-6 385 -27 46 c-31 53 -77 96 -143 135 l-46 26 61 41 c69 44 123 111 140 172 8 27 10 153 8 390 -3 332 -4 353 -25 403 -45 110 -144 205 -264 253 -103 41 -184 48 -531 49 l-328 0 0 -1265z m631 796 l24 -19 0 -282 0 -282 -24 -19 c-16 -13 -39 -19 -77 -19 l-54 0 0 320 0 320 54 0 c38 0 61 -6 77 -19z"/>
<path d="M16500 5995 l0 -1266 388 3 c326 4 396 7 447 21 156 45 280 138 337 255 l33 67 0 920 0 920 -33 67 c-57 117 -181 210 -337 255 -51 14 -121 17 -447 21 l-388 3 0 -1266z m679 796 c11 -11 23 -35 26 -53 3 -18 5 -367 3 -775 l-3 -742 -22 -23 c-19 -19 -34 -22 -100 -22 l-78 -1 -3 818 -2 817 80 0 c66 0 83 -3 99 -19z"/>
<path d="M441 4599 c-138 -23 -265 -122 -328 -255 -33 -69 -38 -89 -41 -172 -9 -204 81 -361 255 -444 276 -131 594 39 645 345 41 247 -134 487 -382 526 -73 12 -74 12 -149 0z m127 -265 c43 -30 56 -72 57 -179 0 -116 -6 -142 -41 -184 -49 -59 -132 -31 -155 52 -19 65 -16 196 5 250 27 73 82 98 134 61z"/>
<path d="M3265 4604 c-170 -22 -279 -83 -331 -186 -34 -67 -40 -123 -20 -191 32 -110 121 -166 346 -217 74 -17 145 -37 157 -45 35 -23 29 -53 -12 -71 -79 -32 -199 -4 -233 56 l-17 30 -134 0 -134 0 6 -40 c7 -57 51 -125 105 -165 135 -98 375 -122 557 -54 157 58 237 233 171 374 -43 93 -123 140 -321 191 -154 39 -182 50 -191 77 -17 53 90 84 168 49 36 -16 49 -28 59 -56 l13 -36 128 0 128 0 0 32 c0 100 -114 205 -255 236 -61 14 -150 21 -190 16z"/>
<path d="M11060 4600 c-156 -27 -272 -118 -343 -268 -30 -63 -32 -73 -32 -182 0 -139 21 -207 93 -296 92 -113 203 -167 347 -168 77 -1 98 3 146 25 31 15 74 43 96 62 l39 36 27 -54 27 -55 50 0 50 0 0 225 0 225 -195 0 -195 0 0 -50 0 -50 50 0 c28 0 50 -3 50 -7 0 -22 -41 -71 -69 -82 -73 -31 -149 22 -170 119 -6 28 -11 57 -11 65 0 87 55 179 114 190 63 12 136 -41 136 -100 0 -13 21 -15 146 -15 l146 0 -7 43 c-30 175 -169 308 -355 337 -72 11 -76 11 -140 0z"/>
<path d="M14395 4600 c-152 -21 -273 -104 -314 -213 -6 -16 -11 -56 -11 -90 1 -147 89 -225 310 -276 203 -47 240 -64 220 -101 -35 -66 -226 -45 -265 29 l-16 31 -135 0 -136 0 7 -37 c34 -182 267 -292 540 -253 205 29 315 136 315 304 -1 153 -98 233 -365 298 -141 34 -189 62 -169 95 16 26 82 46 129 38 53 -8 84 -29 101 -71 l14 -34 131 0 131 0 -7 37 c-32 170 -241 276 -480 243z"/>
<path d="M15295 4599 c-223 -29 -372 -211 -311 -382 37 -103 130 -159 346 -207 136 -31 180 -49 180 -75 0 -39 -66 -62 -152 -52 -59 7 -93 27 -116 68 l-17 29 -132 0 -133 0 0 -30 c0 -43 42 -121 85 -158 161 -142 523 -148 678 -12 64 57 90 117 91 210 1 64 -3 82 -26 121 -50 85 -138 133 -327 178 -149 36 -183 53 -179 89 4 35 62 56 127 47 48 -7 111 -58 111 -89 0 -14 18 -16 131 -16 l132 0 -6 41 c-22 162 -239 269 -482 238z"/>
<path d="M16243 4599 c-243 -42 -412 -281 -372 -528 31 -198 187 -352 387 -383 354 -55 631 330 472 657 -89 184 -290 289 -487 254z m137 -277 c64 -65 66 -277 3 -352 -52 -63 -140 -26 -160 68 -12 54 -8 191 6 234 25 77 99 101 151 50z"/>
<path d="M1052 4272 l3 -307 33 -67 c56 -114 163 -186 314 -209 203 -32 399 54 475 209 l28 57 3 313 3 312 -160 0 -161 0 0 -275 c0 -300 -3 -320 -55 -343 -46 -21 -92 -15 -127 17 l-33 29 -3 286 -3 286 -160 0 -160 0 3 -308z"/>
<path d="M1970 4450 l0 -130 135 0 135 0 0 -310 0 -310 170 0 170 0 0 310 0 310 135 0 135 0 0 130 0 130 -440 0 -440 0 0 -130z"/>
<path d="M3830 4140 l0 -440 170 0 170 0 0 440 0 440 -170 0 -170 0 0 -440z"/>
<path d="M4280 4140 l0 -440 223 0 c122 0 251 5 287 11 123 19 240 93 310 195 79 114 93 288 33 416 -54 116 -152 201 -274 239 -53 17 -94 19 -320 19 l-259 0 0 -440z m469 166 c89 -46 104 -225 26 -303 -29 -29 -39 -33 -89 -33 l-56 0 0 175 0 175 45 0 c26 0 59 -7 74 -14z"/>
<path d="M5260 4140 l0 -440 395 0 395 0 0 135 0 135 -225 0 -225 0 0 45 0 45 110 0 110 0 0 85 0 85 -110 0 -110 0 0 45 0 45 225 0 225 0 0 130 0 130 -395 0 -395 0 0 -440z"/>
<path d="M6430 4140 l0 -440 400 0 400 0 0 135 0 135 -225 0 -225 0 0 45 0 45 110 0 111 0 -3 83 -3 82 -107 3 -108 3 0 44 0 45 225 0 225 0 0 130 0 130 -400 0 -400 0 0 -440z"/>
<path d="M7322 4143 l3 -438 320 0 c359 0 385 4 463 70 121 104 104 289 -33 355 l-47 23 39 17 c99 45 149 169 108 268 -21 50 -50 79 -110 110 l-50 27 -348 3 -347 3 2 -438z m526 165 c7 -7 12 -21 12 -33 0 -37 -20 -45 -107 -45 l-83 0 0 45 0 45 83 0 c51 0 88 -5 95 -12z m0 -260 c7 -7 12 -21 12 -33 0 -37 -20 -45 -107 -45 l-83 0 0 45 0 45 83 0 c51 0 88 -5 95 -12z"/>
<path d="M8280 4139 l0 -441 328 4 c316 3 329 4 377 26 59 27 122 85 141 129 8 18 14 57 14 88 0 85 -39 148 -115 187 -39 21 -39 21 -15 30 79 29 130 110 130 206 0 95 -59 166 -166 198 -37 11 -119 14 -371 14 l-323 0 0 -441z m525 161 c15 -17 16 -24 7 -45 -11 -24 -15 -25 -102 -25 l-90 0 0 45 0 45 83 0 c71 0 87 -3 102 -20z m-1 -256 c19 -18 20 -28 6 -55 -9 -17 -22 -19 -100 -19 l-90 0 0 45 0 45 84 0 c64 0 88 -4 100 -16z"/>
<path d="M9240 4140 l0 -440 170 0 170 0 0 440 0 440 -170 0 -170 0 0 -440z"/>
<path d="M9690 4140 l0 -440 145 0 145 0 0 191 c0 106 4 189 9 187 5 -1 77 -87 160 -190 l152 -188 144 0 145 0 0 440 0 440 -145 0 -145 0 0 -185 c0 -102 -3 -185 -7 -185 -5 1 -71 84 -148 185 l-140 184 -157 0 -158 1 0 -440z"/>
<path d="M12312 4143 l3 -438 133 -3 132 -3 0 277 c0 153 3 274 7 270 4 -3 43 -127 88 -274 l81 -267 131 -3 132 -3 9 33 c5 18 37 143 73 277 l64 244 3 -276 2 -277 175 0 175 0 0 440 0 440 -249 0 -249 0 -15 -51 c-9 -28 -33 -111 -54 -185 -21 -74 -41 -134 -44 -134 -4 0 -32 93 -101 338 l-9 32 -245 0 -244 0 2 -437z"/>
<path d="M13630 4140 l0 -440 170 0 170 0 0 440 0 440 -170 0 -170 0 0 -440z"/>
<path d="M16852 4273 l3 -308 26 -56 c53 -112 151 -186 286 -214 86 -19 140 -18 228 0 134 28 239 106 288 213 21 45 22 63 25 360 l3 312 -160 0 -161 0 0 -275 c0 -300 -3 -320 -55 -343 -46 -21 -92 -15 -127 17 l-33 29 -3 286 -3 286 -160 0 -160 0 3 -307z"/>
<path d="M17812 4143 l3 -438 173 -3 172 -2 0 175 0 175 78 0 c47 0 84 -5 94 -12 13 -10 17 -38 20 -133 3 -93 8 -129 23 -160 l20 -40 163 -3 c89 -1 162 0 162 3 0 3 -7 20 -17 38 -10 21 -19 71 -23 144 -9 136 -32 185 -104 224 -52 27 -56 34 -22 43 36 9 103 88 116 137 28 104 -17 204 -115 254 l-59 30 -343 3 -343 3 2 -438z m522 161 c21 -20 20 -53 -1 -76 -13 -14 -31 -18 -95 -18 l-78 0 0 55 0 55 79 0 c59 0 84 -4 95 -16z"/>
<path d="M18780 4140 l0 -440 170 0 170 0 0 440 0 440 -170 0 -170 0 0 -440z"/>
<path d="M11670 3821 l0 -120 50 -3 50 -3 -55 -82 c-30 -45 -55 -85 -55 -88 0 -3 17 -5 38 -5 35 0 48 9 135 91 l97 91 0 119 0 119 -130 0 -130 0 0 -119z"/>
</g>
</svg>
