<?xml version="1.0" encoding="UTF-8" standalone="no"?>
<svg xmlns:dc="http://purl.org/dc/elements/1.1/" xmlns:cc="http://creativecommons.org/ns#" xmlns:rdf="http://www.w3.org/1999/02/22-rdf-syntax-ns#" xmlns:svg="http://www.w3.org/2000/svg" xmlns="http://www.w3.org/2000/svg" xmlns:sodipodi="http://sodipodi.sourceforge.net/DTD/sodipodi-0.dtd" xmlns:inkscape="http://www.inkscape.org/namespaces/inkscape" width="2132.3333" height="1639.1838" viewBox="0 0 164.40801 126.38501" version="1.1" id="svg8">
  <metadata id="metadata14">
    
  </metadata>
  <defs id="defs12"/>
  
  <path d="M 161.792,45.162001 144.905,42.413 c -0.326,-1.768 -1.242,-5.694 -1.635,-7.985 -0.328,-2.094 -0.59,-5.629 -0.918,-7.788 l 8.443,-8.378 -9.229,-3.207 -3.861,3.6 c -2.486,-4.712 -1.701,-16.101 -1.57,-18.653 h -4.123 c -0.131,1.244 -0.393,11.846 0.326,15.053 1.18,5.498 4.975,7.658 6.742,11.323 1.047,2.095 2.029,4.582 2.553,7.985 0.457,2.814 0.262,5.76 0.131,7.592 l -13.875,-2.291 -3.338,1.243001 -0.328,8.247 6.807,1.112 c -1.178,2.028999 -3.664,4.777999 -6.021,6.807 -1.832,1.571 -5.039,2.355999 -5.498,2.224999 -0.393,-0.065 -4.123,-4.32 -4.973,-5.628999 C 114.079,52.884 114.079,51.902 114.145,50.92 c 0.588,-7.396 1.963,-12.108 2.158,-12.828 0,0 -0.719,-0.457999 -0.98,-0.457999 -0.459,0.851 -2.357,4.254 -3.666,5.694 -0.785,0.916999 -5.629,5.236 -8.574,7.853999 -1.373,-0.589 -1.504,-1.44 -1.111,-2.552 0.457,-1.244 1.635,-3.337999 2.684,-5.105 1.766,-3.076 4.449,-7.068 4.711,-7.527 -0.262,-0.262 -1.178,-0.458 -1.178,-0.458 -0.852,0.72 -3.533,4.124 -5.105,6.61 -0.916,1.440001 -3.599999,6.218 -3.794999,6.741 -0.851997,0 -0.981999,-1.438999 -0.785003,-2.486999 C 98.830003,43.917 101.449,34.754 101.711,33.968 l -1.244,-0.327 C 99.614998,35.604 96.998004,44.309001 96.213001,47.451 95.69,47.385 94.640999,46.6 94.248,46.207 93.855001,45.814 93.855001,45.421001 93.922003,44.702001 93.988003,43.916 95.361004,34.099001 96.213001,32.463 96.998004,30.892 100.531,27.62 103.674,24.020001 c 3.207,-3.534 6.086,-7.265001 6.871,-8.247001 0.393,-0.589 0.393,-0.982 0.393,-1.636 0,-2.814 -1.047,-13.286 -1.178,-14.137 h -3.207 c 0.131,1.702 1.637,8.966 1.834,10.865 0.195,1.309 -0.131,2.553 -0.328,3.142 -0.59,1.963 -2.945,5.825 -5.498,8.377 -2.355,2.356001 -6.871,5.498 -7.787,6.348 -0.917996,0.852 -1.965001,2.356 -2.422002,3.666001 -0.327994,0.851 -0.522993,2.552 -0.784995,3.206999 -2.291005,0.131 -9.557004,-1.113 -10.539004,-1.113 -0.915999,0.982 -5.627998,7.2 -6.217998,7.592 0.785999,0.131 15.643003,2.226001 16.625003,2.487001 0,2.617999 1.634995,4.516999 4.579998,4.844 0.066,0.326999 3.206997,2.355999 5.040998,3.534 C 97.259003,56.418 87.638003,65.515 87.638003,65.515 88.292001,65.712001 98.111,67.675001 98.111,67.675001 c 0.85,-0.721 12.5,-11.650001 13.547,-12.566 1.047,0.981 5.957,5.104 7.068,5.825 0.459,0.262 1.18,0.982 1.834,1.046999 0.98,0.066 3.926,-1.046999 4.58,-1.439 h 0.131 c 0.523,1.047001 1.375,2.421 1.703,2.683 0.523,0.328001 0.916,0.525001 1.57,0.262001 1.768,-0.654001 4.844,-3.272 7.002,-4.777001 1.965,-1.374999 6.611,-4.582 8.379,-6.414 l 12.174,2.029 z M 124.159,120.102 V 95.100004 c 0,-4.123 -3.535,-5.36701 -4.713,-5.36701 h -4.908 c -0.262,0 -0.59,-0.064 -0.59,-0.653993 v -17.148 h -0.459 L 112.966,72.454 V 57.794001 c -0.523,-0.458 -0.98,-0.786001 -1.178,-1.047001 v 16.754001 l -5.693,4.975001 v 11.258002 h -3.469 c -0.262,0 -0.59,-0.064 -0.59,-0.654001 V 71.932001 h -0.393 l -4.776996,4.32 v -7.266 c -0.328001,-0.131 -0.721,-0.195001 -1.178001,-0.262 v 8.574 l -1.308998,1.178001 V 123.964 H 103.803 v -0.523 c -0.459,-0.131 -1.57,-1.965 -1.768,-3.469 V 96.802004 c 0,-0.523 0.328,-0.588 0.59,-0.588 h 1.57 c 0.131,0 0.262,0.064 0.393,-0.393 0.197,-0.52501 0.916,-2.422 1.506,-3.928 V 123.963 h 9.555 v -0.523 c -0.457,-0.131 -1.504,-1.965 -1.701,-3.469 V 96.800994 c 0,-0.523 0.328,-0.58799 0.59,-0.58799 h 1.504 c 0.328,0 0.523,0.25999 0.523,0.58799 V 123.963 h 9.688 v -0.523 c -0.524,-0.131 -2.094,-1.701 -2.094,-3.338 z m 38.549,-30.369006 h -3.664 V 52.296 l -1.18,1.897 v 35.539994 h -0.393 c -0.588,0.59001 -1.439,1.57001 -1.963,2.02901 -0.328,0.32599 -0.59,0.393 -0.59,-0.066 v -1.96301 H 148.57 V 54.586 l -1.178,-0.195999 v 35.342993 h -0.459 V 123.963 h 9.688 v -0.459 c -1.047,-0.719 -1.703,-2.225 -1.703,-3.6 0,-0.326 0.066,-8.836 0.066,-20.355006 0.59,-0.65399 1.244,-1.24199 1.701,-1.70099 0.45901,-0.39301 0.785,-0.32601 0.785,0.197 V 106.945 l 6.938,-7.264006 v -8.05099 c 0.001,-1.045 -0.456,-1.89701 -1.7,-1.89701 z M 144.382,113.883 c -0.588,1.768 -1.766,3.207 -4.516,3.207 h -4.713 c -0.262,0 -0.85,-0.326 -0.85,-0.785 v -2.617 c 1.178,-1.244 8.77,-9.033 9.229,-9.557 0.393,-0.588 1.111,-1.635 1.111,-3.207 v -8.899996 c 0,-1.701 -1.111,-2.29101 -2.553,-2.29101 h -9.947 c -0.654,0 -1.309,0.064 -1.832,0.13101 V 64.143001 c -0.459,0.26 -0.852,0.522999 -1.244,0.719 v 25.329993 c -1.637,0.71901 -2.486,2.15801 -2.486,4.97301 V 119.841 c 0,1.963 1.504,4.123 3.6,4.123 h 11.977 c 0.852,0 2.617,-0.393 2.617,-1.637 v -8.443 h -0.393 z M 134.304,96.932004 c 0,-0.785 0.326,-1.047 0.719,-1.047 h 1.049 c 0.588,0 0.719,0.131 0.719,0.721 V 100.991 c 0,0.524 -0.131,1.439 -0.588,2.16 -0.328,0.523 -1.244,1.309 -1.898,1.896 z m -93.07,-2.224 V 119.056 c 0,2.945 -1.702,4.908 -5.562999,4.908 h -6.545 C 25.33,123.964 23.563,122.001 23.563,119.056 V 94.708004 c 0,-2.94501 1.768,-4.97501 5.563001,-4.97501 h 6.545 c 3.860999,0 5.562999,2.02901 5.562999,4.97501 z m -7.527,2.224 c 0,-0.45901 -0.196,-0.719 -0.588999,-0.719 H 31.744 c -0.458,0 -0.654,0.25999 -0.654,0.719 V 116.828 c 0,0.393 0.196,0.721 0.654,0.721 h 1.374001 c 0.392999,0 0.588999,-0.328 0.588999,-0.721 z m 5.367001,-24.281003 v 0.326 L 32.006,80.963002 H 10.407 c -1.178,0 -1.701,0.784995 -1.701,1.766 V 115.127 c 0,0.523 0.065,0.916 0.654,0.916 h 2.945 c 0.393,0 0.851,-0.064 0.851,-0.721 V 93.135994 c 0,-0.85199 -0.981,-2.881 -2.16,-2.94499 v -0.459 h 9.490001 c 0.588999,0 0.654999,0.26199 0.654999,0.852 V 126.385 h -0.393 c -0.655,-2.096 -1.962999,-2.422 -3.534,-2.422 H 7.069 c -1.505,0 -7.068,-1.768 -7.068,-6.545 V 80.570003 C 0.001,75.136 2.75,72.650001 7.79,72.650001 Z m 44.373996,35.015999 -1.569998,1.57 c -0.262001,0.328 -0.457996,0.59 -0.457996,0.982 v 6.609 c 0,0.393 0.196997,0.59 0.457996,0.59 h 1.569998 c 0.262002,0 0.590003,-0.066 0.590003,-0.59 v -9.098 c 0,-0.325 -0.262002,-0.392 -0.590003,-0.063 z m -9.685996,11.388 v -8.117 c 0,-0.393 0.065,-2.486 0.981,-3.664 0.981999,-1.178 8.902,-8.181996 9.293997,-8.641006 v -1.50399 c 0,-0.26201 -0.196997,-0.916 -0.784995,-0.916 H 79.325 c -1.178001,0 -2.879999,0.719 -3.992999,2.41999 H 74.874 c 0.524001,-1.111 2.095001,-5.30099 2.422004,-6.02099 0.522993,-1.50401 2.094996,-2.87901 4.777997,-2.87901 H 87.964 c 2.095998,0 3.863,2.61701 3.863,4.32001 V 120.102 c 0,1.178 0.653998,3.01 1.047004,3.338 v 0.523 h -6.873 c -0.457001,-0.197 -1.701002,-2.945 -1.768004,-3.338 -0.064,-0.328 -0.262002,-0.523 -0.457002,-0.197 -0.196996,0.262 -1.308998,3.076 -1.897999,3.535 h -3.729998 c -2.75,0 -4.386,-2.421 -4.386,-4.908 z M 51.182,79.196 60.476001,71.014001 H 60.803 V 117.483 c 0,2.291 0,4.779 1.767001,6.021 v 0.459 h -7.068 C 55.175,123.701 53.997,121.867 53.735,120.887 53.473,119.971 53.408001,120.559 53.211001,120.756 53.015,121.018 51.771,123.111 51.575,123.44 c -0.262,0.393 -0.457999,0.588 -0.851,0.588 h -2.356 c -3.075999,0 -4.908999,-2.355 -4.908999,-6.545 V 95.100004 c 0,-4.123 3.206999,-5.36701 4.450999,-5.36701 h 4.909001 c 0.262,0 0.589,-0.064 0.589,-0.653993 v -7.068 c 0,-1.569998 -0.786001,-2.422002 -2.226001,-2.422002 z m 1.636001,17.017004 H 51.313 c -0.326999,0 -0.523,0.25999 -0.523,0.58799 V 116.828 c 0,0.393 0.196001,0.59 0.523,0.59 h 1.505001 c 0.262,0 0.589,-0.066 0.589,-0.59 V 96.800994 c 10e-4,-0.523 -0.327,-0.58799 -0.589,-0.58799 z M 51.117001,49.612 c -0.393001,0.589 -1.505001,1.702 -2.16,2.225001 V 44.376 c 0,-0.393 0.197,-0.72 0.589,-0.72 H 51.182 c 0.261,0 0.523001,0.196 0.523001,0.655001 V 47.911 c 0,0.458 -0.196,1.112 -0.588,1.701 z M 56.68,37.111 H 46.863001 C 43.067,37.111 41.365,39.009 41.365,41.954 v 24.937001 c 0,1.963 1.439,4.123 3.534,4.123 h 11.846 c 0.851,0 2.553,-0.393001 2.553,-1.637 V 61 H 58.97 c -0.589,1.702001 -1.766999,3.207 -4.449999,3.207 H 49.873 c -0.326999,0 -0.916999,-0.393 -0.916999,-0.784999 V 60.803 c 1.243999,-1.177999 8.705,-8.965999 9.098,-9.49 0.458,-0.589 1.177999,-1.635999 1.177999,-3.142 v -8.834999 c 0,-1.701 -1.113,-2.225001 -2.552,-2.225001 z m 17.344,49.874 c 0.458001,-0.458998 6.938,-6.610999 6.938,-6.610999 v -3.338 c 0,-2.553 -1.242999,-4.123 -3.533997,-4.516 v -28.471 h -1.178002 v 28.34 h -7.723 c -2.356,0 -5.04,1.242 -5.04,5.169999 0,16.231994 0.131,46.404 0.131,46.404 H 72.323 v -0.459 c -1.177999,-1.439 -1.308999,-2.225 -1.308999,-3.6 V 96.670004 c 0,-0.19701 0.065,-0.457 0.393,-0.457 h 2.422 c 0.326999,0 0.523,-0.13301 0.654,-0.459 0.131,-0.393 2.094999,-5.301 2.16,-5.498 0.195999,-0.393 0.065,-0.52301 -0.393,-0.52301 H 71.472 c -0.261999,0 -0.457999,-0.13099 -0.457999,-0.58999 v -9.686005 c 0,-0.392998 0.196,-0.458998 0.524,-0.458998 h 1.702 c 0.327,0 0.523,0.066 0.523,0.523001 v 7.462996 H 74.024 Z M 38.943,66.891001 V 41.954 c 0,-2.945 -1.702,-4.843 -5.498,-4.843 H 28.602 V 20.225 H 0 v 10.93 h 0.327 c 0.458,-2.291 2.749,-4.254 4.712,-4.254 0.785,0 2.814,0.065 2.814,0.065 v 39.924001 c 0,2.421999 -1.898,3.664 -2.684,3.860999 v 0.262 H 17.212001 V 70.751 C 16.557,70.425001 15.314,69.442001 15.314,66.890001 V 26.9 h 2.683 c 1.244,0 3.142,1.047 3.142,3.142 V 71.013 H 29.91 V 70.687001 C 28.732,69.312 28.601,68.33 28.601,66.955001 V 44.245 44.31 c 0,-0.458 0.196,-0.655 0.523001,-0.655 h 1.571 c 0.392999,0 0.588999,0.327 0.588999,0.72 v 26.638 h 9.032001 V 70.751 C 39.859,70.360001 38.943,68.79 38.943,66.891001 Z m 89.339,-5.563 C 128.085,60.804 127.889,59.953 128.02,58.448 c 2.225,-1.243999 3.992,-1.243999 4.908,0.458001 -1.637,1.243999 -3.143,2.291 -3.861,2.748999 -0.261,0.131001 -0.59,0.131001 -0.785,-0.326999 z M 134.761,57.4 c -0.393,-0.72 -1.373,-1.505 -2.814,-1.505 -1.178,0 -2.553,0.523 -3.6,1.047001 0.785,-1.571 1.703,-3.600001 3.928,-6.479001 l 7.854,1.244001 c -1.572,2.552 -3.798,4.385 -5.368,5.692999 z" id="path4" style="clip-rule:evenodd;fill-rule:evenodd;stroke-width:1;fill:#ffffff"/>
</svg>
