<?xml version="1.0" encoding="UTF-8" standalone="no"?>
<svg xmlns:dc="http://purl.org/dc/elements/1.1/" xmlns:cc="http://creativecommons.org/ns#" xmlns:rdf="http://www.w3.org/1999/02/22-rdf-syntax-ns#" xmlns:svg="http://www.w3.org/2000/svg" xmlns="http://www.w3.org/2000/svg" xmlns:sodipodi="http://sodipodi.sourceforge.net/DTD/sodipodi-0.dtd" xmlns:inkscape="http://www.inkscape.org/namespaces/inkscape" version="1.1" id="Layer_1" x="0px" y="0px" width="968.75098" height="247.345" viewBox="0 0 968.75098 247.34501" enable-background="new 0 0 1000 247.346" xml:space="preserve"><metadata id="metadata9"/><defs id="defs7"/>
<g id="g12" style="fill:#ffffff"><path fill-rule="evenodd" clip-rule="evenodd" d="m 689.06,48.895 6.539,-3.684 0.089,-0.165 32.913,-19.087 0.152,66.087 7.012,0.112 0.014,0.329 0.092,0.561 0.085,34.216 -6.895,0.194 -0.173,99.412 c 0,7.278 3.655,14.045 7.59,14.045 1.918,0 3.293,-4.355 3.293,-10.44 l -0.59,-191.127 -0.211,-2.361 -0.32,-4.037 c -0.299,-3.666 -3.041,-7.04 -6.494,-7.997 -0.278,-0.074 -0.695,-0.194 -1.261,-0.358 L 773.296,0 l -0.22,96.458 c 0.902,-0.548 1.569,-0.959 2.021,-1.244 1.239,-0.799 1.932,-1.244 2.078,-1.326 2.805,-1.648 6.094,-2.53 9.533,-2.563 h 0.439 l 1.311,0.013 c 1.526,0.034 2.075,0.042 2.707,0.042 0.751,0 1.522,-0.009 2.319,-0.042 2.104,-0.074 3.479,-0.116 4.128,-0.116 5.402,0 10.188,1.938 13.648,5.488 2.729,2.794 4.015,5.262 4.724,9.053 0.606,3.247 1.205,8.499 1.251,11.007 l 1.881,102.794 c 0.09,4.692 1.484,10.592 3.154,13.307 0.886,1.442 2.521,3.344 4.92,5.681 l 0.649,0.64 c 1.978,1.936 2.387,2.202 4.466,2.96 0.637,0.232 1.577,0.583 2.825,1.063 v 0.211 h -45.918 c -1.567,0 -3.149,-1.189 -4.33,-3.255 -0.966,-1.695 -1.483,-3.559 -1.501,-5.414 l -0.628,-103.86 c -0.034,-4.636 -1.923,-7.577 -4.892,-7.577 -2.331,0 -4.221,1.742 -4.221,3.9 v 101.264 c 0,7.425 2.408,12.522 6.83,14.445 0.359,0.151 0.46,0.235 0.46,0.296 0,0.101 -0.21,0.168 -0.519,0.185 l -0.417,0.017 h -0.071 -1.173 l -64.39,-0.067 c -8.445,-0.008 -13.104,-1.206 -16.062,-4.166 -2.689,-2.689 -4.178,-6.948 -4.212,-12.042 L 693.302,62.361 C 693.273,57.43 688.17,53.88 681.1,53.88 h -0.522 l 8.482,-4.985 m -45.476,2.896 -34.242,20.756 0.178,-31.714 c 0,-5.134 -1.08,-7.189 -3.771,-7.189 -2.395,0 -3.196,1.318 -3.196,5.273 v 0.099 l 0.14,53.052 h 8.778 v 35.96 c -2.349,0.059 -3.668,0.097 -4.743,0.097 h -0.4 l -1.198,-0.017 h -0.117 c -0.902,0 -1.126,0.055 -1.981,0.485 v 16.166 l 1.036,72.611 c 0.178,12.384 4.335,19.936 13.228,24.063 1.122,0.523 1.324,0.676 2.281,1.645 l -86.603,-0.375 c -2.572,-0.013 -3.846,-1.024 -4.601,-3.664 -0.189,-0.675 -0.35,-1.135 -0.472,-1.354 -0.059,-0.105 -0.202,-0.304 -0.446,-0.561 -0.671,0.029 -0.92,0.101 -1.325,0.396 l -3.892,2.816 c -0.342,0.262 -1.387,0.691 -3.124,1.29 l -2.188,0.771 c -2.125,0.729 -4.099,1.102 -5.831,1.059 l -5.523,-0.135 -2.235,0.042 -1.476,0.025 c -8.079,0 -14.041,-3.382 -17.967,-10.221 -2.888,-4.997 -3.495,-8.458 -3.571,-20.391 l -0.662,-100.817 c 0,-12.306 8.728,-20.583 21.74,-20.583 l 5.751,0.126 4.306,-0.035 c 4.432,0 7.425,0.622 10.259,2.146 1.177,0.626 1.29,0.667 2.5,0.829 l -0.131,-20.97 C 523.956,53.374 514.98,42.558 498.239,42.386 l -4.145,-0.04 3.356,-2.184 57.01,-34.746 4.402,-2.587 1.337,221.739 c 0.041,7.754 2.167,14.859 4.447,14.859 1.206,0 2.492,-2.598 2.636,-5.309 l 0.122,-2.144 0.249,-3.672 -0.746,-93.201 0.526,-1.315 -0.105,-0.354 -0.421,0.734 -0.775,-77.095 0.037,-19.473 -0.037,-4.942 c 0,-16.878 10.6,-29.016 25.619,-29.34 l 26.318,-0.564 h 0.152 0.08 c 1.104,0.025 2.594,0.12 4.486,0.242 5.794,0.363 7.055,0.677 10.157,2.46 2.981,1.723 5.887,4.495 7.211,6.852 1.581,2.842 3.162,8.738 3.204,11.981 l 0.405,26.564 -0.182,0.609 -0.013,0.141 0.015,0.19 M 370.127,241.459 c -0.135,0.127 -0.308,0.228 -0.611,0.329 -2.42,0.885 -7.273,1.713 -11.174,1.939 -0.401,0.018 -2.151,0.051 -5.254,0.093 l -6.173,0.067 c -1.682,0.026 -3.773,0.034 -6.291,0.034 -3.77,0 -6.733,-0.034 -8.917,-0.072 l -14.332,-0.324 c -8.024,-0.177 -9.786,-0.565 -14.095,-3.053 -4.082,-2.353 -7.695,-5.903 -9.888,-9.706 -2.441,-4.242 -3.331,-7.919 -3.331,-13.864 v -0.08 l 0.75,-177.388 c 0.088,-20.38 15.234,-36.563 34.238,-36.563 h 0.076 l 222.58,0.947 0.797,0.329 -62.467,38.288 -1.805,0.031 -138.537,-0.567 -4.192,0.119 c -7.383,0.207 -9.347,2.662 -9.347,11.7 v 0.038 l 0.556,147.941 c 0,0.119 0.186,0.811 0.578,2.016 0.278,0.937 0.62,1.703 0.97,2.349 0.965,1.674 3.188,2.894 5.287,2.894 4.566,0 7.834,-4.432 7.834,-10.631 l -0.295,-82.907 c -0.03,-8.502 -0.991,-13.842 -3.205,-17.802 -1.568,-2.82 -3.951,-4.427 -9.318,-6.291 v -0.28 l 67.569,0.219 c -0.936,0.77 -1.063,0.845 -2.703,1.404 -6.995,2.399 -10.946,8.324 -10.946,16.358 l 0.025,126.96 -0.215,9.466 c -2.163,-4.423 -3.887,-5.469 -9.187,-5.469 -2.303,0 -3.757,0.194 -7.059,0.932 l -1.918,0.544 m 325.455,1.738 h -31.755 c -2.028,0 -4.743,-1.603 -6.139,-3.576 -0.911,-1.315 -1.08,-1.468 -1.611,-1.468 -0.472,0 -0.915,0.308 -2.006,1.362 -2.384,2.306 -6.439,3.444 -12.461,3.486 l -3.942,0.035 -3.166,0.084 c -12.886,0 -22.98,-9.732 -23.115,-22.28 l -0.012,-1.408 -0.09,-4.276 -0.092,-31.412 0.207,-7.893 0.07,-3.101 c 0.271,-11.135 6.86,-20.555 18.503,-26.425 l 16.785,-8.458 c 3.997,-2.012 5.827,-4.452 5.827,-7.737 0,-4.745 -3.395,-7.819 -8.622,-7.819 -0.882,0 -2.036,0.025 -3.412,0.104 -0.59,0.023 -1.066,0.04 -1.438,0.04 h -1.404 c -5.371,0 -11.151,2.604 -15.394,6.955 -3.214,3.281 -4.866,6.224 -7.316,13.012 l -0.211,-4.203 -0.092,-29.957 c 0,-9.719 8.58,-16.195 21.466,-16.195 h 0.051 l 32.778,0.156 c 9.403,0.051 17.68,8.591 18.114,18.713 l 0.076,1.743 0.236,3.086 v 104.511 c 0,0.783 0.051,1.67 0.113,2.676 0.506,6.347 1.367,10.529 2.505,12.052 l 5.208,6.999 0.339,1.194 m 232.4,-152.123 10.279,-5.648 0.025,0.868 c 0.102,3.152 0.181,6.337 0.181,7.969 v 4.988 l 0.161,4.796 c 0.017,0.338 0.089,0.437 0.363,0.437 l 0.214,-0.009 c 4.486,-10.341 8.34,-13.385 16.959,-13.385 8.964,0 12.587,4.543 12.587,15.729 0,0.552 -0.014,1.248 -0.03,2.081 l -0.822,34.022 c -0.08,3.02 -0.097,3.336 -0.354,5.225 l -0.418,-0.076 0.013,-0.591 c 0,-3.221 -0.792,-8.297 -2.146,-13.669 -0.425,-1.683 -0.999,-3.184 -1.721,-4.448 -1.572,-2.739 -4.798,-4.275 -8.938,-4.275 -6.426,0 -11.491,4.22 -11.491,9.563 l 0.135,81.34 0.195,5.166 v 1.762 c 0,6.477 3.439,12.793 8.47,15.542 2.91,1.603 6.933,2.998 11.938,4.204 l 2.913,0.691 -77.127,-0.228 -1.32,-0.169 c 0.473,-0.202 0.843,-0.32 1.096,-0.383 0.102,-0.034 0.468,-0.063 1.093,-0.114 2.955,-0.266 6.11,-2.057 9.424,-5.338 3.693,-3.669 6.375,-8.847 6.388,-12.376 l 0.519,-106.643 c 0,-1.951 -0.746,-4.756 -1.758,-6.644 -0.46,-0.838 -1.037,-1.473 -1.674,-1.844 -0.144,-0.091 -0.785,-0.363 -1.881,-0.837 -0.409,-0.185 -1.008,-0.497 -1.779,-0.934 L 927.984,91.22 V 91.074 M 122.396,37.44 l 9.976,0.125 v 1.602 l 0.801,63.073 c 0.569,-0.078 0.674,-0.133 1.046,-0.462 3.415,-3.036 8.433,-4.197 18.215,-4.197 10.879,0 16.93,2.267 19.763,7.392 1.868,3.407 3.234,9.116 3.285,13.801 l 1.484,108.924 c 0.123,8.746 5.208,15.407 13.413,17.617 0.472,0.117 0.788,0.236 0.948,0.333 0.249,0.16 0.409,0.24 0.489,0.266 0.278,0.037 0.342,0.063 0.342,0.16 0,0.097 -0.051,0.21 -0.135,0.337 l -47.828,-0.177 c -1.214,-2.412 -1.881,-4.452 -1.881,-5.826 l -0.442,-103.115 c 0,-0.548 -0.046,-1.354 -0.152,-2.407 -0.097,-1.08 -0.16,-1.805 -0.19,-2.159 -0.202,-2.445 -1.392,-3.689 -3.567,-3.689 -2.648,0 -4.17,2.222 -4.17,6.093 v 0.046 l 0.654,100.551 c 0.013,2.969 2.395,7.543 4.849,9.344 0.755,0.553 0.826,0.65 1.054,1.147 L 5.114,245.524 4.95,245.119 c 8.656,-0.642 13.088,-1.695 17.25,-4.09 5.916,-3.416 11.119,-11.038 11.979,-17.532 l 1.122,-8.488 0.223,-2.284 L 34.84,85.742 34.663,81.565 V 80.82 79.955 l 0.025,-1.969 -0.025,-0.928 c -0.08,-1.217 -0.105,-2.016 -0.105,-2.415 l 0.017,-1.315 c 0,-1.305 -0.717,-1.895 -2.269,-1.895 -0.911,0 -2.29,0.12 -4.12,0.348 l -2.863,0.378 C 19.538,72.905 11.383,78.664 8.499,84.036 L 7.731,85.474 6.59,87.317 c -0.46,0.738 -1.328,2.854 -2.619,6.344 -0.683,1.867 -1.223,3.548 -1.636,5.084 -0.814,3.032 -1.054,6.007 -1.35,15.989 -0.059,2.012 -0.177,5.048 -0.35,9.072 L 0.378,123.555 0.306,121.599 0,36.873 122.396,37.44 m 529.997,128.975 0.671,-0.642 c 0.084,0.299 0.105,0.413 0.105,0.671 l 0.21,36.999 v 0.038 c 0,3.588 -1.531,5.793 -4.044,5.793 -2.689,0 -4.182,-2.492 -4.287,-7.113 l -0.354,-16.503 1.885,-9.234 c 0.155,-0.699 0.392,-1.425 0.746,-2.243 0.873,-1.999 1.333,-3.036 1.37,-3.111 l 0.654,-0.961 1.476,-2.218 1.568,-1.476 m 172.634,-61.201 1.333,-2.673 v 0.44 c 3.124,-4.438 4.748,-6.023 8.21,-8 1.567,-0.902 2.871,-1.493 3.846,-1.781 2.023,-0.567 5.308,-0.926 8.626,-0.926 h 0.114 l 29.431,0.104 c 5.25,0.011 10.411,1.537 14.661,4.332 5.334,3.5 7.468,8.208 7.767,17.111 0.055,1.635 0.08,2.628 0.105,2.958 l 0.3,3.928 v 20.781 c 0,9.984 -3.293,17.765 -9.425,22.263 l -19.007,13.948 c -8.168,5.979 -11.899,11.84 -11.899,18.705 0,4.439 0.691,9.233 1.543,10.793 0.354,0.671 1.286,1.519 2.69,2.463 1.72,1.156 3.728,1.775 5.798,1.775 l 4.92,-0.291 1.4,-0.024 c 11.751,-0.11 18.895,-9.551 21.571,-28.441 0.46,-3.255 1.21,-8.104 2.243,-14.551 l 0.287,0.27 v 2.244 l 0.363,41.616 0.004,0.62 c 0.063,2.037 -0.047,3.908 -0.278,5.596 l -0.713,4.925 c -0.295,2.04 -0.506,3.271 -0.603,3.706 -0.215,0.877 -0.718,2.02 -1.45,3.437 -0.119,0.228 -0.237,0.438 -0.354,0.653 -2.425,4.287 -4.533,6.493 -8.303,8.682 -6.587,3.846 -10.524,4.402 -30.6,4.402 -9.654,0 -12.855,-0.338 -16.769,-1.813 -0.868,-0.32 -1.864,-0.742 -2.968,-1.23 -1.789,-0.76 -2.872,-1.249 -3.201,-1.442 -1.914,-1.089 -3.916,-3.138 -5.844,-5.938 -0.32,-0.48 -0.51,-0.788 -0.586,-0.936 -0.738,-1.561 -1.409,-4.048 -1.953,-7.412 -0.59,-3.619 -0.896,-6.549 -0.896,-8.754 l -0.363,-111.54 m -351.718,58.227 0.519,0.296 c -0.443,0.396 -0.569,0.645 -0.569,1.049 v 0.072 l 0.105,1.648 0.093,55.793 c 0,12.396 -10.398,20.492 -26.319,20.492 h -30.839 c -6.991,0 -14.366,-4.031 -17.528,-9.56 -2.053,-3.609 -3.44,-10.254 -3.47,-16.515 L 394.938,115.29 c 0,-16.333 6.806,-23.967 21.39,-23.967 h 33.711 c 15.677,0 22.74,8.463 22.904,27.361 l 0.366,44.757 m -35.136,-34.891 0.316,75.821 c 0,3.298 -1.366,4.929 -4.132,4.929 -3.061,0 -5.106,-3.015 -5.131,-7.614 l -0.489,-66.747 0.118,-5.338 c 0.093,-4.042 1.354,-5.591 4.495,-5.591 2.808,-0.001 4.811,1.882 4.823,4.54 m 86.349,5.263 0.305,61.139 c 0,6.982 -2.239,11.447 -5.723,11.447 -1.572,0 -2.285,-0.708 -2.946,-2.963 l -0.554,-1.868 -0.479,-70.833 v -0.038 c 0,-4.438 1.487,-6.643 4.527,-6.643 2.965,0 4.77,2.349 4.77,6.141 v 0.371 l -0.013,0.422 v 0.641 l 0.113,2.184 m -44.327,20.408 0.143,-0.119 v 0.27 l -0.05,0.064 -0.156,0.118 v -0.288 l 0.063,-0.045 m 72.979,36.64 0.102,-0.067 v 0.316 h -0.203 l 0.102,-0.206 v -0.043 m 305.426,-37.716 0.063,-25.037 c 0.012,-4.054 1.214,-5.544 4.486,-5.544 2.816,0 4.639,2.115 4.697,5.439 l 0.131,8.434 c 0,0.168 -0.102,0.721 -0.291,1.66 -0.021,0.043 -0.089,0.523 -0.24,1.485 -0.473,3.061 -1.944,6.156 -4.141,8.74 l -4.019,4.735 -0.686,0.088 M 605.277,3.243 V 3.196 h 0.265 l 0.047,0.047 0.102,0.156 h -0.148 L 605.488,3.348 605.32,3.3 605.277,3.243 m -345.225,175.34 0.093,3.786 0.181,43.396 c 0,12.38 -11.676,21.58 -27.374,21.58 h -0.435 l -0.464,-0.025 -25.366,-0.426 c -13.025,-0.225 -23.701,-10.659 -23.764,-23.241 l -0.459,-92.813 0.131,-2.732 v -0.922 l 0.038,-2.154 0.072,-3.242 c 0.202,-9.226 4.406,-16.889 11.473,-20.975 3.032,-1.739 4.824,-2.167 10.255,-2.399 5.304,-0.247 8.277,-0.358 8.888,-0.358 h 0.042 l 23.528,0.042 c 15.146,0.029 22.997,8.492 23.085,24.879 l 0.199,33.654 c 0,8.239 -5.127,15.475 -15.492,21.854 l -16.014,9.854 c -6.388,3.938 -10.317,9.9 -10.317,15.651 0,6.565 5.38,10.433 14.563,10.433 16.563,0 25.497,-10.154 26.387,-29.959 0.143,-3.159 0.193,-3.53 0.75,-5.883 m -42.717,-17.929 v -0.059 l -0.013,-0.296 -0.072,-0.535 -0.265,-24.072 v -0.059 c 0,-3.804 1.497,-5.794 4.347,-5.794 2.939,0 5.279,3.214 5.279,7.262 v 5.531 c 0,7.46 -4.119,15.476 -9.276,18.022 M 74.413,72.321 c 1.062,-0.573 1.391,-0.664 2.576,-0.664 h 2.677 l 2.556,-0.021 c 3.149,0 7.455,2.06 10.65,5.108 4.288,4.076 5.633,8.34 5.992,18.85 l 0.438,13.315 0.67,87.728 v 28.664 c 0,11.654 -4.47,19.046 -11.516,19.046 -7.24,0 -13.105,-6.759 -13.151,-15.149 L 74.413,72.321" id="path2" style="fill:#ffffff"/></g>
</svg>
