<?xml version="1.0" encoding="UTF-8"?>
<svg xmlns="http://www.w3.org/2000/svg" xmlns:xlink="http://www.w3.org/1999/xlink" width="1132.41pt" height="764.33pt" viewBox="0 0 1132.41 764.33" version="1.1">
<defs>
<clipPath id="clip1">
  <path d="M 0 0 L 1132.410156 0 L 1132.410156 609 L 0 609 Z M 0 0 "/>
</clipPath>
<clipPath id="clip2">
  <path d="M 361 699 L 435 699 L 435 764.328125 L 361 764.328125 Z M 361 699 "/>
</clipPath>
<clipPath id="clip3">
  <path d="M 629 698 L 709 698 L 709 764.328125 L 629 764.328125 Z M 629 698 "/>
</clipPath>
</defs>
<g id="surface1">
<g clip-path="url(#clip1)" clip-rule="nonzero">
<path style=" stroke:none;fill-rule:nonzero;fill:rgb(13.699341%,12.199402%,12.5%);fill-opacity:1;" d="M 565.179688 212.328125 L 673.378906 502.351563 L 782.464844 502.351563 L 963.402344 0.00390625 L 856.972656 0.00390625 L 728.574219 332.066406 L 642.378906 97.917969 L 488.632813 97.917969 L 399.109375 332.066406 L 275.867188 0.00390625 L 165.179688 0.00390625 L 343.480469 502.351563 L 459.101563 502.351563 Z M 919.550781 608.78125 L 1132.410156 0.00390625 L 1025.980469 0.00390625 L 813.121094 608.78125 Z M 323.546875 608.78125 L 110.6875 0.00390625 L 0 0.00390625 L 212.859375 608.78125 L 323.546875 608.78125 "/>
</g>
<path style=" stroke:none;fill-rule:nonzero;fill:rgb(13.699341%,12.199402%,12.5%);fill-opacity:1;" d="M 277.867188 700.078125 L 262.796875 700.078125 L 246.390625 748.59375 L 231.714844 700.078125 L 213.972656 700.078125 L 199.414063 748.59375 L 182.808594 700.078125 L 166.441406 700.078125 L 189.734375 763.347656 L 208.265625 763.347656 L 222.785156 716.996094 L 236.949219 763.347656 L 255.480469 763.347656 L 277.867188 700.078125 "/>
<path style=" stroke:none;fill-rule:nonzero;fill:rgb(13.699341%,12.199402%,12.5%);fill-opacity:1;" d="M 350.65625 763.347656 L 350.65625 750.597656 L 303.285156 750.597656 L 303.285156 737.96875 L 348.730469 737.96875 L 348.730469 725.300781 L 303.285156 725.300781 L 303.285156 712.828125 L 350.105469 712.828125 L 350.105469 700.078125 L 288.296875 700.078125 L 288.296875 763.347656 L 350.65625 763.347656 "/>
<g clip-path="url(#clip2)" clip-rule="nonzero">
<path style=" stroke:none;fill-rule:nonzero;fill:rgb(13.699341%,12.199402%,12.5%);fill-opacity:1;" d="M 434.617188 744.34375 C 434.617188 739.070313 432.691406 734.898438 428.835938 731.910156 C 424.980469 728.917969 418.960938 726.992188 410.777344 726.125 L 397.125 724.511719 C 391.8125 723.882813 387.878906 723.292969 385.359375 722.703125 C 382.839844 722.152344 381.03125 721.484375 379.96875 720.695313 C 378.867188 719.910156 378.355469 718.769531 378.355469 717.273438 C 378.355469 715.699219 378.90625 714.480469 380.089844 713.652344 C 381.226563 712.867188 383.078125 712.277344 385.632813 711.882813 C 388.191406 711.488281 391.695313 711.292969 396.179688 711.292969 C 409.714844 711.292969 416.480469 714.085938 416.480469 719.671875 L 432.613281 719.671875 C 432.613281 717.074219 431.945313 714.519531 430.644531 712.039063 C 429.347656 709.601563 427.300781 707.398438 424.46875 705.46875 C 421.636719 703.582031 417.9375 702.046875 413.453125 700.867188 C 408.964844 699.726563 403.496094 699.136719 397.125 699.136719 C 389.882813 699.136719 383.707031 699.921875 378.511719 701.417969 C 373.320313 702.910156 369.386719 705.113281 366.710938 707.949219 C 363.996094 710.820313 362.65625 714.203125 362.65625 718.0625 C 362.65625 723.371094 364.742188 727.425781 368.953125 730.257813 C 373.164063 733.089844 379.96875 735.097656 389.410156 736.199219 L 402.121094 737.734375 C 406.644531 738.203125 410.066406 738.757813 412.390625 739.308594 C 414.671875 739.898438 416.285156 740.644531 417.230469 741.511719 C 418.171875 742.375 418.644531 743.675781 418.644531 745.363281 C 418.644531 747.84375 417.109375 749.574219 414.121094 750.597656 C 411.132813 751.621094 406.449219 752.132813 400.113281 752.132813 C 393.109375 752.132813 387.679688 751.308594 383.902344 749.652344 C 380.089844 748 378.199219 745.757813 378.199219 742.964844 L 361.910156 742.964844 C 361.910156 747.488281 363.40625 751.386719 366.394531 754.609375 C 369.386719 757.835938 373.632813 760.277344 379.222656 761.890625 C 384.808594 763.542969 391.535156 764.328125 399.40625 764.328125 C 410.933594 764.328125 419.667969 762.636719 425.648438 759.214844 C 431.628906 755.832031 434.621094 750.875 434.621094 744.34375 L 434.617188 744.34375 "/>
</g>
<path style=" stroke:none;fill-rule:nonzero;fill:rgb(13.699341%,12.199402%,12.5%);fill-opacity:1;" d="M 511.816406 712.75 L 511.816406 700.078125 L 440.835938 700.078125 L 440.835938 712.75 L 468.574219 712.75 L 468.574219 763.347656 L 484.117188 763.347656 L 484.117188 712.75 L 511.816406 712.75 "/>
<path style=" stroke:none;fill-rule:nonzero;fill:rgb(13.699341%,12.199402%,12.5%);fill-opacity:1;" d="M 626.625 700.078125 L 611.554688 700.078125 L 595.148438 748.59375 L 580.472656 700.078125 L 562.726563 700.078125 L 548.171875 748.59375 L 531.566406 700.078125 L 515.199219 700.078125 L 538.492188 763.347656 L 557.023438 763.347656 L 571.539063 716.996094 L 585.707031 763.347656 L 604.238281 763.347656 L 626.625 700.078125 "/>
<g clip-path="url(#clip3)" clip-rule="nonzero">
<path style=" stroke:none;fill-rule:nonzero;fill:rgb(13.699341%,12.199402%,12.5%);fill-opacity:1;" d="M 669.117188 751.898438 C 663.292969 751.898438 658.613281 751.070313 654.992188 749.339844 C 651.371094 747.609375 648.816406 745.363281 647.28125 742.53125 C 645.746094 739.738281 645 736.078125 645 731.59375 C 645 727.265625 645.785156 723.609375 647.398438 720.617188 C 648.972656 717.625 651.648438 715.347656 655.425781 713.773438 C 659.164063 712.195313 663.6875 711.371094 669.039063 711.371094 C 672.65625 711.371094 675.882813 711.726563 678.675781 712.355469 C 681.433594 712.984375 683.910156 714.007813 686.035156 715.425781 C 688.160156 716.839844 689.65625 718.21875 690.519531 719.59375 C 691.386719 720.972656 692.054688 722.664063 692.527344 724.707031 C 693 726.753906 693.273438 729.035156 693.273438 731.59375 C 693.273438 738.046875 691.78125 742.691406 688.828125 745.523438 C 686.390625 747.882813 683.597656 749.535156 680.449219 750.480469 C 677.261719 751.425781 673.484375 751.898438 669.117188 751.898438 Z M 669.117188 698.820313 C 662.625 698.820313 656.960938 699.527344 652.160156 700.945313 C 647.320313 702.359375 643.109375 704.566406 639.527344 707.59375 C 635.949219 710.625 633.390625 714.046875 631.816406 717.863281 C 630.242188 721.679688 629.457031 726.164063 629.457031 731.359375 C 629.457031 742.0625 632.921875 750.242188 639.84375 755.871094 C 646.769531 761.535156 656.527344 764.328125 669.117188 764.328125 C 677.890625 764.328125 685.210938 763.109375 691.03125 760.671875 C 696.855469 758.230469 701.261719 754.53125 704.253906 749.535156 C 707.242188 744.578125 708.738281 738.519531 708.738281 731.359375 C 708.738281 725.890625 707.949219 721.246094 706.457031 717.390625 C 704.921875 713.535156 702.402344 710.191406 698.941406 707.28125 C 695.4375 704.40625 691.230469 702.28125 686.308594 700.90625 C 681.351563 699.527344 675.648438 698.820313 669.117188 698.820313 "/>
</g>
<path style=" stroke:none;fill-rule:nonzero;fill:rgb(13.699341%,12.199402%,12.5%);fill-opacity:1;" d="M 775.269531 719.75 C 775.269531 722.269531 774.640625 724 773.382813 725.023438 C 772.121094 726.046875 769.960938 726.519531 766.890625 726.519531 L 737.734375 726.519531 L 737.734375 712.511719 L 766.023438 712.511719 C 768.34375 712.511719 770.15625 712.789063 771.453125 713.339844 C 772.714844 713.890625 773.695313 714.636719 774.324219 715.582031 C 774.957031 716.566406 775.269531 717.941406 775.269531 719.75 Z M 790.183594 718.53125 C 790.183594 712.277344 788.214844 707.632813 784.28125 704.605469 C 780.34375 701.613281 774.796875 700.078125 767.636719 700.078125 L 722.589844 700.078125 L 722.589844 763.347656 L 737.65625 763.347656 L 737.65625 738.675781 L 762.207031 738.675781 L 779.046875 763.347656 L 796.320313 763.347656 L 777.355469 736.355469 C 780.894531 735.804688 783.925781 734.035156 786.445313 731.082031 C 788.921875 728.171875 790.183594 723.960938 790.183594 718.53125 "/>
<path style=" stroke:none;fill-rule:nonzero;fill:rgb(13.699341%,12.199402%,12.5%);fill-opacity:1;" d="M 864.9375 763.347656 L 864.9375 750.597656 L 823.585938 750.597656 L 823.585938 700.078125 L 808.28125 700.078125 L 808.28125 763.347656 L 864.9375 763.347656 "/>
<path style=" stroke:none;fill-rule:nonzero;fill:rgb(13.699341%,12.199402%,12.5%);fill-opacity:1;" d="M 933.359375 732.183594 C 933.359375 738.164063 932.53125 742.296875 930.960938 744.65625 C 929.464844 746.859375 927.378906 748.433594 924.78125 749.417969 C 922.144531 750.402344 918.761719 750.875 914.671875 750.875 L 892.753906 750.875 L 892.753906 712.511719 L 915.0625 712.511719 C 919.15625 712.511719 922.421875 713.023438 924.898438 714.007813 C 927.339844 715.03125 929.347656 716.605469 930.878906 718.769531 C 932.53125 721.285156 933.359375 725.734375 933.359375 732.183594 Z M 917.816406 763.347656 C 923.246094 763.347656 927.96875 762.71875 931.941406 761.378906 C 935.878906 760.039063 939.105469 758.074219 941.621094 755.398438 C 944.101563 752.722656 945.871094 749.535156 946.933594 745.835938 C 947.957031 742.140625 948.507813 737.144531 948.507813 730.808594 C 948.507813 724.667969 947.878906 719.832031 946.699219 716.25 C 945.515625 712.707031 943.628906 709.71875 941.109375 707.277344 C 938.554688 704.878906 935.289063 703.070313 931.351563 701.890625 C 927.417969 700.707031 922.734375 700.078125 917.347656 700.078125 L 877.609375 700.078125 L 877.609375 763.347656 L 917.816406 763.347656 "/>
</g>
</svg>
