<?xml version="1.0" encoding="iso-8859-1"?>
<!-- Generator: Adobe Illustrator 28.5.0, SVG Export Plug-In . SVG Version: 9.03 Build 54727)  -->
<svg xmlns="http://www.w3.org/2000/svg" xmlns:xlink="http://www.w3.org/1999/xlink" version="1.1" id="Layer_1" x="0px" y="0px" width="2500px" height="500px" viewBox="0 0 2500 500" enable-background="new 0 0 2500 500" xml:space="preserve">
<g id="WESTWORLD">
	<path id="D" fill="#231F20" d="M2161.394,193.285c48.803,0,88.606,13.602,88.606,67.405c0,30.201-21.001,67.604-84.006,67.604   h-81.006V193.285H2161.394z M2117.791,220.487v76.605h44.003c36.403,0,54.203-14.002,54.203-37.603   c0-24.802-18.001-39.002-54.603-39.002H2117.791z"/>
	<path id="L" fill="#231F20" d="M1928.498,295.692h99.607v32.603h-132.209V193.285h32.602V295.692z"/>
	<path id="R" fill="#231F20" d="M1829.19,328.295h-45.403l-36.602-51.603h-40.003v51.603h-32.602V193.285h105.407   c33.403,0,50.004,16.002,50.004,41.804c0,23.202-13.6,38.403-41.403,41.403L1829.19,328.295z M1707.182,222.488v24.201h72.605   c9.601,0,15.802-4.201,15.802-12.601c0-7.601-6.201-11.6-15.802-11.6H1707.182z"/>
	<path id="O" fill="#231F20" d="M1520.709,332.695c-47.404,0-86.806-26.203-86.806-72.005c0-45.603,39.402-71.805,86.806-71.805   c47.403,0,86.806,26.202,86.806,71.805C1607.515,306.493,1568.112,332.695,1520.709,332.695z M1520.709,217.687   c-33.802,0-52.604,16.601-52.604,43.003c0,26.401,18.802,43.002,52.604,43.002c33.802,0,52.603-16.601,52.603-43.002   C1573.312,234.288,1554.511,217.687,1520.709,217.687z"/>
	<path id="W_00000110467380505692687220000013034778614434321068_" fill="#231F20" d="M1337.374,328.295h-39.002l-32.403-86.406   l-31.402,86.406h-37.803l-50.203-135.009h37.402l32.802,93.407l34.002-93.407h31.202l35.003,93.407l33.602-93.407h37.003   L1337.374,328.295z"/>
	<path id="T" fill="#231F20" d="M1098.359,223.487h-54.804v104.807h-32.603V223.487h-54.804v-30.202h142.21V223.487z"/>
	<path id="S" fill="#231F20" d="M866.543,230.888c-5.2-12.001-18.201-15.601-37.003-15.601c-27.002,0-40.403,5.2-40.403,16.001   c0,13.601,13.801,14.002,33.202,14.002c12.801,0,26.402,0,39.203,1.2c16.401,1.401,25.002,5,32.002,11.601   c5.2,5.2,9.4,12.601,9.4,24.801c0,30.202-21.602,49.604-75.005,49.604c-26.402,0-39.803-2.2-49.404-6.801   c-17.001-8.4-25.202-18.001-27.002-38.003h35.802c2,12.601,23.002,17.601,43.003,17.601c21.801,0,38.202-5.6,38.202-18.601   c0-18.802-44.803-9.001-77.005-14.801c-18.801-3.4-37.003-11.2-37.003-40.003c0-26.202,19.802-43.002,74.805-43.002   c46.203,0,64.404,13.601,69.804,40.802L866.543,230.888z"/>
	<path id="E" fill="#231F20" d="M691.431,221.087H582.023v23.801h96.007v28.202h-96.007v24.402h112.208v30.802h-145.01V193.285   h142.21V221.087z"/>
	<path id="W" fill="#231F20" d="M440.813,328.295H401.81l-32.402-86.406l-31.402,86.406h-37.803L250,193.285h37.402l32.802,93.407   l34.002-93.407h31.202l35.002,93.407l33.602-93.407h37.003L440.813,328.295z"/>
</g>
</svg>
