<?xml version="1.0"?>
<svg xmlns="http://www.w3.org/2000/svg" xmlns:xlink="http://www.w3.org/1999/xlink" width="1548px" height="232px">
<path fill-rule="evenodd" fill="rgb(255, 255, 255)" d="M1452.056,231.020 L1446.673,231.020 L1446.673,4.121 L1452.056,4.121 C1509.997,4.121 1547.991,62.268 1547.991,117.570 C1547.991,172.873 1509.997,231.020 1452.056,231.020 ZM1480.868,218.063 C1506.198,210.162 1541.026,167.817 1541.026,117.570 C1541.026,67.324 1506.198,24.978 1480.868,17.078 L1480.868,218.063 ZM1387.287,172.557 L1261.905,57.528 L1261.905,228.175 L1254.939,228.175 L1254.939,5.069 L1387.287,127.051 L1387.287,6.965 L1394.252,6.965 L1394.252,228.175 L1387.287,228.175 L1387.287,172.557 ZM1176.174,191.518 L1031.796,191.518 L1013.748,228.175 L1006.149,228.175 L1119.499,0.013 L1232.532,228.175 L1194.222,228.175 L1176.174,191.518 ZM1104.301,46.151 L1034.962,185.198 L1173.008,185.198 L1104.301,46.151 ZM904.294,6.965 L938.489,6.965 L938.489,221.855 L985.982,221.855 L985.982,228.175 L904.294,228.175 L904.294,6.965 ZM724.273,191.518 L579.894,191.518 L561.847,228.175 L554.248,228.175 L667.598,0.013 L780.631,228.175 L742.320,228.175 L724.273,191.518 ZM652.400,46.151 L583.060,185.198 L721.106,185.198 L652.400,46.151 ZM452.154,6.965 L486.349,6.965 L486.349,221.855 L533.842,221.855 L533.842,228.175 L452.154,228.175 L452.154,6.965 ZM273.539,191.518 L129.160,191.518 L111.114,228.175 L103.514,228.175 L216.865,0.013 L329.898,228.175 L291.586,228.175 L273.539,191.518 ZM201.667,46.151 L132.327,185.198 L270.373,185.198 L201.667,46.151 ZM0.014,6.965 L34.209,6.965 L34.209,221.855 L81.702,221.855 L81.702,228.175 L0.014,228.175 L0.014,6.965 Z"/>
</svg>
