<?xml version="1.0" encoding="UTF-8" standalone="no"?>
<svg xmlns:dc="http://purl.org/dc/elements/1.1/" xmlns:cc="http://creativecommons.org/ns#" xmlns:rdf="http://www.w3.org/1999/02/22-rdf-syntax-ns#" xmlns:svg="http://www.w3.org/2000/svg" xmlns="http://www.w3.org/2000/svg" xmlns:sodipodi="http://sodipodi.sourceforge.net/DTD/sodipodi-0.dtd" xmlns:inkscape="http://www.inkscape.org/namespaces/inkscape" width="1156pt" height="218.56639pt" viewBox="0 0 1156 218.5664" version="1.1" id="svg105">
  <metadata id="metadata109">
    
  </metadata>
  
  <defs id="defs8">
    <clipPath id="clip2">
      <path d="m 161,269 h 38 v 45.32812 h -38 z m 0,0" id="path5"/>
    </clipPath>
  </defs>
  <g id="g181" transform="translate(-158.91016,-95.761719)" style="fill:#ffffff">
    <path style="fill:#ffffff;fill-opacity:1;fill-rule:nonzero;stroke:none" d="m 203.10547,154.72266 c -3.53125,-1.71094 -5.94531,-2.42579 -10.02735,-2.42579 -10.76953,0 -18.7539,5.99219 -18.7539,13.69922 0,7.5625 3.71094,13.55469 15.78125,25.11328 14.11328,13.41016 19.3125,21.40235 19.3125,30.2461 0,12.84375 -14.29688,23.11719 -31.9375,23.11719 -6.6836,0 -12.8125,-1.28516 -18.57031,-3.85157 l 5.01562,-6.5625 c 4.45703,2.85157 8.53906,4.13672 14.10938,4.13672 12.25781,0 22.65625,-7.5625 22.65625,-16.26562 0,-6.85157 -4.64454,-13.5586 -19.5,-28.10938 -11.88282,-11.70312 -15.78125,-18.40625 -15.78125,-26.82422 0,-12.1289 10.95312,-20.54687 26.92578,-20.54687 2.96875,0 5.01172,0.28515 8.16797,0.99609 l 2.60156,7.27735" id="path58"/>
    <g clip-path="url(#clip2)" clip-rule="nonzero" id="g62" style="fill:#ffffff">
      <path style="fill:#ffffff;fill-opacity:1;fill-rule:nonzero;stroke:none" d="m 174.49219,289.09766 c 5.00781,0 8.17968,-0.51954 10.42968,-1.61719 2.65625,-1.35938 4.39454,-4.01172 4.39454,-6.66406 0,-3.10547 -2.25,-5.82422 -5.92969,-7.11719 -1.83985,-0.64453 -4.19141,-0.96875 -8.48828,-0.96875 h -1.83985 v 16.36719 c 0.61328,0 0.92188,0 1.4336,0 z m 1.02343,2.78125 c -0.61718,0 -1.125,0 -1.43359,0 h -1.02344 v 10.74218 c 0,4.52735 0.41016,7.63282 1.22657,10.48047 h -7.15625 c 0.8164,-2.84765 1.125,-5.95312 1.125,-10.48047 v -10.67578 c -0.3086,0 -0.3086,0 -0.81641,0 -2.45703,0.0625 -3.98828,0.12891 -5.92969,0.38672 v -3.6875 c 1.94141,0.25781 3.47266,0.38672 5.92969,0.45313 0.50781,0 0.50781,0 0.81641,0 v -8.60547 c 0,-4.52735 -0.3086,-7.69922 -1.125,-10.54688 h 8.28125 c 5.625,0 8.79296,0.51953 11.65625,1.75 4.5,2.00391 7.16015,5.4336 7.16015,9.31641 0,5.5625 -4.80859,9.3789 -13.1914,10.54687 l 9.8164,12.41797 c 2.45313,3.10547 5.41797,6.40625 7.56641,8.34766 l -5.625,2.0039 c -0.10156,-0.32031 -0.30469,-0.51562 -0.30469,-0.64453 -1.43359,-2.52343 -1.53516,-2.65234 -2.45703,-4.01172 -0.71484,-0.90625 -1.94141,-2.52343 -2.96484,-3.8164 l -10.83594,-13.97656 h -0.71485" id="path60"/>
    </g>
    <path style="fill:#ffffff;fill-opacity:1;fill-rule:nonzero;stroke:none" d="m 294.90234,310.31641 c 2.86328,0 7.36328,-0.12891 11.14453,-0.38672 2.5586,-0.12891 4.39844,-0.32422 6.23829,-0.64844 v 3.82031 h -35.27344 c 0.8164,-2.84765 1.12109,-5.95312 1.12109,-10.48047 v -10.41797 c -0.30469,0 -0.30469,0 -0.8164,0 -2.45313,0.0664 -3.98829,0.12891 -5.92969,0.39063 v -3.625 c 1.9414,0.25781 3.47656,0.32422 5.92969,0.38672 0.51171,0 0.51171,0 0.8164,0 v -8.86328 c 0,-4.52735 -0.30469,-7.69922 -1.12109,-10.54688 h 31.28515 v 3.82031 c -1.83984,-0.32421 -3.78125,-0.51953 -6.33984,-0.64843 -3.67969,-0.19141 -8.28125,-0.38672 -11.04297,-0.38672 h -7.97265 v 16.625 h 10.73437 c 1.94141,0 5.52344,-0.0625 8.17969,-0.25781 2.04687,-0.0664 3.17187,-0.19532 5.01172,-0.38672 v 4.14062 c -1.83985,-0.19531 -2.96485,-0.32422 -5.01172,-0.39062 -2.65625,-0.19141 -6.23828,-0.25782 -8.17969,-0.25782 h -10.73437 v 18.11329 h 11.96093" id="path64"/>
    <path style="fill:#ffffff;fill-opacity:1;fill-rule:nonzero;stroke:none" d="m 395.89844,310.31641 h 4.39843 c 11.04297,0 17.58594,-0.77344 22.1875,-2.58594 7.97657,-3.23438 12.88282,-9.37891 12.88282,-16.17188 0,-7.3125 -5.51953,-13.78125 -14.41797,-16.75781 -4.08985,-1.35937 -10.83594,-2.07031 -20.65235,-2.07031 h -4.39843 z m 5.625,-40.3711 c 11.55468,0 17.99609,0.90625 24.02734,3.23828 9.71484,3.81641 14.92969,10.21875 14.92969,18.375 0,8.60157 -5.92969,15.33203 -16.56641,18.95313 -5.72656,1.8789 -11.75781,2.58984 -22.39062,2.58984 h -11.65625 c 0.8164,-2.84765 1.22656,-5.95312 1.22656,-10.48047 v -22.1289 c 0,-4.52735 -0.41016,-7.69922 -1.22656,-10.54688 h 11.65625" id="path66"/>
    <path style="fill:#ffffff;fill-opacity:1;fill-rule:nonzero;stroke:none" d="m 540.29297,310.31641 c 2.86328,0 7.35937,-0.12891 11.14453,-0.38672 2.55469,-0.12891 4.39844,-0.32422 6.23828,-0.64844 v 3.82031 h -35.27734 c 0.8164,-2.84765 1.125,-5.95312 1.125,-10.48047 v -10.41797 c -0.3086,0 -0.3086,0 -0.82032,0 -2.45312,0.0664 -3.98437,0.12891 -5.92968,0.39063 v -3.625 c 1.94531,0.25781 3.47656,0.32422 5.92968,0.38672 0.51172,0 0.51172,0 0.82032,0 v -8.86328 c 0,-4.52735 -0.3086,-7.69922 -1.125,-10.54688 h 31.28906 v 3.82031 c -1.83984,-0.32421 -3.78516,-0.51953 -6.33984,-0.64843 -3.6836,-0.19141 -8.28125,-0.38672 -11.04297,-0.38672 h -7.97657 v 16.625 h 10.73829 c 1.9414,0 5.51953,-0.0625 8.17968,-0.25781 2.04297,-0.0664 3.16797,-0.19532 5.00782,-0.38672 v 4.14062 c -1.83985,-0.19531 -2.96485,-0.32422 -5.00782,-0.39062 -2.66015,-0.19141 -6.23828,-0.25782 -8.17968,-0.25782 h -10.73829 v 18.11329 h 11.96485" id="path68"/>
    <path style="fill:#ffffff;fill-opacity:1;fill-rule:nonzero;stroke:none" d="m 711.79687,301.64844 c 1.22657,3.23437 2.86329,6.46875 5.00782,9.89843 l 0.41015,0.71485 -7.15625,1.42187 c -0.20703,-3.17187 -1.125,-6.85937 -2.86328,-11.38672 l -9.30469,-23.74609 -22.90625,35.13281 -22.80078,-35.13281 -9.30468,23.74609 c -1.73829,4.52735 -2.65625,8.21485 -2.86329,11.38672 l -7.25781,-1.42187 0.51172,-0.71485 c 2.14453,-3.55859 3.67969,-6.66406 5.00781,-9.89843 l 12.67969,-32.80078 24.02734,37.13671 24.13282,-37.13671 12.67968,32.80078" id="path70"/>
    <path style="fill:#ffffff;fill-opacity:1;fill-rule:nonzero;stroke:none" d="m 804.55859,289.09766 c 5.00782,0 8.17578,-0.51954 10.42578,-1.61719 2.66016,-1.35938 4.39844,-4.01172 4.39844,-6.66406 0,-3.10547 -2.25,-5.82422 -5.93359,-7.11719 -1.83985,-0.64453 -4.1875,-0.96875 -8.48438,-0.96875 H 803.125 v 16.36719 c 0.61328,0 0.92187,0 1.43359,0 z M 797.5,291.94531 c -2.45313,0.0625 -3.98438,0.12891 -5.92969,0.38672 v -3.6875 c 1.94531,0.25781 3.47656,0.38672 5.92969,0.45313 0.51172,0 0.51172,0 0.81641,0 v -8.60547 c 0,-4.52735 -0.30469,-7.69922 -1.125,-10.54688 h 8.28515 c 5.625,0 8.79297,0.51953 11.65625,1.75 4.5,2.00391 7.15625,5.4336 7.15625,9.31641 0,3.6875 -2.45312,6.98437 -6.33984,8.73437 -3.47266,1.55078 -7.46485,2.13282 -13.80469,2.13282 H 803.125 v 10.74218 c 0,4.52735 0.40625,7.63282 1.22656,10.48047 h -7.16015 c 0.82031,-2.84765 1.125,-5.95312 1.125,-10.48047 v -10.67578 c -0.30469,0 -0.30469,0 -0.81641,0" id="path72"/>
    <path style="fill:#ffffff;fill-opacity:1;fill-rule:nonzero;stroke:none" d="m 919.46875,302.62109 c 0,4.52735 0.41016,7.63282 1.125,10.48047 h -7.05859 c 0.82031,-2.84765 1.125,-5.95312 1.125,-10.48047 v -29.89062 h -0.81641 c -5.41797,0 -10.83594,0.32422 -14.72656,0.83984 v -3.625 h 35.99218 v 3.625 c -3.98828,-0.51562 -9.40625,-0.83984 -14.72265,-0.83984 h -0.91797 v 29.89062" id="path74"/>
    <path style="fill:#ffffff;fill-opacity:1;fill-rule:nonzero;stroke:none" d="m 1012.7812,313.07812 c 0.8204,-2.84375 1.2305,-5.94921 1.2305,-10.47656 v -22.1289 c 0,-4.53125 -0.4101,-7.69922 -1.2305,-10.54688 h 7.1602 c -0.8203,2.84766 -1.2305,6.01563 -1.2305,10.54688 v 22.1289 c 0,4.52735 0.4102,7.63281 1.2305,10.47656 h -7.1602" id="path76"/>
    <path style="fill:#ffffff;fill-opacity:1;fill-rule:nonzero;stroke:none" d="m 1134.3203,272.39453 c -15.039,0 -27.75,8.75391 -27.75,19.14063 0,10.32421 12.711,19.07812 27.75,19.07812 15.0391,0 27.7383,-8.75391 27.7383,-19.07812 0,-10.38672 -12.6992,-19.14063 -27.7383,-19.14063 z m 0,40.92578 c -17.8515,0 -32.4219,-9.75781 -32.4219,-21.78515 0,-12.08985 14.5704,-21.84766 32.4219,-21.84766 17.8399,0 32.4102,9.75781 32.4102,21.84766 0,12.02734 -14.5703,21.78515 -32.4102,21.78515" id="path78"/>
    <path style="fill:#ffffff;fill-opacity:1;fill-rule:nonzero;stroke:none" d="m 1253.0391,300.28516 c 0,4.52734 0.2812,7.63281 1.0625,10.48046 h -6.75 c 0.7695,-2.84765 1.1601,-5.95312 1.1601,-10.48046 v -33.76954 l 49.9883,37.26172 v -25.61718 c 0,-4.53125 -0.2891,-7.69922 -1.0586,-10.54688 h 6.7383 c -0.7695,2.84766 -1.1484,6.01563 -1.1484,10.54688 v 33.70703 l -49.9922,-37.26563 v 25.6836" id="path80"/>
    <path style="fill:#ffffff;fill-opacity:1;fill-rule:nonzero;stroke:none" d="m 255.99219,171.13281 c 0,-9.98828 -0.74219,-16.98047 -2.22657,-23.25781 h 13 c -1.48828,6.27734 -2.04296,13.26953 -2.04296,23.25781 v 19.54688 h 71.67187 v -19.54688 c 0,-9.98828 -0.55469,-16.98047 -2.04297,-23.25781 h 12.8125 c -1.48437,6.27734 -2.04297,13.26953 -2.04297,23.25781 v 48.79688 c 0,9.98828 0.5586,16.83984 2.04297,23.11718 h -12.8125 c 1.48828,-6.27734 2.04297,-13.1289 2.04297,-23.11718 v -23.11328 h -71.67187 v 23.11328 c 0,9.98828 0.55468,16.83984 2.04296,23.11718 h -13 c 1.48438,-6.27734 2.22657,-13.1289 2.22657,-23.11718 v -23.11328 c -0.74219,0.14453 -0.74219,0.14453 -1.66797,0.14453 -4.45703,0 -7.24219,0.28125 -10.76953,0.85156 v -7.98828 c 3.52734,0.57031 6.3125,0.71484 10.76953,0.85547 0.92578,0 0.92578,0 1.66797,0 v -19.54688" id="path82"/>
    <path style="fill:#ffffff;fill-opacity:1;fill-rule:nonzero;stroke:none" d="m 792.20312,171.13281 c 0,-9.98828 -0.74218,-16.98047 -2.22656,-23.25781 h 13 c -1.48828,6.27734 -2.04297,13.26953 -2.04297,23.25781 v 19.54688 h 71.67188 v -19.54688 c 0,-9.98828 -0.55469,-16.98047 -2.04297,-23.25781 h 12.8125 c -1.48438,6.27734 -2.04297,13.26953 -2.04297,23.25781 v 48.79688 c 0,9.98828 0.55859,16.83984 2.04297,23.11718 h -12.8125 c 1.48828,-6.27734 2.04297,-13.1289 2.04297,-23.11718 v -23.11328 h -71.67188 v 23.11328 c 0,9.98828 0.55469,16.83984 2.04297,23.11718 h -13 c 1.48438,-6.27734 2.22656,-13.1289 2.22656,-23.11718 v -23.11328 c -0.74218,0.14453 -0.74218,0.14453 -1.67187,0.14453 -4.45703,0 -7.24219,0.28125 -10.76563,0.85156 v -7.98828 c 3.52344,0.57031 6.3086,0.71484 10.76563,0.85547 0.92969,0 0.92969,0 1.67187,0 v -19.54688" id="path84"/>
    <path style="fill:#ffffff;fill-opacity:1;fill-rule:nonzero;stroke:none" d="m 439.99609,158.16797 -18.19922,32.39062 h 36.39454 z m -21.53906,38.52344 -12.44141,22.11718 c -5.01562,8.98828 -5.38671,9.84375 -9.10156,17.97657 -2.03906,4.28125 -2.78125,5.85156 -3.71094,8.5625 l -11.69921,-4.56641 c 5.38671,-6.27734 8.17187,-10.69922 15.41015,-23.11328 l 12.25781,-20.83203 h -0.92968 c -6.8711,0.14062 -8.91407,0.28515 -12.8125,0.85547 v -7.99219 c 4.08593,0.57422 8.72656,0.85937 15.22656,0.85937 h 2.04297 l 27.85156,-47.51562 41.03906,71.34375 c 6.125,10.55859 12.9961,20.6875 17.45313,25.96875 l -11.69922,4.99219 -0.74219,-1.57032 c -3.52734,-8.41797 -4.82812,-11.1289 -13.37109,-26.2539 l -11.69531,-20.83203 h -43.07813" id="path86"/>
    <path style="fill:#ffffff;fill-opacity:1;fill-rule:nonzero;stroke:none" d="m 977.33203,158.19922 -18.19531,32.39062 h 36.39062 z m -21.53906,38.52734 -12.4375,22.11328 c -5.01563,8.98828 -5.38672,9.84766 -9.10156,17.97657 -2.04297,4.28515 -2.78516,5.85156 -3.71485,8.5625 l -11.69531,-4.56641 c 5.38281,-6.27734 8.16797,-10.69922 15.41016,-23.11328 l 12.25781,-20.83203 h -0.9336 c -6.86718,0.14453 -8.91015,0.28515 -12.80859,0.85547 v -7.99219 c 4.08594,0.57422 8.72656,0.85937 15.22266,0.85937 h 2.04297 l 27.85546,-47.51562 41.03908,71.34375 c 6.1211,10.55859 12.9922,20.6875 17.4492,25.96875 l -11.6992,4.99219 -0.7383,-1.56641 c -3.5312,-8.42188 -4.832,-11.13281 -13.3711,-26.25391 l -11.69921,-20.83203 h -43.07812" id="path88"/>
    <path style="fill:#ffffff;fill-opacity:1;fill-rule:nonzero;stroke:none" d="m 1079.6914,220.0625 c 0,9.98828 0.5586,16.83594 2.0391,23.11328 h -13 c 1.4883,-6.27734 2.2304,-13.125 2.2304,-23.11328 v -74.48438 l 96.3672,82.1875 v -56.5039 c 0,-9.98828 -0.5468,-16.98047 -2.039,-23.25781 h 13 c -1.4883,6.27734 -2.2305,13.26953 -2.2305,23.25781 v 74.33984 l -96.3672,-82.1875 v 56.64844" id="path90"/>
    <path style="fill:#ffffff;fill-opacity:1;fill-rule:nonzero;stroke:none" d="m 1271.0898,164.57031 c 5.5704,-4.13672 12.629,-9.41797 15.4102,-11.70312 2.4219,-2.14063 3.1602,-2.9961 4.6406,-4.99219 h 17.461 l -2.2305,1.28516 c -8.1719,4.5664 -15.6016,9.27343 -24.1406,15.55078 l -38.9922,28.2539 45.3008,33.24219 c 8.3593,5.99609 11.332,8.13672 16.9023,11.70313 4.0899,2.42578 5.9375,3.5664 9.4688,5.13671 h -19.5 c -1.6719,-2.28515 -2.9688,-3.57031 -5.9414,-6.13671 -4.0782,-3.28125 -9.4688,-7.41797 -13.3672,-10.41797 l -42.7032,-31.67578 v 25.11328 c 0,9.98828 0.5508,16.83984 2.043,23.11718 h -13 c 1.4883,-6.27734 2.2305,-13.1289 2.2305,-23.11718 v -48.79688 c 0,-9.98828 -0.7422,-16.98047 -2.2305,-23.25781 h 13 c -1.4922,6.27734 -2.043,13.26953 -2.043,23.25781 v 20.97266 l 37.6914,-27.53516" id="path92"/>
    <path style="fill:#ffffff;fill-opacity:1;fill-rule:nonzero;stroke:none" d="m 666.78516,119.72656 c 0,3.32422 0.28125,5.60157 0.77734,7.6875 h -4.88281 c 0.5664,-2.08593 0.77734,-4.36328 0.77734,-7.6875 V 97.804688 h -0.56641 c -3.75,0 -7.5039,0.234375 -10.19531,0.617187 v -2.660156 h 24.91797 v 2.660156 c -2.75781,-0.382812 -6.51172,-0.617187 -10.19141,-0.617187 h -0.63671 v 21.921872" id="path94"/>
    <path style="fill:#ffffff;fill-opacity:1;fill-rule:nonzero;stroke:none" d="m 720.91016,103.49609 c 0,-3.32031 -0.28125,-5.644527 -0.84766,-7.734371 h 4.95312 c -0.5664,2.089844 -0.77734,4.414061 -0.77734,7.734371 V 110 h 27.32031 v -6.50391 c 0,-3.32031 -0.21093,-5.644527 -0.77734,-7.734371 h 4.88281 c -0.5625,2.089844 -0.77734,4.414061 -0.77734,7.734371 v 16.23047 c 0,3.32422 0.21484,5.60157 0.77734,7.6875 h -4.88281 c 0.56641,-2.08593 0.77734,-4.36328 0.77734,-7.6875 v -7.6875 h -27.32031 v 7.6875 c 0,3.32422 0.21094,5.60157 0.77734,7.6875 h -4.95312 c 0.56641,-2.08593 0.84766,-4.36328 0.84766,-7.6875 v -7.6875 c -0.28125,0.0469 -0.28125,0.0469 -0.63672,0.0469 -1.69922,0 -2.76172,0.0977 -4.10547,0.28515 v -2.65625 c 1.34375,0.19141 2.40625,0.23829 4.10547,0.28516 0.35547,0 0.35547,0 0.63672,0 v -6.50391" id="path96"/>
    <path style="fill:#ffffff;fill-opacity:1;fill-rule:nonzero;stroke:none" d="m 804.13672,125.375 c 1.98047,0 5.09765,-0.0937 7.71875,-0.28516 1.76562,-0.0937 3.03906,-0.23828 4.3164,-0.47265 v 2.79687 H 791.75 c 0.56641,-2.08593 0.77734,-4.36328 0.77734,-7.6875 v -7.64062 c -0.21093,0 -0.21093,0 -0.5625,0 -1.69922,0.0508 -2.76562,0.0977 -4.10937,0.28515 v -2.65625 c 1.34375,0.19141 2.41015,0.23829 4.10937,0.28516 0.35157,0 0.35157,0 0.5625,0 v -6.50391 c 0,-3.32031 -0.21093,-5.644527 -0.77734,-7.734371 h 21.66016 V 98.5625 c -1.27344,-0.238281 -2.6211,-0.378906 -4.39063,-0.472656 -2.54687,-0.144531 -5.73437,-0.285156 -7.64062,-0.285156 h -5.52344 V 110 h 7.42969 c 1.34765,0 3.82421,-0.0469 5.66406,-0.19141 1.41797,-0.0469 2.19531,-0.14062 3.47265,-0.28515 v 3.03906 c -1.27734,-0.14062 -2.05468,-0.23828 -3.47265,-0.28516 -1.83985,-0.14062 -4.31641,-0.1914 -5.66406,-0.1914 h -7.42969 V 125.375 h 8.28125" id="path98"/>
    <path style="fill:#ffffff;fill-opacity:1;fill-rule:nonzero;stroke:none" d="m 662.75,158.95312 c -1.67188,4.13672 -4.08594,10.41407 -5.38672,14.69532 l -23.02344,72.05468 -43.82031,-85.03906 -43.63672,85.03906 -20.60937,-67.91796 c -3.52735,-11.41407 -7.24219,-21.11329 -11.14063,-28.10547 l 12.25391,-2.85547 c 0.55469,3.28125 0.92969,5.85156 2.04297,9.98828 1.30078,5.70703 3.15625,12.55469 5.38281,19.40625 l 14.48437,46.65625 41.03516,-80.1875 41.96484,80.90234 16.52735,-51.9375 c 1.30078,-3.71093 3.52734,-11.70312 4.82812,-15.69531 0.92578,-3.71094 1.30078,-5.99219 1.67188,-9.13281 l 12.2539,2.85547 c -2.04296,3.42187 -3.15625,5.70703 -4.82812,9.27343" id="path100"/>
    <path style="fill:#ffffff;fill-opacity:1;fill-rule:nonzero;stroke:none" d="m 738.3125,154.8125 c -3.52734,-1.71094 -5.94141,-2.42188 -10.02734,-2.42188 -10.76954,0 -18.75391,5.99219 -18.75391,13.69532 0,7.5625 3.71484,13.55468 15.78516,25.11328 14.11328,13.41015 19.3125,21.40234 19.3125,30.25 0,12.83984 -14.30079,23.11328 -31.94141,23.11328 -6.68359,0 -12.80859,-1.28516 -18.56641,-3.85156 l 5.01172,-6.5625 c 4.45703,2.85156 8.54297,4.13672 14.11328,4.13672 12.25391,0 22.65235,-7.5625 22.65235,-16.26563 0,-6.84766 -4.64063,-13.55469 -19.4961,-28.10937 -11.88281,-11.69922 -15.78125,-18.40625 -15.78125,-26.82422 0,-12.12891 10.95313,-20.54688 26.92188,-20.54688 2.97265,0 5.01562,0.28516 8.17187,1 l 2.59766,7.27344" id="path102"/>
  </g>
</svg>
